<svg xmlns="http://www.w3.org/2000/svg" width="640" height="270.0">
  <rect x="50" y="100" width="160" height="120.0" stroke="black" fill="none"/>
  <g>
    <svg xmlns:xlink="http://www.w3.org/1999/xlink" version="1.1" id="Layer_1" x="91.0" y="55" viewBox="0 0 450 450" style="enable-background:new 0 0 450 450;" xml:space="preserve" width="40" height="40">
<g id="XMLID_366_">
	<path id="XMLID_394_" style="fill:#F3F3F2;" d="M15,257.5c30,0,170-150,210-220c40,70,180,220,210,220H15z"/>
	<g id="XMLID_398_">
		<g id="XMLID_396_">
			<rect id="XMLID_397_" x="210" y="27.5" style="fill:#D9CCBC;" width="30" height="300"/>
		</g>
	</g>
	<polyline id="XMLID_401_" style="fill:#BFA993;" points="95,407.5 35,317.5 415,317.5 355,407.5  "/>
	<polygon id="XMLID_402_" style="fill:#B29A7E;" points="35,317.5 95,407.5 135,407.5 75,317.5  "/>
	<polygon id="XMLID_403_" style="fill:#D9CCBC;" points="375,317.5 315,407.5 355,407.5 415,317.5  "/>
	<polygon id="XMLID_1094_" style="fill:#BFA993;" points="225,317.5 225,27.5 210,27.5 210,317.5 75,317.5 135,407.5 315,407.5    375,317.5  "/>
	<path id="XMLID_405_" style="fill:#98C8ED;" d="M420,377.5c0,8.272-6.729,15-15,15s-15-6.728-15-15h-30c0,8.272-6.729,15-15,15   s-15-6.728-15-15h-30c0,8.272-6.729,15-15,15s-15-6.728-15-15h-30c0,8.272-6.729,15-15,15s-15-6.728-15-15h-30   c0,8.272-6.729,15-15,15s-15-6.728-15-15h-30c0,8.272-6.729,15-15,15s-15-6.728-15-15H60c0,8.272-6.729,15-15,15s-15-6.728-15-15H0   c0,24.814,20.187,45,45,45c11.517,0,22.032-4.353,30-11.495c7.968,7.142,18.483,11.495,30,11.495s22.032-4.353,30-11.495   c7.968,7.142,18.483,11.495,30,11.495s22.032-4.353,30-11.495c7.968,7.142,18.483,11.495,30,11.495s22.032-4.353,30-11.495   c7.968,7.142,18.483,11.495,30,11.495s22.032-4.353,30-11.495c7.968,7.142,18.483,11.495,30,11.495s22.032-4.353,30-11.495   c7.968,7.142,18.483,11.495,30,11.495c24.813,0,45-20.186,45-45H420z"/>
</g>
<g>
</g>
<g>
</g>
<g>
</g>
<g>
</g>
<g>
</g>
<g>
</g>
<g>
</g>
<g>
</g>
<g>
</g>
<g>
</g>
<g>
</g>
<g>
</g>
<g>
</g>
<g>
</g>
<g>
</g>
</svg>
    <text x="141.0" y="75.0" style="font-size: 15px;" dominant_baseline="middle" text_anchor="middle">boat</text>
  </g>
  <svg xmlns:xlink="http://www.w3.org/1999/xlink" width="30" height="30" viewBox="0 0 36 36" aria-hidden="true" role="img" class="iconify iconify--twemoji" preserveAspectRatio="xMidYMid meet" x="70.0" y="120.0">
    <path fill="#963B22" d="M23.111 2.081c-2.638-.853-8.844-.621-10.395 1.396c-4.034.078-8.766 3.724-9.387 8.534c-.614 4.76.754 6.971 1.241 10.551c.552 4.056 2.832 5.353 4.655 5.896c2.623 3.465 5.411 3.317 10.092 3.317c9.141 0 13.495-6.116 13.88-16.505c.232-6.284-3.454-11.043-10.086-13.189z"/>
    <path fill="#D4AB88" d="M28.339 15.713c-.884-1.225-2.017-2.211-4.499-2.56c.931.427 1.823 1.901 1.939 2.715c.116.815.233 1.474-.504.659c-2.952-3.263-6.167-1.978-9.354-3.972c-2.226-1.392-2.903-2.933-2.903-2.933s-.272 2.056-3.646 4.15c-.978.607-2.145 1.959-2.793 3.956c-.465 1.435-.321 2.715-.321 4.903c0 6.385 5.262 11.753 11.753 11.753s11.753-5.415 11.753-11.753c0-3.97-.416-5.521-1.425-6.918z"/>
    <path fill="#C1694F" d="M18 31c-2.347 0-3.575-1.16-3.707-1.293a.999.999 0 0 1 1.404-1.424c.051.047.806.717 2.303.717c1.519 0 2.273-.69 2.305-.719a1.008 1.008 0 0 1 1.408.029a.994.994 0 0 1-.006 1.397C21.575 29.84 20.347 31 18 31zm1-5h-2a1 1 0 1 1 0-2h2a1 1 0 1 1 0 2z"/>
    <path fill="#662113" d="M13 22a1 1 0 0 1-1-1v-2a1 1 0 0 1 2 0v2a1 1 0 0 1-1 1zm10 0a1 1 0 0 1-1-1v-2a1 1 0 1 1 2 0v2a1 1 0 0 1-1 1z"/>
  </svg>
  <svg xmlns:xlink="http://www.w3.org/1999/xlink" width="30" height="30" viewBox="0 0 36 36" aria-hidden="true" role="img" class="iconify iconify--twemoji" preserveAspectRatio="xMidYMid meet" x="110.0" y="120.0">
    <path fill="#963B22" d="M23.111 2.081c-2.638-.853-8.844-.621-10.395 1.396c-4.034.078-8.766 3.724-9.387 8.534c-.614 4.76.754 6.971 1.241 10.551c.552 4.056 2.832 5.353 4.655 5.896c2.623 3.465 5.411 3.317 10.092 3.317c9.141 0 13.495-6.116 13.88-16.505c.232-6.284-3.454-11.043-10.086-13.189z"/>
    <path fill="#D4AB88" d="M28.339 15.713c-.884-1.225-2.017-2.211-4.499-2.56c.931.427 1.823 1.901 1.939 2.715c.116.815.233 1.474-.504.659c-2.952-3.263-6.167-1.978-9.354-3.972c-2.226-1.392-2.903-2.933-2.903-2.933s-.272 2.056-3.646 4.15c-.978.607-2.145 1.959-2.793 3.956c-.465 1.435-.321 2.715-.321 4.903c0 6.385 5.262 11.753 11.753 11.753s11.753-5.415 11.753-11.753c0-3.97-.416-5.521-1.425-6.918z"/>
    <path fill="#C1694F" d="M18 31c-2.347 0-3.575-1.16-3.707-1.293a.999.999 0 0 1 1.404-1.424c.051.047.806.717 2.303.717c1.519 0 2.273-.69 2.305-.719a1.008 1.008 0 0 1 1.408.029a.994.994 0 0 1-.006 1.397C21.575 29.84 20.347 31 18 31zm1-5h-2a1 1 0 1 1 0-2h2a1 1 0 1 1 0 2z"/>
    <path fill="#662113" d="M13 22a1 1 0 0 1-1-1v-2a1 1 0 0 1 2 0v2a1 1 0 0 1-1 1zm10 0a1 1 0 0 1-1-1v-2a1 1 0 1 1 2 0v2a1 1 0 0 1-1 1z"/>
  </svg>
  <svg xmlns:xlink="http://www.w3.org/1999/xlink" width="30" height="30" viewBox="0 0 36 36" aria-hidden="true" role="img" class="iconify iconify--twemoji" preserveAspectRatio="xMidYMid meet" x="150.0" y="120.0">
    <path fill="#963B22" d="M23.111 2.081c-2.638-.853-8.844-.621-10.395 1.396c-4.034.078-8.766 3.724-9.387 8.534c-.614 4.76.754 6.971 1.241 10.551c.552 4.056 2.832 5.353 4.655 5.896c2.623 3.465 5.411 3.317 10.092 3.317c9.141 0 13.495-6.116 13.88-16.505c.232-6.284-3.454-11.043-10.086-13.189z"/>
    <path fill="#D4AB88" d="M28.339 15.713c-.884-1.225-2.017-2.211-4.499-2.56c.931.427 1.823 1.901 1.939 2.715c.116.815.233 1.474-.504.659c-2.952-3.263-6.167-1.978-9.354-3.972c-2.226-1.392-2.903-2.933-2.903-2.933s-.272 2.056-3.646 4.15c-.978.607-2.145 1.959-2.793 3.956c-.465 1.435-.321 2.715-.321 4.903c0 6.385 5.262 11.753 11.753 11.753s11.753-5.415 11.753-11.753c0-3.97-.416-5.521-1.425-6.918z"/>
    <path fill="#C1694F" d="M18 31c-2.347 0-3.575-1.16-3.707-1.293a.999.999 0 0 1 1.404-1.424c.051.047.806.717 2.303.717c1.519 0 2.273-.69 2.305-.719a1.008 1.008 0 0 1 1.408.029a.994.994 0 0 1-.006 1.397C21.575 29.84 20.347 31 18 31zm1-5h-2a1 1 0 1 1 0-2h2a1 1 0 1 1 0 2z"/>
    <path fill="#662113" d="M13 22a1 1 0 0 1-1-1v-2a1 1 0 0 1 2 0v2a1 1 0 0 1-1 1zm10 0a1 1 0 0 1-1-1v-2a1 1 0 1 1 2 0v2a1 1 0 0 1-1 1z"/>
  </svg>
  <rect x="280" y="100" width="160" height="120.0" stroke="black" fill="none"/>
  <g>
    <svg xmlns:xlink="http://www.w3.org/1999/xlink" height="40" width="40" version="1.1" id="Layer_1" viewBox="0 0 512 512" xml:space="preserve" x="321.0" y="55">
<path style="fill:#34D8C7;" d="M508.692,214.85C489.006,93.033,383.376,0,256,0C114.615,0,0,114.616,0,256  c0,22.461,2.903,44.241,8.336,64.998L508.692,214.85z"/>
<path style="fill:#0DC2AF;" d="M508.692,214.85L372.868,79.026v233.737L139.132,79.026v241.975h364.543  C509.107,300.245,512,278.46,512,256C512,241.99,510.857,228.248,508.692,214.85z"/>
<polyline style="fill:#059866;" points="150.264,332.129 139.132,101.287 66.934,212.589 8.336,320.998 "/>
<g>
	<polygon style="fill:#02432C;" points="269.927,320.998 211.328,212.589 139.132,101.287 139.132,332.129  "/>
	<polygon style="fill:#02432C;" points="383.998,332.129 372.868,101.287 300.672,212.589 242.072,320.998  "/>
</g>
<polygon style="fill:#011911;" points="503.664,320.998 445.063,212.589 372.868,101.287 372.868,332.129 "/>
<path style="fill:#EDD4B8;" d="M211.478,66.783c0,24.588,19.933,44.522,44.522,44.522l11.13-44.522L256,22.261  C231.412,22.261,211.478,42.194,211.478,66.783z"/>
<path style="fill:#ED9433;" d="M256,22.261v89.043c24.588,0,44.522-19.933,44.522-44.522S280.588,22.261,256,22.261z"/>
<polygon style="fill:#FFFFFF;" points="66.934,212.591 103.031,234.852 139.127,212.591 150.26,145.809 139.132,79.026 "/>
<polygon style="fill:#98F0E7;" points="139.132,79.026 139.127,212.591 175.229,234.852 211.329,212.591 "/>
<polygon style="fill:#FFFFFF;" points="300.671,212.591 336.768,234.852 372.864,212.591 383.997,145.809 372.868,79.026 "/>
<polygon style="fill:#5CEDDE;" points="372.868,79.026 372.864,212.591 408.966,234.852 445.066,212.591 "/>
<path style="fill:#046E4A;" d="M256,320.998L233.739,425.06c0.006-0.009,251.814-55.652,251.814-55.652  c7.589-15.332,13.693-31.529,18.111-48.41H256z"/>
<path style="fill:#0DC2AF;" d="M458.351,345.043c-11.433,17.911-29.832,29.603-50.609,29.603c-20.76,0-39.108-11.691-50.558-29.603  c-11.467,17.911-29.832,29.603-50.592,29.603c-20.777,0-39.125-11.691-50.574-29.603L256,345.11v-24.112H8.336  c4.419,16.883,10.524,33.082,18.114,48.415L256.009,512c100.655-0.003,187.724-58.106,229.544-142.592  C474.633,364.338,465.233,355.827,458.351,345.043z"/>
<path style="fill:#5CEDDE;" d="M205.426,374.646c-20.76,0-39.126-11.691-50.574-29.603c-11.467,17.911-29.832,29.603-50.591,29.603  c-20.762,0-39.126-11.691-50.574-29.603c-6.885,10.785-16.299,19.3-27.234,24.37C68.272,453.899,155.344,512,256,512  c0.003,0,0.017-166.957,0.017-166.957C244.585,362.955,226.186,374.646,205.426,374.646z"/>
</svg>
    <text x="371.0" y="75.0" style="font-size: 15px;" dominant_baseline="middle" text_anchor="middle">lake</text>
  </g>
  <svg xmlns:xlink="http://www.w3.org/1999/xlink" version="1.1" id="Layer_1" x="300.0" y="120.0" viewBox="0 0 450 450" style="enable-background:new 0 0 450 450;" xml:space="preserve" width="30" height="30">
<g id="XMLID_366_">
	<path id="XMLID_394_" style="fill:#F3F3F2;" d="M15,257.5c30,0,170-150,210-220c40,70,180,220,210,220H15z"/>
	<g id="XMLID_398_">
		<g id="XMLID_396_">
			<rect id="XMLID_397_" x="210" y="27.5" style="fill:#D9CCBC;" width="30" height="300"/>
		</g>
	</g>
	<polyline id="XMLID_401_" style="fill:#BFA993;" points="95,407.5 35,317.5 415,317.5 355,407.5  "/>
	<polygon id="XMLID_402_" style="fill:#B29A7E;" points="35,317.5 95,407.5 135,407.5 75,317.5  "/>
	<polygon id="XMLID_403_" style="fill:#D9CCBC;" points="375,317.5 315,407.5 355,407.5 415,317.5  "/>
	<polygon id="XMLID_1094_" style="fill:#BFA993;" points="225,317.5 225,27.5 210,27.5 210,317.5 75,317.5 135,407.5 315,407.5    375,317.5  "/>
	<path id="XMLID_405_" style="fill:#98C8ED;" d="M420,377.5c0,8.272-6.729,15-15,15s-15-6.728-15-15h-30c0,8.272-6.729,15-15,15   s-15-6.728-15-15h-30c0,8.272-6.729,15-15,15s-15-6.728-15-15h-30c0,8.272-6.729,15-15,15s-15-6.728-15-15h-30   c0,8.272-6.729,15-15,15s-15-6.728-15-15h-30c0,8.272-6.729,15-15,15s-15-6.728-15-15H60c0,8.272-6.729,15-15,15s-15-6.728-15-15H0   c0,24.814,20.187,45,45,45c11.517,0,22.032-4.353,30-11.495c7.968,7.142,18.483,11.495,30,11.495s22.032-4.353,30-11.495   c7.968,7.142,18.483,11.495,30,11.495s22.032-4.353,30-11.495c7.968,7.142,18.483,11.495,30,11.495s22.032-4.353,30-11.495   c7.968,7.142,18.483,11.495,30,11.495s22.032-4.353,30-11.495c7.968,7.142,18.483,11.495,30,11.495s22.032-4.353,30-11.495   c7.968,7.142,18.483,11.495,30,11.495c24.813,0,45-20.186,45-45H420z"/>
</g>
<g>
</g>
<g>
</g>
<g>
</g>
<g>
</g>
<g>
</g>
<g>
</g>
<g>
</g>
<g>
</g>
<g>
</g>
<g>
</g>
<g>
</g>
<g>
</g>
<g>
</g>
<g>
</g>
<g>
</g>
</svg>
  <svg xmlns:xlink="http://www.w3.org/1999/xlink" version="1.1" id="Layer_1" x="340.0" y="120.0" viewBox="0 0 450 450" style="enable-background:new 0 0 450 450;" xml:space="preserve" width="30" height="30">
<g id="XMLID_366_">
	<path id="XMLID_394_" style="fill:#F3F3F2;" d="M15,257.5c30,0,170-150,210-220c40,70,180,220,210,220H15z"/>
	<g id="XMLID_398_">
		<g id="XMLID_396_">
			<rect id="XMLID_397_" x="210" y="27.5" style="fill:#D9CCBC;" width="30" height="300"/>
		</g>
	</g>
	<polyline id="XMLID_401_" style="fill:#BFA993;" points="95,407.5 35,317.5 415,317.5 355,407.5  "/>
	<polygon id="XMLID_402_" style="fill:#B29A7E;" points="35,317.5 95,407.5 135,407.5 75,317.5  "/>
	<polygon id="XMLID_403_" style="fill:#D9CCBC;" points="375,317.5 315,407.5 355,407.5 415,317.5  "/>
	<polygon id="XMLID_1094_" style="fill:#BFA993;" points="225,317.5 225,27.5 210,27.5 210,317.5 75,317.5 135,407.5 315,407.5    375,317.5  "/>
	<path id="XMLID_405_" style="fill:#98C8ED;" d="M420,377.5c0,8.272-6.729,15-15,15s-15-6.728-15-15h-30c0,8.272-6.729,15-15,15   s-15-6.728-15-15h-30c0,8.272-6.729,15-15,15s-15-6.728-15-15h-30c0,8.272-6.729,15-15,15s-15-6.728-15-15h-30   c0,8.272-6.729,15-15,15s-15-6.728-15-15h-30c0,8.272-6.729,15-15,15s-15-6.728-15-15H60c0,8.272-6.729,15-15,15s-15-6.728-15-15H0   c0,24.814,20.187,45,45,45c11.517,0,22.032-4.353,30-11.495c7.968,7.142,18.483,11.495,30,11.495s22.032-4.353,30-11.495   c7.968,7.142,18.483,11.495,30,11.495s22.032-4.353,30-11.495c7.968,7.142,18.483,11.495,30,11.495s22.032-4.353,30-11.495   c7.968,7.142,18.483,11.495,30,11.495s22.032-4.353,30-11.495c7.968,7.142,18.483,11.495,30,11.495s22.032-4.353,30-11.495   c7.968,7.142,18.483,11.495,30,11.495c24.813,0,45-20.186,45-45H420z"/>
</g>
<g>
</g>
<g>
</g>
<g>
</g>
<g>
</g>
<g>
</g>
<g>
</g>
<g>
</g>
<g>
</g>
<g>
</g>
<g>
</g>
<g>
</g>
<g>
</g>
<g>
</g>
<g>
</g>
<g>
</g>
</svg>
  <svg xmlns:xlink="http://www.w3.org/1999/xlink" version="1.1" id="Layer_1" x="380.0" y="120.0" viewBox="0 0 450 450" style="enable-background:new 0 0 450 450;" xml:space="preserve" width="30" height="30">
<g id="XMLID_366_">
	<path id="XMLID_394_" style="fill:#F3F3F2;" d="M15,257.5c30,0,170-150,210-220c40,70,180,220,210,220H15z"/>
	<g id="XMLID_398_">
		<g id="XMLID_396_">
			<rect id="XMLID_397_" x="210" y="27.5" style="fill:#D9CCBC;" width="30" height="300"/>
		</g>
	</g>
	<polyline id="XMLID_401_" style="fill:#BFA993;" points="95,407.5 35,317.5 415,317.5 355,407.5  "/>
	<polygon id="XMLID_402_" style="fill:#B29A7E;" points="35,317.5 95,407.5 135,407.5 75,317.5  "/>
	<polygon id="XMLID_403_" style="fill:#D9CCBC;" points="375,317.5 315,407.5 355,407.5 415,317.5  "/>
	<polygon id="XMLID_1094_" style="fill:#BFA993;" points="225,317.5 225,27.5 210,27.5 210,317.5 75,317.5 135,407.5 315,407.5    375,317.5  "/>
	<path id="XMLID_405_" style="fill:#98C8ED;" d="M420,377.5c0,8.272-6.729,15-15,15s-15-6.728-15-15h-30c0,8.272-6.729,15-15,15   s-15-6.728-15-15h-30c0,8.272-6.729,15-15,15s-15-6.728-15-15h-30c0,8.272-6.729,15-15,15s-15-6.728-15-15h-30   c0,8.272-6.729,15-15,15s-15-6.728-15-15h-30c0,8.272-6.729,15-15,15s-15-6.728-15-15H60c0,8.272-6.729,15-15,15s-15-6.728-15-15H0   c0,24.814,20.187,45,45,45c11.517,0,22.032-4.353,30-11.495c7.968,7.142,18.483,11.495,30,11.495s22.032-4.353,30-11.495   c7.968,7.142,18.483,11.495,30,11.495s22.032-4.353,30-11.495c7.968,7.142,18.483,11.495,30,11.495s22.032-4.353,30-11.495   c7.968,7.142,18.483,11.495,30,11.495s22.032-4.353,30-11.495c7.968,7.142,18.483,11.495,30,11.495s22.032-4.353,30-11.495   c7.968,7.142,18.483,11.495,30,11.495c24.813,0,45-20.186,45-45H420z"/>
</g>
<g>
</g>
<g>
</g>
<g>
</g>
<g>
</g>
<g>
</g>
<g>
</g>
<g>
</g>
<g>
</g>
<g>
</g>
<g>
</g>
<g>
</g>
<g>
</g>
<g>
</g>
<g>
</g>
<g>
</g>
</svg>
  <svg xmlns:xlink="http://www.w3.org/1999/xlink" version="1.1" id="Layer_1" x="300.0" y="160.0" viewBox="0 0 450 450" style="enable-background:new 0 0 450 450;" xml:space="preserve" width="30" height="30">
<g id="XMLID_366_">
	<path id="XMLID_394_" style="fill:#F3F3F2;" d="M15,257.5c30,0,170-150,210-220c40,70,180,220,210,220H15z"/>
	<g id="XMLID_398_">
		<g id="XMLID_396_">
			<rect id="XMLID_397_" x="210" y="27.5" style="fill:#D9CCBC;" width="30" height="300"/>
		</g>
	</g>
	<polyline id="XMLID_401_" style="fill:#BFA993;" points="95,407.5 35,317.5 415,317.5 355,407.5  "/>
	<polygon id="XMLID_402_" style="fill:#B29A7E;" points="35,317.5 95,407.5 135,407.5 75,317.5  "/>
	<polygon id="XMLID_403_" style="fill:#D9CCBC;" points="375,317.5 315,407.5 355,407.5 415,317.5  "/>
	<polygon id="XMLID_1094_" style="fill:#BFA993;" points="225,317.5 225,27.5 210,27.5 210,317.5 75,317.5 135,407.5 315,407.5    375,317.5  "/>
	<path id="XMLID_405_" style="fill:#98C8ED;" d="M420,377.5c0,8.272-6.729,15-15,15s-15-6.728-15-15h-30c0,8.272-6.729,15-15,15   s-15-6.728-15-15h-30c0,8.272-6.729,15-15,15s-15-6.728-15-15h-30c0,8.272-6.729,15-15,15s-15-6.728-15-15h-30   c0,8.272-6.729,15-15,15s-15-6.728-15-15h-30c0,8.272-6.729,15-15,15s-15-6.728-15-15H60c0,8.272-6.729,15-15,15s-15-6.728-15-15H0   c0,24.814,20.187,45,45,45c11.517,0,22.032-4.353,30-11.495c7.968,7.142,18.483,11.495,30,11.495s22.032-4.353,30-11.495   c7.968,7.142,18.483,11.495,30,11.495s22.032-4.353,30-11.495c7.968,7.142,18.483,11.495,30,11.495s22.032-4.353,30-11.495   c7.968,7.142,18.483,11.495,30,11.495s22.032-4.353,30-11.495c7.968,7.142,18.483,11.495,30,11.495s22.032-4.353,30-11.495   c7.968,7.142,18.483,11.495,30,11.495c24.813,0,45-20.186,45-45H420z"/>
</g>
<g>
</g>
<g>
</g>
<g>
</g>
<g>
</g>
<g>
</g>
<g>
</g>
<g>
</g>
<g>
</g>
<g>
</g>
<g>
</g>
<g>
</g>
<g>
</g>
<g>
</g>
<g>
</g>
<g>
</g>
</svg>
  <svg xmlns:xlink="http://www.w3.org/1999/xlink" version="1.1" id="Layer_1" x="340.0" y="160.0" viewBox="0 0 450 450" style="enable-background:new 0 0 450 450;" xml:space="preserve" width="30" height="30">
<g id="XMLID_366_">
	<path id="XMLID_394_" style="fill:#F3F3F2;" d="M15,257.5c30,0,170-150,210-220c40,70,180,220,210,220H15z"/>
	<g id="XMLID_398_">
		<g id="XMLID_396_">
			<rect id="XMLID_397_" x="210" y="27.5" style="fill:#D9CCBC;" width="30" height="300"/>
		</g>
	</g>
	<polyline id="XMLID_401_" style="fill:#BFA993;" points="95,407.5 35,317.5 415,317.5 355,407.5  "/>
	<polygon id="XMLID_402_" style="fill:#B29A7E;" points="35,317.5 95,407.5 135,407.5 75,317.5  "/>
	<polygon id="XMLID_403_" style="fill:#D9CCBC;" points="375,317.5 315,407.5 355,407.5 415,317.5  "/>
	<polygon id="XMLID_1094_" style="fill:#BFA993;" points="225,317.5 225,27.5 210,27.5 210,317.5 75,317.5 135,407.5 315,407.5    375,317.5  "/>
	<path id="XMLID_405_" style="fill:#98C8ED;" d="M420,377.5c0,8.272-6.729,15-15,15s-15-6.728-15-15h-30c0,8.272-6.729,15-15,15   s-15-6.728-15-15h-30c0,8.272-6.729,15-15,15s-15-6.728-15-15h-30c0,8.272-6.729,15-15,15s-15-6.728-15-15h-30   c0,8.272-6.729,15-15,15s-15-6.728-15-15h-30c0,8.272-6.729,15-15,15s-15-6.728-15-15H60c0,8.272-6.729,15-15,15s-15-6.728-15-15H0   c0,24.814,20.187,45,45,45c11.517,0,22.032-4.353,30-11.495c7.968,7.142,18.483,11.495,30,11.495s22.032-4.353,30-11.495   c7.968,7.142,18.483,11.495,30,11.495s22.032-4.353,30-11.495c7.968,7.142,18.483,11.495,30,11.495s22.032-4.353,30-11.495   c7.968,7.142,18.483,11.495,30,11.495s22.032-4.353,30-11.495c7.968,7.142,18.483,11.495,30,11.495s22.032-4.353,30-11.495   c7.968,7.142,18.483,11.495,30,11.495c24.813,0,45-20.186,45-45H420z"/>
</g>
<g>
</g>
<g>
</g>
<g>
</g>
<g>
</g>
<g>
</g>
<g>
</g>
<g>
</g>
<g>
</g>
<g>
</g>
<g>
</g>
<g>
</g>
<g>
</g>
<g>
</g>
<g>
</g>
<g>
</g>
</svg>
  <svg xmlns:xlink="http://www.w3.org/1999/xlink" height="30" width="30" version="1.1" id="Layer_1" viewBox="0 0 378.302 378.302" xml:space="preserve" x="230" y="145.0">
<polygon style="fill:#2488FF;" points="378.302,28.284 350.017,0 189.151,160.867 28.284,0 0,28.284 160.866,189.151 0,350.018   28.284,378.302 189.151,217.436 350.017,378.302 378.302,350.018 217.435,189.151 "/>
</svg>
  <svg fill="#2388ff" width="30" height="30" viewBox="0 0 256 256" id="Flat" x="480" y="145.0">

<g id="SVGRepo_bgCarrier" stroke-width="0"/>

<g id="SVGRepo_tracerCarrier" stroke-linecap="round" stroke-linejoin="round"/>

<g id="SVGRepo_iconCarrier"> <path d="M224,160a8.00008,8.00008,0,0,1-8,8H40a8,8,0,0,1,0-16H216A8.00008,8.00008,0,0,1,224,160ZM40,104H216a8,8,0,0,0,0-16H40a8,8,0,0,0,0,16Z"/> </g>

</svg>
  <svg xmlns:xlink="http://www.w3.org/1999/xlink" xmlns:serif="http://www.serif.com/" fill="#2388ff" width="60" height="60" viewBox="0 0 64 64" version="1.1" xml:space="preserve" style="fill-rule:evenodd;clip-rule:evenodd;stroke-linejoin:round;stroke-miterlimit:2;" stroke="#2388ff" x="530" y="130.0">

<g id="SVGRepo_bgCarrier" stroke-width="0"/>

<g id="SVGRepo_tracerCarrier" stroke-linecap="round" stroke-linejoin="round"/>

<g id="SVGRepo_iconCarrier"> <rect id="Icons" x="-640" y="-192" width="1280" height="800" style="fill:none;"/> <g id="Icons1" serif:id="Icons"> <g id="Strike"> </g> <g id="H1"> </g> <g id="H2"> </g> <g id="H3"> </g> <g id="list-ul"> </g> <g id="hamburger-1"> </g> <g id="hamburger-2"> </g> <g id="list-ol"> </g> <g id="list-task"> </g> <g id="trash"> </g> <g id="vertical-menu"> </g> <g id="horizontal-menu"> </g> <g id="sidebar-2"> </g> <g id="Pen"> </g> <g id="Pen1" serif:id="Pen"> </g> <g id="clock"> </g> <g id="external-link"> </g> <g id="hr"> </g> <g id="info"> </g> <g id="warning"> </g> <g id="plus-circle"> </g> <g id="minus-circle"> </g> <g id="vue"> </g> <g id="cog"> </g> <g id="logo"> </g> <path id="question" d="M27.952,42.387c0.043,-2.56 0.333,-4.583 0.871,-6.068c0.538,-1.485 1.636,-3.131 3.293,-4.939l4.229,-4.358c1.807,-2.044 2.711,-4.239 2.711,-6.585c0,-2.259 -0.592,-4.029 -1.775,-5.31c-1.184,-1.28 -2.905,-1.92 -5.165,-1.92c-2.195,0 -3.96,0.581 -5.294,1.743c-1.334,1.162 -2.001,2.722 -2.001,4.68l-5.972,0c0.043,-3.486 1.286,-6.3 3.728,-8.441c2.443,-2.141 5.622,-3.212 9.539,-3.212c4.067,0 7.236,1.092 9.506,3.277c2.271,2.184 3.406,5.181 3.406,8.99c0,3.765 -1.743,7.478 -5.229,11.136l-3.519,3.486c-1.571,1.743 -2.356,4.25 -2.356,7.521l-5.972,0Zm-0.258,10.233c0,-0.968 0.296,-1.781 0.887,-2.437c0.592,-0.656 1.469,-0.985 2.631,-0.985c1.162,0 2.045,0.329 2.647,0.985c0.603,0.656 0.904,1.469 0.904,2.437c0,0.969 -0.301,1.77 -0.904,2.405c-0.602,0.635 -1.485,0.952 -2.647,0.952c-1.162,0 -2.039,-0.317 -2.631,-0.952c-0.591,-0.635 -0.887,-1.436 -0.887,-2.405Z" style="fill-rule:nonzero;"/> <g id="radio-check"> </g> <g id="eye-slash"> </g> <g id="eye"> </g> <g id="toggle-off"> </g> <g id="shredder"> </g> <g id="spinner--loading--dots-" serif:id="spinner [loading, dots]"> </g> <g id="react"> </g> <g id="check-selected"> </g> <g id="turn-off"> </g> <g id="code-block"> </g> <g id="user"> </g> <g id="coffee-bean"> </g> <g id="coffee-beans"> <g id="coffee-bean1" serif:id="coffee-bean"> </g> </g> <g id="coffee-bean-filled"> </g> <g id="coffee-beans-filled"> <g id="coffee-bean2" serif:id="coffee-bean"> </g> </g> <g id="clipboard"> </g> <g id="clipboard-paste"> </g> <g id="clipboard-copy"> </g> <g id="Layer1"> </g> </g> </g>

</svg>
</svg>
