<svg xmlns="http://www.w3.org/2000/svg" width="1100" height="270.0">
  <rect x="50" y="100" width="160" height="120.0" stroke="black" fill="none"/>
  <text x="30" y="173.0" style="font-size: 60px;" text_anchor="middle" dominant_baseline="middle">(</text>
  <g>
    <svg xmlns:xlink="http://www.w3.org/1999/xlink" t="1737039249951" class="icon" viewBox="0 0 1024 1024" version="1.1" p-id="5524" width="40" height="40" x="73.5" y="55">
      <path d="M376 64v208h272v80H376v208h576V64z" fill="#FFC252" p-id="5525"/>
      <path d="M1016 688H376v-32h608V32H376V0h640z" fill="#34303D" p-id="5526"/>
      <path d="M376 592h576v32H376z m240-128h32v32h-32z m64 0h32v32h-32z m64 0h32v32h-32z m-48 416c-44.112 0-80-35.888-80-80s35.888-80 80-80 80 35.888 80 80-35.888 80-80 80z m0-128c-26.464 0-48 21.536-48 48s21.536 48 48 48 48-21.536 48-48-21.536-48-48-48z m128 272h-32v-48c0-8.544-3.328-16.576-9.376-22.624S768.544 944 760 944H632c-8.544 0-16.576 3.328-22.624 9.376S600 967.456 600 976v48h-32v-48c0-17.088 6.656-33.152 18.752-45.248S614.912 912 632 912h128c17.088 0 33.152 6.656 45.248 18.752S824 958.912 824 976v48zM504 880c-44.112 0-80-35.888-80-80s35.888-80 80-80 80 35.888 80 80-35.888 80-80 80z m0-128c-26.464 0-48 21.536-48 48s21.536 48 48 48 48-21.536 48-48-21.536-48-48-48z m-96 272h-32v-48c0-17.088 6.656-33.152 18.752-45.248C406.832 918.656 422.912 912 440 912h96v32h-96c-8.544 0-16.576 3.328-22.624 9.376S408 967.456 408 976v48z m480-144c-44.112 0-80-35.888-80-80s35.888-80 80-80 80 35.888 80 80-35.888 80-80 80z m0-128c-26.464 0-48 21.536-48 48s21.536 48 48 48 48-21.536 48-48-21.536-48-48-48z m128 272h-32v-48c0-8.544-3.328-16.576-9.376-22.624S960.544 944 952 944h-96v-32h96c17.088 0 33.152 6.656 45.248 18.752S1016 958.912 1016 976v48z" fill="#34303D" p-id="5527"/>
      <path d="M280 272c0 35.344-28.656 64-64 64s-64-28.656-64-64h-32c-24.56 0-49.136 9.376-67.872 28.128C33.376 318.864 24 343.44 24 368v224h80v96h224V352h240v-80H280z" fill="#57DCF2" p-id="5528"/>
      <path d="M216 224c-61.76 0-112-50.24-112-112S154.24 0 216 0s112 50.24 112 112-50.24 112-112 112z m0-192c-44.112 0-80 35.888-80 80s35.888 80 80 80 80-35.888 80-80-35.888-80-80-80zM88 592h32v432H88z m112 128h32v304h-32z" fill="#34303D" p-id="5529"/>
      <path d="M344 1024h-32V336h320v-48H120c-21.36 0-41.456 8.32-56.56 23.44C48.32 326.544 40 346.64 40 368v288h64v32H8V368c0-29.92 11.664-58.032 32.816-79.184S90.08 256 120 256h544v112H344v656z" fill="#34303D" p-id="5530"/>
      <path d="M200 384h32v32h-32z m0 64h32v32h-32z" fill="#34303D" p-id="5531"/>
    </svg>
    <text x="123.5" y="75.0" style="font-size: 15px;" dominant_baseline="middle" text_anchor="middle">classroom</text>
  </g>
  <svg xmlns:xlink="http://www.w3.org/1999/xlink" version="1.1" id="Layer_1" x="70.0" y="120.0" viewBox="0 0 512 512" style="enable-background:new 0 0 512 512;" xml:space="preserve" width="30" height="30">
<path style="fill:#00BEA5;" d="M300.051,326.987v30.759c0,7.867,5.216,14.781,12.779,16.942l73.081,20.88  c22.892,6.54,39.975,25.675,43.89,49.159l7.793,46.754c1.79,10.741-6.492,20.517-17.38,20.517H91.787  c-10.888,0-19.171-9.777-17.38-20.517l7.793-46.754c3.914-23.485,20.997-42.619,43.89-49.159l73.081-20.88  c7.565-2.162,12.779-9.076,12.779-16.942v-30.759H300.051z"/>
<path style="fill:#B48764;" d="M256.001,441.519c37.232,0,68.291-26.398,75.503-61.495l-18.673-5.335  c-7.565-2.161-12.779-9.076-12.779-16.942v-30.759H211.95v30.759c0,7.867-5.216,14.781-12.779,16.942l-18.673,5.335  C187.709,415.122,218.769,441.519,256.001,441.519z"/>
<path style="fill:#966D50;" d="M300.051,335.798l-24.228-8.81H211.95v30.759c0,7.867-5.216,14.781-12.779,16.942l-18.673,5.335  v0.001C254.767,415.443,300.051,335.798,300.051,335.798z"/>
<path style="fill:#553732;" d="M379.343,36.253c2.203-15.418,18.722-7.342,18.722-7.342c-11.013-57.266-125.911-8.076-125.911-8.076  l10.646-11.013c-53.503-30.147-120.405,18.722-120.405,18.722c-20.924-6.608-73.785,13.95-73.785,64.24  c0,51.393,26.43,128.482,26.43,128.482h290.734c0,0,8.81-96.912,8.81-132.152S379.343,36.253,379.343,36.253z"/>
<path style="fill:#64463C;" d="M398.064,28.911c-36.342-45.519-104.07,10.646-104.07,10.646  c35.241,2.753,31.386,44.601,31.386,44.601c-7.709-12.665-19.272-10.462-19.272-10.462c-1.652,40.196-28.633,79.291-43.133,86.266  l0.735,61.304h142.063c0,0,8.81-96.912,8.81-132.152s-35.241-52.861-35.241-52.861C381.545,20.835,398.064,28.911,398.064,28.911z"/>
<path style="fill:#C39772;" d="M388.153,203.646v-79.291H123.849v79.291c-9.731,0-17.62,7.888-17.62,17.62v17.62  c0,9.731,7.889,17.62,17.62,17.62c0.486,0,0.942-0.105,1.417-0.143c5.272,29.593,25.39,54.917,53.963,66.346l44.051,17.62  c21.004,8.402,44.436,8.402,65.441,0l44.051-17.62c28.575-11.429,48.693-36.753,53.963-66.346c0.476,0.039,0.932,0.143,1.417,0.143  c9.731,0,17.62-7.889,17.62-17.62v-17.62C405.773,211.534,397.884,203.646,388.153,203.646z"/>
<path style="fill:#B48764;" d="M352.912,124.354H123.849v79.291c-9.731,0-17.62,7.888-17.62,17.62v17.62  c0,9.731,7.889,17.62,17.62,17.62c0.486,0,0.942-0.105,1.417-0.143c5.272,29.593,25.39,54.917,53.963,66.346l44.051,17.62  c9.943,3.978,20.432,6.006,30.948,6.218c-29.898-13.268-52.048-34.709-66.423-52.23c-12.912-15.74-19.907-35.449-19.907-55.808  v-64.659c0-9.137,6.981-16.876,16.094-17.533c14.479-1.044,27.869-5.533,36.767-5.533c26.43,0,61.671-8.81,114.532,8.81  c34.461,11.487,44.051-8.81,44.051-8.81L352.912,124.354z"/>
<path style="fill:#553732;" d="M132.659,203.646c0,0,0-44.051,26.43-70.481c0,0,17.115,6.46,52.861,0c22.851-4.13,27.165,0,27.165,0  s-1.836,18.171-27.165,26.43c0,0,26.43,17.62,52.861-8.81l-1.836,9.177c0,0,27.898,5.506,52.861-23.861  c0,0,9.545-0.735,19.456,5.873c17.292,11.528,35.241,4.894,35.241,4.894s17.62,21.536,17.62,56.777h17.62v-96.912H115.038v96.912  h17.62V203.646z"/>
<path style="fill:#966D50;" d="M256.001,300.557c-15.663,0-30.315-3.854-40.196-10.578c-4.022-2.736-5.068-8.217-2.327-12.238  c2.731-4.017,8.217-5.064,12.238-2.327c6.926,4.71,18.248,7.524,30.285,7.524c12.037,0,23.359-2.814,30.285-7.524  c4.031-2.74,9.503-1.699,12.238,2.327c2.74,4.022,1.695,9.503-2.327,12.238C286.315,296.703,271.663,300.557,256.001,300.557z"/>
<path style="fill:#64463C;" d="M315.836,136.102c0,0,9.545-0.735,19.456,5.874c17.292,11.528,35.241,4.894,35.241,4.894  s17.62,21.536,17.62,56.777h17.62v-96.912H299.467c-9.286,26.635-26.082,48.221-36.49,53.228  C262.975,159.962,290.873,165.468,315.836,136.102z"/>
<g>
	<path style="fill:#5A4137;" d="M189.925,238.886L189.925,238.886c-7.298,0-13.215-5.917-13.215-13.215v-8.81   c0-7.298,5.917-13.215,13.215-13.215l0,0c7.298,0,13.215,5.917,13.215,13.215v8.81C203.14,232.97,197.223,238.886,189.925,238.886z   "/>
	<path style="fill:#5A4137;" d="M322.077,238.886L322.077,238.886c-7.298,0-13.215-5.917-13.215-13.215v-8.81   c0-7.298,5.917-13.215,13.215-13.215l0,0c7.298,0,13.215,5.917,13.215,13.215v8.81C335.292,232.97,329.375,238.886,322.077,238.886   z"/>
</g>
<g>
	<path style="fill:#00AA9A;" d="M256.001,459.14c44.307,0,82.936-31.168,92.435-74.277l-16.922-4.835l-0.01-0.002   c-7.212,35.095-38.271,61.494-75.503,61.494s-68.291-26.398-75.503-61.494l-0.01,0.002l-16.922,4.835   C173.064,427.971,211.692,459.14,256.001,459.14z"/>
	<path style="fill:#00AA9A;" d="M101.032,409.893c-9.734,9.093-16.558,21.181-18.833,34.836l-7.793,46.754   C72.617,502.223,80.898,512,91.786,512h49.681v-30.222c0-9.003-2.759-17.789-7.904-25.176L101.032,409.893z"/>
	<path style="fill:#00AA9A;" d="M410.969,409.893c9.734,9.093,16.558,21.181,18.833,34.836l7.793,46.754   c1.79,10.74-6.492,20.517-17.38,20.517h-49.681v-30.222c0-9.003,2.759-17.789,7.904-25.176L410.969,409.893z"/>
</g>
<g>
</g>
<g>
</g>
<g>
</g>
<g>
</g>
<g>
</g>
<g>
</g>
<g>
</g>
<g>
</g>
<g>
</g>
<g>
</g>
<g>
</g>
<g>
</g>
<g>
</g>
<g>
</g>
<g>
</g>
</svg>
  <svg xmlns:xlink="http://www.w3.org/1999/xlink" version="1.1" id="Layer_1" x="110.0" y="120.0" viewBox="0 0 512 512" style="enable-background:new 0 0 512 512;" xml:space="preserve" width="30" height="30">
<path style="fill:#00BEA5;" d="M300.051,326.987v30.759c0,7.867,5.216,14.781,12.779,16.942l73.081,20.88  c22.892,6.54,39.975,25.675,43.89,49.159l7.793,46.754c1.79,10.741-6.492,20.517-17.38,20.517H91.787  c-10.888,0-19.171-9.777-17.38-20.517l7.793-46.754c3.914-23.485,20.997-42.619,43.89-49.159l73.081-20.88  c7.565-2.162,12.779-9.076,12.779-16.942v-30.759H300.051z"/>
<path style="fill:#B48764;" d="M256.001,441.519c37.232,0,68.291-26.398,75.503-61.495l-18.673-5.335  c-7.565-2.161-12.779-9.076-12.779-16.942v-30.759H211.95v30.759c0,7.867-5.216,14.781-12.779,16.942l-18.673,5.335  C187.709,415.122,218.769,441.519,256.001,441.519z"/>
<path style="fill:#966D50;" d="M300.051,335.798l-24.228-8.81H211.95v30.759c0,7.867-5.216,14.781-12.779,16.942l-18.673,5.335  v0.001C254.767,415.443,300.051,335.798,300.051,335.798z"/>
<path style="fill:#553732;" d="M379.343,36.253c2.203-15.418,18.722-7.342,18.722-7.342c-11.013-57.266-125.911-8.076-125.911-8.076  l10.646-11.013c-53.503-30.147-120.405,18.722-120.405,18.722c-20.924-6.608-73.785,13.95-73.785,64.24  c0,51.393,26.43,128.482,26.43,128.482h290.734c0,0,8.81-96.912,8.81-132.152S379.343,36.253,379.343,36.253z"/>
<path style="fill:#64463C;" d="M398.064,28.911c-36.342-45.519-104.07,10.646-104.07,10.646  c35.241,2.753,31.386,44.601,31.386,44.601c-7.709-12.665-19.272-10.462-19.272-10.462c-1.652,40.196-28.633,79.291-43.133,86.266  l0.735,61.304h142.063c0,0,8.81-96.912,8.81-132.152s-35.241-52.861-35.241-52.861C381.545,20.835,398.064,28.911,398.064,28.911z"/>
<path style="fill:#C39772;" d="M388.153,203.646v-79.291H123.849v79.291c-9.731,0-17.62,7.888-17.62,17.62v17.62  c0,9.731,7.889,17.62,17.62,17.62c0.486,0,0.942-0.105,1.417-0.143c5.272,29.593,25.39,54.917,53.963,66.346l44.051,17.62  c21.004,8.402,44.436,8.402,65.441,0l44.051-17.62c28.575-11.429,48.693-36.753,53.963-66.346c0.476,0.039,0.932,0.143,1.417,0.143  c9.731,0,17.62-7.889,17.62-17.62v-17.62C405.773,211.534,397.884,203.646,388.153,203.646z"/>
<path style="fill:#B48764;" d="M352.912,124.354H123.849v79.291c-9.731,0-17.62,7.888-17.62,17.62v17.62  c0,9.731,7.889,17.62,17.62,17.62c0.486,0,0.942-0.105,1.417-0.143c5.272,29.593,25.39,54.917,53.963,66.346l44.051,17.62  c9.943,3.978,20.432,6.006,30.948,6.218c-29.898-13.268-52.048-34.709-66.423-52.23c-12.912-15.74-19.907-35.449-19.907-55.808  v-64.659c0-9.137,6.981-16.876,16.094-17.533c14.479-1.044,27.869-5.533,36.767-5.533c26.43,0,61.671-8.81,114.532,8.81  c34.461,11.487,44.051-8.81,44.051-8.81L352.912,124.354z"/>
<path style="fill:#553732;" d="M132.659,203.646c0,0,0-44.051,26.43-70.481c0,0,17.115,6.46,52.861,0c22.851-4.13,27.165,0,27.165,0  s-1.836,18.171-27.165,26.43c0,0,26.43,17.62,52.861-8.81l-1.836,9.177c0,0,27.898,5.506,52.861-23.861  c0,0,9.545-0.735,19.456,5.873c17.292,11.528,35.241,4.894,35.241,4.894s17.62,21.536,17.62,56.777h17.62v-96.912H115.038v96.912  h17.62V203.646z"/>
<path style="fill:#966D50;" d="M256.001,300.557c-15.663,0-30.315-3.854-40.196-10.578c-4.022-2.736-5.068-8.217-2.327-12.238  c2.731-4.017,8.217-5.064,12.238-2.327c6.926,4.71,18.248,7.524,30.285,7.524c12.037,0,23.359-2.814,30.285-7.524  c4.031-2.74,9.503-1.699,12.238,2.327c2.74,4.022,1.695,9.503-2.327,12.238C286.315,296.703,271.663,300.557,256.001,300.557z"/>
<path style="fill:#64463C;" d="M315.836,136.102c0,0,9.545-0.735,19.456,5.874c17.292,11.528,35.241,4.894,35.241,4.894  s17.62,21.536,17.62,56.777h17.62v-96.912H299.467c-9.286,26.635-26.082,48.221-36.49,53.228  C262.975,159.962,290.873,165.468,315.836,136.102z"/>
<g>
	<path style="fill:#5A4137;" d="M189.925,238.886L189.925,238.886c-7.298,0-13.215-5.917-13.215-13.215v-8.81   c0-7.298,5.917-13.215,13.215-13.215l0,0c7.298,0,13.215,5.917,13.215,13.215v8.81C203.14,232.97,197.223,238.886,189.925,238.886z   "/>
	<path style="fill:#5A4137;" d="M322.077,238.886L322.077,238.886c-7.298,0-13.215-5.917-13.215-13.215v-8.81   c0-7.298,5.917-13.215,13.215-13.215l0,0c7.298,0,13.215,5.917,13.215,13.215v8.81C335.292,232.97,329.375,238.886,322.077,238.886   z"/>
</g>
<g>
	<path style="fill:#00AA9A;" d="M256.001,459.14c44.307,0,82.936-31.168,92.435-74.277l-16.922-4.835l-0.01-0.002   c-7.212,35.095-38.271,61.494-75.503,61.494s-68.291-26.398-75.503-61.494l-0.01,0.002l-16.922,4.835   C173.064,427.971,211.692,459.14,256.001,459.14z"/>
	<path style="fill:#00AA9A;" d="M101.032,409.893c-9.734,9.093-16.558,21.181-18.833,34.836l-7.793,46.754   C72.617,502.223,80.898,512,91.786,512h49.681v-30.222c0-9.003-2.759-17.789-7.904-25.176L101.032,409.893z"/>
	<path style="fill:#00AA9A;" d="M410.969,409.893c9.734,9.093,16.558,21.181,18.833,34.836l7.793,46.754   c1.79,10.74-6.492,20.517-17.38,20.517h-49.681v-30.222c0-9.003,2.759-17.789,7.904-25.176L410.969,409.893z"/>
</g>
<g>
</g>
<g>
</g>
<g>
</g>
<g>
</g>
<g>
</g>
<g>
</g>
<g>
</g>
<g>
</g>
<g>
</g>
<g>
</g>
<g>
</g>
<g>
</g>
<g>
</g>
<g>
</g>
<g>
</g>
</svg>
  <svg xmlns:xlink="http://www.w3.org/1999/xlink" version="1.1" id="Layer_1" x="150.0" y="120.0" viewBox="0 0 512 512" style="enable-background:new 0 0 512 512;" xml:space="preserve" width="30" height="30">
<path style="fill:#00BEA5;" d="M300.051,326.987v30.759c0,7.867,5.216,14.781,12.779,16.942l73.081,20.88  c22.892,6.54,39.975,25.675,43.89,49.159l7.793,46.754c1.79,10.741-6.492,20.517-17.38,20.517H91.787  c-10.888,0-19.171-9.777-17.38-20.517l7.793-46.754c3.914-23.485,20.997-42.619,43.89-49.159l73.081-20.88  c7.565-2.162,12.779-9.076,12.779-16.942v-30.759H300.051z"/>
<path style="fill:#B48764;" d="M256.001,441.519c37.232,0,68.291-26.398,75.503-61.495l-18.673-5.335  c-7.565-2.161-12.779-9.076-12.779-16.942v-30.759H211.95v30.759c0,7.867-5.216,14.781-12.779,16.942l-18.673,5.335  C187.709,415.122,218.769,441.519,256.001,441.519z"/>
<path style="fill:#966D50;" d="M300.051,335.798l-24.228-8.81H211.95v30.759c0,7.867-5.216,14.781-12.779,16.942l-18.673,5.335  v0.001C254.767,415.443,300.051,335.798,300.051,335.798z"/>
<path style="fill:#553732;" d="M379.343,36.253c2.203-15.418,18.722-7.342,18.722-7.342c-11.013-57.266-125.911-8.076-125.911-8.076  l10.646-11.013c-53.503-30.147-120.405,18.722-120.405,18.722c-20.924-6.608-73.785,13.95-73.785,64.24  c0,51.393,26.43,128.482,26.43,128.482h290.734c0,0,8.81-96.912,8.81-132.152S379.343,36.253,379.343,36.253z"/>
<path style="fill:#64463C;" d="M398.064,28.911c-36.342-45.519-104.07,10.646-104.07,10.646  c35.241,2.753,31.386,44.601,31.386,44.601c-7.709-12.665-19.272-10.462-19.272-10.462c-1.652,40.196-28.633,79.291-43.133,86.266  l0.735,61.304h142.063c0,0,8.81-96.912,8.81-132.152s-35.241-52.861-35.241-52.861C381.545,20.835,398.064,28.911,398.064,28.911z"/>
<path style="fill:#C39772;" d="M388.153,203.646v-79.291H123.849v79.291c-9.731,0-17.62,7.888-17.62,17.62v17.62  c0,9.731,7.889,17.62,17.62,17.62c0.486,0,0.942-0.105,1.417-0.143c5.272,29.593,25.39,54.917,53.963,66.346l44.051,17.62  c21.004,8.402,44.436,8.402,65.441,0l44.051-17.62c28.575-11.429,48.693-36.753,53.963-66.346c0.476,0.039,0.932,0.143,1.417,0.143  c9.731,0,17.62-7.889,17.62-17.62v-17.62C405.773,211.534,397.884,203.646,388.153,203.646z"/>
<path style="fill:#B48764;" d="M352.912,124.354H123.849v79.291c-9.731,0-17.62,7.888-17.62,17.62v17.62  c0,9.731,7.889,17.62,17.62,17.62c0.486,0,0.942-0.105,1.417-0.143c5.272,29.593,25.39,54.917,53.963,66.346l44.051,17.62  c9.943,3.978,20.432,6.006,30.948,6.218c-29.898-13.268-52.048-34.709-66.423-52.23c-12.912-15.74-19.907-35.449-19.907-55.808  v-64.659c0-9.137,6.981-16.876,16.094-17.533c14.479-1.044,27.869-5.533,36.767-5.533c26.43,0,61.671-8.81,114.532,8.81  c34.461,11.487,44.051-8.81,44.051-8.81L352.912,124.354z"/>
<path style="fill:#553732;" d="M132.659,203.646c0,0,0-44.051,26.43-70.481c0,0,17.115,6.46,52.861,0c22.851-4.13,27.165,0,27.165,0  s-1.836,18.171-27.165,26.43c0,0,26.43,17.62,52.861-8.81l-1.836,9.177c0,0,27.898,5.506,52.861-23.861  c0,0,9.545-0.735,19.456,5.873c17.292,11.528,35.241,4.894,35.241,4.894s17.62,21.536,17.62,56.777h17.62v-96.912H115.038v96.912  h17.62V203.646z"/>
<path style="fill:#966D50;" d="M256.001,300.557c-15.663,0-30.315-3.854-40.196-10.578c-4.022-2.736-5.068-8.217-2.327-12.238  c2.731-4.017,8.217-5.064,12.238-2.327c6.926,4.71,18.248,7.524,30.285,7.524c12.037,0,23.359-2.814,30.285-7.524  c4.031-2.74,9.503-1.699,12.238,2.327c2.74,4.022,1.695,9.503-2.327,12.238C286.315,296.703,271.663,300.557,256.001,300.557z"/>
<path style="fill:#64463C;" d="M315.836,136.102c0,0,9.545-0.735,19.456,5.874c17.292,11.528,35.241,4.894,35.241,4.894  s17.62,21.536,17.62,56.777h17.62v-96.912H299.467c-9.286,26.635-26.082,48.221-36.49,53.228  C262.975,159.962,290.873,165.468,315.836,136.102z"/>
<g>
	<path style="fill:#5A4137;" d="M189.925,238.886L189.925,238.886c-7.298,0-13.215-5.917-13.215-13.215v-8.81   c0-7.298,5.917-13.215,13.215-13.215l0,0c7.298,0,13.215,5.917,13.215,13.215v8.81C203.14,232.97,197.223,238.886,189.925,238.886z   "/>
	<path style="fill:#5A4137;" d="M322.077,238.886L322.077,238.886c-7.298,0-13.215-5.917-13.215-13.215v-8.81   c0-7.298,5.917-13.215,13.215-13.215l0,0c7.298,0,13.215,5.917,13.215,13.215v8.81C335.292,232.97,329.375,238.886,322.077,238.886   z"/>
</g>
<g>
	<path style="fill:#00AA9A;" d="M256.001,459.14c44.307,0,82.936-31.168,92.435-74.277l-16.922-4.835l-0.01-0.002   c-7.212,35.095-38.271,61.494-75.503,61.494s-68.291-26.398-75.503-61.494l-0.01,0.002l-16.922,4.835   C173.064,427.971,211.692,459.14,256.001,459.14z"/>
	<path style="fill:#00AA9A;" d="M101.032,409.893c-9.734,9.093-16.558,21.181-18.833,34.836l-7.793,46.754   C72.617,502.223,80.898,512,91.786,512h49.681v-30.222c0-9.003-2.759-17.789-7.904-25.176L101.032,409.893z"/>
	<path style="fill:#00AA9A;" d="M410.969,409.893c9.734,9.093,16.558,21.181,18.833,34.836l7.793,46.754   c1.79,10.74-6.492,20.517-17.38,20.517h-49.681v-30.222c0-9.003,2.759-17.789,7.904-25.176L410.969,409.893z"/>
</g>
<g>
</g>
<g>
</g>
<g>
</g>
<g>
</g>
<g>
</g>
<g>
</g>
<g>
</g>
<g>
</g>
<g>
</g>
<g>
</g>
<g>
</g>
<g>
</g>
<g>
</g>
<g>
</g>
<g>
</g>
</svg>
  <svg xmlns:xlink="http://www.w3.org/1999/xlink" version="1.1" id="Layer_1" x="70.0" y="160.0" viewBox="0 0 512 512" style="enable-background:new 0 0 512 512;" xml:space="preserve" width="30" height="30">
<path style="fill:#00BEA5;" d="M300.051,326.987v30.759c0,7.867,5.216,14.781,12.779,16.942l73.081,20.88  c22.892,6.54,39.975,25.675,43.89,49.159l7.793,46.754c1.79,10.741-6.492,20.517-17.38,20.517H91.787  c-10.888,0-19.171-9.777-17.38-20.517l7.793-46.754c3.914-23.485,20.997-42.619,43.89-49.159l73.081-20.88  c7.565-2.162,12.779-9.076,12.779-16.942v-30.759H300.051z"/>
<path style="fill:#B48764;" d="M256.001,441.519c37.232,0,68.291-26.398,75.503-61.495l-18.673-5.335  c-7.565-2.161-12.779-9.076-12.779-16.942v-30.759H211.95v30.759c0,7.867-5.216,14.781-12.779,16.942l-18.673,5.335  C187.709,415.122,218.769,441.519,256.001,441.519z"/>
<path style="fill:#966D50;" d="M300.051,335.798l-24.228-8.81H211.95v30.759c0,7.867-5.216,14.781-12.779,16.942l-18.673,5.335  v0.001C254.767,415.443,300.051,335.798,300.051,335.798z"/>
<path style="fill:#553732;" d="M379.343,36.253c2.203-15.418,18.722-7.342,18.722-7.342c-11.013-57.266-125.911-8.076-125.911-8.076  l10.646-11.013c-53.503-30.147-120.405,18.722-120.405,18.722c-20.924-6.608-73.785,13.95-73.785,64.24  c0,51.393,26.43,128.482,26.43,128.482h290.734c0,0,8.81-96.912,8.81-132.152S379.343,36.253,379.343,36.253z"/>
<path style="fill:#64463C;" d="M398.064,28.911c-36.342-45.519-104.07,10.646-104.07,10.646  c35.241,2.753,31.386,44.601,31.386,44.601c-7.709-12.665-19.272-10.462-19.272-10.462c-1.652,40.196-28.633,79.291-43.133,86.266  l0.735,61.304h142.063c0,0,8.81-96.912,8.81-132.152s-35.241-52.861-35.241-52.861C381.545,20.835,398.064,28.911,398.064,28.911z"/>
<path style="fill:#C39772;" d="M388.153,203.646v-79.291H123.849v79.291c-9.731,0-17.62,7.888-17.62,17.62v17.62  c0,9.731,7.889,17.62,17.62,17.62c0.486,0,0.942-0.105,1.417-0.143c5.272,29.593,25.39,54.917,53.963,66.346l44.051,17.62  c21.004,8.402,44.436,8.402,65.441,0l44.051-17.62c28.575-11.429,48.693-36.753,53.963-66.346c0.476,0.039,0.932,0.143,1.417,0.143  c9.731,0,17.62-7.889,17.62-17.62v-17.62C405.773,211.534,397.884,203.646,388.153,203.646z"/>
<path style="fill:#B48764;" d="M352.912,124.354H123.849v79.291c-9.731,0-17.62,7.888-17.62,17.62v17.62  c0,9.731,7.889,17.62,17.62,17.62c0.486,0,0.942-0.105,1.417-0.143c5.272,29.593,25.39,54.917,53.963,66.346l44.051,17.62  c9.943,3.978,20.432,6.006,30.948,6.218c-29.898-13.268-52.048-34.709-66.423-52.23c-12.912-15.74-19.907-35.449-19.907-55.808  v-64.659c0-9.137,6.981-16.876,16.094-17.533c14.479-1.044,27.869-5.533,36.767-5.533c26.43,0,61.671-8.81,114.532,8.81  c34.461,11.487,44.051-8.81,44.051-8.81L352.912,124.354z"/>
<path style="fill:#553732;" d="M132.659,203.646c0,0,0-44.051,26.43-70.481c0,0,17.115,6.46,52.861,0c22.851-4.13,27.165,0,27.165,0  s-1.836,18.171-27.165,26.43c0,0,26.43,17.62,52.861-8.81l-1.836,9.177c0,0,27.898,5.506,52.861-23.861  c0,0,9.545-0.735,19.456,5.873c17.292,11.528,35.241,4.894,35.241,4.894s17.62,21.536,17.62,56.777h17.62v-96.912H115.038v96.912  h17.62V203.646z"/>
<path style="fill:#966D50;" d="M256.001,300.557c-15.663,0-30.315-3.854-40.196-10.578c-4.022-2.736-5.068-8.217-2.327-12.238  c2.731-4.017,8.217-5.064,12.238-2.327c6.926,4.71,18.248,7.524,30.285,7.524c12.037,0,23.359-2.814,30.285-7.524  c4.031-2.74,9.503-1.699,12.238,2.327c2.74,4.022,1.695,9.503-2.327,12.238C286.315,296.703,271.663,300.557,256.001,300.557z"/>
<path style="fill:#64463C;" d="M315.836,136.102c0,0,9.545-0.735,19.456,5.874c17.292,11.528,35.241,4.894,35.241,4.894  s17.62,21.536,17.62,56.777h17.62v-96.912H299.467c-9.286,26.635-26.082,48.221-36.49,53.228  C262.975,159.962,290.873,165.468,315.836,136.102z"/>
<g>
	<path style="fill:#5A4137;" d="M189.925,238.886L189.925,238.886c-7.298,0-13.215-5.917-13.215-13.215v-8.81   c0-7.298,5.917-13.215,13.215-13.215l0,0c7.298,0,13.215,5.917,13.215,13.215v8.81C203.14,232.97,197.223,238.886,189.925,238.886z   "/>
	<path style="fill:#5A4137;" d="M322.077,238.886L322.077,238.886c-7.298,0-13.215-5.917-13.215-13.215v-8.81   c0-7.298,5.917-13.215,13.215-13.215l0,0c7.298,0,13.215,5.917,13.215,13.215v8.81C335.292,232.97,329.375,238.886,322.077,238.886   z"/>
</g>
<g>
	<path style="fill:#00AA9A;" d="M256.001,459.14c44.307,0,82.936-31.168,92.435-74.277l-16.922-4.835l-0.01-0.002   c-7.212,35.095-38.271,61.494-75.503,61.494s-68.291-26.398-75.503-61.494l-0.01,0.002l-16.922,4.835   C173.064,427.971,211.692,459.14,256.001,459.14z"/>
	<path style="fill:#00AA9A;" d="M101.032,409.893c-9.734,9.093-16.558,21.181-18.833,34.836l-7.793,46.754   C72.617,502.223,80.898,512,91.786,512h49.681v-30.222c0-9.003-2.759-17.789-7.904-25.176L101.032,409.893z"/>
	<path style="fill:#00AA9A;" d="M410.969,409.893c9.734,9.093,16.558,21.181,18.833,34.836l7.793,46.754   c1.79,10.74-6.492,20.517-17.38,20.517h-49.681v-30.222c0-9.003,2.759-17.789,7.904-25.176L410.969,409.893z"/>
</g>
<g>
</g>
<g>
</g>
<g>
</g>
<g>
</g>
<g>
</g>
<g>
</g>
<g>
</g>
<g>
</g>
<g>
</g>
<g>
</g>
<g>
</g>
<g>
</g>
<g>
</g>
<g>
</g>
<g>
</g>
</svg>
  <svg xmlns:xlink="http://www.w3.org/1999/xlink" version="1.1" id="Layer_1" x="110.0" y="160.0" viewBox="0 0 512 512" style="enable-background:new 0 0 512 512;" xml:space="preserve" width="30" height="30">
<path style="fill:#00BEA5;" d="M300.051,326.987v30.759c0,7.867,5.216,14.781,12.779,16.942l73.081,20.88  c22.892,6.54,39.975,25.675,43.89,49.159l7.793,46.754c1.79,10.741-6.492,20.517-17.38,20.517H91.787  c-10.888,0-19.171-9.777-17.38-20.517l7.793-46.754c3.914-23.485,20.997-42.619,43.89-49.159l73.081-20.88  c7.565-2.162,12.779-9.076,12.779-16.942v-30.759H300.051z"/>
<path style="fill:#B48764;" d="M256.001,441.519c37.232,0,68.291-26.398,75.503-61.495l-18.673-5.335  c-7.565-2.161-12.779-9.076-12.779-16.942v-30.759H211.95v30.759c0,7.867-5.216,14.781-12.779,16.942l-18.673,5.335  C187.709,415.122,218.769,441.519,256.001,441.519z"/>
<path style="fill:#966D50;" d="M300.051,335.798l-24.228-8.81H211.95v30.759c0,7.867-5.216,14.781-12.779,16.942l-18.673,5.335  v0.001C254.767,415.443,300.051,335.798,300.051,335.798z"/>
<path style="fill:#553732;" d="M379.343,36.253c2.203-15.418,18.722-7.342,18.722-7.342c-11.013-57.266-125.911-8.076-125.911-8.076  l10.646-11.013c-53.503-30.147-120.405,18.722-120.405,18.722c-20.924-6.608-73.785,13.95-73.785,64.24  c0,51.393,26.43,128.482,26.43,128.482h290.734c0,0,8.81-96.912,8.81-132.152S379.343,36.253,379.343,36.253z"/>
<path style="fill:#64463C;" d="M398.064,28.911c-36.342-45.519-104.07,10.646-104.07,10.646  c35.241,2.753,31.386,44.601,31.386,44.601c-7.709-12.665-19.272-10.462-19.272-10.462c-1.652,40.196-28.633,79.291-43.133,86.266  l0.735,61.304h142.063c0,0,8.81-96.912,8.81-132.152s-35.241-52.861-35.241-52.861C381.545,20.835,398.064,28.911,398.064,28.911z"/>
<path style="fill:#C39772;" d="M388.153,203.646v-79.291H123.849v79.291c-9.731,0-17.62,7.888-17.62,17.62v17.62  c0,9.731,7.889,17.62,17.62,17.62c0.486,0,0.942-0.105,1.417-0.143c5.272,29.593,25.39,54.917,53.963,66.346l44.051,17.62  c21.004,8.402,44.436,8.402,65.441,0l44.051-17.62c28.575-11.429,48.693-36.753,53.963-66.346c0.476,0.039,0.932,0.143,1.417,0.143  c9.731,0,17.62-7.889,17.62-17.62v-17.62C405.773,211.534,397.884,203.646,388.153,203.646z"/>
<path style="fill:#B48764;" d="M352.912,124.354H123.849v79.291c-9.731,0-17.62,7.888-17.62,17.62v17.62  c0,9.731,7.889,17.62,17.62,17.62c0.486,0,0.942-0.105,1.417-0.143c5.272,29.593,25.39,54.917,53.963,66.346l44.051,17.62  c9.943,3.978,20.432,6.006,30.948,6.218c-29.898-13.268-52.048-34.709-66.423-52.23c-12.912-15.74-19.907-35.449-19.907-55.808  v-64.659c0-9.137,6.981-16.876,16.094-17.533c14.479-1.044,27.869-5.533,36.767-5.533c26.43,0,61.671-8.81,114.532,8.81  c34.461,11.487,44.051-8.81,44.051-8.81L352.912,124.354z"/>
<path style="fill:#553732;" d="M132.659,203.646c0,0,0-44.051,26.43-70.481c0,0,17.115,6.46,52.861,0c22.851-4.13,27.165,0,27.165,0  s-1.836,18.171-27.165,26.43c0,0,26.43,17.62,52.861-8.81l-1.836,9.177c0,0,27.898,5.506,52.861-23.861  c0,0,9.545-0.735,19.456,5.873c17.292,11.528,35.241,4.894,35.241,4.894s17.62,21.536,17.62,56.777h17.62v-96.912H115.038v96.912  h17.62V203.646z"/>
<path style="fill:#966D50;" d="M256.001,300.557c-15.663,0-30.315-3.854-40.196-10.578c-4.022-2.736-5.068-8.217-2.327-12.238  c2.731-4.017,8.217-5.064,12.238-2.327c6.926,4.71,18.248,7.524,30.285,7.524c12.037,0,23.359-2.814,30.285-7.524  c4.031-2.74,9.503-1.699,12.238,2.327c2.74,4.022,1.695,9.503-2.327,12.238C286.315,296.703,271.663,300.557,256.001,300.557z"/>
<path style="fill:#64463C;" d="M315.836,136.102c0,0,9.545-0.735,19.456,5.874c17.292,11.528,35.241,4.894,35.241,4.894  s17.62,21.536,17.62,56.777h17.62v-96.912H299.467c-9.286,26.635-26.082,48.221-36.49,53.228  C262.975,159.962,290.873,165.468,315.836,136.102z"/>
<g>
	<path style="fill:#5A4137;" d="M189.925,238.886L189.925,238.886c-7.298,0-13.215-5.917-13.215-13.215v-8.81   c0-7.298,5.917-13.215,13.215-13.215l0,0c7.298,0,13.215,5.917,13.215,13.215v8.81C203.14,232.97,197.223,238.886,189.925,238.886z   "/>
	<path style="fill:#5A4137;" d="M322.077,238.886L322.077,238.886c-7.298,0-13.215-5.917-13.215-13.215v-8.81   c0-7.298,5.917-13.215,13.215-13.215l0,0c7.298,0,13.215,5.917,13.215,13.215v8.81C335.292,232.97,329.375,238.886,322.077,238.886   z"/>
</g>
<g>
	<path style="fill:#00AA9A;" d="M256.001,459.14c44.307,0,82.936-31.168,92.435-74.277l-16.922-4.835l-0.01-0.002   c-7.212,35.095-38.271,61.494-75.503,61.494s-68.291-26.398-75.503-61.494l-0.01,0.002l-16.922,4.835   C173.064,427.971,211.692,459.14,256.001,459.14z"/>
	<path style="fill:#00AA9A;" d="M101.032,409.893c-9.734,9.093-16.558,21.181-18.833,34.836l-7.793,46.754   C72.617,502.223,80.898,512,91.786,512h49.681v-30.222c0-9.003-2.759-17.789-7.904-25.176L101.032,409.893z"/>
	<path style="fill:#00AA9A;" d="M410.969,409.893c9.734,9.093,16.558,21.181,18.833,34.836l7.793,46.754   c1.79,10.74-6.492,20.517-17.38,20.517h-49.681v-30.222c0-9.003,2.759-17.789,7.904-25.176L410.969,409.893z"/>
</g>
<g>
</g>
<g>
</g>
<g>
</g>
<g>
</g>
<g>
</g>
<g>
</g>
<g>
</g>
<g>
</g>
<g>
</g>
<g>
</g>
<g>
</g>
<g>
</g>
<g>
</g>
<g>
</g>
<g>
</g>
</svg>
  <rect x="280" y="100" width="160" height="120.0" stroke="black" fill="none"/>
  <text x="440" y="173.0" style="font-size: 60px;" text_anchor="middle" dominant_baseline="middle">)</text>
  <g>
    <svg xmlns:xlink="http://www.w3.org/1999/xlink" t="1737039249951" class="icon" viewBox="0 0 1024 1024" version="1.1" p-id="5524" width="40" height="40" x="303.5" y="55">
      <path d="M376 64v208h272v80H376v208h576V64z" fill="#FFC252" p-id="5525"/>
      <path d="M1016 688H376v-32h608V32H376V0h640z" fill="#34303D" p-id="5526"/>
      <path d="M376 592h576v32H376z m240-128h32v32h-32z m64 0h32v32h-32z m64 0h32v32h-32z m-48 416c-44.112 0-80-35.888-80-80s35.888-80 80-80 80 35.888 80 80-35.888 80-80 80z m0-128c-26.464 0-48 21.536-48 48s21.536 48 48 48 48-21.536 48-48-21.536-48-48-48z m128 272h-32v-48c0-8.544-3.328-16.576-9.376-22.624S768.544 944 760 944H632c-8.544 0-16.576 3.328-22.624 9.376S600 967.456 600 976v48h-32v-48c0-17.088 6.656-33.152 18.752-45.248S614.912 912 632 912h128c17.088 0 33.152 6.656 45.248 18.752S824 958.912 824 976v48zM504 880c-44.112 0-80-35.888-80-80s35.888-80 80-80 80 35.888 80 80-35.888 80-80 80z m0-128c-26.464 0-48 21.536-48 48s21.536 48 48 48 48-21.536 48-48-21.536-48-48-48z m-96 272h-32v-48c0-17.088 6.656-33.152 18.752-45.248C406.832 918.656 422.912 912 440 912h96v32h-96c-8.544 0-16.576 3.328-22.624 9.376S408 967.456 408 976v48z m480-144c-44.112 0-80-35.888-80-80s35.888-80 80-80 80 35.888 80 80-35.888 80-80 80z m0-128c-26.464 0-48 21.536-48 48s21.536 48 48 48 48-21.536 48-48-21.536-48-48-48z m128 272h-32v-48c0-8.544-3.328-16.576-9.376-22.624S960.544 944 952 944h-96v-32h96c17.088 0 33.152 6.656 45.248 18.752S1016 958.912 1016 976v48z" fill="#34303D" p-id="5527"/>
      <path d="M280 272c0 35.344-28.656 64-64 64s-64-28.656-64-64h-32c-24.56 0-49.136 9.376-67.872 28.128C33.376 318.864 24 343.44 24 368v224h80v96h224V352h240v-80H280z" fill="#57DCF2" p-id="5528"/>
      <path d="M216 224c-61.76 0-112-50.24-112-112S154.24 0 216 0s112 50.24 112 112-50.24 112-112 112z m0-192c-44.112 0-80 35.888-80 80s35.888 80 80 80 80-35.888 80-80-35.888-80-80-80zM88 592h32v432H88z m112 128h32v304h-32z" fill="#34303D" p-id="5529"/>
      <path d="M344 1024h-32V336h320v-48H120c-21.36 0-41.456 8.32-56.56 23.44C48.32 326.544 40 346.64 40 368v288h64v32H8V368c0-29.92 11.664-58.032 32.816-79.184S90.08 256 120 256h544v112H344v656z" fill="#34303D" p-id="5530"/>
      <path d="M200 384h32v32h-32z m0 64h32v32h-32z" fill="#34303D" p-id="5531"/>
    </svg>
    <text x="353.5" y="75.0" style="font-size: 15px;" dominant_baseline="middle" text_anchor="middle">classroom</text>
  </g>
  <svg xmlns:xlink="http://www.w3.org/1999/xlink" version="1.1" id="Layer_1" x="300.0" y="120.0" viewBox="0 0 512 512" style="enable-background:new 0 0 512 512;" xml:space="preserve" width="30" height="30">
<path style="fill:#FF9842;" d="M406.069,114.759C388.413,17.655,300.138,0,256,0S123.586,17.655,105.931,114.759  s-44.138,220.69-44.138,220.69c88.276,70.621,167.724,70.621,194.207,70.621s105.931,0,194.207-70.621  C450.207,335.448,423.724,211.862,406.069,114.759z"/>
<path style="fill:#E6873C;" d="M282.22,1.949C272.579,0.584,263.607,0,256,0c-44.138,0-132.414,17.655-150.069,114.759  s-44.138,220.69-44.138,220.69c58.067,46.454,112.204,62.28,150.069,67.72V176.552C211.862,176.552,219.362,49.897,282.22,1.949z"/>
<path style="fill:#FF6472;" d="M300.138,326.621v30.82c0,7.883,5.226,14.81,12.804,16.975l73.226,20.921  c22.937,6.553,40.054,25.726,43.977,49.257l7.808,46.847c1.793,10.762-6.505,20.558-17.415,20.558H91.461  c-10.91,0-19.209-9.796-17.415-20.557l7.808-46.847c3.922-23.531,21.038-42.703,43.977-49.257l73.226-20.921  c7.58-2.166,12.804-9.094,12.804-16.975v-30.821H300.138z"/>
<path style="fill:#FAD7A5;" d="M256,476.69c54.771,0,101.148-35.665,117.362-85.01l-60.419-17.263  c-7.58-2.165-12.804-9.094-12.804-16.975v-30.82h-88.276v30.82c0,7.883-5.226,14.81-12.804,16.975l-60.419,17.263  C154.852,441.025,201.229,476.69,256,476.69z"/>
<path style="fill:#F0C891;" d="M300.138,335.448l-24.276-8.828h-64v30.82c0,7.883-5.226,14.81-12.804,16.975l-18.71,5.345v0.001  C254.764,415.251,300.138,335.448,300.138,335.448z"/>
<g>
	<path style="fill:#D25566;" d="M100.725,409.69c-9.753,9.111-16.59,21.223-18.87,34.905l-7.808,46.847   C72.253,502.204,80.551,512,91.461,512h49.78v-30.282c0-9.021-2.764-17.824-7.919-25.226L100.725,409.69z"/>
	<path style="fill:#D25566;" d="M411.275,409.69c9.753,9.111,16.59,21.223,18.87,34.905l7.808,46.847   c1.793,10.761-6.505,20.557-17.415,20.557h-49.78v-30.282c0-9.021,2.764-17.824,7.919-25.226L411.275,409.69z"/>
</g>
<path style="fill:#FFE1B4;" d="M388.413,203.034v-79.448H123.586v79.448c-9.75,0-17.655,7.904-17.655,17.655v17.655  c0,9.75,7.905,17.655,17.655,17.655c0.487,0,0.943-0.105,1.42-0.143c5.282,29.652,25.44,55.026,54.07,66.477l44.138,17.655  c21.046,8.418,44.524,8.418,65.57,0l44.138-17.655c28.631-11.452,48.789-36.825,54.07-66.477c0.477,0.039,0.934,0.143,1.42,0.143  c9.75,0,17.655-7.905,17.655-17.655V220.69C406.069,210.938,398.163,203.034,388.413,203.034z"/>
<path style="fill:#FAD7A5;" d="M123.586,123.586v79.448c-9.75,0-17.655,7.904-17.655,17.655v17.655  c0,9.75,7.905,17.655,17.655,17.655c0.487,0,0.943-0.105,1.42-0.143c5.282,29.652,25.44,55.026,54.07,66.477l44.138,17.655  c9.963,3.986,20.472,6.018,31.009,6.23c-29.95-13.291-52.14-34.766-66.545-52.321c-12.942-15.775-19.955-35.525-19.955-55.93  v-29.705c0-8.936,6.677-16.462,15.549-17.529l74.382-8.94l4.966,20.966c0,0,67.862-11.034,98.483-23.724l18.483-37.793v-17.655  H123.586z"/>
<path style="fill:#D7AF7D;" d="M256,300.138c-15.694,0-30.375-3.862-40.276-10.599c-4.03-2.741-5.078-8.233-2.332-12.263  c2.737-4.025,8.233-5.074,12.263-2.332c6.94,4.719,18.284,7.539,30.345,7.539c12.061,0,23.405-2.819,30.345-7.539  c4.039-2.745,9.522-1.703,12.263,2.332c2.745,4.03,1.698,9.522-2.332,12.263C286.374,296.276,271.694,300.138,256,300.138z"/>
<g>
	<path style="fill:#5A4137;" d="M189.793,238.345L189.793,238.345c-7.313,0-13.241-5.929-13.241-13.241v-8.828   c0-7.313,5.929-13.241,13.241-13.241l0,0c7.313,0,13.241,5.929,13.241,13.241v8.828   C203.034,232.416,197.105,238.345,189.793,238.345z"/>
	<path style="fill:#5A4137;" d="M322.207,238.345L322.207,238.345c-7.313,0-13.241-5.929-13.241-13.241v-8.828   c0-7.313,5.929-13.241,13.241-13.241l0,0c7.313,0,13.241,5.929,13.241,13.241v8.828   C335.448,232.416,329.519,238.345,322.207,238.345z"/>
</g>
<path style="fill:#FF9842;" d="M123.586,203.034c0-8.828,0-35.31,26.483-70.621l8.828,44.138l88.276-8.828l17.655-26.483  l8.828,44.138c0,0,72.276-13.241,79.448-17.655l17.655-26.483c0,0,17.655,26.483,17.655,61.793h17.655l1.628-62.521  c0.389-14.944-11.661-27.249-26.61-27.171l-248.809,1.281c-14.573,0.075-26.347,11.91-26.347,26.483v61.929H123.586z"/>
<g>
	<path style="fill:#FF6472;" d="M358.177,94.489l-66.325,2.802c-4.884,0.206-7.969-5.249-6.15-10.874L300.131,41.8   c1.82-5.626,7.513-8.243,11.352-5.215l52.126,41.107L358.177,94.489z"/>
	<path style="fill:#FF6472;" d="M371.772,98.886l52.126,41.107c3.839,3.027,9.533,0.412,11.352-5.215l14.429-44.617   c1.82-5.626-1.265-11.081-6.15-10.874l-66.325,2.802L371.772,98.886z"/>
</g>
<path style="fill:#C95264;" d="M416.728,108.786L315.936,76.192c-2.322-0.75-3.592-3.236-2.841-5.558s3.236-3.592,5.558-2.841  l100.792,32.594c2.322,0.75,3.592,3.236,2.841,5.558C421.536,108.265,419.05,109.536,416.728,108.786z"/>
<path style="fill:#A5465A;" d="M370.658,107.804l-16.799-5.432c-4.639-1.5-7.183-6.476-5.683-11.115l5.432-16.799  c1.5-4.639,6.477-7.183,11.115-5.683l16.799,5.432c4.639,1.5,7.183,6.476,5.683,11.115l-5.432,16.799  C380.273,106.759,375.297,109.303,370.658,107.804z"/>
<path style="fill:#D25566;" d="M125.831,395.339c-1.409,0.403-2.722,0.994-4.085,1.491l0.119,0.362  c19.094,58.11,72.999,97.153,134.134,97.153s115.04-39.043,134.135-97.153l0.119-0.362c-1.363-0.495-2.677-1.088-4.086-1.491  l-12.807-3.659C357.147,441.025,310.77,476.69,256,476.69s-101.148-35.665-117.362-85.01L125.831,395.339z"/>
<path style="fill:#E6873C;" d="M221.732,114.162l-89.455,0.46c-14.572,0.076-26.346,11.911-26.346,26.483v61.93h17.655  c0-8.828,0-35.31,26.483-70.621l8.828,44.138l53.394-5.34C213.166,161.567,215.649,139.73,221.732,114.162z"/>
<g>
</g>
<g>
</g>
<g>
</g>
<g>
</g>
<g>
</g>
<g>
</g>
<g>
</g>
<g>
</g>
<g>
</g>
<g>
</g>
<g>
</g>
<g>
</g>
<g>
</g>
<g>
</g>
<g>
</g>
</svg>
  <svg xmlns:xlink="http://www.w3.org/1999/xlink" version="1.1" id="Layer_1" x="340.0" y="120.0" viewBox="0 0 512 512" style="enable-background:new 0 0 512 512;" xml:space="preserve" width="30" height="30">
<path style="fill:#FF9842;" d="M406.069,114.759C388.413,17.655,300.138,0,256,0S123.586,17.655,105.931,114.759  s-44.138,220.69-44.138,220.69c88.276,70.621,167.724,70.621,194.207,70.621s105.931,0,194.207-70.621  C450.207,335.448,423.724,211.862,406.069,114.759z"/>
<path style="fill:#E6873C;" d="M282.22,1.949C272.579,0.584,263.607,0,256,0c-44.138,0-132.414,17.655-150.069,114.759  s-44.138,220.69-44.138,220.69c58.067,46.454,112.204,62.28,150.069,67.72V176.552C211.862,176.552,219.362,49.897,282.22,1.949z"/>
<path style="fill:#FF6472;" d="M300.138,326.621v30.82c0,7.883,5.226,14.81,12.804,16.975l73.226,20.921  c22.937,6.553,40.054,25.726,43.977,49.257l7.808,46.847c1.793,10.762-6.505,20.558-17.415,20.558H91.461  c-10.91,0-19.209-9.796-17.415-20.557l7.808-46.847c3.922-23.531,21.038-42.703,43.977-49.257l73.226-20.921  c7.58-2.166,12.804-9.094,12.804-16.975v-30.821H300.138z"/>
<path style="fill:#FAD7A5;" d="M256,476.69c54.771,0,101.148-35.665,117.362-85.01l-60.419-17.263  c-7.58-2.165-12.804-9.094-12.804-16.975v-30.82h-88.276v30.82c0,7.883-5.226,14.81-12.804,16.975l-60.419,17.263  C154.852,441.025,201.229,476.69,256,476.69z"/>
<path style="fill:#F0C891;" d="M300.138,335.448l-24.276-8.828h-64v30.82c0,7.883-5.226,14.81-12.804,16.975l-18.71,5.345v0.001  C254.764,415.251,300.138,335.448,300.138,335.448z"/>
<g>
	<path style="fill:#D25566;" d="M100.725,409.69c-9.753,9.111-16.59,21.223-18.87,34.905l-7.808,46.847   C72.253,502.204,80.551,512,91.461,512h49.78v-30.282c0-9.021-2.764-17.824-7.919-25.226L100.725,409.69z"/>
	<path style="fill:#D25566;" d="M411.275,409.69c9.753,9.111,16.59,21.223,18.87,34.905l7.808,46.847   c1.793,10.761-6.505,20.557-17.415,20.557h-49.78v-30.282c0-9.021,2.764-17.824,7.919-25.226L411.275,409.69z"/>
</g>
<path style="fill:#FFE1B4;" d="M388.413,203.034v-79.448H123.586v79.448c-9.75,0-17.655,7.904-17.655,17.655v17.655  c0,9.75,7.905,17.655,17.655,17.655c0.487,0,0.943-0.105,1.42-0.143c5.282,29.652,25.44,55.026,54.07,66.477l44.138,17.655  c21.046,8.418,44.524,8.418,65.57,0l44.138-17.655c28.631-11.452,48.789-36.825,54.07-66.477c0.477,0.039,0.934,0.143,1.42,0.143  c9.75,0,17.655-7.905,17.655-17.655V220.69C406.069,210.938,398.163,203.034,388.413,203.034z"/>
<path style="fill:#FAD7A5;" d="M123.586,123.586v79.448c-9.75,0-17.655,7.904-17.655,17.655v17.655  c0,9.75,7.905,17.655,17.655,17.655c0.487,0,0.943-0.105,1.42-0.143c5.282,29.652,25.44,55.026,54.07,66.477l44.138,17.655  c9.963,3.986,20.472,6.018,31.009,6.23c-29.95-13.291-52.14-34.766-66.545-52.321c-12.942-15.775-19.955-35.525-19.955-55.93  v-29.705c0-8.936,6.677-16.462,15.549-17.529l74.382-8.94l4.966,20.966c0,0,67.862-11.034,98.483-23.724l18.483-37.793v-17.655  H123.586z"/>
<path style="fill:#D7AF7D;" d="M256,300.138c-15.694,0-30.375-3.862-40.276-10.599c-4.03-2.741-5.078-8.233-2.332-12.263  c2.737-4.025,8.233-5.074,12.263-2.332c6.94,4.719,18.284,7.539,30.345,7.539c12.061,0,23.405-2.819,30.345-7.539  c4.039-2.745,9.522-1.703,12.263,2.332c2.745,4.03,1.698,9.522-2.332,12.263C286.374,296.276,271.694,300.138,256,300.138z"/>
<g>
	<path style="fill:#5A4137;" d="M189.793,238.345L189.793,238.345c-7.313,0-13.241-5.929-13.241-13.241v-8.828   c0-7.313,5.929-13.241,13.241-13.241l0,0c7.313,0,13.241,5.929,13.241,13.241v8.828   C203.034,232.416,197.105,238.345,189.793,238.345z"/>
	<path style="fill:#5A4137;" d="M322.207,238.345L322.207,238.345c-7.313,0-13.241-5.929-13.241-13.241v-8.828   c0-7.313,5.929-13.241,13.241-13.241l0,0c7.313,0,13.241,5.929,13.241,13.241v8.828   C335.448,232.416,329.519,238.345,322.207,238.345z"/>
</g>
<path style="fill:#FF9842;" d="M123.586,203.034c0-8.828,0-35.31,26.483-70.621l8.828,44.138l88.276-8.828l17.655-26.483  l8.828,44.138c0,0,72.276-13.241,79.448-17.655l17.655-26.483c0,0,17.655,26.483,17.655,61.793h17.655l1.628-62.521  c0.389-14.944-11.661-27.249-26.61-27.171l-248.809,1.281c-14.573,0.075-26.347,11.91-26.347,26.483v61.929H123.586z"/>
<g>
	<path style="fill:#FF6472;" d="M358.177,94.489l-66.325,2.802c-4.884,0.206-7.969-5.249-6.15-10.874L300.131,41.8   c1.82-5.626,7.513-8.243,11.352-5.215l52.126,41.107L358.177,94.489z"/>
	<path style="fill:#FF6472;" d="M371.772,98.886l52.126,41.107c3.839,3.027,9.533,0.412,11.352-5.215l14.429-44.617   c1.82-5.626-1.265-11.081-6.15-10.874l-66.325,2.802L371.772,98.886z"/>
</g>
<path style="fill:#C95264;" d="M416.728,108.786L315.936,76.192c-2.322-0.75-3.592-3.236-2.841-5.558s3.236-3.592,5.558-2.841  l100.792,32.594c2.322,0.75,3.592,3.236,2.841,5.558C421.536,108.265,419.05,109.536,416.728,108.786z"/>
<path style="fill:#A5465A;" d="M370.658,107.804l-16.799-5.432c-4.639-1.5-7.183-6.476-5.683-11.115l5.432-16.799  c1.5-4.639,6.477-7.183,11.115-5.683l16.799,5.432c4.639,1.5,7.183,6.476,5.683,11.115l-5.432,16.799  C380.273,106.759,375.297,109.303,370.658,107.804z"/>
<path style="fill:#D25566;" d="M125.831,395.339c-1.409,0.403-2.722,0.994-4.085,1.491l0.119,0.362  c19.094,58.11,72.999,97.153,134.134,97.153s115.04-39.043,134.135-97.153l0.119-0.362c-1.363-0.495-2.677-1.088-4.086-1.491  l-12.807-3.659C357.147,441.025,310.77,476.69,256,476.69s-101.148-35.665-117.362-85.01L125.831,395.339z"/>
<path style="fill:#E6873C;" d="M221.732,114.162l-89.455,0.46c-14.572,0.076-26.346,11.911-26.346,26.483v61.93h17.655  c0-8.828,0-35.31,26.483-70.621l8.828,44.138l53.394-5.34C213.166,161.567,215.649,139.73,221.732,114.162z"/>
<g>
</g>
<g>
</g>
<g>
</g>
<g>
</g>
<g>
</g>
<g>
</g>
<g>
</g>
<g>
</g>
<g>
</g>
<g>
</g>
<g>
</g>
<g>
</g>
<g>
</g>
<g>
</g>
<g>
</g>
</svg>
  <svg xmlns:xlink="http://www.w3.org/1999/xlink" version="1.1" id="Layer_1" x="380.0" y="120.0" viewBox="0 0 512 512" style="enable-background:new 0 0 512 512;" xml:space="preserve" width="30" height="30">
<path style="fill:#FF9842;" d="M406.069,114.759C388.413,17.655,300.138,0,256,0S123.586,17.655,105.931,114.759  s-44.138,220.69-44.138,220.69c88.276,70.621,167.724,70.621,194.207,70.621s105.931,0,194.207-70.621  C450.207,335.448,423.724,211.862,406.069,114.759z"/>
<path style="fill:#E6873C;" d="M282.22,1.949C272.579,0.584,263.607,0,256,0c-44.138,0-132.414,17.655-150.069,114.759  s-44.138,220.69-44.138,220.69c58.067,46.454,112.204,62.28,150.069,67.72V176.552C211.862,176.552,219.362,49.897,282.22,1.949z"/>
<path style="fill:#FF6472;" d="M300.138,326.621v30.82c0,7.883,5.226,14.81,12.804,16.975l73.226,20.921  c22.937,6.553,40.054,25.726,43.977,49.257l7.808,46.847c1.793,10.762-6.505,20.558-17.415,20.558H91.461  c-10.91,0-19.209-9.796-17.415-20.557l7.808-46.847c3.922-23.531,21.038-42.703,43.977-49.257l73.226-20.921  c7.58-2.166,12.804-9.094,12.804-16.975v-30.821H300.138z"/>
<path style="fill:#FAD7A5;" d="M256,476.69c54.771,0,101.148-35.665,117.362-85.01l-60.419-17.263  c-7.58-2.165-12.804-9.094-12.804-16.975v-30.82h-88.276v30.82c0,7.883-5.226,14.81-12.804,16.975l-60.419,17.263  C154.852,441.025,201.229,476.69,256,476.69z"/>
<path style="fill:#F0C891;" d="M300.138,335.448l-24.276-8.828h-64v30.82c0,7.883-5.226,14.81-12.804,16.975l-18.71,5.345v0.001  C254.764,415.251,300.138,335.448,300.138,335.448z"/>
<g>
	<path style="fill:#D25566;" d="M100.725,409.69c-9.753,9.111-16.59,21.223-18.87,34.905l-7.808,46.847   C72.253,502.204,80.551,512,91.461,512h49.78v-30.282c0-9.021-2.764-17.824-7.919-25.226L100.725,409.69z"/>
	<path style="fill:#D25566;" d="M411.275,409.69c9.753,9.111,16.59,21.223,18.87,34.905l7.808,46.847   c1.793,10.761-6.505,20.557-17.415,20.557h-49.78v-30.282c0-9.021,2.764-17.824,7.919-25.226L411.275,409.69z"/>
</g>
<path style="fill:#FFE1B4;" d="M388.413,203.034v-79.448H123.586v79.448c-9.75,0-17.655,7.904-17.655,17.655v17.655  c0,9.75,7.905,17.655,17.655,17.655c0.487,0,0.943-0.105,1.42-0.143c5.282,29.652,25.44,55.026,54.07,66.477l44.138,17.655  c21.046,8.418,44.524,8.418,65.57,0l44.138-17.655c28.631-11.452,48.789-36.825,54.07-66.477c0.477,0.039,0.934,0.143,1.42,0.143  c9.75,0,17.655-7.905,17.655-17.655V220.69C406.069,210.938,398.163,203.034,388.413,203.034z"/>
<path style="fill:#FAD7A5;" d="M123.586,123.586v79.448c-9.75,0-17.655,7.904-17.655,17.655v17.655  c0,9.75,7.905,17.655,17.655,17.655c0.487,0,0.943-0.105,1.42-0.143c5.282,29.652,25.44,55.026,54.07,66.477l44.138,17.655  c9.963,3.986,20.472,6.018,31.009,6.23c-29.95-13.291-52.14-34.766-66.545-52.321c-12.942-15.775-19.955-35.525-19.955-55.93  v-29.705c0-8.936,6.677-16.462,15.549-17.529l74.382-8.94l4.966,20.966c0,0,67.862-11.034,98.483-23.724l18.483-37.793v-17.655  H123.586z"/>
<path style="fill:#D7AF7D;" d="M256,300.138c-15.694,0-30.375-3.862-40.276-10.599c-4.03-2.741-5.078-8.233-2.332-12.263  c2.737-4.025,8.233-5.074,12.263-2.332c6.94,4.719,18.284,7.539,30.345,7.539c12.061,0,23.405-2.819,30.345-7.539  c4.039-2.745,9.522-1.703,12.263,2.332c2.745,4.03,1.698,9.522-2.332,12.263C286.374,296.276,271.694,300.138,256,300.138z"/>
<g>
	<path style="fill:#5A4137;" d="M189.793,238.345L189.793,238.345c-7.313,0-13.241-5.929-13.241-13.241v-8.828   c0-7.313,5.929-13.241,13.241-13.241l0,0c7.313,0,13.241,5.929,13.241,13.241v8.828   C203.034,232.416,197.105,238.345,189.793,238.345z"/>
	<path style="fill:#5A4137;" d="M322.207,238.345L322.207,238.345c-7.313,0-13.241-5.929-13.241-13.241v-8.828   c0-7.313,5.929-13.241,13.241-13.241l0,0c7.313,0,13.241,5.929,13.241,13.241v8.828   C335.448,232.416,329.519,238.345,322.207,238.345z"/>
</g>
<path style="fill:#FF9842;" d="M123.586,203.034c0-8.828,0-35.31,26.483-70.621l8.828,44.138l88.276-8.828l17.655-26.483  l8.828,44.138c0,0,72.276-13.241,79.448-17.655l17.655-26.483c0,0,17.655,26.483,17.655,61.793h17.655l1.628-62.521  c0.389-14.944-11.661-27.249-26.61-27.171l-248.809,1.281c-14.573,0.075-26.347,11.91-26.347,26.483v61.929H123.586z"/>
<g>
	<path style="fill:#FF6472;" d="M358.177,94.489l-66.325,2.802c-4.884,0.206-7.969-5.249-6.15-10.874L300.131,41.8   c1.82-5.626,7.513-8.243,11.352-5.215l52.126,41.107L358.177,94.489z"/>
	<path style="fill:#FF6472;" d="M371.772,98.886l52.126,41.107c3.839,3.027,9.533,0.412,11.352-5.215l14.429-44.617   c1.82-5.626-1.265-11.081-6.15-10.874l-66.325,2.802L371.772,98.886z"/>
</g>
<path style="fill:#C95264;" d="M416.728,108.786L315.936,76.192c-2.322-0.75-3.592-3.236-2.841-5.558s3.236-3.592,5.558-2.841  l100.792,32.594c2.322,0.75,3.592,3.236,2.841,5.558C421.536,108.265,419.05,109.536,416.728,108.786z"/>
<path style="fill:#A5465A;" d="M370.658,107.804l-16.799-5.432c-4.639-1.5-7.183-6.476-5.683-11.115l5.432-16.799  c1.5-4.639,6.477-7.183,11.115-5.683l16.799,5.432c4.639,1.5,7.183,6.476,5.683,11.115l-5.432,16.799  C380.273,106.759,375.297,109.303,370.658,107.804z"/>
<path style="fill:#D25566;" d="M125.831,395.339c-1.409,0.403-2.722,0.994-4.085,1.491l0.119,0.362  c19.094,58.11,72.999,97.153,134.134,97.153s115.04-39.043,134.135-97.153l0.119-0.362c-1.363-0.495-2.677-1.088-4.086-1.491  l-12.807-3.659C357.147,441.025,310.77,476.69,256,476.69s-101.148-35.665-117.362-85.01L125.831,395.339z"/>
<path style="fill:#E6873C;" d="M221.732,114.162l-89.455,0.46c-14.572,0.076-26.346,11.911-26.346,26.483v61.93h17.655  c0-8.828,0-35.31,26.483-70.621l8.828,44.138l53.394-5.34C213.166,161.567,215.649,139.73,221.732,114.162z"/>
<g>
</g>
<g>
</g>
<g>
</g>
<g>
</g>
<g>
</g>
<g>
</g>
<g>
</g>
<g>
</g>
<g>
</g>
<g>
</g>
<g>
</g>
<g>
</g>
<g>
</g>
<g>
</g>
<g>
</g>
</svg>
  <svg xmlns:xlink="http://www.w3.org/1999/xlink" version="1.1" id="Layer_1" x="300.0" y="160.0" viewBox="0 0 512 512" style="enable-background:new 0 0 512 512;" xml:space="preserve" width="30" height="30">
<path style="fill:#FF9842;" d="M406.069,114.759C388.413,17.655,300.138,0,256,0S123.586,17.655,105.931,114.759  s-44.138,220.69-44.138,220.69c88.276,70.621,167.724,70.621,194.207,70.621s105.931,0,194.207-70.621  C450.207,335.448,423.724,211.862,406.069,114.759z"/>
<path style="fill:#E6873C;" d="M282.22,1.949C272.579,0.584,263.607,0,256,0c-44.138,0-132.414,17.655-150.069,114.759  s-44.138,220.69-44.138,220.69c58.067,46.454,112.204,62.28,150.069,67.72V176.552C211.862,176.552,219.362,49.897,282.22,1.949z"/>
<path style="fill:#FF6472;" d="M300.138,326.621v30.82c0,7.883,5.226,14.81,12.804,16.975l73.226,20.921  c22.937,6.553,40.054,25.726,43.977,49.257l7.808,46.847c1.793,10.762-6.505,20.558-17.415,20.558H91.461  c-10.91,0-19.209-9.796-17.415-20.557l7.808-46.847c3.922-23.531,21.038-42.703,43.977-49.257l73.226-20.921  c7.58-2.166,12.804-9.094,12.804-16.975v-30.821H300.138z"/>
<path style="fill:#FAD7A5;" d="M256,476.69c54.771,0,101.148-35.665,117.362-85.01l-60.419-17.263  c-7.58-2.165-12.804-9.094-12.804-16.975v-30.82h-88.276v30.82c0,7.883-5.226,14.81-12.804,16.975l-60.419,17.263  C154.852,441.025,201.229,476.69,256,476.69z"/>
<path style="fill:#F0C891;" d="M300.138,335.448l-24.276-8.828h-64v30.82c0,7.883-5.226,14.81-12.804,16.975l-18.71,5.345v0.001  C254.764,415.251,300.138,335.448,300.138,335.448z"/>
<g>
	<path style="fill:#D25566;" d="M100.725,409.69c-9.753,9.111-16.59,21.223-18.87,34.905l-7.808,46.847   C72.253,502.204,80.551,512,91.461,512h49.78v-30.282c0-9.021-2.764-17.824-7.919-25.226L100.725,409.69z"/>
	<path style="fill:#D25566;" d="M411.275,409.69c9.753,9.111,16.59,21.223,18.87,34.905l7.808,46.847   c1.793,10.761-6.505,20.557-17.415,20.557h-49.78v-30.282c0-9.021,2.764-17.824,7.919-25.226L411.275,409.69z"/>
</g>
<path style="fill:#FFE1B4;" d="M388.413,203.034v-79.448H123.586v79.448c-9.75,0-17.655,7.904-17.655,17.655v17.655  c0,9.75,7.905,17.655,17.655,17.655c0.487,0,0.943-0.105,1.42-0.143c5.282,29.652,25.44,55.026,54.07,66.477l44.138,17.655  c21.046,8.418,44.524,8.418,65.57,0l44.138-17.655c28.631-11.452,48.789-36.825,54.07-66.477c0.477,0.039,0.934,0.143,1.42,0.143  c9.75,0,17.655-7.905,17.655-17.655V220.69C406.069,210.938,398.163,203.034,388.413,203.034z"/>
<path style="fill:#FAD7A5;" d="M123.586,123.586v79.448c-9.75,0-17.655,7.904-17.655,17.655v17.655  c0,9.75,7.905,17.655,17.655,17.655c0.487,0,0.943-0.105,1.42-0.143c5.282,29.652,25.44,55.026,54.07,66.477l44.138,17.655  c9.963,3.986,20.472,6.018,31.009,6.23c-29.95-13.291-52.14-34.766-66.545-52.321c-12.942-15.775-19.955-35.525-19.955-55.93  v-29.705c0-8.936,6.677-16.462,15.549-17.529l74.382-8.94l4.966,20.966c0,0,67.862-11.034,98.483-23.724l18.483-37.793v-17.655  H123.586z"/>
<path style="fill:#D7AF7D;" d="M256,300.138c-15.694,0-30.375-3.862-40.276-10.599c-4.03-2.741-5.078-8.233-2.332-12.263  c2.737-4.025,8.233-5.074,12.263-2.332c6.94,4.719,18.284,7.539,30.345,7.539c12.061,0,23.405-2.819,30.345-7.539  c4.039-2.745,9.522-1.703,12.263,2.332c2.745,4.03,1.698,9.522-2.332,12.263C286.374,296.276,271.694,300.138,256,300.138z"/>
<g>
	<path style="fill:#5A4137;" d="M189.793,238.345L189.793,238.345c-7.313,0-13.241-5.929-13.241-13.241v-8.828   c0-7.313,5.929-13.241,13.241-13.241l0,0c7.313,0,13.241,5.929,13.241,13.241v8.828   C203.034,232.416,197.105,238.345,189.793,238.345z"/>
	<path style="fill:#5A4137;" d="M322.207,238.345L322.207,238.345c-7.313,0-13.241-5.929-13.241-13.241v-8.828   c0-7.313,5.929-13.241,13.241-13.241l0,0c7.313,0,13.241,5.929,13.241,13.241v8.828   C335.448,232.416,329.519,238.345,322.207,238.345z"/>
</g>
<path style="fill:#FF9842;" d="M123.586,203.034c0-8.828,0-35.31,26.483-70.621l8.828,44.138l88.276-8.828l17.655-26.483  l8.828,44.138c0,0,72.276-13.241,79.448-17.655l17.655-26.483c0,0,17.655,26.483,17.655,61.793h17.655l1.628-62.521  c0.389-14.944-11.661-27.249-26.61-27.171l-248.809,1.281c-14.573,0.075-26.347,11.91-26.347,26.483v61.929H123.586z"/>
<g>
	<path style="fill:#FF6472;" d="M358.177,94.489l-66.325,2.802c-4.884,0.206-7.969-5.249-6.15-10.874L300.131,41.8   c1.82-5.626,7.513-8.243,11.352-5.215l52.126,41.107L358.177,94.489z"/>
	<path style="fill:#FF6472;" d="M371.772,98.886l52.126,41.107c3.839,3.027,9.533,0.412,11.352-5.215l14.429-44.617   c1.82-5.626-1.265-11.081-6.15-10.874l-66.325,2.802L371.772,98.886z"/>
</g>
<path style="fill:#C95264;" d="M416.728,108.786L315.936,76.192c-2.322-0.75-3.592-3.236-2.841-5.558s3.236-3.592,5.558-2.841  l100.792,32.594c2.322,0.75,3.592,3.236,2.841,5.558C421.536,108.265,419.05,109.536,416.728,108.786z"/>
<path style="fill:#A5465A;" d="M370.658,107.804l-16.799-5.432c-4.639-1.5-7.183-6.476-5.683-11.115l5.432-16.799  c1.5-4.639,6.477-7.183,11.115-5.683l16.799,5.432c4.639,1.5,7.183,6.476,5.683,11.115l-5.432,16.799  C380.273,106.759,375.297,109.303,370.658,107.804z"/>
<path style="fill:#D25566;" d="M125.831,395.339c-1.409,0.403-2.722,0.994-4.085,1.491l0.119,0.362  c19.094,58.11,72.999,97.153,134.134,97.153s115.04-39.043,134.135-97.153l0.119-0.362c-1.363-0.495-2.677-1.088-4.086-1.491  l-12.807-3.659C357.147,441.025,310.77,476.69,256,476.69s-101.148-35.665-117.362-85.01L125.831,395.339z"/>
<path style="fill:#E6873C;" d="M221.732,114.162l-89.455,0.46c-14.572,0.076-26.346,11.911-26.346,26.483v61.93h17.655  c0-8.828,0-35.31,26.483-70.621l8.828,44.138l53.394-5.34C213.166,161.567,215.649,139.73,221.732,114.162z"/>
<g>
</g>
<g>
</g>
<g>
</g>
<g>
</g>
<g>
</g>
<g>
</g>
<g>
</g>
<g>
</g>
<g>
</g>
<g>
</g>
<g>
</g>
<g>
</g>
<g>
</g>
<g>
</g>
<g>
</g>
</svg>
  <rect x="510" y="100" width="160" height="120.0" stroke="black" fill="none"/>
  <text x="670" y="173.0" style="font-size: 60px;" text_anchor="middle" dominant_baseline="middle">)</text>
  <g>
    <svg width="40" height="40" viewBox="0 0 25 25" fill="none" x="551.0" y="55">
<path d="M16.5 15V19.5H5.5V5.5H16.5V10M10 12.5H22.5" stroke="#121923" stroke-width="1.2"/>
<path d="M20 10L22.5 12.5L20 15" stroke="#121923" stroke-width="1.2"/>
</svg>
    <text x="601.0" y="75.0" style="font-size: 15px;" dominant_baseline="middle" text_anchor="middle">left</text>
  </g>
  <svg xmlns:xlink="http://www.w3.org/1999/xlink" version="1.1" id="Layer_1" x="530.0" y="120.0" viewBox="0 0 512 512" style="enable-background:new 0 0 512 512;" xml:space="preserve" width="30" height="30">
<path style="fill:#00BEA5;" d="M300.051,326.987v30.759c0,7.867,5.216,14.781,12.779,16.942l73.081,20.88  c22.892,6.54,39.975,25.675,43.89,49.159l7.793,46.754c1.79,10.741-6.492,20.517-17.38,20.517H91.787  c-10.888,0-19.171-9.777-17.38-20.517l7.793-46.754c3.914-23.485,20.997-42.619,43.89-49.159l73.081-20.88  c7.565-2.162,12.779-9.076,12.779-16.942v-30.759H300.051z"/>
<path style="fill:#B48764;" d="M256.001,441.519c37.232,0,68.291-26.398,75.503-61.495l-18.673-5.335  c-7.565-2.161-12.779-9.076-12.779-16.942v-30.759H211.95v30.759c0,7.867-5.216,14.781-12.779,16.942l-18.673,5.335  C187.709,415.122,218.769,441.519,256.001,441.519z"/>
<path style="fill:#966D50;" d="M300.051,335.798l-24.228-8.81H211.95v30.759c0,7.867-5.216,14.781-12.779,16.942l-18.673,5.335  v0.001C254.767,415.443,300.051,335.798,300.051,335.798z"/>
<path style="fill:#553732;" d="M379.343,36.253c2.203-15.418,18.722-7.342,18.722-7.342c-11.013-57.266-125.911-8.076-125.911-8.076  l10.646-11.013c-53.503-30.147-120.405,18.722-120.405,18.722c-20.924-6.608-73.785,13.95-73.785,64.24  c0,51.393,26.43,128.482,26.43,128.482h290.734c0,0,8.81-96.912,8.81-132.152S379.343,36.253,379.343,36.253z"/>
<path style="fill:#64463C;" d="M398.064,28.911c-36.342-45.519-104.07,10.646-104.07,10.646  c35.241,2.753,31.386,44.601,31.386,44.601c-7.709-12.665-19.272-10.462-19.272-10.462c-1.652,40.196-28.633,79.291-43.133,86.266  l0.735,61.304h142.063c0,0,8.81-96.912,8.81-132.152s-35.241-52.861-35.241-52.861C381.545,20.835,398.064,28.911,398.064,28.911z"/>
<path style="fill:#C39772;" d="M388.153,203.646v-79.291H123.849v79.291c-9.731,0-17.62,7.888-17.62,17.62v17.62  c0,9.731,7.889,17.62,17.62,17.62c0.486,0,0.942-0.105,1.417-0.143c5.272,29.593,25.39,54.917,53.963,66.346l44.051,17.62  c21.004,8.402,44.436,8.402,65.441,0l44.051-17.62c28.575-11.429,48.693-36.753,53.963-66.346c0.476,0.039,0.932,0.143,1.417,0.143  c9.731,0,17.62-7.889,17.62-17.62v-17.62C405.773,211.534,397.884,203.646,388.153,203.646z"/>
<path style="fill:#B48764;" d="M352.912,124.354H123.849v79.291c-9.731,0-17.62,7.888-17.62,17.62v17.62  c0,9.731,7.889,17.62,17.62,17.62c0.486,0,0.942-0.105,1.417-0.143c5.272,29.593,25.39,54.917,53.963,66.346l44.051,17.62  c9.943,3.978,20.432,6.006,30.948,6.218c-29.898-13.268-52.048-34.709-66.423-52.23c-12.912-15.74-19.907-35.449-19.907-55.808  v-64.659c0-9.137,6.981-16.876,16.094-17.533c14.479-1.044,27.869-5.533,36.767-5.533c26.43,0,61.671-8.81,114.532,8.81  c34.461,11.487,44.051-8.81,44.051-8.81L352.912,124.354z"/>
<path style="fill:#553732;" d="M132.659,203.646c0,0,0-44.051,26.43-70.481c0,0,17.115,6.46,52.861,0c22.851-4.13,27.165,0,27.165,0  s-1.836,18.171-27.165,26.43c0,0,26.43,17.62,52.861-8.81l-1.836,9.177c0,0,27.898,5.506,52.861-23.861  c0,0,9.545-0.735,19.456,5.873c17.292,11.528,35.241,4.894,35.241,4.894s17.62,21.536,17.62,56.777h17.62v-96.912H115.038v96.912  h17.62V203.646z"/>
<path style="fill:#966D50;" d="M256.001,300.557c-15.663,0-30.315-3.854-40.196-10.578c-4.022-2.736-5.068-8.217-2.327-12.238  c2.731-4.017,8.217-5.064,12.238-2.327c6.926,4.71,18.248,7.524,30.285,7.524c12.037,0,23.359-2.814,30.285-7.524  c4.031-2.74,9.503-1.699,12.238,2.327c2.74,4.022,1.695,9.503-2.327,12.238C286.315,296.703,271.663,300.557,256.001,300.557z"/>
<path style="fill:#64463C;" d="M315.836,136.102c0,0,9.545-0.735,19.456,5.874c17.292,11.528,35.241,4.894,35.241,4.894  s17.62,21.536,17.62,56.777h17.62v-96.912H299.467c-9.286,26.635-26.082,48.221-36.49,53.228  C262.975,159.962,290.873,165.468,315.836,136.102z"/>
<g>
	<path style="fill:#5A4137;" d="M189.925,238.886L189.925,238.886c-7.298,0-13.215-5.917-13.215-13.215v-8.81   c0-7.298,5.917-13.215,13.215-13.215l0,0c7.298,0,13.215,5.917,13.215,13.215v8.81C203.14,232.97,197.223,238.886,189.925,238.886z   "/>
	<path style="fill:#5A4137;" d="M322.077,238.886L322.077,238.886c-7.298,0-13.215-5.917-13.215-13.215v-8.81   c0-7.298,5.917-13.215,13.215-13.215l0,0c7.298,0,13.215,5.917,13.215,13.215v8.81C335.292,232.97,329.375,238.886,322.077,238.886   z"/>
</g>
<g>
	<path style="fill:#00AA9A;" d="M256.001,459.14c44.307,0,82.936-31.168,92.435-74.277l-16.922-4.835l-0.01-0.002   c-7.212,35.095-38.271,61.494-75.503,61.494s-68.291-26.398-75.503-61.494l-0.01,0.002l-16.922,4.835   C173.064,427.971,211.692,459.14,256.001,459.14z"/>
	<path style="fill:#00AA9A;" d="M101.032,409.893c-9.734,9.093-16.558,21.181-18.833,34.836l-7.793,46.754   C72.617,502.223,80.898,512,91.786,512h49.681v-30.222c0-9.003-2.759-17.789-7.904-25.176L101.032,409.893z"/>
	<path style="fill:#00AA9A;" d="M410.969,409.893c9.734,9.093,16.558,21.181,18.833,34.836l7.793,46.754   c1.79,10.74-6.492,20.517-17.38,20.517h-49.681v-30.222c0-9.003,2.759-17.789,7.904-25.176L410.969,409.893z"/>
</g>
<g>
</g>
<g>
</g>
<g>
</g>
<g>
</g>
<g>
</g>
<g>
</g>
<g>
</g>
<g>
</g>
<g>
</g>
<g>
</g>
<g>
</g>
<g>
</g>
<g>
</g>
<g>
</g>
<g>
</g>
</svg>
  <svg xmlns:xlink="http://www.w3.org/1999/xlink" version="1.1" id="Layer_1" x="570.0" y="120.0" viewBox="0 0 512 512" style="enable-background:new 0 0 512 512;" xml:space="preserve" width="30" height="30">
<path style="fill:#00BEA5;" d="M300.051,326.987v30.759c0,7.867,5.216,14.781,12.779,16.942l73.081,20.88  c22.892,6.54,39.975,25.675,43.89,49.159l7.793,46.754c1.79,10.741-6.492,20.517-17.38,20.517H91.787  c-10.888,0-19.171-9.777-17.38-20.517l7.793-46.754c3.914-23.485,20.997-42.619,43.89-49.159l73.081-20.88  c7.565-2.162,12.779-9.076,12.779-16.942v-30.759H300.051z"/>
<path style="fill:#B48764;" d="M256.001,441.519c37.232,0,68.291-26.398,75.503-61.495l-18.673-5.335  c-7.565-2.161-12.779-9.076-12.779-16.942v-30.759H211.95v30.759c0,7.867-5.216,14.781-12.779,16.942l-18.673,5.335  C187.709,415.122,218.769,441.519,256.001,441.519z"/>
<path style="fill:#966D50;" d="M300.051,335.798l-24.228-8.81H211.95v30.759c0,7.867-5.216,14.781-12.779,16.942l-18.673,5.335  v0.001C254.767,415.443,300.051,335.798,300.051,335.798z"/>
<path style="fill:#553732;" d="M379.343,36.253c2.203-15.418,18.722-7.342,18.722-7.342c-11.013-57.266-125.911-8.076-125.911-8.076  l10.646-11.013c-53.503-30.147-120.405,18.722-120.405,18.722c-20.924-6.608-73.785,13.95-73.785,64.24  c0,51.393,26.43,128.482,26.43,128.482h290.734c0,0,8.81-96.912,8.81-132.152S379.343,36.253,379.343,36.253z"/>
<path style="fill:#64463C;" d="M398.064,28.911c-36.342-45.519-104.07,10.646-104.07,10.646  c35.241,2.753,31.386,44.601,31.386,44.601c-7.709-12.665-19.272-10.462-19.272-10.462c-1.652,40.196-28.633,79.291-43.133,86.266  l0.735,61.304h142.063c0,0,8.81-96.912,8.81-132.152s-35.241-52.861-35.241-52.861C381.545,20.835,398.064,28.911,398.064,28.911z"/>
<path style="fill:#C39772;" d="M388.153,203.646v-79.291H123.849v79.291c-9.731,0-17.62,7.888-17.62,17.62v17.62  c0,9.731,7.889,17.62,17.62,17.62c0.486,0,0.942-0.105,1.417-0.143c5.272,29.593,25.39,54.917,53.963,66.346l44.051,17.62  c21.004,8.402,44.436,8.402,65.441,0l44.051-17.62c28.575-11.429,48.693-36.753,53.963-66.346c0.476,0.039,0.932,0.143,1.417,0.143  c9.731,0,17.62-7.889,17.62-17.62v-17.62C405.773,211.534,397.884,203.646,388.153,203.646z"/>
<path style="fill:#B48764;" d="M352.912,124.354H123.849v79.291c-9.731,0-17.62,7.888-17.62,17.62v17.62  c0,9.731,7.889,17.62,17.62,17.62c0.486,0,0.942-0.105,1.417-0.143c5.272,29.593,25.39,54.917,53.963,66.346l44.051,17.62  c9.943,3.978,20.432,6.006,30.948,6.218c-29.898-13.268-52.048-34.709-66.423-52.23c-12.912-15.74-19.907-35.449-19.907-55.808  v-64.659c0-9.137,6.981-16.876,16.094-17.533c14.479-1.044,27.869-5.533,36.767-5.533c26.43,0,61.671-8.81,114.532,8.81  c34.461,11.487,44.051-8.81,44.051-8.81L352.912,124.354z"/>
<path style="fill:#553732;" d="M132.659,203.646c0,0,0-44.051,26.43-70.481c0,0,17.115,6.46,52.861,0c22.851-4.13,27.165,0,27.165,0  s-1.836,18.171-27.165,26.43c0,0,26.43,17.62,52.861-8.81l-1.836,9.177c0,0,27.898,5.506,52.861-23.861  c0,0,9.545-0.735,19.456,5.873c17.292,11.528,35.241,4.894,35.241,4.894s17.62,21.536,17.62,56.777h17.62v-96.912H115.038v96.912  h17.62V203.646z"/>
<path style="fill:#966D50;" d="M256.001,300.557c-15.663,0-30.315-3.854-40.196-10.578c-4.022-2.736-5.068-8.217-2.327-12.238  c2.731-4.017,8.217-5.064,12.238-2.327c6.926,4.71,18.248,7.524,30.285,7.524c12.037,0,23.359-2.814,30.285-7.524  c4.031-2.74,9.503-1.699,12.238,2.327c2.74,4.022,1.695,9.503-2.327,12.238C286.315,296.703,271.663,300.557,256.001,300.557z"/>
<path style="fill:#64463C;" d="M315.836,136.102c0,0,9.545-0.735,19.456,5.874c17.292,11.528,35.241,4.894,35.241,4.894  s17.62,21.536,17.62,56.777h17.62v-96.912H299.467c-9.286,26.635-26.082,48.221-36.49,53.228  C262.975,159.962,290.873,165.468,315.836,136.102z"/>
<g>
	<path style="fill:#5A4137;" d="M189.925,238.886L189.925,238.886c-7.298,0-13.215-5.917-13.215-13.215v-8.81   c0-7.298,5.917-13.215,13.215-13.215l0,0c7.298,0,13.215,5.917,13.215,13.215v8.81C203.14,232.97,197.223,238.886,189.925,238.886z   "/>
	<path style="fill:#5A4137;" d="M322.077,238.886L322.077,238.886c-7.298,0-13.215-5.917-13.215-13.215v-8.81   c0-7.298,5.917-13.215,13.215-13.215l0,0c7.298,0,13.215,5.917,13.215,13.215v8.81C335.292,232.97,329.375,238.886,322.077,238.886   z"/>
</g>
<g>
	<path style="fill:#00AA9A;" d="M256.001,459.14c44.307,0,82.936-31.168,92.435-74.277l-16.922-4.835l-0.01-0.002   c-7.212,35.095-38.271,61.494-75.503,61.494s-68.291-26.398-75.503-61.494l-0.01,0.002l-16.922,4.835   C173.064,427.971,211.692,459.14,256.001,459.14z"/>
	<path style="fill:#00AA9A;" d="M101.032,409.893c-9.734,9.093-16.558,21.181-18.833,34.836l-7.793,46.754   C72.617,502.223,80.898,512,91.786,512h49.681v-30.222c0-9.003-2.759-17.789-7.904-25.176L101.032,409.893z"/>
	<path style="fill:#00AA9A;" d="M410.969,409.893c9.734,9.093,16.558,21.181,18.833,34.836l7.793,46.754   c1.79,10.74-6.492,20.517-17.38,20.517h-49.681v-30.222c0-9.003,2.759-17.789,7.904-25.176L410.969,409.893z"/>
</g>
<g>
</g>
<g>
</g>
<g>
</g>
<g>
</g>
<g>
</g>
<g>
</g>
<g>
</g>
<g>
</g>
<g>
</g>
<g>
</g>
<g>
</g>
<g>
</g>
<g>
</g>
<g>
</g>
<g>
</g>
</svg>
  <svg xmlns:xlink="http://www.w3.org/1999/xlink" version="1.1" id="Layer_1" x="610.0" y="120.0" viewBox="0 0 512 512" style="enable-background:new 0 0 512 512;" xml:space="preserve" width="30" height="30">
<path style="fill:#00BEA5;" d="M300.051,326.987v30.759c0,7.867,5.216,14.781,12.779,16.942l73.081,20.88  c22.892,6.54,39.975,25.675,43.89,49.159l7.793,46.754c1.79,10.741-6.492,20.517-17.38,20.517H91.787  c-10.888,0-19.171-9.777-17.38-20.517l7.793-46.754c3.914-23.485,20.997-42.619,43.89-49.159l73.081-20.88  c7.565-2.162,12.779-9.076,12.779-16.942v-30.759H300.051z"/>
<path style="fill:#B48764;" d="M256.001,441.519c37.232,0,68.291-26.398,75.503-61.495l-18.673-5.335  c-7.565-2.161-12.779-9.076-12.779-16.942v-30.759H211.95v30.759c0,7.867-5.216,14.781-12.779,16.942l-18.673,5.335  C187.709,415.122,218.769,441.519,256.001,441.519z"/>
<path style="fill:#966D50;" d="M300.051,335.798l-24.228-8.81H211.95v30.759c0,7.867-5.216,14.781-12.779,16.942l-18.673,5.335  v0.001C254.767,415.443,300.051,335.798,300.051,335.798z"/>
<path style="fill:#553732;" d="M379.343,36.253c2.203-15.418,18.722-7.342,18.722-7.342c-11.013-57.266-125.911-8.076-125.911-8.076  l10.646-11.013c-53.503-30.147-120.405,18.722-120.405,18.722c-20.924-6.608-73.785,13.95-73.785,64.24  c0,51.393,26.43,128.482,26.43,128.482h290.734c0,0,8.81-96.912,8.81-132.152S379.343,36.253,379.343,36.253z"/>
<path style="fill:#64463C;" d="M398.064,28.911c-36.342-45.519-104.07,10.646-104.07,10.646  c35.241,2.753,31.386,44.601,31.386,44.601c-7.709-12.665-19.272-10.462-19.272-10.462c-1.652,40.196-28.633,79.291-43.133,86.266  l0.735,61.304h142.063c0,0,8.81-96.912,8.81-132.152s-35.241-52.861-35.241-52.861C381.545,20.835,398.064,28.911,398.064,28.911z"/>
<path style="fill:#C39772;" d="M388.153,203.646v-79.291H123.849v79.291c-9.731,0-17.62,7.888-17.62,17.62v17.62  c0,9.731,7.889,17.62,17.62,17.62c0.486,0,0.942-0.105,1.417-0.143c5.272,29.593,25.39,54.917,53.963,66.346l44.051,17.62  c21.004,8.402,44.436,8.402,65.441,0l44.051-17.62c28.575-11.429,48.693-36.753,53.963-66.346c0.476,0.039,0.932,0.143,1.417,0.143  c9.731,0,17.62-7.889,17.62-17.62v-17.62C405.773,211.534,397.884,203.646,388.153,203.646z"/>
<path style="fill:#B48764;" d="M352.912,124.354H123.849v79.291c-9.731,0-17.62,7.888-17.62,17.62v17.62  c0,9.731,7.889,17.62,17.62,17.62c0.486,0,0.942-0.105,1.417-0.143c5.272,29.593,25.39,54.917,53.963,66.346l44.051,17.62  c9.943,3.978,20.432,6.006,30.948,6.218c-29.898-13.268-52.048-34.709-66.423-52.23c-12.912-15.74-19.907-35.449-19.907-55.808  v-64.659c0-9.137,6.981-16.876,16.094-17.533c14.479-1.044,27.869-5.533,36.767-5.533c26.43,0,61.671-8.81,114.532,8.81  c34.461,11.487,44.051-8.81,44.051-8.81L352.912,124.354z"/>
<path style="fill:#553732;" d="M132.659,203.646c0,0,0-44.051,26.43-70.481c0,0,17.115,6.46,52.861,0c22.851-4.13,27.165,0,27.165,0  s-1.836,18.171-27.165,26.43c0,0,26.43,17.62,52.861-8.81l-1.836,9.177c0,0,27.898,5.506,52.861-23.861  c0,0,9.545-0.735,19.456,5.873c17.292,11.528,35.241,4.894,35.241,4.894s17.62,21.536,17.62,56.777h17.62v-96.912H115.038v96.912  h17.62V203.646z"/>
<path style="fill:#966D50;" d="M256.001,300.557c-15.663,0-30.315-3.854-40.196-10.578c-4.022-2.736-5.068-8.217-2.327-12.238  c2.731-4.017,8.217-5.064,12.238-2.327c6.926,4.71,18.248,7.524,30.285,7.524c12.037,0,23.359-2.814,30.285-7.524  c4.031-2.74,9.503-1.699,12.238,2.327c2.74,4.022,1.695,9.503-2.327,12.238C286.315,296.703,271.663,300.557,256.001,300.557z"/>
<path style="fill:#64463C;" d="M315.836,136.102c0,0,9.545-0.735,19.456,5.874c17.292,11.528,35.241,4.894,35.241,4.894  s17.62,21.536,17.62,56.777h17.62v-96.912H299.467c-9.286,26.635-26.082,48.221-36.49,53.228  C262.975,159.962,290.873,165.468,315.836,136.102z"/>
<g>
	<path style="fill:#5A4137;" d="M189.925,238.886L189.925,238.886c-7.298,0-13.215-5.917-13.215-13.215v-8.81   c0-7.298,5.917-13.215,13.215-13.215l0,0c7.298,0,13.215,5.917,13.215,13.215v8.81C203.14,232.97,197.223,238.886,189.925,238.886z   "/>
	<path style="fill:#5A4137;" d="M322.077,238.886L322.077,238.886c-7.298,0-13.215-5.917-13.215-13.215v-8.81   c0-7.298,5.917-13.215,13.215-13.215l0,0c7.298,0,13.215,5.917,13.215,13.215v8.81C335.292,232.97,329.375,238.886,322.077,238.886   z"/>
</g>
<g>
	<path style="fill:#00AA9A;" d="M256.001,459.14c44.307,0,82.936-31.168,92.435-74.277l-16.922-4.835l-0.01-0.002   c-7.212,35.095-38.271,61.494-75.503,61.494s-68.291-26.398-75.503-61.494l-0.01,0.002l-16.922,4.835   C173.064,427.971,211.692,459.14,256.001,459.14z"/>
	<path style="fill:#00AA9A;" d="M101.032,409.893c-9.734,9.093-16.558,21.181-18.833,34.836l-7.793,46.754   C72.617,502.223,80.898,512,91.786,512h49.681v-30.222c0-9.003-2.759-17.789-7.904-25.176L101.032,409.893z"/>
	<path style="fill:#00AA9A;" d="M410.969,409.893c9.734,9.093,16.558,21.181,18.833,34.836l7.793,46.754   c1.79,10.74-6.492,20.517-17.38,20.517h-49.681v-30.222c0-9.003,2.759-17.789,7.904-25.176L410.969,409.893z"/>
</g>
<g>
</g>
<g>
</g>
<g>
</g>
<g>
</g>
<g>
</g>
<g>
</g>
<g>
</g>
<g>
</g>
<g>
</g>
<g>
</g>
<g>
</g>
<g>
</g>
<g>
</g>
<g>
</g>
<g>
</g>
</svg>
  <rect x="740" y="100" width="160" height="120.0" stroke="black" fill="none"/>
  <g>
    <svg width="40" height="40" viewBox="0 0 24 24" fill="none" x="774.0" y="55">

<g clip-path="url(#clip0_105_1855)">

<path d="M9 4.00024H19V18.0002C19 19.1048 18.1046 20.0002 17 20.0002H9" stroke="#292929" stroke-linecap="round" stroke-linejoin="round" stroke-width="2"/>

<path d="M12 15.0002L15 12.0002M15 12.0002L12 9.00024M15 12.0002H5" stroke="#292929" stroke-linecap="round" stroke-linejoin="round" stroke-width="2"/>

</g>

<defs>

<clipPath id="clip0_105_1855">

<rect fill="white" height="24" transform="translate(0 0.000244141)" width="24"/>

</clipPath>

</defs>

</svg>
    <text x="824.0" y="75.0" style="font-size: 15px;" dominant_baseline="middle" text_anchor="middle">joined</text>
  </g>
  <svg xmlns:xlink="http://www.w3.org/1999/xlink" version="1.1" id="Layer_1" x="760.0" y="120.0" viewBox="0 0 512 512" style="enable-background:new 0 0 512 512;" xml:space="preserve" width="30" height="30">
<path style="fill:#FF9842;" d="M406.069,114.759C388.413,17.655,300.138,0,256,0S123.586,17.655,105.931,114.759  s-44.138,220.69-44.138,220.69c88.276,70.621,167.724,70.621,194.207,70.621s105.931,0,194.207-70.621  C450.207,335.448,423.724,211.862,406.069,114.759z"/>
<path style="fill:#E6873C;" d="M282.22,1.949C272.579,0.584,263.607,0,256,0c-44.138,0-132.414,17.655-150.069,114.759  s-44.138,220.69-44.138,220.69c58.067,46.454,112.204,62.28,150.069,67.72V176.552C211.862,176.552,219.362,49.897,282.22,1.949z"/>
<path style="fill:#FF6472;" d="M300.138,326.621v30.82c0,7.883,5.226,14.81,12.804,16.975l73.226,20.921  c22.937,6.553,40.054,25.726,43.977,49.257l7.808,46.847c1.793,10.762-6.505,20.558-17.415,20.558H91.461  c-10.91,0-19.209-9.796-17.415-20.557l7.808-46.847c3.922-23.531,21.038-42.703,43.977-49.257l73.226-20.921  c7.58-2.166,12.804-9.094,12.804-16.975v-30.821H300.138z"/>
<path style="fill:#FAD7A5;" d="M256,476.69c54.771,0,101.148-35.665,117.362-85.01l-60.419-17.263  c-7.58-2.165-12.804-9.094-12.804-16.975v-30.82h-88.276v30.82c0,7.883-5.226,14.81-12.804,16.975l-60.419,17.263  C154.852,441.025,201.229,476.69,256,476.69z"/>
<path style="fill:#F0C891;" d="M300.138,335.448l-24.276-8.828h-64v30.82c0,7.883-5.226,14.81-12.804,16.975l-18.71,5.345v0.001  C254.764,415.251,300.138,335.448,300.138,335.448z"/>
<g>
	<path style="fill:#D25566;" d="M100.725,409.69c-9.753,9.111-16.59,21.223-18.87,34.905l-7.808,46.847   C72.253,502.204,80.551,512,91.461,512h49.78v-30.282c0-9.021-2.764-17.824-7.919-25.226L100.725,409.69z"/>
	<path style="fill:#D25566;" d="M411.275,409.69c9.753,9.111,16.59,21.223,18.87,34.905l7.808,46.847   c1.793,10.761-6.505,20.557-17.415,20.557h-49.78v-30.282c0-9.021,2.764-17.824,7.919-25.226L411.275,409.69z"/>
</g>
<path style="fill:#FFE1B4;" d="M388.413,203.034v-79.448H123.586v79.448c-9.75,0-17.655,7.904-17.655,17.655v17.655  c0,9.75,7.905,17.655,17.655,17.655c0.487,0,0.943-0.105,1.42-0.143c5.282,29.652,25.44,55.026,54.07,66.477l44.138,17.655  c21.046,8.418,44.524,8.418,65.57,0l44.138-17.655c28.631-11.452,48.789-36.825,54.07-66.477c0.477,0.039,0.934,0.143,1.42,0.143  c9.75,0,17.655-7.905,17.655-17.655V220.69C406.069,210.938,398.163,203.034,388.413,203.034z"/>
<path style="fill:#FAD7A5;" d="M123.586,123.586v79.448c-9.75,0-17.655,7.904-17.655,17.655v17.655  c0,9.75,7.905,17.655,17.655,17.655c0.487,0,0.943-0.105,1.42-0.143c5.282,29.652,25.44,55.026,54.07,66.477l44.138,17.655  c9.963,3.986,20.472,6.018,31.009,6.23c-29.95-13.291-52.14-34.766-66.545-52.321c-12.942-15.775-19.955-35.525-19.955-55.93  v-29.705c0-8.936,6.677-16.462,15.549-17.529l74.382-8.94l4.966,20.966c0,0,67.862-11.034,98.483-23.724l18.483-37.793v-17.655  H123.586z"/>
<path style="fill:#D7AF7D;" d="M256,300.138c-15.694,0-30.375-3.862-40.276-10.599c-4.03-2.741-5.078-8.233-2.332-12.263  c2.737-4.025,8.233-5.074,12.263-2.332c6.94,4.719,18.284,7.539,30.345,7.539c12.061,0,23.405-2.819,30.345-7.539  c4.039-2.745,9.522-1.703,12.263,2.332c2.745,4.03,1.698,9.522-2.332,12.263C286.374,296.276,271.694,300.138,256,300.138z"/>
<g>
	<path style="fill:#5A4137;" d="M189.793,238.345L189.793,238.345c-7.313,0-13.241-5.929-13.241-13.241v-8.828   c0-7.313,5.929-13.241,13.241-13.241l0,0c7.313,0,13.241,5.929,13.241,13.241v8.828   C203.034,232.416,197.105,238.345,189.793,238.345z"/>
	<path style="fill:#5A4137;" d="M322.207,238.345L322.207,238.345c-7.313,0-13.241-5.929-13.241-13.241v-8.828   c0-7.313,5.929-13.241,13.241-13.241l0,0c7.313,0,13.241,5.929,13.241,13.241v8.828   C335.448,232.416,329.519,238.345,322.207,238.345z"/>
</g>
<path style="fill:#FF9842;" d="M123.586,203.034c0-8.828,0-35.31,26.483-70.621l8.828,44.138l88.276-8.828l17.655-26.483  l8.828,44.138c0,0,72.276-13.241,79.448-17.655l17.655-26.483c0,0,17.655,26.483,17.655,61.793h17.655l1.628-62.521  c0.389-14.944-11.661-27.249-26.61-27.171l-248.809,1.281c-14.573,0.075-26.347,11.91-26.347,26.483v61.929H123.586z"/>
<g>
	<path style="fill:#FF6472;" d="M358.177,94.489l-66.325,2.802c-4.884,0.206-7.969-5.249-6.15-10.874L300.131,41.8   c1.82-5.626,7.513-8.243,11.352-5.215l52.126,41.107L358.177,94.489z"/>
	<path style="fill:#FF6472;" d="M371.772,98.886l52.126,41.107c3.839,3.027,9.533,0.412,11.352-5.215l14.429-44.617   c1.82-5.626-1.265-11.081-6.15-10.874l-66.325,2.802L371.772,98.886z"/>
</g>
<path style="fill:#C95264;" d="M416.728,108.786L315.936,76.192c-2.322-0.75-3.592-3.236-2.841-5.558s3.236-3.592,5.558-2.841  l100.792,32.594c2.322,0.75,3.592,3.236,2.841,5.558C421.536,108.265,419.05,109.536,416.728,108.786z"/>
<path style="fill:#A5465A;" d="M370.658,107.804l-16.799-5.432c-4.639-1.5-7.183-6.476-5.683-11.115l5.432-16.799  c1.5-4.639,6.477-7.183,11.115-5.683l16.799,5.432c4.639,1.5,7.183,6.476,5.683,11.115l-5.432,16.799  C380.273,106.759,375.297,109.303,370.658,107.804z"/>
<path style="fill:#D25566;" d="M125.831,395.339c-1.409,0.403-2.722,0.994-4.085,1.491l0.119,0.362  c19.094,58.11,72.999,97.153,134.134,97.153s115.04-39.043,134.135-97.153l0.119-0.362c-1.363-0.495-2.677-1.088-4.086-1.491  l-12.807-3.659C357.147,441.025,310.77,476.69,256,476.69s-101.148-35.665-117.362-85.01L125.831,395.339z"/>
<path style="fill:#E6873C;" d="M221.732,114.162l-89.455,0.46c-14.572,0.076-26.346,11.911-26.346,26.483v61.93h17.655  c0-8.828,0-35.31,26.483-70.621l8.828,44.138l53.394-5.34C213.166,161.567,215.649,139.73,221.732,114.162z"/>
<g>
</g>
<g>
</g>
<g>
</g>
<g>
</g>
<g>
</g>
<g>
</g>
<g>
</g>
<g>
</g>
<g>
</g>
<g>
</g>
<g>
</g>
<g>
</g>
<g>
</g>
<g>
</g>
<g>
</g>
</svg>
  <svg xmlns:xlink="http://www.w3.org/1999/xlink" version="1.1" id="Layer_1" x="800.0" y="120.0" viewBox="0 0 512 512" style="enable-background:new 0 0 512 512;" xml:space="preserve" width="30" height="30">
<path style="fill:#FF9842;" d="M406.069,114.759C388.413,17.655,300.138,0,256,0S123.586,17.655,105.931,114.759  s-44.138,220.69-44.138,220.69c88.276,70.621,167.724,70.621,194.207,70.621s105.931,0,194.207-70.621  C450.207,335.448,423.724,211.862,406.069,114.759z"/>
<path style="fill:#E6873C;" d="M282.22,1.949C272.579,0.584,263.607,0,256,0c-44.138,0-132.414,17.655-150.069,114.759  s-44.138,220.69-44.138,220.69c58.067,46.454,112.204,62.28,150.069,67.72V176.552C211.862,176.552,219.362,49.897,282.22,1.949z"/>
<path style="fill:#FF6472;" d="M300.138,326.621v30.82c0,7.883,5.226,14.81,12.804,16.975l73.226,20.921  c22.937,6.553,40.054,25.726,43.977,49.257l7.808,46.847c1.793,10.762-6.505,20.558-17.415,20.558H91.461  c-10.91,0-19.209-9.796-17.415-20.557l7.808-46.847c3.922-23.531,21.038-42.703,43.977-49.257l73.226-20.921  c7.58-2.166,12.804-9.094,12.804-16.975v-30.821H300.138z"/>
<path style="fill:#FAD7A5;" d="M256,476.69c54.771,0,101.148-35.665,117.362-85.01l-60.419-17.263  c-7.58-2.165-12.804-9.094-12.804-16.975v-30.82h-88.276v30.82c0,7.883-5.226,14.81-12.804,16.975l-60.419,17.263  C154.852,441.025,201.229,476.69,256,476.69z"/>
<path style="fill:#F0C891;" d="M300.138,335.448l-24.276-8.828h-64v30.82c0,7.883-5.226,14.81-12.804,16.975l-18.71,5.345v0.001  C254.764,415.251,300.138,335.448,300.138,335.448z"/>
<g>
	<path style="fill:#D25566;" d="M100.725,409.69c-9.753,9.111-16.59,21.223-18.87,34.905l-7.808,46.847   C72.253,502.204,80.551,512,91.461,512h49.78v-30.282c0-9.021-2.764-17.824-7.919-25.226L100.725,409.69z"/>
	<path style="fill:#D25566;" d="M411.275,409.69c9.753,9.111,16.59,21.223,18.87,34.905l7.808,46.847   c1.793,10.761-6.505,20.557-17.415,20.557h-49.78v-30.282c0-9.021,2.764-17.824,7.919-25.226L411.275,409.69z"/>
</g>
<path style="fill:#FFE1B4;" d="M388.413,203.034v-79.448H123.586v79.448c-9.75,0-17.655,7.904-17.655,17.655v17.655  c0,9.75,7.905,17.655,17.655,17.655c0.487,0,0.943-0.105,1.42-0.143c5.282,29.652,25.44,55.026,54.07,66.477l44.138,17.655  c21.046,8.418,44.524,8.418,65.57,0l44.138-17.655c28.631-11.452,48.789-36.825,54.07-66.477c0.477,0.039,0.934,0.143,1.42,0.143  c9.75,0,17.655-7.905,17.655-17.655V220.69C406.069,210.938,398.163,203.034,388.413,203.034z"/>
<path style="fill:#FAD7A5;" d="M123.586,123.586v79.448c-9.75,0-17.655,7.904-17.655,17.655v17.655  c0,9.75,7.905,17.655,17.655,17.655c0.487,0,0.943-0.105,1.42-0.143c5.282,29.652,25.44,55.026,54.07,66.477l44.138,17.655  c9.963,3.986,20.472,6.018,31.009,6.23c-29.95-13.291-52.14-34.766-66.545-52.321c-12.942-15.775-19.955-35.525-19.955-55.93  v-29.705c0-8.936,6.677-16.462,15.549-17.529l74.382-8.94l4.966,20.966c0,0,67.862-11.034,98.483-23.724l18.483-37.793v-17.655  H123.586z"/>
<path style="fill:#D7AF7D;" d="M256,300.138c-15.694,0-30.375-3.862-40.276-10.599c-4.03-2.741-5.078-8.233-2.332-12.263  c2.737-4.025,8.233-5.074,12.263-2.332c6.94,4.719,18.284,7.539,30.345,7.539c12.061,0,23.405-2.819,30.345-7.539  c4.039-2.745,9.522-1.703,12.263,2.332c2.745,4.03,1.698,9.522-2.332,12.263C286.374,296.276,271.694,300.138,256,300.138z"/>
<g>
	<path style="fill:#5A4137;" d="M189.793,238.345L189.793,238.345c-7.313,0-13.241-5.929-13.241-13.241v-8.828   c0-7.313,5.929-13.241,13.241-13.241l0,0c7.313,0,13.241,5.929,13.241,13.241v8.828   C203.034,232.416,197.105,238.345,189.793,238.345z"/>
	<path style="fill:#5A4137;" d="M322.207,238.345L322.207,238.345c-7.313,0-13.241-5.929-13.241-13.241v-8.828   c0-7.313,5.929-13.241,13.241-13.241l0,0c7.313,0,13.241,5.929,13.241,13.241v8.828   C335.448,232.416,329.519,238.345,322.207,238.345z"/>
</g>
<path style="fill:#FF9842;" d="M123.586,203.034c0-8.828,0-35.31,26.483-70.621l8.828,44.138l88.276-8.828l17.655-26.483  l8.828,44.138c0,0,72.276-13.241,79.448-17.655l17.655-26.483c0,0,17.655,26.483,17.655,61.793h17.655l1.628-62.521  c0.389-14.944-11.661-27.249-26.61-27.171l-248.809,1.281c-14.573,0.075-26.347,11.91-26.347,26.483v61.929H123.586z"/>
<g>
	<path style="fill:#FF6472;" d="M358.177,94.489l-66.325,2.802c-4.884,0.206-7.969-5.249-6.15-10.874L300.131,41.8   c1.82-5.626,7.513-8.243,11.352-5.215l52.126,41.107L358.177,94.489z"/>
	<path style="fill:#FF6472;" d="M371.772,98.886l52.126,41.107c3.839,3.027,9.533,0.412,11.352-5.215l14.429-44.617   c1.82-5.626-1.265-11.081-6.15-10.874l-66.325,2.802L371.772,98.886z"/>
</g>
<path style="fill:#C95264;" d="M416.728,108.786L315.936,76.192c-2.322-0.75-3.592-3.236-2.841-5.558s3.236-3.592,5.558-2.841  l100.792,32.594c2.322,0.75,3.592,3.236,2.841,5.558C421.536,108.265,419.05,109.536,416.728,108.786z"/>
<path style="fill:#A5465A;" d="M370.658,107.804l-16.799-5.432c-4.639-1.5-7.183-6.476-5.683-11.115l5.432-16.799  c1.5-4.639,6.477-7.183,11.115-5.683l16.799,5.432c4.639,1.5,7.183,6.476,5.683,11.115l-5.432,16.799  C380.273,106.759,375.297,109.303,370.658,107.804z"/>
<path style="fill:#D25566;" d="M125.831,395.339c-1.409,0.403-2.722,0.994-4.085,1.491l0.119,0.362  c19.094,58.11,72.999,97.153,134.134,97.153s115.04-39.043,134.135-97.153l0.119-0.362c-1.363-0.495-2.677-1.088-4.086-1.491  l-12.807-3.659C357.147,441.025,310.77,476.69,256,476.69s-101.148-35.665-117.362-85.01L125.831,395.339z"/>
<path style="fill:#E6873C;" d="M221.732,114.162l-89.455,0.46c-14.572,0.076-26.346,11.911-26.346,26.483v61.93h17.655  c0-8.828,0-35.31,26.483-70.621l8.828,44.138l53.394-5.34C213.166,161.567,215.649,139.73,221.732,114.162z"/>
<g>
</g>
<g>
</g>
<g>
</g>
<g>
</g>
<g>
</g>
<g>
</g>
<g>
</g>
<g>
</g>
<g>
</g>
<g>
</g>
<g>
</g>
<g>
</g>
<g>
</g>
<g>
</g>
<g>
</g>
</svg>
  <svg xmlns:xlink="http://www.w3.org/1999/xlink" height="30" width="30" version="1.1" id="Layer_1" viewBox="0 0 495 495" xml:space="preserve" x="230" y="145.0">
<polygon style="fill:#2488FF;" points="495,227.5 267.5,227.5 267.5,0 227.5,0 227.5,227.5 0,227.5 0,267.5 227.5,267.5 227.5,495   267.5,495 267.5,267.5 495,267.5 "/>
</svg>
  <svg xmlns:xlink="http://www.w3.org/1999/xlink" version="1.1" id="Layer_1" viewBox="0 0 495 495" xml:space="preserve" x="460" y="145.0" width="30" height="30">
<rect y="227.5" style="fill:#2488FF;" width="495" height="40"/>
</svg>
  <svg xmlns:xlink="http://www.w3.org/1999/xlink" height="30" width="30" version="1.1" id="Layer_1" viewBox="0 0 495 495" xml:space="preserve" x="690" y="145.0">
<polygon style="fill:#2488FF;" points="495,227.5 267.5,227.5 267.5,0 227.5,0 227.5,227.5 0,227.5 0,267.5 227.5,267.5 227.5,495   267.5,495 267.5,267.5 495,267.5 "/>
</svg>
  <svg fill="#2388ff" width="30" height="30" viewBox="0 0 256 256" id="Flat" x="940" y="145.0">

<g id="SVGRepo_bgCarrier" stroke-width="0"/>

<g id="SVGRepo_tracerCarrier" stroke-linecap="round" stroke-linejoin="round"/>

<g id="SVGRepo_iconCarrier"> <path d="M224,160a8.00008,8.00008,0,0,1-8,8H40a8,8,0,0,1,0-16H216A8.00008,8.00008,0,0,1,224,160ZM40,104H216a8,8,0,0,0,0-16H40a8,8,0,0,0,0,16Z"/> </g>

</svg>
  <svg xmlns:xlink="http://www.w3.org/1999/xlink" xmlns:serif="http://www.serif.com/" fill="#2388ff" width="60" height="60" viewBox="0 0 64 64" version="1.1" xml:space="preserve" style="fill-rule:evenodd;clip-rule:evenodd;stroke-linejoin:round;stroke-miterlimit:2;" stroke="#2388ff" x="990" y="130.0">

<g id="SVGRepo_bgCarrier" stroke-width="0"/>

<g id="SVGRepo_tracerCarrier" stroke-linecap="round" stroke-linejoin="round"/>

<g id="SVGRepo_iconCarrier"> <rect id="Icons" x="-640" y="-192" width="1280" height="800" style="fill:none;"/> <g id="Icons1" serif:id="Icons"> <g id="Strike"> </g> <g id="H1"> </g> <g id="H2"> </g> <g id="H3"> </g> <g id="list-ul"> </g> <g id="hamburger-1"> </g> <g id="hamburger-2"> </g> <g id="list-ol"> </g> <g id="list-task"> </g> <g id="trash"> </g> <g id="vertical-menu"> </g> <g id="horizontal-menu"> </g> <g id="sidebar-2"> </g> <g id="Pen"> </g> <g id="Pen1" serif:id="Pen"> </g> <g id="clock"> </g> <g id="external-link"> </g> <g id="hr"> </g> <g id="info"> </g> <g id="warning"> </g> <g id="plus-circle"> </g> <g id="minus-circle"> </g> <g id="vue"> </g> <g id="cog"> </g> <g id="logo"> </g> <path id="question" d="M27.952,42.387c0.043,-2.56 0.333,-4.583 0.871,-6.068c0.538,-1.485 1.636,-3.131 3.293,-4.939l4.229,-4.358c1.807,-2.044 2.711,-4.239 2.711,-6.585c0,-2.259 -0.592,-4.029 -1.775,-5.31c-1.184,-1.28 -2.905,-1.92 -5.165,-1.92c-2.195,0 -3.96,0.581 -5.294,1.743c-1.334,1.162 -2.001,2.722 -2.001,4.68l-5.972,0c0.043,-3.486 1.286,-6.3 3.728,-8.441c2.443,-2.141 5.622,-3.212 9.539,-3.212c4.067,0 7.236,1.092 9.506,3.277c2.271,2.184 3.406,5.181 3.406,8.99c0,3.765 -1.743,7.478 -5.229,11.136l-3.519,3.486c-1.571,1.743 -2.356,4.25 -2.356,7.521l-5.972,0Zm-0.258,10.233c0,-0.968 0.296,-1.781 0.887,-2.437c0.592,-0.656 1.469,-0.985 2.631,-0.985c1.162,0 2.045,0.329 2.647,0.985c0.603,0.656 0.904,1.469 0.904,2.437c0,0.969 -0.301,1.77 -0.904,2.405c-0.602,0.635 -1.485,0.952 -2.647,0.952c-1.162,0 -2.039,-0.317 -2.631,-0.952c-0.591,-0.635 -0.887,-1.436 -0.887,-2.405Z" style="fill-rule:nonzero;"/> <g id="radio-check"> </g> <g id="eye-slash"> </g> <g id="eye"> </g> <g id="toggle-off"> </g> <g id="shredder"> </g> <g id="spinner--loading--dots-" serif:id="spinner [loading, dots]"> </g> <g id="react"> </g> <g id="check-selected"> </g> <g id="turn-off"> </g> <g id="code-block"> </g> <g id="user"> </g> <g id="coffee-bean"> </g> <g id="coffee-beans"> <g id="coffee-bean1" serif:id="coffee-bean"> </g> </g> <g id="coffee-bean-filled"> </g> <g id="coffee-beans-filled"> <g id="coffee-bean2" serif:id="coffee-bean"> </g> </g> <g id="clipboard"> </g> <g id="clipboard-paste"> </g> <g id="clipboard-copy"> </g> <g id="Layer1"> </g> </g> </g>

</svg>
</svg>
