<svg xmlns="http://www.w3.org/2000/svg" width="890" height="310.0">
  <rect x="50" y="100" width="200" height="160.0" stroke="black" fill="none"/>
  <g>
    <svg xmlns:xlink="http://www.w3.org/1999/xlink" width="40" height="40" viewBox="0 0 36 36" aria-hidden="true" role="img" class="iconify iconify--twemoji" preserveAspectRatio="xMidYMid meet" x="104.0" y="55">
      <path fill="#963B22" d="M23.111 2.081c-2.638-.853-8.844-.621-10.395 1.396c-4.034.078-8.766 3.724-9.387 8.534c-.614 4.76.754 6.971 1.241 10.551c.552 4.056 2.832 5.353 4.655 5.896c2.623 3.465 5.411 3.317 10.092 3.317c9.141 0 13.495-6.116 13.88-16.505c.232-6.284-3.454-11.043-10.086-13.189z"/>
      <path fill="#D4AB88" d="M28.339 15.713c-.884-1.225-2.017-2.211-4.499-2.56c.931.427 1.823 1.901 1.939 2.715c.116.815.233 1.474-.504.659c-2.952-3.263-6.167-1.978-9.354-3.972c-2.226-1.392-2.903-2.933-2.903-2.933s-.272 2.056-3.646 4.15c-.978.607-2.145 1.959-2.793 3.956c-.465 1.435-.321 2.715-.321 4.903c0 6.385 5.262 11.753 11.753 11.753s11.753-5.415 11.753-11.753c0-3.97-.416-5.521-1.425-6.918z"/>
      <path fill="#C1694F" d="M18 31c-2.347 0-3.575-1.16-3.707-1.293a.999.999 0 0 1 1.404-1.424c.051.047.806.717 2.303.717c1.519 0 2.273-.69 2.305-.719a1.008 1.008 0 0 1 1.408.029a.994.994 0 0 1-.006 1.397C21.575 29.84 20.347 31 18 31zm1-5h-2a1 1 0 1 1 0-2h2a1 1 0 1 1 0 2z"/>
      <path fill="#662113" d="M13 22a1 1 0 0 1-1-1v-2a1 1 0 0 1 2 0v2a1 1 0 0 1-1 1zm10 0a1 1 0 0 1-1-1v-2a1 1 0 1 1 2 0v2a1 1 0 0 1-1 1z"/>
    </svg>
    <text x="154.0" y="75.0" style="font-size: 15px;" dominant_baseline="middle" text_anchor="middle">Marian</text>
  </g>
  <svg xmlns:xlink="http://www.w3.org/1999/xlink" height="30" width="30" version="1.1" id="Layer_1" viewBox="0 0 513.2 513.2" xml:space="preserve" x="70.0" y="120.0">
<g>
	<circle style="fill:#E65100;" cx="256.2" cy="252" r="8"/>
	<circle style="fill:#E65100;" cx="256.2" cy="179.6" r="8"/>
</g>
<path style="fill:#FFB74D;" d="M248.2,179.6c0,4.4,3.6,8,8,8s8-3.6,8-8s-3.6-8-8-8S248.2,175.2,248.2,179.6z M256.2,260  c4.4,0,8-3.6,8-8s-3.6-8-8-8s-8,3.6-8,8S251.8,260,256.2,260z M234.6,71.6c5.2,0,9.6-4.4,9.6-10s-4.4-10-9.6-10c-5.6,0-10,4.4-10,10  S229,71.6,234.6,71.6z M130.6,164.4h53.6V72c0-37.6,30.4-68,68-68s68,30.4,68,68v92.4h58.4h16c27.6,0,50,22.4,50,50s-22.4,50-50,50  h-16h-44.8l49.6,182.8c7.2,26.8-8.8,52.4-35.2,59.6c-26.8,7.2-54-8.8-61.2-35.6l-30-112.8l-30.4,112.8  c-7.2,26.8-34.4,42.8-61.2,35.6c-26.8-7.2-42.4-32.8-35.2-59.2l49.6-182.8h-49.2h-12.4c-27.6,0-50-22.4-50-50s22.4-50,50-50h12.4  V164.4z M256.2,223.6c4.4,0,8-3.6,8-8s-3.6-8-8-8s-8,3.6-8,8C248.2,220.4,251.8,223.6,256.2,223.6z M268.2,62c0,5.6,4.4,10,9.6,10  c5.6,0,9.6-4.4,9.6-10s-4.4-10-9.6-10S268.2,56.4,268.2,62z"/>
<g>
	<path style="fill:#E65100;" d="M287.8,62c0,5.6-4.4,10-9.6,10c-5.6,0-9.6-4.4-9.6-10s4.4-10,9.6-10S287.8,56.4,287.8,62z"/>
	<circle style="fill:#E65100;" cx="256.2" cy="216" r="8"/>
	<path style="fill:#E65100;" d="M244.2,62c0,5.6-4.4,10-9.6,10c-5.6,0-9.6-4.4-9.6-10s4.4-10,9.6-10S244.2,56.4,244.2,62z"/>
</g>
<path d="M178.2,513.2c-4.4,0-9.2-0.8-13.6-2c-14-3.6-25.6-12.4-32.8-24.4s-9.2-26.4-5.2-40.4l48.4-178h-56.4c-29.6,0-54-24.4-54-54  s24-54,54-54h62V72c0-39.6,32.4-72,72-72s72,32.4,72,72v88.4h70c29.6,0,54,24.4,54,54s-24,54-54,54h-55.2l48.4,178  c3.6,14,1.6,28-5.6,40c-7.2,11.6-18.8,20.4-32.8,24s-28.4,2-40.8-5.2s-21.2-18.8-25.2-32.8l-26.4-98l-26.4,98.4  c-3.6,14-12.8,25.6-25.2,33.2C197,510.4,187.4,513.2,178.2,513.2z M118.2,168.4c-25.2,0-46,20.8-46,46s20.4,46,46,46h61.6  c1.2,0,2.4,0.4,3.2,1.6c0.8,0.8,1.2,2.4,0.8,3.6l-49.6,182.8c-3.2,11.6-1.6,24,4.4,34.4s16,17.6,28,20.8c11.6,3.2,24,1.6,34.8-4.8  s18.4-16.4,21.6-28l30.4-113.2c0.4-1.6,2-2.8,4-2.8s3.2,1.2,4,2.8l30,112.4c3.2,12,10.8,21.6,21.6,28c10.8,6,23.2,7.6,34.8,4.4  c12-3.2,22-10.4,28-20.4s7.6-22,4.4-33.6l-49.6-182.8c-0.4-1.2,0-2.4,0.8-3.6c0.8-0.8,2-1.6,3.2-1.6H395c25.2,0,46-20.8,46-46  s-20.8-46-46-46h-74.8c-2.4,0-4-1.6-4-4V72c0-35.2-28.8-64-64-64s-64,28.8-64,64v92.4c0,2.4-1.6,4-4,4H118.2z"/>
<path d="M256.2,116.4c-16.4,0-31.6-8.4-40.8-22.4c-1.2-2-0.8-4.4,1.2-5.6s4.4-0.8,5.6,1.2c7.6,11.6,20,18.4,34,18.4  c13.6,0,26.4-6.8,34-18.4c1.2-2,3.6-2.4,5.6-1.2c2,1.2,2.4,3.6,1.2,5.6C288.2,108,273,116.4,256.2,116.4z"/>
<path d="M234.6,75.6c-7.6,0-13.6-6-13.6-14s6-14,13.6-14s13.6,6,13.6,14S242.2,75.6,234.6,75.6z M234.6,56c-3.2,0-5.6,2.8-5.6,6  s2.8,6,5.6,6s5.6-2.8,5.6-6S237.8,56,234.6,56z"/>
<path d="M278.2,75.6c-7.6,0-14-6-14-14s6-14,14-14s13.6,6,13.6,14S285.8,75.6,278.2,75.6z M278.2,56c-3.2,0-6,2.8-6,6s2.8,6,6,6  s5.6-2.8,5.6-6S281.4,56,278.2,56z"/>
<path d="M256.2,191.6c-6.4,0-12-5.2-12-12c0-6.4,5.2-12,12-12c6.4,0,12,5.2,12,12S263,191.6,256.2,191.6z M256.2,175.6  c-2,0-4,1.6-4,4s1.6,4,4,4s4-1.6,4-4S258.6,175.6,256.2,175.6z"/>
<path d="M256.2,227.6c-6.4,0-12-5.2-12-12s5.2-12,12-12c6.4,0,12,5.2,12,12S263,227.6,256.2,227.6z M256.2,212c-2,0-4,1.6-4,4  s1.6,4,4,4s4-1.6,4-4S258.6,212,256.2,212z"/>
<path d="M256.2,264c-6.4,0-12-5.2-12-12c0-6.4,5.2-12,12-12c6.4,0,12,5.2,12,12S263,264,256.2,264z M256.2,248c-2,0-4,1.6-4,4  s1.6,4,4,4s4-1.6,4-4S258.6,248,256.2,248z"/>
<path d="M128.2,268.4c-2.4,0-4-1.6-4-4v-64c0-2.4,1.6-4,4-4s4,1.6,4,4v64C132.2,266.8,130.6,268.4,128.2,268.4z"/>
<path d="M376.2,268.4c-2.4,0-4-1.6-4-4v-64c0-2.4,1.6-4,4-4s4,1.6,4,4v64C380.2,266.8,378.6,268.4,376.2,268.4z"/>
<path d="M128.2,184.4c-2.4,0-4-1.6-4-4v-16c0-2.4,1.6-4,4-4s4,1.6,4,4v16C132.2,182.8,130.6,184.4,128.2,184.4z"/>
<path d="M376.2,184.4c-2.4,0-4-1.6-4-4v-16c0-2.4,1.6-4,4-4s4,1.6,4,4v16C380.2,182.8,378.6,184.4,376.2,184.4z"/>
<path d="M153.4,439.6c-0.4,0-0.8,0-1.2,0l-17.6-4.8c-2-0.4-3.2-2.8-2.8-4.8s2.8-3.2,4.8-2.8l17.6,4.8c2,0.4,3.2,2.8,2.8,4.8  C157,438.4,155.4,439.6,153.4,439.6z"/>
<path d="M230.6,460c-0.4,0-0.8,0-1.2,0l-55.2-14.8c-2-0.4-3.6-2.8-2.8-4.8c0.4-2,2.8-3.6,4.8-2.8l55.2,14.8c2,0.4,3.6,2.8,2.8,4.8  C233.8,458.8,232.2,460,230.6,460z"/>
<path d="M322.2,449.6c-1.6,0-3.2-1.2-4-2.8c-0.4-2,0.8-4.4,2.8-4.8l55.6-14.8c2-0.4,4.4,0.8,4.8,2.8c0.4,2-0.8,4.4-2.8,4.8  L323,449.6C323,449.6,322.6,449.6,322.2,449.6z"/>
<path d="M283.4,460c-1.6,0-3.2-1.2-4-2.8c-0.4-2,0.8-4.4,2.8-4.8l17.2-4.8c2-0.4,4.4,0.8,4.8,2.8s-0.8,4.4-2.8,4.8l-17.2,4.8  C283.8,460,283.8,460,283.4,460z"/>
</svg>
  <svg xmlns:xlink="http://www.w3.org/1999/xlink" height="30" width="30" version="1.1" id="Layer_1" viewBox="0 0 513.2 513.2" xml:space="preserve" x="110.0" y="120.0">
<g>
	<circle style="fill:#E65100;" cx="256.2" cy="252" r="8"/>
	<circle style="fill:#E65100;" cx="256.2" cy="179.6" r="8"/>
</g>
<path style="fill:#FFB74D;" d="M248.2,179.6c0,4.4,3.6,8,8,8s8-3.6,8-8s-3.6-8-8-8S248.2,175.2,248.2,179.6z M256.2,260  c4.4,0,8-3.6,8-8s-3.6-8-8-8s-8,3.6-8,8S251.8,260,256.2,260z M234.6,71.6c5.2,0,9.6-4.4,9.6-10s-4.4-10-9.6-10c-5.6,0-10,4.4-10,10  S229,71.6,234.6,71.6z M130.6,164.4h53.6V72c0-37.6,30.4-68,68-68s68,30.4,68,68v92.4h58.4h16c27.6,0,50,22.4,50,50s-22.4,50-50,50  h-16h-44.8l49.6,182.8c7.2,26.8-8.8,52.4-35.2,59.6c-26.8,7.2-54-8.8-61.2-35.6l-30-112.8l-30.4,112.8  c-7.2,26.8-34.4,42.8-61.2,35.6c-26.8-7.2-42.4-32.8-35.2-59.2l49.6-182.8h-49.2h-12.4c-27.6,0-50-22.4-50-50s22.4-50,50-50h12.4  V164.4z M256.2,223.6c4.4,0,8-3.6,8-8s-3.6-8-8-8s-8,3.6-8,8C248.2,220.4,251.8,223.6,256.2,223.6z M268.2,62c0,5.6,4.4,10,9.6,10  c5.6,0,9.6-4.4,9.6-10s-4.4-10-9.6-10S268.2,56.4,268.2,62z"/>
<g>
	<path style="fill:#E65100;" d="M287.8,62c0,5.6-4.4,10-9.6,10c-5.6,0-9.6-4.4-9.6-10s4.4-10,9.6-10S287.8,56.4,287.8,62z"/>
	<circle style="fill:#E65100;" cx="256.2" cy="216" r="8"/>
	<path style="fill:#E65100;" d="M244.2,62c0,5.6-4.4,10-9.6,10c-5.6,0-9.6-4.4-9.6-10s4.4-10,9.6-10S244.2,56.4,244.2,62z"/>
</g>
<path d="M178.2,513.2c-4.4,0-9.2-0.8-13.6-2c-14-3.6-25.6-12.4-32.8-24.4s-9.2-26.4-5.2-40.4l48.4-178h-56.4c-29.6,0-54-24.4-54-54  s24-54,54-54h62V72c0-39.6,32.4-72,72-72s72,32.4,72,72v88.4h70c29.6,0,54,24.4,54,54s-24,54-54,54h-55.2l48.4,178  c3.6,14,1.6,28-5.6,40c-7.2,11.6-18.8,20.4-32.8,24s-28.4,2-40.8-5.2s-21.2-18.8-25.2-32.8l-26.4-98l-26.4,98.4  c-3.6,14-12.8,25.6-25.2,33.2C197,510.4,187.4,513.2,178.2,513.2z M118.2,168.4c-25.2,0-46,20.8-46,46s20.4,46,46,46h61.6  c1.2,0,2.4,0.4,3.2,1.6c0.8,0.8,1.2,2.4,0.8,3.6l-49.6,182.8c-3.2,11.6-1.6,24,4.4,34.4s16,17.6,28,20.8c11.6,3.2,24,1.6,34.8-4.8  s18.4-16.4,21.6-28l30.4-113.2c0.4-1.6,2-2.8,4-2.8s3.2,1.2,4,2.8l30,112.4c3.2,12,10.8,21.6,21.6,28c10.8,6,23.2,7.6,34.8,4.4  c12-3.2,22-10.4,28-20.4s7.6-22,4.4-33.6l-49.6-182.8c-0.4-1.2,0-2.4,0.8-3.6c0.8-0.8,2-1.6,3.2-1.6H395c25.2,0,46-20.8,46-46  s-20.8-46-46-46h-74.8c-2.4,0-4-1.6-4-4V72c0-35.2-28.8-64-64-64s-64,28.8-64,64v92.4c0,2.4-1.6,4-4,4H118.2z"/>
<path d="M256.2,116.4c-16.4,0-31.6-8.4-40.8-22.4c-1.2-2-0.8-4.4,1.2-5.6s4.4-0.8,5.6,1.2c7.6,11.6,20,18.4,34,18.4  c13.6,0,26.4-6.8,34-18.4c1.2-2,3.6-2.4,5.6-1.2c2,1.2,2.4,3.6,1.2,5.6C288.2,108,273,116.4,256.2,116.4z"/>
<path d="M234.6,75.6c-7.6,0-13.6-6-13.6-14s6-14,13.6-14s13.6,6,13.6,14S242.2,75.6,234.6,75.6z M234.6,56c-3.2,0-5.6,2.8-5.6,6  s2.8,6,5.6,6s5.6-2.8,5.6-6S237.8,56,234.6,56z"/>
<path d="M278.2,75.6c-7.6,0-14-6-14-14s6-14,14-14s13.6,6,13.6,14S285.8,75.6,278.2,75.6z M278.2,56c-3.2,0-6,2.8-6,6s2.8,6,6,6  s5.6-2.8,5.6-6S281.4,56,278.2,56z"/>
<path d="M256.2,191.6c-6.4,0-12-5.2-12-12c0-6.4,5.2-12,12-12c6.4,0,12,5.2,12,12S263,191.6,256.2,191.6z M256.2,175.6  c-2,0-4,1.6-4,4s1.6,4,4,4s4-1.6,4-4S258.6,175.6,256.2,175.6z"/>
<path d="M256.2,227.6c-6.4,0-12-5.2-12-12s5.2-12,12-12c6.4,0,12,5.2,12,12S263,227.6,256.2,227.6z M256.2,212c-2,0-4,1.6-4,4  s1.6,4,4,4s4-1.6,4-4S258.6,212,256.2,212z"/>
<path d="M256.2,264c-6.4,0-12-5.2-12-12c0-6.4,5.2-12,12-12c6.4,0,12,5.2,12,12S263,264,256.2,264z M256.2,248c-2,0-4,1.6-4,4  s1.6,4,4,4s4-1.6,4-4S258.6,248,256.2,248z"/>
<path d="M128.2,268.4c-2.4,0-4-1.6-4-4v-64c0-2.4,1.6-4,4-4s4,1.6,4,4v64C132.2,266.8,130.6,268.4,128.2,268.4z"/>
<path d="M376.2,268.4c-2.4,0-4-1.6-4-4v-64c0-2.4,1.6-4,4-4s4,1.6,4,4v64C380.2,266.8,378.6,268.4,376.2,268.4z"/>
<path d="M128.2,184.4c-2.4,0-4-1.6-4-4v-16c0-2.4,1.6-4,4-4s4,1.6,4,4v16C132.2,182.8,130.6,184.4,128.2,184.4z"/>
<path d="M376.2,184.4c-2.4,0-4-1.6-4-4v-16c0-2.4,1.6-4,4-4s4,1.6,4,4v16C380.2,182.8,378.6,184.4,376.2,184.4z"/>
<path d="M153.4,439.6c-0.4,0-0.8,0-1.2,0l-17.6-4.8c-2-0.4-3.2-2.8-2.8-4.8s2.8-3.2,4.8-2.8l17.6,4.8c2,0.4,3.2,2.8,2.8,4.8  C157,438.4,155.4,439.6,153.4,439.6z"/>
<path d="M230.6,460c-0.4,0-0.8,0-1.2,0l-55.2-14.8c-2-0.4-3.6-2.8-2.8-4.8c0.4-2,2.8-3.6,4.8-2.8l55.2,14.8c2,0.4,3.6,2.8,2.8,4.8  C233.8,458.8,232.2,460,230.6,460z"/>
<path d="M322.2,449.6c-1.6,0-3.2-1.2-4-2.8c-0.4-2,0.8-4.4,2.8-4.8l55.6-14.8c2-0.4,4.4,0.8,4.8,2.8c0.4,2-0.8,4.4-2.8,4.8  L323,449.6C323,449.6,322.6,449.6,322.2,449.6z"/>
<path d="M283.4,460c-1.6,0-3.2-1.2-4-2.8c-0.4-2,0.8-4.4,2.8-4.8l17.2-4.8c2-0.4,4.4,0.8,4.8,2.8s-0.8,4.4-2.8,4.8l-17.2,4.8  C283.8,460,283.8,460,283.4,460z"/>
</svg>
  <svg xmlns:xlink="http://www.w3.org/1999/xlink" height="30" width="30" version="1.1" id="Layer_1" viewBox="0 0 513.2 513.2" xml:space="preserve" x="150.0" y="120.0">
<g>
	<circle style="fill:#E65100;" cx="256.2" cy="252" r="8"/>
	<circle style="fill:#E65100;" cx="256.2" cy="179.6" r="8"/>
</g>
<path style="fill:#FFB74D;" d="M248.2,179.6c0,4.4,3.6,8,8,8s8-3.6,8-8s-3.6-8-8-8S248.2,175.2,248.2,179.6z M256.2,260  c4.4,0,8-3.6,8-8s-3.6-8-8-8s-8,3.6-8,8S251.8,260,256.2,260z M234.6,71.6c5.2,0,9.6-4.4,9.6-10s-4.4-10-9.6-10c-5.6,0-10,4.4-10,10  S229,71.6,234.6,71.6z M130.6,164.4h53.6V72c0-37.6,30.4-68,68-68s68,30.4,68,68v92.4h58.4h16c27.6,0,50,22.4,50,50s-22.4,50-50,50  h-16h-44.8l49.6,182.8c7.2,26.8-8.8,52.4-35.2,59.6c-26.8,7.2-54-8.8-61.2-35.6l-30-112.8l-30.4,112.8  c-7.2,26.8-34.4,42.8-61.2,35.6c-26.8-7.2-42.4-32.8-35.2-59.2l49.6-182.8h-49.2h-12.4c-27.6,0-50-22.4-50-50s22.4-50,50-50h12.4  V164.4z M256.2,223.6c4.4,0,8-3.6,8-8s-3.6-8-8-8s-8,3.6-8,8C248.2,220.4,251.8,223.6,256.2,223.6z M268.2,62c0,5.6,4.4,10,9.6,10  c5.6,0,9.6-4.4,9.6-10s-4.4-10-9.6-10S268.2,56.4,268.2,62z"/>
<g>
	<path style="fill:#E65100;" d="M287.8,62c0,5.6-4.4,10-9.6,10c-5.6,0-9.6-4.4-9.6-10s4.4-10,9.6-10S287.8,56.4,287.8,62z"/>
	<circle style="fill:#E65100;" cx="256.2" cy="216" r="8"/>
	<path style="fill:#E65100;" d="M244.2,62c0,5.6-4.4,10-9.6,10c-5.6,0-9.6-4.4-9.6-10s4.4-10,9.6-10S244.2,56.4,244.2,62z"/>
</g>
<path d="M178.2,513.2c-4.4,0-9.2-0.8-13.6-2c-14-3.6-25.6-12.4-32.8-24.4s-9.2-26.4-5.2-40.4l48.4-178h-56.4c-29.6,0-54-24.4-54-54  s24-54,54-54h62V72c0-39.6,32.4-72,72-72s72,32.4,72,72v88.4h70c29.6,0,54,24.4,54,54s-24,54-54,54h-55.2l48.4,178  c3.6,14,1.6,28-5.6,40c-7.2,11.6-18.8,20.4-32.8,24s-28.4,2-40.8-5.2s-21.2-18.8-25.2-32.8l-26.4-98l-26.4,98.4  c-3.6,14-12.8,25.6-25.2,33.2C197,510.4,187.4,513.2,178.2,513.2z M118.2,168.4c-25.2,0-46,20.8-46,46s20.4,46,46,46h61.6  c1.2,0,2.4,0.4,3.2,1.6c0.8,0.8,1.2,2.4,0.8,3.6l-49.6,182.8c-3.2,11.6-1.6,24,4.4,34.4s16,17.6,28,20.8c11.6,3.2,24,1.6,34.8-4.8  s18.4-16.4,21.6-28l30.4-113.2c0.4-1.6,2-2.8,4-2.8s3.2,1.2,4,2.8l30,112.4c3.2,12,10.8,21.6,21.6,28c10.8,6,23.2,7.6,34.8,4.4  c12-3.2,22-10.4,28-20.4s7.6-22,4.4-33.6l-49.6-182.8c-0.4-1.2,0-2.4,0.8-3.6c0.8-0.8,2-1.6,3.2-1.6H395c25.2,0,46-20.8,46-46  s-20.8-46-46-46h-74.8c-2.4,0-4-1.6-4-4V72c0-35.2-28.8-64-64-64s-64,28.8-64,64v92.4c0,2.4-1.6,4-4,4H118.2z"/>
<path d="M256.2,116.4c-16.4,0-31.6-8.4-40.8-22.4c-1.2-2-0.8-4.4,1.2-5.6s4.4-0.8,5.6,1.2c7.6,11.6,20,18.4,34,18.4  c13.6,0,26.4-6.8,34-18.4c1.2-2,3.6-2.4,5.6-1.2c2,1.2,2.4,3.6,1.2,5.6C288.2,108,273,116.4,256.2,116.4z"/>
<path d="M234.6,75.6c-7.6,0-13.6-6-13.6-14s6-14,13.6-14s13.6,6,13.6,14S242.2,75.6,234.6,75.6z M234.6,56c-3.2,0-5.6,2.8-5.6,6  s2.8,6,5.6,6s5.6-2.8,5.6-6S237.8,56,234.6,56z"/>
<path d="M278.2,75.6c-7.6,0-14-6-14-14s6-14,14-14s13.6,6,13.6,14S285.8,75.6,278.2,75.6z M278.2,56c-3.2,0-6,2.8-6,6s2.8,6,6,6  s5.6-2.8,5.6-6S281.4,56,278.2,56z"/>
<path d="M256.2,191.6c-6.4,0-12-5.2-12-12c0-6.4,5.2-12,12-12c6.4,0,12,5.2,12,12S263,191.6,256.2,191.6z M256.2,175.6  c-2,0-4,1.6-4,4s1.6,4,4,4s4-1.6,4-4S258.6,175.6,256.2,175.6z"/>
<path d="M256.2,227.6c-6.4,0-12-5.2-12-12s5.2-12,12-12c6.4,0,12,5.2,12,12S263,227.6,256.2,227.6z M256.2,212c-2,0-4,1.6-4,4  s1.6,4,4,4s4-1.6,4-4S258.6,212,256.2,212z"/>
<path d="M256.2,264c-6.4,0-12-5.2-12-12c0-6.4,5.2-12,12-12c6.4,0,12,5.2,12,12S263,264,256.2,264z M256.2,248c-2,0-4,1.6-4,4  s1.6,4,4,4s4-1.6,4-4S258.6,248,256.2,248z"/>
<path d="M128.2,268.4c-2.4,0-4-1.6-4-4v-64c0-2.4,1.6-4,4-4s4,1.6,4,4v64C132.2,266.8,130.6,268.4,128.2,268.4z"/>
<path d="M376.2,268.4c-2.4,0-4-1.6-4-4v-64c0-2.4,1.6-4,4-4s4,1.6,4,4v64C380.2,266.8,378.6,268.4,376.2,268.4z"/>
<path d="M128.2,184.4c-2.4,0-4-1.6-4-4v-16c0-2.4,1.6-4,4-4s4,1.6,4,4v16C132.2,182.8,130.6,184.4,128.2,184.4z"/>
<path d="M376.2,184.4c-2.4,0-4-1.6-4-4v-16c0-2.4,1.6-4,4-4s4,1.6,4,4v16C380.2,182.8,378.6,184.4,376.2,184.4z"/>
<path d="M153.4,439.6c-0.4,0-0.8,0-1.2,0l-17.6-4.8c-2-0.4-3.2-2.8-2.8-4.8s2.8-3.2,4.8-2.8l17.6,4.8c2,0.4,3.2,2.8,2.8,4.8  C157,438.4,155.4,439.6,153.4,439.6z"/>
<path d="M230.6,460c-0.4,0-0.8,0-1.2,0l-55.2-14.8c-2-0.4-3.6-2.8-2.8-4.8c0.4-2,2.8-3.6,4.8-2.8l55.2,14.8c2,0.4,3.6,2.8,2.8,4.8  C233.8,458.8,232.2,460,230.6,460z"/>
<path d="M322.2,449.6c-1.6,0-3.2-1.2-4-2.8c-0.4-2,0.8-4.4,2.8-4.8l55.6-14.8c2-0.4,4.4,0.8,4.8,2.8c0.4,2-0.8,4.4-2.8,4.8  L323,449.6C323,449.6,322.6,449.6,322.2,449.6z"/>
<path d="M283.4,460c-1.6,0-3.2-1.2-4-2.8c-0.4-2,0.8-4.4,2.8-4.8l17.2-4.8c2-0.4,4.4,0.8,4.8,2.8s-0.8,4.4-2.8,4.8l-17.2,4.8  C283.8,460,283.8,460,283.4,460z"/>
</svg>
  <svg xmlns:xlink="http://www.w3.org/1999/xlink" height="30" width="30" version="1.1" id="Layer_1" viewBox="0 0 513.2 513.2" xml:space="preserve" x="190.0" y="120.0">
<g>
	<circle style="fill:#E65100;" cx="256.2" cy="252" r="8"/>
	<circle style="fill:#E65100;" cx="256.2" cy="179.6" r="8"/>
</g>
<path style="fill:#FFB74D;" d="M248.2,179.6c0,4.4,3.6,8,8,8s8-3.6,8-8s-3.6-8-8-8S248.2,175.2,248.2,179.6z M256.2,260  c4.4,0,8-3.6,8-8s-3.6-8-8-8s-8,3.6-8,8S251.8,260,256.2,260z M234.6,71.6c5.2,0,9.6-4.4,9.6-10s-4.4-10-9.6-10c-5.6,0-10,4.4-10,10  S229,71.6,234.6,71.6z M130.6,164.4h53.6V72c0-37.6,30.4-68,68-68s68,30.4,68,68v92.4h58.4h16c27.6,0,50,22.4,50,50s-22.4,50-50,50  h-16h-44.8l49.6,182.8c7.2,26.8-8.8,52.4-35.2,59.6c-26.8,7.2-54-8.8-61.2-35.6l-30-112.8l-30.4,112.8  c-7.2,26.8-34.4,42.8-61.2,35.6c-26.8-7.2-42.4-32.8-35.2-59.2l49.6-182.8h-49.2h-12.4c-27.6,0-50-22.4-50-50s22.4-50,50-50h12.4  V164.4z M256.2,223.6c4.4,0,8-3.6,8-8s-3.6-8-8-8s-8,3.6-8,8C248.2,220.4,251.8,223.6,256.2,223.6z M268.2,62c0,5.6,4.4,10,9.6,10  c5.6,0,9.6-4.4,9.6-10s-4.4-10-9.6-10S268.2,56.4,268.2,62z"/>
<g>
	<path style="fill:#E65100;" d="M287.8,62c0,5.6-4.4,10-9.6,10c-5.6,0-9.6-4.4-9.6-10s4.4-10,9.6-10S287.8,56.4,287.8,62z"/>
	<circle style="fill:#E65100;" cx="256.2" cy="216" r="8"/>
	<path style="fill:#E65100;" d="M244.2,62c0,5.6-4.4,10-9.6,10c-5.6,0-9.6-4.4-9.6-10s4.4-10,9.6-10S244.2,56.4,244.2,62z"/>
</g>
<path d="M178.2,513.2c-4.4,0-9.2-0.8-13.6-2c-14-3.6-25.6-12.4-32.8-24.4s-9.2-26.4-5.2-40.4l48.4-178h-56.4c-29.6,0-54-24.4-54-54  s24-54,54-54h62V72c0-39.6,32.4-72,72-72s72,32.4,72,72v88.4h70c29.6,0,54,24.4,54,54s-24,54-54,54h-55.2l48.4,178  c3.6,14,1.6,28-5.6,40c-7.2,11.6-18.8,20.4-32.8,24s-28.4,2-40.8-5.2s-21.2-18.8-25.2-32.8l-26.4-98l-26.4,98.4  c-3.6,14-12.8,25.6-25.2,33.2C197,510.4,187.4,513.2,178.2,513.2z M118.2,168.4c-25.2,0-46,20.8-46,46s20.4,46,46,46h61.6  c1.2,0,2.4,0.4,3.2,1.6c0.8,0.8,1.2,2.4,0.8,3.6l-49.6,182.8c-3.2,11.6-1.6,24,4.4,34.4s16,17.6,28,20.8c11.6,3.2,24,1.6,34.8-4.8  s18.4-16.4,21.6-28l30.4-113.2c0.4-1.6,2-2.8,4-2.8s3.2,1.2,4,2.8l30,112.4c3.2,12,10.8,21.6,21.6,28c10.8,6,23.2,7.6,34.8,4.4  c12-3.2,22-10.4,28-20.4s7.6-22,4.4-33.6l-49.6-182.8c-0.4-1.2,0-2.4,0.8-3.6c0.8-0.8,2-1.6,3.2-1.6H395c25.2,0,46-20.8,46-46  s-20.8-46-46-46h-74.8c-2.4,0-4-1.6-4-4V72c0-35.2-28.8-64-64-64s-64,28.8-64,64v92.4c0,2.4-1.6,4-4,4H118.2z"/>
<path d="M256.2,116.4c-16.4,0-31.6-8.4-40.8-22.4c-1.2-2-0.8-4.4,1.2-5.6s4.4-0.8,5.6,1.2c7.6,11.6,20,18.4,34,18.4  c13.6,0,26.4-6.8,34-18.4c1.2-2,3.6-2.4,5.6-1.2c2,1.2,2.4,3.6,1.2,5.6C288.2,108,273,116.4,256.2,116.4z"/>
<path d="M234.6,75.6c-7.6,0-13.6-6-13.6-14s6-14,13.6-14s13.6,6,13.6,14S242.2,75.6,234.6,75.6z M234.6,56c-3.2,0-5.6,2.8-5.6,6  s2.8,6,5.6,6s5.6-2.8,5.6-6S237.8,56,234.6,56z"/>
<path d="M278.2,75.6c-7.6,0-14-6-14-14s6-14,14-14s13.6,6,13.6,14S285.8,75.6,278.2,75.6z M278.2,56c-3.2,0-6,2.8-6,6s2.8,6,6,6  s5.6-2.8,5.6-6S281.4,56,278.2,56z"/>
<path d="M256.2,191.6c-6.4,0-12-5.2-12-12c0-6.4,5.2-12,12-12c6.4,0,12,5.2,12,12S263,191.6,256.2,191.6z M256.2,175.6  c-2,0-4,1.6-4,4s1.6,4,4,4s4-1.6,4-4S258.6,175.6,256.2,175.6z"/>
<path d="M256.2,227.6c-6.4,0-12-5.2-12-12s5.2-12,12-12c6.4,0,12,5.2,12,12S263,227.6,256.2,227.6z M256.2,212c-2,0-4,1.6-4,4  s1.6,4,4,4s4-1.6,4-4S258.6,212,256.2,212z"/>
<path d="M256.2,264c-6.4,0-12-5.2-12-12c0-6.4,5.2-12,12-12c6.4,0,12,5.2,12,12S263,264,256.2,264z M256.2,248c-2,0-4,1.6-4,4  s1.6,4,4,4s4-1.6,4-4S258.6,248,256.2,248z"/>
<path d="M128.2,268.4c-2.4,0-4-1.6-4-4v-64c0-2.4,1.6-4,4-4s4,1.6,4,4v64C132.2,266.8,130.6,268.4,128.2,268.4z"/>
<path d="M376.2,268.4c-2.4,0-4-1.6-4-4v-64c0-2.4,1.6-4,4-4s4,1.6,4,4v64C380.2,266.8,378.6,268.4,376.2,268.4z"/>
<path d="M128.2,184.4c-2.4,0-4-1.6-4-4v-16c0-2.4,1.6-4,4-4s4,1.6,4,4v16C132.2,182.8,130.6,184.4,128.2,184.4z"/>
<path d="M376.2,184.4c-2.4,0-4-1.6-4-4v-16c0-2.4,1.6-4,4-4s4,1.6,4,4v16C380.2,182.8,378.6,184.4,376.2,184.4z"/>
<path d="M153.4,439.6c-0.4,0-0.8,0-1.2,0l-17.6-4.8c-2-0.4-3.2-2.8-2.8-4.8s2.8-3.2,4.8-2.8l17.6,4.8c2,0.4,3.2,2.8,2.8,4.8  C157,438.4,155.4,439.6,153.4,439.6z"/>
<path d="M230.6,460c-0.4,0-0.8,0-1.2,0l-55.2-14.8c-2-0.4-3.6-2.8-2.8-4.8c0.4-2,2.8-3.6,4.8-2.8l55.2,14.8c2,0.4,3.6,2.8,2.8,4.8  C233.8,458.8,232.2,460,230.6,460z"/>
<path d="M322.2,449.6c-1.6,0-3.2-1.2-4-2.8c-0.4-2,0.8-4.4,2.8-4.8l55.6-14.8c2-0.4,4.4,0.8,4.8,2.8c0.4,2-0.8,4.4-2.8,4.8  L323,449.6C323,449.6,322.6,449.6,322.2,449.6z"/>
<path d="M283.4,460c-1.6,0-3.2-1.2-4-2.8c-0.4-2,0.8-4.4,2.8-4.8l17.2-4.8c2-0.4,4.4,0.8,4.8,2.8s-0.8,4.4-2.8,4.8l-17.2,4.8  C283.8,460,283.8,460,283.4,460z"/>
</svg>
  <svg xmlns:xlink="http://www.w3.org/1999/xlink" height="30" width="30" version="1.1" id="Layer_1" viewBox="0 0 513.2 513.2" xml:space="preserve" x="70.0" y="160.0">
<g>
	<circle style="fill:#E65100;" cx="256.2" cy="252" r="8"/>
	<circle style="fill:#E65100;" cx="256.2" cy="179.6" r="8"/>
</g>
<path style="fill:#FFB74D;" d="M248.2,179.6c0,4.4,3.6,8,8,8s8-3.6,8-8s-3.6-8-8-8S248.2,175.2,248.2,179.6z M256.2,260  c4.4,0,8-3.6,8-8s-3.6-8-8-8s-8,3.6-8,8S251.8,260,256.2,260z M234.6,71.6c5.2,0,9.6-4.4,9.6-10s-4.4-10-9.6-10c-5.6,0-10,4.4-10,10  S229,71.6,234.6,71.6z M130.6,164.4h53.6V72c0-37.6,30.4-68,68-68s68,30.4,68,68v92.4h58.4h16c27.6,0,50,22.4,50,50s-22.4,50-50,50  h-16h-44.8l49.6,182.8c7.2,26.8-8.8,52.4-35.2,59.6c-26.8,7.2-54-8.8-61.2-35.6l-30-112.8l-30.4,112.8  c-7.2,26.8-34.4,42.8-61.2,35.6c-26.8-7.2-42.4-32.8-35.2-59.2l49.6-182.8h-49.2h-12.4c-27.6,0-50-22.4-50-50s22.4-50,50-50h12.4  V164.4z M256.2,223.6c4.4,0,8-3.6,8-8s-3.6-8-8-8s-8,3.6-8,8C248.2,220.4,251.8,223.6,256.2,223.6z M268.2,62c0,5.6,4.4,10,9.6,10  c5.6,0,9.6-4.4,9.6-10s-4.4-10-9.6-10S268.2,56.4,268.2,62z"/>
<g>
	<path style="fill:#E65100;" d="M287.8,62c0,5.6-4.4,10-9.6,10c-5.6,0-9.6-4.4-9.6-10s4.4-10,9.6-10S287.8,56.4,287.8,62z"/>
	<circle style="fill:#E65100;" cx="256.2" cy="216" r="8"/>
	<path style="fill:#E65100;" d="M244.2,62c0,5.6-4.4,10-9.6,10c-5.6,0-9.6-4.4-9.6-10s4.4-10,9.6-10S244.2,56.4,244.2,62z"/>
</g>
<path d="M178.2,513.2c-4.4,0-9.2-0.8-13.6-2c-14-3.6-25.6-12.4-32.8-24.4s-9.2-26.4-5.2-40.4l48.4-178h-56.4c-29.6,0-54-24.4-54-54  s24-54,54-54h62V72c0-39.6,32.4-72,72-72s72,32.4,72,72v88.4h70c29.6,0,54,24.4,54,54s-24,54-54,54h-55.2l48.4,178  c3.6,14,1.6,28-5.6,40c-7.2,11.6-18.8,20.4-32.8,24s-28.4,2-40.8-5.2s-21.2-18.8-25.2-32.8l-26.4-98l-26.4,98.4  c-3.6,14-12.8,25.6-25.2,33.2C197,510.4,187.4,513.2,178.2,513.2z M118.2,168.4c-25.2,0-46,20.8-46,46s20.4,46,46,46h61.6  c1.2,0,2.4,0.4,3.2,1.6c0.8,0.8,1.2,2.4,0.8,3.6l-49.6,182.8c-3.2,11.6-1.6,24,4.4,34.4s16,17.6,28,20.8c11.6,3.2,24,1.6,34.8-4.8  s18.4-16.4,21.6-28l30.4-113.2c0.4-1.6,2-2.8,4-2.8s3.2,1.2,4,2.8l30,112.4c3.2,12,10.8,21.6,21.6,28c10.8,6,23.2,7.6,34.8,4.4  c12-3.2,22-10.4,28-20.4s7.6-22,4.4-33.6l-49.6-182.8c-0.4-1.2,0-2.4,0.8-3.6c0.8-0.8,2-1.6,3.2-1.6H395c25.2,0,46-20.8,46-46  s-20.8-46-46-46h-74.8c-2.4,0-4-1.6-4-4V72c0-35.2-28.8-64-64-64s-64,28.8-64,64v92.4c0,2.4-1.6,4-4,4H118.2z"/>
<path d="M256.2,116.4c-16.4,0-31.6-8.4-40.8-22.4c-1.2-2-0.8-4.4,1.2-5.6s4.4-0.8,5.6,1.2c7.6,11.6,20,18.4,34,18.4  c13.6,0,26.4-6.8,34-18.4c1.2-2,3.6-2.4,5.6-1.2c2,1.2,2.4,3.6,1.2,5.6C288.2,108,273,116.4,256.2,116.4z"/>
<path d="M234.6,75.6c-7.6,0-13.6-6-13.6-14s6-14,13.6-14s13.6,6,13.6,14S242.2,75.6,234.6,75.6z M234.6,56c-3.2,0-5.6,2.8-5.6,6  s2.8,6,5.6,6s5.6-2.8,5.6-6S237.8,56,234.6,56z"/>
<path d="M278.2,75.6c-7.6,0-14-6-14-14s6-14,14-14s13.6,6,13.6,14S285.8,75.6,278.2,75.6z M278.2,56c-3.2,0-6,2.8-6,6s2.8,6,6,6  s5.6-2.8,5.6-6S281.4,56,278.2,56z"/>
<path d="M256.2,191.6c-6.4,0-12-5.2-12-12c0-6.4,5.2-12,12-12c6.4,0,12,5.2,12,12S263,191.6,256.2,191.6z M256.2,175.6  c-2,0-4,1.6-4,4s1.6,4,4,4s4-1.6,4-4S258.6,175.6,256.2,175.6z"/>
<path d="M256.2,227.6c-6.4,0-12-5.2-12-12s5.2-12,12-12c6.4,0,12,5.2,12,12S263,227.6,256.2,227.6z M256.2,212c-2,0-4,1.6-4,4  s1.6,4,4,4s4-1.6,4-4S258.6,212,256.2,212z"/>
<path d="M256.2,264c-6.4,0-12-5.2-12-12c0-6.4,5.2-12,12-12c6.4,0,12,5.2,12,12S263,264,256.2,264z M256.2,248c-2,0-4,1.6-4,4  s1.6,4,4,4s4-1.6,4-4S258.6,248,256.2,248z"/>
<path d="M128.2,268.4c-2.4,0-4-1.6-4-4v-64c0-2.4,1.6-4,4-4s4,1.6,4,4v64C132.2,266.8,130.6,268.4,128.2,268.4z"/>
<path d="M376.2,268.4c-2.4,0-4-1.6-4-4v-64c0-2.4,1.6-4,4-4s4,1.6,4,4v64C380.2,266.8,378.6,268.4,376.2,268.4z"/>
<path d="M128.2,184.4c-2.4,0-4-1.6-4-4v-16c0-2.4,1.6-4,4-4s4,1.6,4,4v16C132.2,182.8,130.6,184.4,128.2,184.4z"/>
<path d="M376.2,184.4c-2.4,0-4-1.6-4-4v-16c0-2.4,1.6-4,4-4s4,1.6,4,4v16C380.2,182.8,378.6,184.4,376.2,184.4z"/>
<path d="M153.4,439.6c-0.4,0-0.8,0-1.2,0l-17.6-4.8c-2-0.4-3.2-2.8-2.8-4.8s2.8-3.2,4.8-2.8l17.6,4.8c2,0.4,3.2,2.8,2.8,4.8  C157,438.4,155.4,439.6,153.4,439.6z"/>
<path d="M230.6,460c-0.4,0-0.8,0-1.2,0l-55.2-14.8c-2-0.4-3.6-2.8-2.8-4.8c0.4-2,2.8-3.6,4.8-2.8l55.2,14.8c2,0.4,3.6,2.8,2.8,4.8  C233.8,458.8,232.2,460,230.6,460z"/>
<path d="M322.2,449.6c-1.6,0-3.2-1.2-4-2.8c-0.4-2,0.8-4.4,2.8-4.8l55.6-14.8c2-0.4,4.4,0.8,4.8,2.8c0.4,2-0.8,4.4-2.8,4.8  L323,449.6C323,449.6,322.6,449.6,322.2,449.6z"/>
<path d="M283.4,460c-1.6,0-3.2-1.2-4-2.8c-0.4-2,0.8-4.4,2.8-4.8l17.2-4.8c2-0.4,4.4,0.8,4.8,2.8s-0.8,4.4-2.8,4.8l-17.2,4.8  C283.8,460,283.8,460,283.4,460z"/>
</svg>
  <svg xmlns:xlink="http://www.w3.org/1999/xlink" height="30" width="30" version="1.1" id="Layer_1" viewBox="0 0 513.2 513.2" xml:space="preserve" x="110.0" y="160.0">
<g>
	<circle style="fill:#E65100;" cx="256.2" cy="252" r="8"/>
	<circle style="fill:#E65100;" cx="256.2" cy="179.6" r="8"/>
</g>
<path style="fill:#FFB74D;" d="M248.2,179.6c0,4.4,3.6,8,8,8s8-3.6,8-8s-3.6-8-8-8S248.2,175.2,248.2,179.6z M256.2,260  c4.4,0,8-3.6,8-8s-3.6-8-8-8s-8,3.6-8,8S251.8,260,256.2,260z M234.6,71.6c5.2,0,9.6-4.4,9.6-10s-4.4-10-9.6-10c-5.6,0-10,4.4-10,10  S229,71.6,234.6,71.6z M130.6,164.4h53.6V72c0-37.6,30.4-68,68-68s68,30.4,68,68v92.4h58.4h16c27.6,0,50,22.4,50,50s-22.4,50-50,50  h-16h-44.8l49.6,182.8c7.2,26.8-8.8,52.4-35.2,59.6c-26.8,7.2-54-8.8-61.2-35.6l-30-112.8l-30.4,112.8  c-7.2,26.8-34.4,42.8-61.2,35.6c-26.8-7.2-42.4-32.8-35.2-59.2l49.6-182.8h-49.2h-12.4c-27.6,0-50-22.4-50-50s22.4-50,50-50h12.4  V164.4z M256.2,223.6c4.4,0,8-3.6,8-8s-3.6-8-8-8s-8,3.6-8,8C248.2,220.4,251.8,223.6,256.2,223.6z M268.2,62c0,5.6,4.4,10,9.6,10  c5.6,0,9.6-4.4,9.6-10s-4.4-10-9.6-10S268.2,56.4,268.2,62z"/>
<g>
	<path style="fill:#E65100;" d="M287.8,62c0,5.6-4.4,10-9.6,10c-5.6,0-9.6-4.4-9.6-10s4.4-10,9.6-10S287.8,56.4,287.8,62z"/>
	<circle style="fill:#E65100;" cx="256.2" cy="216" r="8"/>
	<path style="fill:#E65100;" d="M244.2,62c0,5.6-4.4,10-9.6,10c-5.6,0-9.6-4.4-9.6-10s4.4-10,9.6-10S244.2,56.4,244.2,62z"/>
</g>
<path d="M178.2,513.2c-4.4,0-9.2-0.8-13.6-2c-14-3.6-25.6-12.4-32.8-24.4s-9.2-26.4-5.2-40.4l48.4-178h-56.4c-29.6,0-54-24.4-54-54  s24-54,54-54h62V72c0-39.6,32.4-72,72-72s72,32.4,72,72v88.4h70c29.6,0,54,24.4,54,54s-24,54-54,54h-55.2l48.4,178  c3.6,14,1.6,28-5.6,40c-7.2,11.6-18.8,20.4-32.8,24s-28.4,2-40.8-5.2s-21.2-18.8-25.2-32.8l-26.4-98l-26.4,98.4  c-3.6,14-12.8,25.6-25.2,33.2C197,510.4,187.4,513.2,178.2,513.2z M118.2,168.4c-25.2,0-46,20.8-46,46s20.4,46,46,46h61.6  c1.2,0,2.4,0.4,3.2,1.6c0.8,0.8,1.2,2.4,0.8,3.6l-49.6,182.8c-3.2,11.6-1.6,24,4.4,34.4s16,17.6,28,20.8c11.6,3.2,24,1.6,34.8-4.8  s18.4-16.4,21.6-28l30.4-113.2c0.4-1.6,2-2.8,4-2.8s3.2,1.2,4,2.8l30,112.4c3.2,12,10.8,21.6,21.6,28c10.8,6,23.2,7.6,34.8,4.4  c12-3.2,22-10.4,28-20.4s7.6-22,4.4-33.6l-49.6-182.8c-0.4-1.2,0-2.4,0.8-3.6c0.8-0.8,2-1.6,3.2-1.6H395c25.2,0,46-20.8,46-46  s-20.8-46-46-46h-74.8c-2.4,0-4-1.6-4-4V72c0-35.2-28.8-64-64-64s-64,28.8-64,64v92.4c0,2.4-1.6,4-4,4H118.2z"/>
<path d="M256.2,116.4c-16.4,0-31.6-8.4-40.8-22.4c-1.2-2-0.8-4.4,1.2-5.6s4.4-0.8,5.6,1.2c7.6,11.6,20,18.4,34,18.4  c13.6,0,26.4-6.8,34-18.4c1.2-2,3.6-2.4,5.6-1.2c2,1.2,2.4,3.6,1.2,5.6C288.2,108,273,116.4,256.2,116.4z"/>
<path d="M234.6,75.6c-7.6,0-13.6-6-13.6-14s6-14,13.6-14s13.6,6,13.6,14S242.2,75.6,234.6,75.6z M234.6,56c-3.2,0-5.6,2.8-5.6,6  s2.8,6,5.6,6s5.6-2.8,5.6-6S237.8,56,234.6,56z"/>
<path d="M278.2,75.6c-7.6,0-14-6-14-14s6-14,14-14s13.6,6,13.6,14S285.8,75.6,278.2,75.6z M278.2,56c-3.2,0-6,2.8-6,6s2.8,6,6,6  s5.6-2.8,5.6-6S281.4,56,278.2,56z"/>
<path d="M256.2,191.6c-6.4,0-12-5.2-12-12c0-6.4,5.2-12,12-12c6.4,0,12,5.2,12,12S263,191.6,256.2,191.6z M256.2,175.6  c-2,0-4,1.6-4,4s1.6,4,4,4s4-1.6,4-4S258.6,175.6,256.2,175.6z"/>
<path d="M256.2,227.6c-6.4,0-12-5.2-12-12s5.2-12,12-12c6.4,0,12,5.2,12,12S263,227.6,256.2,227.6z M256.2,212c-2,0-4,1.6-4,4  s1.6,4,4,4s4-1.6,4-4S258.6,212,256.2,212z"/>
<path d="M256.2,264c-6.4,0-12-5.2-12-12c0-6.4,5.2-12,12-12c6.4,0,12,5.2,12,12S263,264,256.2,264z M256.2,248c-2,0-4,1.6-4,4  s1.6,4,4,4s4-1.6,4-4S258.6,248,256.2,248z"/>
<path d="M128.2,268.4c-2.4,0-4-1.6-4-4v-64c0-2.4,1.6-4,4-4s4,1.6,4,4v64C132.2,266.8,130.6,268.4,128.2,268.4z"/>
<path d="M376.2,268.4c-2.4,0-4-1.6-4-4v-64c0-2.4,1.6-4,4-4s4,1.6,4,4v64C380.2,266.8,378.6,268.4,376.2,268.4z"/>
<path d="M128.2,184.4c-2.4,0-4-1.6-4-4v-16c0-2.4,1.6-4,4-4s4,1.6,4,4v16C132.2,182.8,130.6,184.4,128.2,184.4z"/>
<path d="M376.2,184.4c-2.4,0-4-1.6-4-4v-16c0-2.4,1.6-4,4-4s4,1.6,4,4v16C380.2,182.8,378.6,184.4,376.2,184.4z"/>
<path d="M153.4,439.6c-0.4,0-0.8,0-1.2,0l-17.6-4.8c-2-0.4-3.2-2.8-2.8-4.8s2.8-3.2,4.8-2.8l17.6,4.8c2,0.4,3.2,2.8,2.8,4.8  C157,438.4,155.4,439.6,153.4,439.6z"/>
<path d="M230.6,460c-0.4,0-0.8,0-1.2,0l-55.2-14.8c-2-0.4-3.6-2.8-2.8-4.8c0.4-2,2.8-3.6,4.8-2.8l55.2,14.8c2,0.4,3.6,2.8,2.8,4.8  C233.8,458.8,232.2,460,230.6,460z"/>
<path d="M322.2,449.6c-1.6,0-3.2-1.2-4-2.8c-0.4-2,0.8-4.4,2.8-4.8l55.6-14.8c2-0.4,4.4,0.8,4.8,2.8c0.4,2-0.8,4.4-2.8,4.8  L323,449.6C323,449.6,322.6,449.6,322.2,449.6z"/>
<path d="M283.4,460c-1.6,0-3.2-1.2-4-2.8c-0.4-2,0.8-4.4,2.8-4.8l17.2-4.8c2-0.4,4.4,0.8,4.8,2.8s-0.8,4.4-2.8,4.8l-17.2,4.8  C283.8,460,283.8,460,283.4,460z"/>
</svg>
  <svg xmlns:xlink="http://www.w3.org/1999/xlink" height="30" width="30" version="1.1" id="Layer_1" viewBox="0 0 513.2 513.2" xml:space="preserve" x="150.0" y="160.0">
<g>
	<circle style="fill:#E65100;" cx="256.2" cy="252" r="8"/>
	<circle style="fill:#E65100;" cx="256.2" cy="179.6" r="8"/>
</g>
<path style="fill:#FFB74D;" d="M248.2,179.6c0,4.4,3.6,8,8,8s8-3.6,8-8s-3.6-8-8-8S248.2,175.2,248.2,179.6z M256.2,260  c4.4,0,8-3.6,8-8s-3.6-8-8-8s-8,3.6-8,8S251.8,260,256.2,260z M234.6,71.6c5.2,0,9.6-4.4,9.6-10s-4.4-10-9.6-10c-5.6,0-10,4.4-10,10  S229,71.6,234.6,71.6z M130.6,164.4h53.6V72c0-37.6,30.4-68,68-68s68,30.4,68,68v92.4h58.4h16c27.6,0,50,22.4,50,50s-22.4,50-50,50  h-16h-44.8l49.6,182.8c7.2,26.8-8.8,52.4-35.2,59.6c-26.8,7.2-54-8.8-61.2-35.6l-30-112.8l-30.4,112.8  c-7.2,26.8-34.4,42.8-61.2,35.6c-26.8-7.2-42.4-32.8-35.2-59.2l49.6-182.8h-49.2h-12.4c-27.6,0-50-22.4-50-50s22.4-50,50-50h12.4  V164.4z M256.2,223.6c4.4,0,8-3.6,8-8s-3.6-8-8-8s-8,3.6-8,8C248.2,220.4,251.8,223.6,256.2,223.6z M268.2,62c0,5.6,4.4,10,9.6,10  c5.6,0,9.6-4.4,9.6-10s-4.4-10-9.6-10S268.2,56.4,268.2,62z"/>
<g>
	<path style="fill:#E65100;" d="M287.8,62c0,5.6-4.4,10-9.6,10c-5.6,0-9.6-4.4-9.6-10s4.4-10,9.6-10S287.8,56.4,287.8,62z"/>
	<circle style="fill:#E65100;" cx="256.2" cy="216" r="8"/>
	<path style="fill:#E65100;" d="M244.2,62c0,5.6-4.4,10-9.6,10c-5.6,0-9.6-4.4-9.6-10s4.4-10,9.6-10S244.2,56.4,244.2,62z"/>
</g>
<path d="M178.2,513.2c-4.4,0-9.2-0.8-13.6-2c-14-3.6-25.6-12.4-32.8-24.4s-9.2-26.4-5.2-40.4l48.4-178h-56.4c-29.6,0-54-24.4-54-54  s24-54,54-54h62V72c0-39.6,32.4-72,72-72s72,32.4,72,72v88.4h70c29.6,0,54,24.4,54,54s-24,54-54,54h-55.2l48.4,178  c3.6,14,1.6,28-5.6,40c-7.2,11.6-18.8,20.4-32.8,24s-28.4,2-40.8-5.2s-21.2-18.8-25.2-32.8l-26.4-98l-26.4,98.4  c-3.6,14-12.8,25.6-25.2,33.2C197,510.4,187.4,513.2,178.2,513.2z M118.2,168.4c-25.2,0-46,20.8-46,46s20.4,46,46,46h61.6  c1.2,0,2.4,0.4,3.2,1.6c0.8,0.8,1.2,2.4,0.8,3.6l-49.6,182.8c-3.2,11.6-1.6,24,4.4,34.4s16,17.6,28,20.8c11.6,3.2,24,1.6,34.8-4.8  s18.4-16.4,21.6-28l30.4-113.2c0.4-1.6,2-2.8,4-2.8s3.2,1.2,4,2.8l30,112.4c3.2,12,10.8,21.6,21.6,28c10.8,6,23.2,7.6,34.8,4.4  c12-3.2,22-10.4,28-20.4s7.6-22,4.4-33.6l-49.6-182.8c-0.4-1.2,0-2.4,0.8-3.6c0.8-0.8,2-1.6,3.2-1.6H395c25.2,0,46-20.8,46-46  s-20.8-46-46-46h-74.8c-2.4,0-4-1.6-4-4V72c0-35.2-28.8-64-64-64s-64,28.8-64,64v92.4c0,2.4-1.6,4-4,4H118.2z"/>
<path d="M256.2,116.4c-16.4,0-31.6-8.4-40.8-22.4c-1.2-2-0.8-4.4,1.2-5.6s4.4-0.8,5.6,1.2c7.6,11.6,20,18.4,34,18.4  c13.6,0,26.4-6.8,34-18.4c1.2-2,3.6-2.4,5.6-1.2c2,1.2,2.4,3.6,1.2,5.6C288.2,108,273,116.4,256.2,116.4z"/>
<path d="M234.6,75.6c-7.6,0-13.6-6-13.6-14s6-14,13.6-14s13.6,6,13.6,14S242.2,75.6,234.6,75.6z M234.6,56c-3.2,0-5.6,2.8-5.6,6  s2.8,6,5.6,6s5.6-2.8,5.6-6S237.8,56,234.6,56z"/>
<path d="M278.2,75.6c-7.6,0-14-6-14-14s6-14,14-14s13.6,6,13.6,14S285.8,75.6,278.2,75.6z M278.2,56c-3.2,0-6,2.8-6,6s2.8,6,6,6  s5.6-2.8,5.6-6S281.4,56,278.2,56z"/>
<path d="M256.2,191.6c-6.4,0-12-5.2-12-12c0-6.4,5.2-12,12-12c6.4,0,12,5.2,12,12S263,191.6,256.2,191.6z M256.2,175.6  c-2,0-4,1.6-4,4s1.6,4,4,4s4-1.6,4-4S258.6,175.6,256.2,175.6z"/>
<path d="M256.2,227.6c-6.4,0-12-5.2-12-12s5.2-12,12-12c6.4,0,12,5.2,12,12S263,227.6,256.2,227.6z M256.2,212c-2,0-4,1.6-4,4  s1.6,4,4,4s4-1.6,4-4S258.6,212,256.2,212z"/>
<path d="M256.2,264c-6.4,0-12-5.2-12-12c0-6.4,5.2-12,12-12c6.4,0,12,5.2,12,12S263,264,256.2,264z M256.2,248c-2,0-4,1.6-4,4  s1.6,4,4,4s4-1.6,4-4S258.6,248,256.2,248z"/>
<path d="M128.2,268.4c-2.4,0-4-1.6-4-4v-64c0-2.4,1.6-4,4-4s4,1.6,4,4v64C132.2,266.8,130.6,268.4,128.2,268.4z"/>
<path d="M376.2,268.4c-2.4,0-4-1.6-4-4v-64c0-2.4,1.6-4,4-4s4,1.6,4,4v64C380.2,266.8,378.6,268.4,376.2,268.4z"/>
<path d="M128.2,184.4c-2.4,0-4-1.6-4-4v-16c0-2.4,1.6-4,4-4s4,1.6,4,4v16C132.2,182.8,130.6,184.4,128.2,184.4z"/>
<path d="M376.2,184.4c-2.4,0-4-1.6-4-4v-16c0-2.4,1.6-4,4-4s4,1.6,4,4v16C380.2,182.8,378.6,184.4,376.2,184.4z"/>
<path d="M153.4,439.6c-0.4,0-0.8,0-1.2,0l-17.6-4.8c-2-0.4-3.2-2.8-2.8-4.8s2.8-3.2,4.8-2.8l17.6,4.8c2,0.4,3.2,2.8,2.8,4.8  C157,438.4,155.4,439.6,153.4,439.6z"/>
<path d="M230.6,460c-0.4,0-0.8,0-1.2,0l-55.2-14.8c-2-0.4-3.6-2.8-2.8-4.8c0.4-2,2.8-3.6,4.8-2.8l55.2,14.8c2,0.4,3.6,2.8,2.8,4.8  C233.8,458.8,232.2,460,230.6,460z"/>
<path d="M322.2,449.6c-1.6,0-3.2-1.2-4-2.8c-0.4-2,0.8-4.4,2.8-4.8l55.6-14.8c2-0.4,4.4,0.8,4.8,2.8c0.4,2-0.8,4.4-2.8,4.8  L323,449.6C323,449.6,322.6,449.6,322.2,449.6z"/>
<path d="M283.4,460c-1.6,0-3.2-1.2-4-2.8c-0.4-2,0.8-4.4,2.8-4.8l17.2-4.8c2-0.4,4.4,0.8,4.8,2.8s-0.8,4.4-2.8,4.8l-17.2,4.8  C283.8,460,283.8,460,283.4,460z"/>
</svg>
  <svg xmlns:xlink="http://www.w3.org/1999/xlink" height="30" width="30" version="1.1" id="Layer_1" viewBox="0 0 513.2 513.2" xml:space="preserve" x="190.0" y="160.0">
<g>
	<circle style="fill:#E65100;" cx="256.2" cy="252" r="8"/>
	<circle style="fill:#E65100;" cx="256.2" cy="179.6" r="8"/>
</g>
<path style="fill:#FFB74D;" d="M248.2,179.6c0,4.4,3.6,8,8,8s8-3.6,8-8s-3.6-8-8-8S248.2,175.2,248.2,179.6z M256.2,260  c4.4,0,8-3.6,8-8s-3.6-8-8-8s-8,3.6-8,8S251.8,260,256.2,260z M234.6,71.6c5.2,0,9.6-4.4,9.6-10s-4.4-10-9.6-10c-5.6,0-10,4.4-10,10  S229,71.6,234.6,71.6z M130.6,164.4h53.6V72c0-37.6,30.4-68,68-68s68,30.4,68,68v92.4h58.4h16c27.6,0,50,22.4,50,50s-22.4,50-50,50  h-16h-44.8l49.6,182.8c7.2,26.8-8.8,52.4-35.2,59.6c-26.8,7.2-54-8.8-61.2-35.6l-30-112.8l-30.4,112.8  c-7.2,26.8-34.4,42.8-61.2,35.6c-26.8-7.2-42.4-32.8-35.2-59.2l49.6-182.8h-49.2h-12.4c-27.6,0-50-22.4-50-50s22.4-50,50-50h12.4  V164.4z M256.2,223.6c4.4,0,8-3.6,8-8s-3.6-8-8-8s-8,3.6-8,8C248.2,220.4,251.8,223.6,256.2,223.6z M268.2,62c0,5.6,4.4,10,9.6,10  c5.6,0,9.6-4.4,9.6-10s-4.4-10-9.6-10S268.2,56.4,268.2,62z"/>
<g>
	<path style="fill:#E65100;" d="M287.8,62c0,5.6-4.4,10-9.6,10c-5.6,0-9.6-4.4-9.6-10s4.4-10,9.6-10S287.8,56.4,287.8,62z"/>
	<circle style="fill:#E65100;" cx="256.2" cy="216" r="8"/>
	<path style="fill:#E65100;" d="M244.2,62c0,5.6-4.4,10-9.6,10c-5.6,0-9.6-4.4-9.6-10s4.4-10,9.6-10S244.2,56.4,244.2,62z"/>
</g>
<path d="M178.2,513.2c-4.4,0-9.2-0.8-13.6-2c-14-3.6-25.6-12.4-32.8-24.4s-9.2-26.4-5.2-40.4l48.4-178h-56.4c-29.6,0-54-24.4-54-54  s24-54,54-54h62V72c0-39.6,32.4-72,72-72s72,32.4,72,72v88.4h70c29.6,0,54,24.4,54,54s-24,54-54,54h-55.2l48.4,178  c3.6,14,1.6,28-5.6,40c-7.2,11.6-18.8,20.4-32.8,24s-28.4,2-40.8-5.2s-21.2-18.8-25.2-32.8l-26.4-98l-26.4,98.4  c-3.6,14-12.8,25.6-25.2,33.2C197,510.4,187.4,513.2,178.2,513.2z M118.2,168.4c-25.2,0-46,20.8-46,46s20.4,46,46,46h61.6  c1.2,0,2.4,0.4,3.2,1.6c0.8,0.8,1.2,2.4,0.8,3.6l-49.6,182.8c-3.2,11.6-1.6,24,4.4,34.4s16,17.6,28,20.8c11.6,3.2,24,1.6,34.8-4.8  s18.4-16.4,21.6-28l30.4-113.2c0.4-1.6,2-2.8,4-2.8s3.2,1.2,4,2.8l30,112.4c3.2,12,10.8,21.6,21.6,28c10.8,6,23.2,7.6,34.8,4.4  c12-3.2,22-10.4,28-20.4s7.6-22,4.4-33.6l-49.6-182.8c-0.4-1.2,0-2.4,0.8-3.6c0.8-0.8,2-1.6,3.2-1.6H395c25.2,0,46-20.8,46-46  s-20.8-46-46-46h-74.8c-2.4,0-4-1.6-4-4V72c0-35.2-28.8-64-64-64s-64,28.8-64,64v92.4c0,2.4-1.6,4-4,4H118.2z"/>
<path d="M256.2,116.4c-16.4,0-31.6-8.4-40.8-22.4c-1.2-2-0.8-4.4,1.2-5.6s4.4-0.8,5.6,1.2c7.6,11.6,20,18.4,34,18.4  c13.6,0,26.4-6.8,34-18.4c1.2-2,3.6-2.4,5.6-1.2c2,1.2,2.4,3.6,1.2,5.6C288.2,108,273,116.4,256.2,116.4z"/>
<path d="M234.6,75.6c-7.6,0-13.6-6-13.6-14s6-14,13.6-14s13.6,6,13.6,14S242.2,75.6,234.6,75.6z M234.6,56c-3.2,0-5.6,2.8-5.6,6  s2.8,6,5.6,6s5.6-2.8,5.6-6S237.8,56,234.6,56z"/>
<path d="M278.2,75.6c-7.6,0-14-6-14-14s6-14,14-14s13.6,6,13.6,14S285.8,75.6,278.2,75.6z M278.2,56c-3.2,0-6,2.8-6,6s2.8,6,6,6  s5.6-2.8,5.6-6S281.4,56,278.2,56z"/>
<path d="M256.2,191.6c-6.4,0-12-5.2-12-12c0-6.4,5.2-12,12-12c6.4,0,12,5.2,12,12S263,191.6,256.2,191.6z M256.2,175.6  c-2,0-4,1.6-4,4s1.6,4,4,4s4-1.6,4-4S258.6,175.6,256.2,175.6z"/>
<path d="M256.2,227.6c-6.4,0-12-5.2-12-12s5.2-12,12-12c6.4,0,12,5.2,12,12S263,227.6,256.2,227.6z M256.2,212c-2,0-4,1.6-4,4  s1.6,4,4,4s4-1.6,4-4S258.6,212,256.2,212z"/>
<path d="M256.2,264c-6.4,0-12-5.2-12-12c0-6.4,5.2-12,12-12c6.4,0,12,5.2,12,12S263,264,256.2,264z M256.2,248c-2,0-4,1.6-4,4  s1.6,4,4,4s4-1.6,4-4S258.6,248,256.2,248z"/>
<path d="M128.2,268.4c-2.4,0-4-1.6-4-4v-64c0-2.4,1.6-4,4-4s4,1.6,4,4v64C132.2,266.8,130.6,268.4,128.2,268.4z"/>
<path d="M376.2,268.4c-2.4,0-4-1.6-4-4v-64c0-2.4,1.6-4,4-4s4,1.6,4,4v64C380.2,266.8,378.6,268.4,376.2,268.4z"/>
<path d="M128.2,184.4c-2.4,0-4-1.6-4-4v-16c0-2.4,1.6-4,4-4s4,1.6,4,4v16C132.2,182.8,130.6,184.4,128.2,184.4z"/>
<path d="M376.2,184.4c-2.4,0-4-1.6-4-4v-16c0-2.4,1.6-4,4-4s4,1.6,4,4v16C380.2,182.8,378.6,184.4,376.2,184.4z"/>
<path d="M153.4,439.6c-0.4,0-0.8,0-1.2,0l-17.6-4.8c-2-0.4-3.2-2.8-2.8-4.8s2.8-3.2,4.8-2.8l17.6,4.8c2,0.4,3.2,2.8,2.8,4.8  C157,438.4,155.4,439.6,153.4,439.6z"/>
<path d="M230.6,460c-0.4,0-0.8,0-1.2,0l-55.2-14.8c-2-0.4-3.6-2.8-2.8-4.8c0.4-2,2.8-3.6,4.8-2.8l55.2,14.8c2,0.4,3.6,2.8,2.8,4.8  C233.8,458.8,232.2,460,230.6,460z"/>
<path d="M322.2,449.6c-1.6,0-3.2-1.2-4-2.8c-0.4-2,0.8-4.4,2.8-4.8l55.6-14.8c2-0.4,4.4,0.8,4.8,2.8c0.4,2-0.8,4.4-2.8,4.8  L323,449.6C323,449.6,322.6,449.6,322.2,449.6z"/>
<path d="M283.4,460c-1.6,0-3.2-1.2-4-2.8c-0.4-2,0.8-4.4,2.8-4.8l17.2-4.8c2-0.4,4.4,0.8,4.8,2.8s-0.8,4.4-2.8,4.8l-17.2,4.8  C283.8,460,283.8,460,283.4,460z"/>
</svg>
  <svg xmlns:xlink="http://www.w3.org/1999/xlink" height="30" width="30" version="1.1" id="Layer_1" viewBox="0 0 513.2 513.2" xml:space="preserve" x="70.0" y="200.0">
<g>
	<circle style="fill:#E65100;" cx="256.2" cy="252" r="8"/>
	<circle style="fill:#E65100;" cx="256.2" cy="179.6" r="8"/>
</g>
<path style="fill:#FFB74D;" d="M248.2,179.6c0,4.4,3.6,8,8,8s8-3.6,8-8s-3.6-8-8-8S248.2,175.2,248.2,179.6z M256.2,260  c4.4,0,8-3.6,8-8s-3.6-8-8-8s-8,3.6-8,8S251.8,260,256.2,260z M234.6,71.6c5.2,0,9.6-4.4,9.6-10s-4.4-10-9.6-10c-5.6,0-10,4.4-10,10  S229,71.6,234.6,71.6z M130.6,164.4h53.6V72c0-37.6,30.4-68,68-68s68,30.4,68,68v92.4h58.4h16c27.6,0,50,22.4,50,50s-22.4,50-50,50  h-16h-44.8l49.6,182.8c7.2,26.8-8.8,52.4-35.2,59.6c-26.8,7.2-54-8.8-61.2-35.6l-30-112.8l-30.4,112.8  c-7.2,26.8-34.4,42.8-61.2,35.6c-26.8-7.2-42.4-32.8-35.2-59.2l49.6-182.8h-49.2h-12.4c-27.6,0-50-22.4-50-50s22.4-50,50-50h12.4  V164.4z M256.2,223.6c4.4,0,8-3.6,8-8s-3.6-8-8-8s-8,3.6-8,8C248.2,220.4,251.8,223.6,256.2,223.6z M268.2,62c0,5.6,4.4,10,9.6,10  c5.6,0,9.6-4.4,9.6-10s-4.4-10-9.6-10S268.2,56.4,268.2,62z"/>
<g>
	<path style="fill:#E65100;" d="M287.8,62c0,5.6-4.4,10-9.6,10c-5.6,0-9.6-4.4-9.6-10s4.4-10,9.6-10S287.8,56.4,287.8,62z"/>
	<circle style="fill:#E65100;" cx="256.2" cy="216" r="8"/>
	<path style="fill:#E65100;" d="M244.2,62c0,5.6-4.4,10-9.6,10c-5.6,0-9.6-4.4-9.6-10s4.4-10,9.6-10S244.2,56.4,244.2,62z"/>
</g>
<path d="M178.2,513.2c-4.4,0-9.2-0.8-13.6-2c-14-3.6-25.6-12.4-32.8-24.4s-9.2-26.4-5.2-40.4l48.4-178h-56.4c-29.6,0-54-24.4-54-54  s24-54,54-54h62V72c0-39.6,32.4-72,72-72s72,32.4,72,72v88.4h70c29.6,0,54,24.4,54,54s-24,54-54,54h-55.2l48.4,178  c3.6,14,1.6,28-5.6,40c-7.2,11.6-18.8,20.4-32.8,24s-28.4,2-40.8-5.2s-21.2-18.8-25.2-32.8l-26.4-98l-26.4,98.4  c-3.6,14-12.8,25.6-25.2,33.2C197,510.4,187.4,513.2,178.2,513.2z M118.2,168.4c-25.2,0-46,20.8-46,46s20.4,46,46,46h61.6  c1.2,0,2.4,0.4,3.2,1.6c0.8,0.8,1.2,2.4,0.8,3.6l-49.6,182.8c-3.2,11.6-1.6,24,4.4,34.4s16,17.6,28,20.8c11.6,3.2,24,1.6,34.8-4.8  s18.4-16.4,21.6-28l30.4-113.2c0.4-1.6,2-2.8,4-2.8s3.2,1.2,4,2.8l30,112.4c3.2,12,10.8,21.6,21.6,28c10.8,6,23.2,7.6,34.8,4.4  c12-3.2,22-10.4,28-20.4s7.6-22,4.4-33.6l-49.6-182.8c-0.4-1.2,0-2.4,0.8-3.6c0.8-0.8,2-1.6,3.2-1.6H395c25.2,0,46-20.8,46-46  s-20.8-46-46-46h-74.8c-2.4,0-4-1.6-4-4V72c0-35.2-28.8-64-64-64s-64,28.8-64,64v92.4c0,2.4-1.6,4-4,4H118.2z"/>
<path d="M256.2,116.4c-16.4,0-31.6-8.4-40.8-22.4c-1.2-2-0.8-4.4,1.2-5.6s4.4-0.8,5.6,1.2c7.6,11.6,20,18.4,34,18.4  c13.6,0,26.4-6.8,34-18.4c1.2-2,3.6-2.4,5.6-1.2c2,1.2,2.4,3.6,1.2,5.6C288.2,108,273,116.4,256.2,116.4z"/>
<path d="M234.6,75.6c-7.6,0-13.6-6-13.6-14s6-14,13.6-14s13.6,6,13.6,14S242.2,75.6,234.6,75.6z M234.6,56c-3.2,0-5.6,2.8-5.6,6  s2.8,6,5.6,6s5.6-2.8,5.6-6S237.8,56,234.6,56z"/>
<path d="M278.2,75.6c-7.6,0-14-6-14-14s6-14,14-14s13.6,6,13.6,14S285.8,75.6,278.2,75.6z M278.2,56c-3.2,0-6,2.8-6,6s2.8,6,6,6  s5.6-2.8,5.6-6S281.4,56,278.2,56z"/>
<path d="M256.2,191.6c-6.4,0-12-5.2-12-12c0-6.4,5.2-12,12-12c6.4,0,12,5.2,12,12S263,191.6,256.2,191.6z M256.2,175.6  c-2,0-4,1.6-4,4s1.6,4,4,4s4-1.6,4-4S258.6,175.6,256.2,175.6z"/>
<path d="M256.2,227.6c-6.4,0-12-5.2-12-12s5.2-12,12-12c6.4,0,12,5.2,12,12S263,227.6,256.2,227.6z M256.2,212c-2,0-4,1.6-4,4  s1.6,4,4,4s4-1.6,4-4S258.6,212,256.2,212z"/>
<path d="M256.2,264c-6.4,0-12-5.2-12-12c0-6.4,5.2-12,12-12c6.4,0,12,5.2,12,12S263,264,256.2,264z M256.2,248c-2,0-4,1.6-4,4  s1.6,4,4,4s4-1.6,4-4S258.6,248,256.2,248z"/>
<path d="M128.2,268.4c-2.4,0-4-1.6-4-4v-64c0-2.4,1.6-4,4-4s4,1.6,4,4v64C132.2,266.8,130.6,268.4,128.2,268.4z"/>
<path d="M376.2,268.4c-2.4,0-4-1.6-4-4v-64c0-2.4,1.6-4,4-4s4,1.6,4,4v64C380.2,266.8,378.6,268.4,376.2,268.4z"/>
<path d="M128.2,184.4c-2.4,0-4-1.6-4-4v-16c0-2.4,1.6-4,4-4s4,1.6,4,4v16C132.2,182.8,130.6,184.4,128.2,184.4z"/>
<path d="M376.2,184.4c-2.4,0-4-1.6-4-4v-16c0-2.4,1.6-4,4-4s4,1.6,4,4v16C380.2,182.8,378.6,184.4,376.2,184.4z"/>
<path d="M153.4,439.6c-0.4,0-0.8,0-1.2,0l-17.6-4.8c-2-0.4-3.2-2.8-2.8-4.8s2.8-3.2,4.8-2.8l17.6,4.8c2,0.4,3.2,2.8,2.8,4.8  C157,438.4,155.4,439.6,153.4,439.6z"/>
<path d="M230.6,460c-0.4,0-0.8,0-1.2,0l-55.2-14.8c-2-0.4-3.6-2.8-2.8-4.8c0.4-2,2.8-3.6,4.8-2.8l55.2,14.8c2,0.4,3.6,2.8,2.8,4.8  C233.8,458.8,232.2,460,230.6,460z"/>
<path d="M322.2,449.6c-1.6,0-3.2-1.2-4-2.8c-0.4-2,0.8-4.4,2.8-4.8l55.6-14.8c2-0.4,4.4,0.8,4.8,2.8c0.4,2-0.8,4.4-2.8,4.8  L323,449.6C323,449.6,322.6,449.6,322.2,449.6z"/>
<path d="M283.4,460c-1.6,0-3.2-1.2-4-2.8c-0.4-2,0.8-4.4,2.8-4.8l17.2-4.8c2-0.4,4.4,0.8,4.8,2.8s-0.8,4.4-2.8,4.8l-17.2,4.8  C283.8,460,283.8,460,283.4,460z"/>
</svg>
  <svg xmlns:xlink="http://www.w3.org/1999/xlink" height="30" width="30" version="1.1" id="Layer_1" viewBox="0 0 513.2 513.2" xml:space="preserve" x="110.0" y="200.0">
<g>
	<circle style="fill:#E65100;" cx="256.2" cy="252" r="8"/>
	<circle style="fill:#E65100;" cx="256.2" cy="179.6" r="8"/>
</g>
<path style="fill:#FFB74D;" d="M248.2,179.6c0,4.4,3.6,8,8,8s8-3.6,8-8s-3.6-8-8-8S248.2,175.2,248.2,179.6z M256.2,260  c4.4,0,8-3.6,8-8s-3.6-8-8-8s-8,3.6-8,8S251.8,260,256.2,260z M234.6,71.6c5.2,0,9.6-4.4,9.6-10s-4.4-10-9.6-10c-5.6,0-10,4.4-10,10  S229,71.6,234.6,71.6z M130.6,164.4h53.6V72c0-37.6,30.4-68,68-68s68,30.4,68,68v92.4h58.4h16c27.6,0,50,22.4,50,50s-22.4,50-50,50  h-16h-44.8l49.6,182.8c7.2,26.8-8.8,52.4-35.2,59.6c-26.8,7.2-54-8.8-61.2-35.6l-30-112.8l-30.4,112.8  c-7.2,26.8-34.4,42.8-61.2,35.6c-26.8-7.2-42.4-32.8-35.2-59.2l49.6-182.8h-49.2h-12.4c-27.6,0-50-22.4-50-50s22.4-50,50-50h12.4  V164.4z M256.2,223.6c4.4,0,8-3.6,8-8s-3.6-8-8-8s-8,3.6-8,8C248.2,220.4,251.8,223.6,256.2,223.6z M268.2,62c0,5.6,4.4,10,9.6,10  c5.6,0,9.6-4.4,9.6-10s-4.4-10-9.6-10S268.2,56.4,268.2,62z"/>
<g>
	<path style="fill:#E65100;" d="M287.8,62c0,5.6-4.4,10-9.6,10c-5.6,0-9.6-4.4-9.6-10s4.4-10,9.6-10S287.8,56.4,287.8,62z"/>
	<circle style="fill:#E65100;" cx="256.2" cy="216" r="8"/>
	<path style="fill:#E65100;" d="M244.2,62c0,5.6-4.4,10-9.6,10c-5.6,0-9.6-4.4-9.6-10s4.4-10,9.6-10S244.2,56.4,244.2,62z"/>
</g>
<path d="M178.2,513.2c-4.4,0-9.2-0.8-13.6-2c-14-3.6-25.6-12.4-32.8-24.4s-9.2-26.4-5.2-40.4l48.4-178h-56.4c-29.6,0-54-24.4-54-54  s24-54,54-54h62V72c0-39.6,32.4-72,72-72s72,32.4,72,72v88.4h70c29.6,0,54,24.4,54,54s-24,54-54,54h-55.2l48.4,178  c3.6,14,1.6,28-5.6,40c-7.2,11.6-18.8,20.4-32.8,24s-28.4,2-40.8-5.2s-21.2-18.8-25.2-32.8l-26.4-98l-26.4,98.4  c-3.6,14-12.8,25.6-25.2,33.2C197,510.4,187.4,513.2,178.2,513.2z M118.2,168.4c-25.2,0-46,20.8-46,46s20.4,46,46,46h61.6  c1.2,0,2.4,0.4,3.2,1.6c0.8,0.8,1.2,2.4,0.8,3.6l-49.6,182.8c-3.2,11.6-1.6,24,4.4,34.4s16,17.6,28,20.8c11.6,3.2,24,1.6,34.8-4.8  s18.4-16.4,21.6-28l30.4-113.2c0.4-1.6,2-2.8,4-2.8s3.2,1.2,4,2.8l30,112.4c3.2,12,10.8,21.6,21.6,28c10.8,6,23.2,7.6,34.8,4.4  c12-3.2,22-10.4,28-20.4s7.6-22,4.4-33.6l-49.6-182.8c-0.4-1.2,0-2.4,0.8-3.6c0.8-0.8,2-1.6,3.2-1.6H395c25.2,0,46-20.8,46-46  s-20.8-46-46-46h-74.8c-2.4,0-4-1.6-4-4V72c0-35.2-28.8-64-64-64s-64,28.8-64,64v92.4c0,2.4-1.6,4-4,4H118.2z"/>
<path d="M256.2,116.4c-16.4,0-31.6-8.4-40.8-22.4c-1.2-2-0.8-4.4,1.2-5.6s4.4-0.8,5.6,1.2c7.6,11.6,20,18.4,34,18.4  c13.6,0,26.4-6.8,34-18.4c1.2-2,3.6-2.4,5.6-1.2c2,1.2,2.4,3.6,1.2,5.6C288.2,108,273,116.4,256.2,116.4z"/>
<path d="M234.6,75.6c-7.6,0-13.6-6-13.6-14s6-14,13.6-14s13.6,6,13.6,14S242.2,75.6,234.6,75.6z M234.6,56c-3.2,0-5.6,2.8-5.6,6  s2.8,6,5.6,6s5.6-2.8,5.6-6S237.8,56,234.6,56z"/>
<path d="M278.2,75.6c-7.6,0-14-6-14-14s6-14,14-14s13.6,6,13.6,14S285.8,75.6,278.2,75.6z M278.2,56c-3.2,0-6,2.8-6,6s2.8,6,6,6  s5.6-2.8,5.6-6S281.4,56,278.2,56z"/>
<path d="M256.2,191.6c-6.4,0-12-5.2-12-12c0-6.4,5.2-12,12-12c6.4,0,12,5.2,12,12S263,191.6,256.2,191.6z M256.2,175.6  c-2,0-4,1.6-4,4s1.6,4,4,4s4-1.6,4-4S258.6,175.6,256.2,175.6z"/>
<path d="M256.2,227.6c-6.4,0-12-5.2-12-12s5.2-12,12-12c6.4,0,12,5.2,12,12S263,227.6,256.2,227.6z M256.2,212c-2,0-4,1.6-4,4  s1.6,4,4,4s4-1.6,4-4S258.6,212,256.2,212z"/>
<path d="M256.2,264c-6.4,0-12-5.2-12-12c0-6.4,5.2-12,12-12c6.4,0,12,5.2,12,12S263,264,256.2,264z M256.2,248c-2,0-4,1.6-4,4  s1.6,4,4,4s4-1.6,4-4S258.6,248,256.2,248z"/>
<path d="M128.2,268.4c-2.4,0-4-1.6-4-4v-64c0-2.4,1.6-4,4-4s4,1.6,4,4v64C132.2,266.8,130.6,268.4,128.2,268.4z"/>
<path d="M376.2,268.4c-2.4,0-4-1.6-4-4v-64c0-2.4,1.6-4,4-4s4,1.6,4,4v64C380.2,266.8,378.6,268.4,376.2,268.4z"/>
<path d="M128.2,184.4c-2.4,0-4-1.6-4-4v-16c0-2.4,1.6-4,4-4s4,1.6,4,4v16C132.2,182.8,130.6,184.4,128.2,184.4z"/>
<path d="M376.2,184.4c-2.4,0-4-1.6-4-4v-16c0-2.4,1.6-4,4-4s4,1.6,4,4v16C380.2,182.8,378.6,184.4,376.2,184.4z"/>
<path d="M153.4,439.6c-0.4,0-0.8,0-1.2,0l-17.6-4.8c-2-0.4-3.2-2.8-2.8-4.8s2.8-3.2,4.8-2.8l17.6,4.8c2,0.4,3.2,2.8,2.8,4.8  C157,438.4,155.4,439.6,153.4,439.6z"/>
<path d="M230.6,460c-0.4,0-0.8,0-1.2,0l-55.2-14.8c-2-0.4-3.6-2.8-2.8-4.8c0.4-2,2.8-3.6,4.8-2.8l55.2,14.8c2,0.4,3.6,2.8,2.8,4.8  C233.8,458.8,232.2,460,230.6,460z"/>
<path d="M322.2,449.6c-1.6,0-3.2-1.2-4-2.8c-0.4-2,0.8-4.4,2.8-4.8l55.6-14.8c2-0.4,4.4,0.8,4.8,2.8c0.4,2-0.8,4.4-2.8,4.8  L323,449.6C323,449.6,322.6,449.6,322.2,449.6z"/>
<path d="M283.4,460c-1.6,0-3.2-1.2-4-2.8c-0.4-2,0.8-4.4,2.8-4.8l17.2-4.8c2-0.4,4.4,0.8,4.8,2.8s-0.8,4.4-2.8,4.8l-17.2,4.8  C283.8,460,283.8,460,283.4,460z"/>
</svg>
  <rect x="320" y="100" width="200" height="160.0" stroke="black" fill="none"/>
  <g>
    <svg xmlns:xlink="http://www.w3.org/1999/xlink" t="1737635882929" class="icon" viewBox="0 0 1024 1024" version="1.1" p-id="1739" width="40" height="40" x="363.5" y="55">
      <path d="M804.266667 228.693333H219.093333s-102.4 91.733333-102.4 386.986667c0 150.613333 40.96 248.32 81.066667 307.84 33.493333 49.92 90.026667 79.146667 150.186667 79.146667H674.986667c60.16 0 116.693333-29.44 150.186666-79.146667 40.106667-59.52 81.066667-157.226667 81.066667-307.84 0.213333-295.253333-101.973333-386.986667-101.973333-386.986667z" fill="#FF740E" p-id="1740"/>
      <path d="M804.266667 228.693333h-153.6s102.4 91.733333 102.4 386.986667c0 150.613333-40.96 248.32-81.066667 307.84-33.493333 49.92-90.026667 79.146667-150.186667 79.146667H675.2c60.16 0 116.693333-29.44 150.186667-79.146667 40.106667-59.52 81.066667-157.226667 81.066666-307.84 0-295.253333-102.186667-386.986667-102.186666-386.986667z" fill="#FF8C3E" p-id="1741"/>
      <path d="M720.213333 363.733333c40.746667 0 48.853333 57.813333 153.6 57.813334 5.76 0 10.453333-0.426667 14.506667-1.28-6.186667-29.44-13.226667-55.04-20.906667-77.013334-29.013333-29.226667-63.146667-55.68-63.146666-55.68H219.093333s-33.706667 22.186667-60.8 48c-7.253333 19.626667-14.08 42.666667-20.053333 68.906667 0.64 0.426667 1.28 0.853333 2.133333 1.066667 59.093333 27.52 93.226667-37.973333 157.44-34.133334 64.213333 3.84 59.093333 47.146667 93.226667 49.92 34.133333 2.56 43.306667-55.04 107.52-55.04 64.213333 0 70.826667 55.253333 117.973333 55.253334 47.146667 0 62.933333-57.813333 103.68-57.813334z" fill="#1B1C20" opacity=".1" p-id="1742"/>
      <path d="M825.386667 152.533333H197.973333c-0.64 0-1.066667-0.426667-1.066666-1.066666V31.573333c0-5.546667 4.48-10.24 10.24-10.24h609.493333c5.546667 0 10.24 4.48 10.24 10.24V151.466667c-0.426667 0.64-0.853333 1.066667-1.493333 1.066666z" fill="#FED8B2" p-id="1743"/>
      <path d="M271.573333 21.333333c-41.386667 0-74.88 33.493333-74.88 74.88v47.786667c0 4.693333 3.84 8.533333 8.533334 8.533333h474.24V21.333333H271.573333z" fill="#F2C59E" p-id="1744"/>
      <path d="M219.093333 152.533333H804.266667v76.16H219.093333z" fill="#CCE8E3" p-id="1745"/>
      <path d="M219.093333 152.533333h460.586667v76.16H219.093333z" fill="#B6D3CD" p-id="1746"/>
      <path d="M873.813333 362.453333c-104.746667 0-112.853333-57.813333-153.6-57.813333-6.826667 0-13.013333 1.493333-18.773333 4.48-24.96 11.946667-41.813333 44.8-72.533333 52.053333-0.853333 0.213333-1.493333 0.213333-2.346667 0.426667-1.493333 0.213333-3.2 0.426667-4.48 0.64-1.92 0.213333-3.84 0.213333-5.546667 0.213333-47.146667 0-53.76-55.04-117.973333-55.04-64.213333 0-73.386667 57.6-107.52 55.04-34.133333-2.773333-28.8-45.866667-93.226667-49.92-64.213333-3.84-98.346667 61.653333-157.44 34.133334-59.093333-27.52 78.72-117.973333 78.72-117.973334H804.266667s174.293333 133.76 69.546666 133.76z" fill="#FED8B2" p-id="1747"/>
      <path d="M701.44 309.12c-24.96 11.946667-41.813333 44.8-72.533333 52.053333-0.853333 0.213333-1.493333 0.213333-2.346667 0.426667-1.493333 0.213333-3.2 0.426667-4.48 0.64-1.92 0.213333-3.84 0.213333-5.546667 0.213333-47.146667 0-53.76-55.04-117.973333-55.04-64.213333 0-73.386667 57.6-107.52 55.04-34.133333-2.773333-28.8-45.866667-93.226667-49.92-64.213333-3.84-98.346667 61.653333-157.44 34.133334-59.093333-27.52 78.72-117.973333 78.72-117.973334h460.586667l21.76 80.426667z" fill="#F2C59E" p-id="1748"/>
      <path d="M776.533333 216.746667h-17.066666c-0.64 0-1.28-0.64-1.28-1.28V167.04c0-0.64 0.64-1.28 1.28-1.28h17.066666c0.64 0 1.28 0.64 1.28 1.28V215.466667c0.213333 0.853333-0.426667 1.28-1.28 1.28zM747.093333 210.56h-17.066666c-0.64 0-1.28-0.64-1.28-1.28v-36.266667c0-0.64 0.64-1.28 1.28-1.28h17.066666c0.64 0 1.28 0.64 1.28 1.28v36.266667c0 0.853333-0.64 1.28-1.28 1.28zM717.653333 206.293333h-17.066666c-0.64 0-1.28-0.64-1.28-1.28V177.493333c0-0.64 0.64-1.28 1.28-1.28h17.066666c0.64 0 1.28 0.64 1.28 1.28V204.8c0 0.853333-0.64 1.493333-1.28 1.493333zM750.506667 897.493333c-9.386667-5.546667-12.373333-17.706667-6.826667-26.88l0.64-0.426666c19.84-16 33.493333-38.4 39.04-63.146667l1.28-5.76c5.546667-9.386667 17.706667-12.373333 26.88-6.826667 9.386667 5.546667 5.546667 33.28 5.546667 33.28-5.76 24.96-20.053333 47.36-39.893334 63.36 0-0.426667-17.28 11.946667-26.666666 6.4z" fill="#FFFFFF" p-id="1749"/>
    </svg>
    <text x="413.5" y="75.0" style="font-size: 15px;" dominant_baseline="middle" text_anchor="middle">glass jar</text>
  </g>
  <svg xmlns:xlink="http://www.w3.org/1999/xlink" height="30" width="30" version="1.1" id="Layer_1" viewBox="0 0 513.2 513.2" xml:space="preserve" x="340.0" y="120.0">
<g>
	<circle style="fill:#E65100;" cx="256.2" cy="252" r="8"/>
	<circle style="fill:#E65100;" cx="256.2" cy="179.6" r="8"/>
</g>
<path style="fill:#FFB74D;" d="M248.2,179.6c0,4.4,3.6,8,8,8s8-3.6,8-8s-3.6-8-8-8S248.2,175.2,248.2,179.6z M256.2,260  c4.4,0,8-3.6,8-8s-3.6-8-8-8s-8,3.6-8,8S251.8,260,256.2,260z M234.6,71.6c5.2,0,9.6-4.4,9.6-10s-4.4-10-9.6-10c-5.6,0-10,4.4-10,10  S229,71.6,234.6,71.6z M130.6,164.4h53.6V72c0-37.6,30.4-68,68-68s68,30.4,68,68v92.4h58.4h16c27.6,0,50,22.4,50,50s-22.4,50-50,50  h-16h-44.8l49.6,182.8c7.2,26.8-8.8,52.4-35.2,59.6c-26.8,7.2-54-8.8-61.2-35.6l-30-112.8l-30.4,112.8  c-7.2,26.8-34.4,42.8-61.2,35.6c-26.8-7.2-42.4-32.8-35.2-59.2l49.6-182.8h-49.2h-12.4c-27.6,0-50-22.4-50-50s22.4-50,50-50h12.4  V164.4z M256.2,223.6c4.4,0,8-3.6,8-8s-3.6-8-8-8s-8,3.6-8,8C248.2,220.4,251.8,223.6,256.2,223.6z M268.2,62c0,5.6,4.4,10,9.6,10  c5.6,0,9.6-4.4,9.6-10s-4.4-10-9.6-10S268.2,56.4,268.2,62z"/>
<g>
	<path style="fill:#E65100;" d="M287.8,62c0,5.6-4.4,10-9.6,10c-5.6,0-9.6-4.4-9.6-10s4.4-10,9.6-10S287.8,56.4,287.8,62z"/>
	<circle style="fill:#E65100;" cx="256.2" cy="216" r="8"/>
	<path style="fill:#E65100;" d="M244.2,62c0,5.6-4.4,10-9.6,10c-5.6,0-9.6-4.4-9.6-10s4.4-10,9.6-10S244.2,56.4,244.2,62z"/>
</g>
<path d="M178.2,513.2c-4.4,0-9.2-0.8-13.6-2c-14-3.6-25.6-12.4-32.8-24.4s-9.2-26.4-5.2-40.4l48.4-178h-56.4c-29.6,0-54-24.4-54-54  s24-54,54-54h62V72c0-39.6,32.4-72,72-72s72,32.4,72,72v88.4h70c29.6,0,54,24.4,54,54s-24,54-54,54h-55.2l48.4,178  c3.6,14,1.6,28-5.6,40c-7.2,11.6-18.8,20.4-32.8,24s-28.4,2-40.8-5.2s-21.2-18.8-25.2-32.8l-26.4-98l-26.4,98.4  c-3.6,14-12.8,25.6-25.2,33.2C197,510.4,187.4,513.2,178.2,513.2z M118.2,168.4c-25.2,0-46,20.8-46,46s20.4,46,46,46h61.6  c1.2,0,2.4,0.4,3.2,1.6c0.8,0.8,1.2,2.4,0.8,3.6l-49.6,182.8c-3.2,11.6-1.6,24,4.4,34.4s16,17.6,28,20.8c11.6,3.2,24,1.6,34.8-4.8  s18.4-16.4,21.6-28l30.4-113.2c0.4-1.6,2-2.8,4-2.8s3.2,1.2,4,2.8l30,112.4c3.2,12,10.8,21.6,21.6,28c10.8,6,23.2,7.6,34.8,4.4  c12-3.2,22-10.4,28-20.4s7.6-22,4.4-33.6l-49.6-182.8c-0.4-1.2,0-2.4,0.8-3.6c0.8-0.8,2-1.6,3.2-1.6H395c25.2,0,46-20.8,46-46  s-20.8-46-46-46h-74.8c-2.4,0-4-1.6-4-4V72c0-35.2-28.8-64-64-64s-64,28.8-64,64v92.4c0,2.4-1.6,4-4,4H118.2z"/>
<path d="M256.2,116.4c-16.4,0-31.6-8.4-40.8-22.4c-1.2-2-0.8-4.4,1.2-5.6s4.4-0.8,5.6,1.2c7.6,11.6,20,18.4,34,18.4  c13.6,0,26.4-6.8,34-18.4c1.2-2,3.6-2.4,5.6-1.2c2,1.2,2.4,3.6,1.2,5.6C288.2,108,273,116.4,256.2,116.4z"/>
<path d="M234.6,75.6c-7.6,0-13.6-6-13.6-14s6-14,13.6-14s13.6,6,13.6,14S242.2,75.6,234.6,75.6z M234.6,56c-3.2,0-5.6,2.8-5.6,6  s2.8,6,5.6,6s5.6-2.8,5.6-6S237.8,56,234.6,56z"/>
<path d="M278.2,75.6c-7.6,0-14-6-14-14s6-14,14-14s13.6,6,13.6,14S285.8,75.6,278.2,75.6z M278.2,56c-3.2,0-6,2.8-6,6s2.8,6,6,6  s5.6-2.8,5.6-6S281.4,56,278.2,56z"/>
<path d="M256.2,191.6c-6.4,0-12-5.2-12-12c0-6.4,5.2-12,12-12c6.4,0,12,5.2,12,12S263,191.6,256.2,191.6z M256.2,175.6  c-2,0-4,1.6-4,4s1.6,4,4,4s4-1.6,4-4S258.6,175.6,256.2,175.6z"/>
<path d="M256.2,227.6c-6.4,0-12-5.2-12-12s5.2-12,12-12c6.4,0,12,5.2,12,12S263,227.6,256.2,227.6z M256.2,212c-2,0-4,1.6-4,4  s1.6,4,4,4s4-1.6,4-4S258.6,212,256.2,212z"/>
<path d="M256.2,264c-6.4,0-12-5.2-12-12c0-6.4,5.2-12,12-12c6.4,0,12,5.2,12,12S263,264,256.2,264z M256.2,248c-2,0-4,1.6-4,4  s1.6,4,4,4s4-1.6,4-4S258.6,248,256.2,248z"/>
<path d="M128.2,268.4c-2.4,0-4-1.6-4-4v-64c0-2.4,1.6-4,4-4s4,1.6,4,4v64C132.2,266.8,130.6,268.4,128.2,268.4z"/>
<path d="M376.2,268.4c-2.4,0-4-1.6-4-4v-64c0-2.4,1.6-4,4-4s4,1.6,4,4v64C380.2,266.8,378.6,268.4,376.2,268.4z"/>
<path d="M128.2,184.4c-2.4,0-4-1.6-4-4v-16c0-2.4,1.6-4,4-4s4,1.6,4,4v16C132.2,182.8,130.6,184.4,128.2,184.4z"/>
<path d="M376.2,184.4c-2.4,0-4-1.6-4-4v-16c0-2.4,1.6-4,4-4s4,1.6,4,4v16C380.2,182.8,378.6,184.4,376.2,184.4z"/>
<path d="M153.4,439.6c-0.4,0-0.8,0-1.2,0l-17.6-4.8c-2-0.4-3.2-2.8-2.8-4.8s2.8-3.2,4.8-2.8l17.6,4.8c2,0.4,3.2,2.8,2.8,4.8  C157,438.4,155.4,439.6,153.4,439.6z"/>
<path d="M230.6,460c-0.4,0-0.8,0-1.2,0l-55.2-14.8c-2-0.4-3.6-2.8-2.8-4.8c0.4-2,2.8-3.6,4.8-2.8l55.2,14.8c2,0.4,3.6,2.8,2.8,4.8  C233.8,458.8,232.2,460,230.6,460z"/>
<path d="M322.2,449.6c-1.6,0-3.2-1.2-4-2.8c-0.4-2,0.8-4.4,2.8-4.8l55.6-14.8c2-0.4,4.4,0.8,4.8,2.8c0.4,2-0.8,4.4-2.8,4.8  L323,449.6C323,449.6,322.6,449.6,322.2,449.6z"/>
<path d="M283.4,460c-1.6,0-3.2-1.2-4-2.8c-0.4-2,0.8-4.4,2.8-4.8l17.2-4.8c2-0.4,4.4,0.8,4.8,2.8s-0.8,4.4-2.8,4.8l-17.2,4.8  C283.8,460,283.8,460,283.4,460z"/>
</svg>
  <svg xmlns:xlink="http://www.w3.org/1999/xlink" height="30" width="30" version="1.1" id="Layer_1" viewBox="0 0 513.2 513.2" xml:space="preserve" x="380.0" y="120.0">
<g>
	<circle style="fill:#E65100;" cx="256.2" cy="252" r="8"/>
	<circle style="fill:#E65100;" cx="256.2" cy="179.6" r="8"/>
</g>
<path style="fill:#FFB74D;" d="M248.2,179.6c0,4.4,3.6,8,8,8s8-3.6,8-8s-3.6-8-8-8S248.2,175.2,248.2,179.6z M256.2,260  c4.4,0,8-3.6,8-8s-3.6-8-8-8s-8,3.6-8,8S251.8,260,256.2,260z M234.6,71.6c5.2,0,9.6-4.4,9.6-10s-4.4-10-9.6-10c-5.6,0-10,4.4-10,10  S229,71.6,234.6,71.6z M130.6,164.4h53.6V72c0-37.6,30.4-68,68-68s68,30.4,68,68v92.4h58.4h16c27.6,0,50,22.4,50,50s-22.4,50-50,50  h-16h-44.8l49.6,182.8c7.2,26.8-8.8,52.4-35.2,59.6c-26.8,7.2-54-8.8-61.2-35.6l-30-112.8l-30.4,112.8  c-7.2,26.8-34.4,42.8-61.2,35.6c-26.8-7.2-42.4-32.8-35.2-59.2l49.6-182.8h-49.2h-12.4c-27.6,0-50-22.4-50-50s22.4-50,50-50h12.4  V164.4z M256.2,223.6c4.4,0,8-3.6,8-8s-3.6-8-8-8s-8,3.6-8,8C248.2,220.4,251.8,223.6,256.2,223.6z M268.2,62c0,5.6,4.4,10,9.6,10  c5.6,0,9.6-4.4,9.6-10s-4.4-10-9.6-10S268.2,56.4,268.2,62z"/>
<g>
	<path style="fill:#E65100;" d="M287.8,62c0,5.6-4.4,10-9.6,10c-5.6,0-9.6-4.4-9.6-10s4.4-10,9.6-10S287.8,56.4,287.8,62z"/>
	<circle style="fill:#E65100;" cx="256.2" cy="216" r="8"/>
	<path style="fill:#E65100;" d="M244.2,62c0,5.6-4.4,10-9.6,10c-5.6,0-9.6-4.4-9.6-10s4.4-10,9.6-10S244.2,56.4,244.2,62z"/>
</g>
<path d="M178.2,513.2c-4.4,0-9.2-0.8-13.6-2c-14-3.6-25.6-12.4-32.8-24.4s-9.2-26.4-5.2-40.4l48.4-178h-56.4c-29.6,0-54-24.4-54-54  s24-54,54-54h62V72c0-39.6,32.4-72,72-72s72,32.4,72,72v88.4h70c29.6,0,54,24.4,54,54s-24,54-54,54h-55.2l48.4,178  c3.6,14,1.6,28-5.6,40c-7.2,11.6-18.8,20.4-32.8,24s-28.4,2-40.8-5.2s-21.2-18.8-25.2-32.8l-26.4-98l-26.4,98.4  c-3.6,14-12.8,25.6-25.2,33.2C197,510.4,187.4,513.2,178.2,513.2z M118.2,168.4c-25.2,0-46,20.8-46,46s20.4,46,46,46h61.6  c1.2,0,2.4,0.4,3.2,1.6c0.8,0.8,1.2,2.4,0.8,3.6l-49.6,182.8c-3.2,11.6-1.6,24,4.4,34.4s16,17.6,28,20.8c11.6,3.2,24,1.6,34.8-4.8  s18.4-16.4,21.6-28l30.4-113.2c0.4-1.6,2-2.8,4-2.8s3.2,1.2,4,2.8l30,112.4c3.2,12,10.8,21.6,21.6,28c10.8,6,23.2,7.6,34.8,4.4  c12-3.2,22-10.4,28-20.4s7.6-22,4.4-33.6l-49.6-182.8c-0.4-1.2,0-2.4,0.8-3.6c0.8-0.8,2-1.6,3.2-1.6H395c25.2,0,46-20.8,46-46  s-20.8-46-46-46h-74.8c-2.4,0-4-1.6-4-4V72c0-35.2-28.8-64-64-64s-64,28.8-64,64v92.4c0,2.4-1.6,4-4,4H118.2z"/>
<path d="M256.2,116.4c-16.4,0-31.6-8.4-40.8-22.4c-1.2-2-0.8-4.4,1.2-5.6s4.4-0.8,5.6,1.2c7.6,11.6,20,18.4,34,18.4  c13.6,0,26.4-6.8,34-18.4c1.2-2,3.6-2.4,5.6-1.2c2,1.2,2.4,3.6,1.2,5.6C288.2,108,273,116.4,256.2,116.4z"/>
<path d="M234.6,75.6c-7.6,0-13.6-6-13.6-14s6-14,13.6-14s13.6,6,13.6,14S242.2,75.6,234.6,75.6z M234.6,56c-3.2,0-5.6,2.8-5.6,6  s2.8,6,5.6,6s5.6-2.8,5.6-6S237.8,56,234.6,56z"/>
<path d="M278.2,75.6c-7.6,0-14-6-14-14s6-14,14-14s13.6,6,13.6,14S285.8,75.6,278.2,75.6z M278.2,56c-3.2,0-6,2.8-6,6s2.8,6,6,6  s5.6-2.8,5.6-6S281.4,56,278.2,56z"/>
<path d="M256.2,191.6c-6.4,0-12-5.2-12-12c0-6.4,5.2-12,12-12c6.4,0,12,5.2,12,12S263,191.6,256.2,191.6z M256.2,175.6  c-2,0-4,1.6-4,4s1.6,4,4,4s4-1.6,4-4S258.6,175.6,256.2,175.6z"/>
<path d="M256.2,227.6c-6.4,0-12-5.2-12-12s5.2-12,12-12c6.4,0,12,5.2,12,12S263,227.6,256.2,227.6z M256.2,212c-2,0-4,1.6-4,4  s1.6,4,4,4s4-1.6,4-4S258.6,212,256.2,212z"/>
<path d="M256.2,264c-6.4,0-12-5.2-12-12c0-6.4,5.2-12,12-12c6.4,0,12,5.2,12,12S263,264,256.2,264z M256.2,248c-2,0-4,1.6-4,4  s1.6,4,4,4s4-1.6,4-4S258.6,248,256.2,248z"/>
<path d="M128.2,268.4c-2.4,0-4-1.6-4-4v-64c0-2.4,1.6-4,4-4s4,1.6,4,4v64C132.2,266.8,130.6,268.4,128.2,268.4z"/>
<path d="M376.2,268.4c-2.4,0-4-1.6-4-4v-64c0-2.4,1.6-4,4-4s4,1.6,4,4v64C380.2,266.8,378.6,268.4,376.2,268.4z"/>
<path d="M128.2,184.4c-2.4,0-4-1.6-4-4v-16c0-2.4,1.6-4,4-4s4,1.6,4,4v16C132.2,182.8,130.6,184.4,128.2,184.4z"/>
<path d="M376.2,184.4c-2.4,0-4-1.6-4-4v-16c0-2.4,1.6-4,4-4s4,1.6,4,4v16C380.2,182.8,378.6,184.4,376.2,184.4z"/>
<path d="M153.4,439.6c-0.4,0-0.8,0-1.2,0l-17.6-4.8c-2-0.4-3.2-2.8-2.8-4.8s2.8-3.2,4.8-2.8l17.6,4.8c2,0.4,3.2,2.8,2.8,4.8  C157,438.4,155.4,439.6,153.4,439.6z"/>
<path d="M230.6,460c-0.4,0-0.8,0-1.2,0l-55.2-14.8c-2-0.4-3.6-2.8-2.8-4.8c0.4-2,2.8-3.6,4.8-2.8l55.2,14.8c2,0.4,3.6,2.8,2.8,4.8  C233.8,458.8,232.2,460,230.6,460z"/>
<path d="M322.2,449.6c-1.6,0-3.2-1.2-4-2.8c-0.4-2,0.8-4.4,2.8-4.8l55.6-14.8c2-0.4,4.4,0.8,4.8,2.8c0.4,2-0.8,4.4-2.8,4.8  L323,449.6C323,449.6,322.6,449.6,322.2,449.6z"/>
<path d="M283.4,460c-1.6,0-3.2-1.2-4-2.8c-0.4-2,0.8-4.4,2.8-4.8l17.2-4.8c2-0.4,4.4,0.8,4.8,2.8s-0.8,4.4-2.8,4.8l-17.2,4.8  C283.8,460,283.8,460,283.4,460z"/>
</svg>
  <svg xmlns:xlink="http://www.w3.org/1999/xlink" height="30" width="30" version="1.1" id="Layer_1" viewBox="0 0 513.2 513.2" xml:space="preserve" x="420.0" y="120.0">
<g>
	<circle style="fill:#E65100;" cx="256.2" cy="252" r="8"/>
	<circle style="fill:#E65100;" cx="256.2" cy="179.6" r="8"/>
</g>
<path style="fill:#FFB74D;" d="M248.2,179.6c0,4.4,3.6,8,8,8s8-3.6,8-8s-3.6-8-8-8S248.2,175.2,248.2,179.6z M256.2,260  c4.4,0,8-3.6,8-8s-3.6-8-8-8s-8,3.6-8,8S251.8,260,256.2,260z M234.6,71.6c5.2,0,9.6-4.4,9.6-10s-4.4-10-9.6-10c-5.6,0-10,4.4-10,10  S229,71.6,234.6,71.6z M130.6,164.4h53.6V72c0-37.6,30.4-68,68-68s68,30.4,68,68v92.4h58.4h16c27.6,0,50,22.4,50,50s-22.4,50-50,50  h-16h-44.8l49.6,182.8c7.2,26.8-8.8,52.4-35.2,59.6c-26.8,7.2-54-8.8-61.2-35.6l-30-112.8l-30.4,112.8  c-7.2,26.8-34.4,42.8-61.2,35.6c-26.8-7.2-42.4-32.8-35.2-59.2l49.6-182.8h-49.2h-12.4c-27.6,0-50-22.4-50-50s22.4-50,50-50h12.4  V164.4z M256.2,223.6c4.4,0,8-3.6,8-8s-3.6-8-8-8s-8,3.6-8,8C248.2,220.4,251.8,223.6,256.2,223.6z M268.2,62c0,5.6,4.4,10,9.6,10  c5.6,0,9.6-4.4,9.6-10s-4.4-10-9.6-10S268.2,56.4,268.2,62z"/>
<g>
	<path style="fill:#E65100;" d="M287.8,62c0,5.6-4.4,10-9.6,10c-5.6,0-9.6-4.4-9.6-10s4.4-10,9.6-10S287.8,56.4,287.8,62z"/>
	<circle style="fill:#E65100;" cx="256.2" cy="216" r="8"/>
	<path style="fill:#E65100;" d="M244.2,62c0,5.6-4.4,10-9.6,10c-5.6,0-9.6-4.4-9.6-10s4.4-10,9.6-10S244.2,56.4,244.2,62z"/>
</g>
<path d="M178.2,513.2c-4.4,0-9.2-0.8-13.6-2c-14-3.6-25.6-12.4-32.8-24.4s-9.2-26.4-5.2-40.4l48.4-178h-56.4c-29.6,0-54-24.4-54-54  s24-54,54-54h62V72c0-39.6,32.4-72,72-72s72,32.4,72,72v88.4h70c29.6,0,54,24.4,54,54s-24,54-54,54h-55.2l48.4,178  c3.6,14,1.6,28-5.6,40c-7.2,11.6-18.8,20.4-32.8,24s-28.4,2-40.8-5.2s-21.2-18.8-25.2-32.8l-26.4-98l-26.4,98.4  c-3.6,14-12.8,25.6-25.2,33.2C197,510.4,187.4,513.2,178.2,513.2z M118.2,168.4c-25.2,0-46,20.8-46,46s20.4,46,46,46h61.6  c1.2,0,2.4,0.4,3.2,1.6c0.8,0.8,1.2,2.4,0.8,3.6l-49.6,182.8c-3.2,11.6-1.6,24,4.4,34.4s16,17.6,28,20.8c11.6,3.2,24,1.6,34.8-4.8  s18.4-16.4,21.6-28l30.4-113.2c0.4-1.6,2-2.8,4-2.8s3.2,1.2,4,2.8l30,112.4c3.2,12,10.8,21.6,21.6,28c10.8,6,23.2,7.6,34.8,4.4  c12-3.2,22-10.4,28-20.4s7.6-22,4.4-33.6l-49.6-182.8c-0.4-1.2,0-2.4,0.8-3.6c0.8-0.8,2-1.6,3.2-1.6H395c25.2,0,46-20.8,46-46  s-20.8-46-46-46h-74.8c-2.4,0-4-1.6-4-4V72c0-35.2-28.8-64-64-64s-64,28.8-64,64v92.4c0,2.4-1.6,4-4,4H118.2z"/>
<path d="M256.2,116.4c-16.4,0-31.6-8.4-40.8-22.4c-1.2-2-0.8-4.4,1.2-5.6s4.4-0.8,5.6,1.2c7.6,11.6,20,18.4,34,18.4  c13.6,0,26.4-6.8,34-18.4c1.2-2,3.6-2.4,5.6-1.2c2,1.2,2.4,3.6,1.2,5.6C288.2,108,273,116.4,256.2,116.4z"/>
<path d="M234.6,75.6c-7.6,0-13.6-6-13.6-14s6-14,13.6-14s13.6,6,13.6,14S242.2,75.6,234.6,75.6z M234.6,56c-3.2,0-5.6,2.8-5.6,6  s2.8,6,5.6,6s5.6-2.8,5.6-6S237.8,56,234.6,56z"/>
<path d="M278.2,75.6c-7.6,0-14-6-14-14s6-14,14-14s13.6,6,13.6,14S285.8,75.6,278.2,75.6z M278.2,56c-3.2,0-6,2.8-6,6s2.8,6,6,6  s5.6-2.8,5.6-6S281.4,56,278.2,56z"/>
<path d="M256.2,191.6c-6.4,0-12-5.2-12-12c0-6.4,5.2-12,12-12c6.4,0,12,5.2,12,12S263,191.6,256.2,191.6z M256.2,175.6  c-2,0-4,1.6-4,4s1.6,4,4,4s4-1.6,4-4S258.6,175.6,256.2,175.6z"/>
<path d="M256.2,227.6c-6.4,0-12-5.2-12-12s5.2-12,12-12c6.4,0,12,5.2,12,12S263,227.6,256.2,227.6z M256.2,212c-2,0-4,1.6-4,4  s1.6,4,4,4s4-1.6,4-4S258.6,212,256.2,212z"/>
<path d="M256.2,264c-6.4,0-12-5.2-12-12c0-6.4,5.2-12,12-12c6.4,0,12,5.2,12,12S263,264,256.2,264z M256.2,248c-2,0-4,1.6-4,4  s1.6,4,4,4s4-1.6,4-4S258.6,248,256.2,248z"/>
<path d="M128.2,268.4c-2.4,0-4-1.6-4-4v-64c0-2.4,1.6-4,4-4s4,1.6,4,4v64C132.2,266.8,130.6,268.4,128.2,268.4z"/>
<path d="M376.2,268.4c-2.4,0-4-1.6-4-4v-64c0-2.4,1.6-4,4-4s4,1.6,4,4v64C380.2,266.8,378.6,268.4,376.2,268.4z"/>
<path d="M128.2,184.4c-2.4,0-4-1.6-4-4v-16c0-2.4,1.6-4,4-4s4,1.6,4,4v16C132.2,182.8,130.6,184.4,128.2,184.4z"/>
<path d="M376.2,184.4c-2.4,0-4-1.6-4-4v-16c0-2.4,1.6-4,4-4s4,1.6,4,4v16C380.2,182.8,378.6,184.4,376.2,184.4z"/>
<path d="M153.4,439.6c-0.4,0-0.8,0-1.2,0l-17.6-4.8c-2-0.4-3.2-2.8-2.8-4.8s2.8-3.2,4.8-2.8l17.6,4.8c2,0.4,3.2,2.8,2.8,4.8  C157,438.4,155.4,439.6,153.4,439.6z"/>
<path d="M230.6,460c-0.4,0-0.8,0-1.2,0l-55.2-14.8c-2-0.4-3.6-2.8-2.8-4.8c0.4-2,2.8-3.6,4.8-2.8l55.2,14.8c2,0.4,3.6,2.8,2.8,4.8  C233.8,458.8,232.2,460,230.6,460z"/>
<path d="M322.2,449.6c-1.6,0-3.2-1.2-4-2.8c-0.4-2,0.8-4.4,2.8-4.8l55.6-14.8c2-0.4,4.4,0.8,4.8,2.8c0.4,2-0.8,4.4-2.8,4.8  L323,449.6C323,449.6,322.6,449.6,322.2,449.6z"/>
<path d="M283.4,460c-1.6,0-3.2-1.2-4-2.8c-0.4-2,0.8-4.4,2.8-4.8l17.2-4.8c2-0.4,4.4,0.8,4.8,2.8s-0.8,4.4-2.8,4.8l-17.2,4.8  C283.8,460,283.8,460,283.4,460z"/>
</svg>
  <svg fill="#2388ff" width="30" height="30" viewBox="-3 0 19 19" class="cf-icon-svg" x="270" y="165.0">

<g id="SVGRepo_bgCarrier" stroke-width="0"/>

<g id="SVGRepo_tracerCarrier" stroke-linecap="round" stroke-linejoin="round"/>

<g id="SVGRepo_iconCarrier">

<path d="M12.711 9.182a1.03 1.03 0 0 1-1.03 1.03H1.319a1.03 1.03 0 1 1 0-2.059h10.364a1.03 1.03 0 0 1 1.029 1.03zM5.03 4.586a1.47 1.47 0 1 1 1.47 1.47 1.47 1.47 0 0 1-1.47-1.47zm2.94 9.193a1.47 1.47 0 1 1-1.47-1.47 1.47 1.47 0 0 1 1.47 1.47z"/>

</g>

</svg>
  <svg fill="#2388ff" width="30" height="30" viewBox="0 0 256 256" id="Flat" x="560" y="165.0">

<g id="SVGRepo_bgCarrier" stroke-width="0"/>

<g id="SVGRepo_tracerCarrier" stroke-linecap="round" stroke-linejoin="round"/>

<g id="SVGRepo_iconCarrier"> <path d="M224,160a8.00008,8.00008,0,0,1-8,8H40a8,8,0,0,1,0-16H216A8.00008,8.00008,0,0,1,224,160ZM40,104H216a8,8,0,0,0,0-16H40a8,8,0,0,0,0,16Z"/> </g>

</svg>
  <svg xmlns:xlink="http://www.w3.org/1999/xlink" xmlns:serif="http://www.serif.com/" fill="#2388ff" width="60" height="60" viewBox="0 0 64 64" version="1.1" xml:space="preserve" style="fill-rule:evenodd;clip-rule:evenodd;stroke-linejoin:round;stroke-miterlimit:2;" stroke="#2388ff" x="610" y="150.0">

<g id="SVGRepo_bgCarrier" stroke-width="0"/>

<g id="SVGRepo_tracerCarrier" stroke-linecap="round" stroke-linejoin="round"/>

<g id="SVGRepo_iconCarrier"> <rect id="Icons" x="-640" y="-192" width="1280" height="800" style="fill:none;"/> <g id="Icons1" serif:id="Icons"> <g id="Strike"> </g> <g id="H1"> </g> <g id="H2"> </g> <g id="H3"> </g> <g id="list-ul"> </g> <g id="hamburger-1"> </g> <g id="hamburger-2"> </g> <g id="list-ol"> </g> <g id="list-task"> </g> <g id="trash"> </g> <g id="vertical-menu"> </g> <g id="horizontal-menu"> </g> <g id="sidebar-2"> </g> <g id="Pen"> </g> <g id="Pen1" serif:id="Pen"> </g> <g id="clock"> </g> <g id="external-link"> </g> <g id="hr"> </g> <g id="info"> </g> <g id="warning"> </g> <g id="plus-circle"> </g> <g id="minus-circle"> </g> <g id="vue"> </g> <g id="cog"> </g> <g id="logo"> </g> <path id="question" d="M27.952,42.387c0.043,-2.56 0.333,-4.583 0.871,-6.068c0.538,-1.485 1.636,-3.131 3.293,-4.939l4.229,-4.358c1.807,-2.044 2.711,-4.239 2.711,-6.585c0,-2.259 -0.592,-4.029 -1.775,-5.31c-1.184,-1.28 -2.905,-1.92 -5.165,-1.92c-2.195,0 -3.96,0.581 -5.294,1.743c-1.334,1.162 -2.001,2.722 -2.001,4.68l-5.972,0c0.043,-3.486 1.286,-6.3 3.728,-8.441c2.443,-2.141 5.622,-3.212 9.539,-3.212c4.067,0 7.236,1.092 9.506,3.277c2.271,2.184 3.406,5.181 3.406,8.99c0,3.765 -1.743,7.478 -5.229,11.136l-3.519,3.486c-1.571,1.743 -2.356,4.25 -2.356,7.521l-5.972,0Zm-0.258,10.233c0,-0.968 0.296,-1.781 0.887,-2.437c0.592,-0.656 1.469,-0.985 2.631,-0.985c1.162,0 2.045,0.329 2.647,0.985c0.603,0.656 0.904,1.469 0.904,2.437c0,0.969 -0.301,1.77 -0.904,2.405c-0.602,0.635 -1.485,0.952 -2.647,0.952c-1.162,0 -2.039,-0.317 -2.631,-0.952c-0.591,-0.635 -0.887,-1.436 -0.887,-2.405Z" style="fill-rule:nonzero;"/> <g id="radio-check"> </g> <g id="eye-slash"> </g> <g id="eye"> </g> <g id="toggle-off"> </g> <g id="shredder"> </g> <g id="spinner--loading--dots-" serif:id="spinner [loading, dots]"> </g> <g id="react"> </g> <g id="check-selected"> </g> <g id="turn-off"> </g> <g id="code-block"> </g> <g id="user"> </g> <g id="coffee-bean"> </g> <g id="coffee-beans"> <g id="coffee-bean1" serif:id="coffee-bean"> </g> </g> <g id="coffee-bean-filled"> </g> <g id="coffee-beans-filled"> <g id="coffee-bean2" serif:id="coffee-bean"> </g> </g> <g id="clipboard"> </g> <g id="clipboard-paste"> </g> <g id="clipboard-copy"> </g> <g id="Layer1"> </g> </g> </g>

</svg>
  <text x="680" y="185.0" style="font-size: 15px;" dominant_baseline="middle">with remainder</text>
  <svg xmlns:xlink="http://www.w3.org/1999/xlink" xmlns:serif="http://www.serif.com/" fill="#2388ff" width="60" height="60" viewBox="0 0 64 64" version="1.1" xml:space="preserve" style="fill-rule:evenodd;clip-rule:evenodd;stroke-linejoin:round;stroke-miterlimit:2;" stroke="#2388ff" x="780" y="150.0">

<g id="SVGRepo_bgCarrier" stroke-width="0"/>

<g id="SVGRepo_tracerCarrier" stroke-linecap="round" stroke-linejoin="round"/>

<g id="SVGRepo_iconCarrier"> <rect id="Icons" x="-640" y="-192" width="1280" height="800" style="fill:none;"/> <g id="Icons1" serif:id="Icons"> <g id="Strike"> </g> <g id="H1"> </g> <g id="H2"> </g> <g id="H3"> </g> <g id="list-ul"> </g> <g id="hamburger-1"> </g> <g id="hamburger-2"> </g> <g id="list-ol"> </g> <g id="list-task"> </g> <g id="trash"> </g> <g id="vertical-menu"> </g> <g id="horizontal-menu"> </g> <g id="sidebar-2"> </g> <g id="Pen"> </g> <g id="Pen1" serif:id="Pen"> </g> <g id="clock"> </g> <g id="external-link"> </g> <g id="hr"> </g> <g id="info"> </g> <g id="warning"> </g> <g id="plus-circle"> </g> <g id="minus-circle"> </g> <g id="vue"> </g> <g id="cog"> </g> <g id="logo"> </g> <path id="question" d="M27.952,42.387c0.043,-2.56 0.333,-4.583 0.871,-6.068c0.538,-1.485 1.636,-3.131 3.293,-4.939l4.229,-4.358c1.807,-2.044 2.711,-4.239 2.711,-6.585c0,-2.259 -0.592,-4.029 -1.775,-5.31c-1.184,-1.28 -2.905,-1.92 -5.165,-1.92c-2.195,0 -3.96,0.581 -5.294,1.743c-1.334,1.162 -2.001,2.722 -2.001,4.68l-5.972,0c0.043,-3.486 1.286,-6.3 3.728,-8.441c2.443,-2.141 5.622,-3.212 9.539,-3.212c4.067,0 7.236,1.092 9.506,3.277c2.271,2.184 3.406,5.181 3.406,8.99c0,3.765 -1.743,7.478 -5.229,11.136l-3.519,3.486c-1.571,1.743 -2.356,4.25 -2.356,7.521l-5.972,0Zm-0.258,10.233c0,-0.968 0.296,-1.781 0.887,-2.437c0.592,-0.656 1.469,-0.985 2.631,-0.985c1.162,0 2.045,0.329 2.647,0.985c0.603,0.656 0.904,1.469 0.904,2.437c0,0.969 -0.301,1.77 -0.904,2.405c-0.602,0.635 -1.485,0.952 -2.647,0.952c-1.162,0 -2.039,-0.317 -2.631,-0.952c-0.591,-0.635 -0.887,-1.436 -0.887,-2.405Z" style="fill-rule:nonzero;"/> <g id="radio-check"> </g> <g id="eye-slash"> </g> <g id="eye"> </g> <g id="toggle-off"> </g> <g id="shredder"> </g> <g id="spinner--loading--dots-" serif:id="spinner [loading, dots]"> </g> <g id="react"> </g> <g id="check-selected"> </g> <g id="turn-off"> </g> <g id="code-block"> </g> <g id="user"> </g> <g id="coffee-bean"> </g> <g id="coffee-beans"> <g id="coffee-bean1" serif:id="coffee-bean"> </g> </g> <g id="coffee-bean-filled"> </g> <g id="coffee-beans-filled"> <g id="coffee-bean2" serif:id="coffee-bean"> </g> </g> <g id="clipboard"> </g> <g id="clipboard-paste"> </g> <g id="clipboard-copy"> </g> <g id="Layer1"> </g> </g> </g>

</svg>
</svg>
