<svg xmlns="http://www.w3.org/2000/svg" width="560" height="270.0">
  <rect x="50" y="100" width="120" height="120.0" stroke="black" fill="none"/>
  <g>
    <svg xmlns:xlink="http://www.w3.org/1999/xlink" width="40" height="40" viewBox="0 0 36 36" aria-hidden="true" role="img" class="iconify iconify--twemoji" preserveAspectRatio="xMidYMid meet" x="78.0" y="55">
      <path fill="#963B22" d="M23.111 2.081c-2.638-.853-8.844-.621-10.395 1.396c-4.034.078-8.766 3.724-9.387 8.534c-.614 4.76.754 6.971 1.241 10.551c.552 4.056 2.832 5.353 4.655 5.896c2.623 3.465 5.411 3.317 10.092 3.317c9.141 0 13.495-6.116 13.88-16.505c.232-6.284-3.454-11.043-10.086-13.189z"/>
      <path fill="#D4AB88" d="M28.339 15.713c-.884-1.225-2.017-2.211-4.499-2.56c.931.427 1.823 1.901 1.939 2.715c.116.815.233 1.474-.504.659c-2.952-3.263-6.167-1.978-9.354-3.972c-2.226-1.392-2.903-2.933-2.903-2.933s-.272 2.056-3.646 4.15c-.978.607-2.145 1.959-2.793 3.956c-.465 1.435-.321 2.715-.321 4.903c0 6.385 5.262 11.753 11.753 11.753s11.753-5.415 11.753-11.753c0-3.97-.416-5.521-1.425-6.918z"/>
      <path fill="#C1694F" d="M18 31c-2.347 0-3.575-1.16-3.707-1.293a.999.999 0 0 1 1.404-1.424c.051.047.806.717 2.303.717c1.519 0 2.273-.69 2.305-.719a1.008 1.008 0 0 1 1.408.029a.994.994 0 0 1-.006 1.397C21.575 29.84 20.347 31 18 31zm1-5h-2a1 1 0 1 1 0-2h2a1 1 0 1 1 0 2z"/>
      <path fill="#662113" d="M13 22a1 1 0 0 1-1-1v-2a1 1 0 0 1 2 0v2a1 1 0 0 1-1 1zm10 0a1 1 0 0 1-1-1v-2a1 1 0 1 1 2 0v2a1 1 0 0 1-1 1z"/>
    </svg>
    <text x="128.0" y="75.0" style="font-size: 15px;" dominant_baseline="middle" text_anchor="middle">&#23567;&#26126;</text>
  </g>
  <svg width="30" height="30" viewBox="0 0 1024 1024" class="icon" version="1.1" x="70.0" y="120.0">
    <path d="M283.9 136.9l10.9 119.9-131.3 55 86.2 50.2 91.5-54.8 89.6-24.4 65.1 13.5 16.1-66.1s-51.8-57.5-116.7-80.3-111.4-13-111.4-13z" fill="#95C751"/>
    <path d="M341.2 307.2C273 335 145.4 459.5 204.8 637.1S376.3 888.6 412 894c35.7 5.4 87.6-31.5 116.4-31.5s53.8 34.7 89.5 32 112.8-32.5 149.7-93 117.1-213.9 92.2-328.1c-24.9-114.2-132.3-170.6-181.1-179.8s-132.3 6.3-156.2 5.6c-23.9-0.7-84.6-15.3-116.1-8.5-31.4 6.7-65.2 16.5-65.2 16.5z" fill="#F75252"/>
    <path d="M861.2 471.3c-24.9-114.2-132.3-170.6-181.1-179.8-48.8-9.2-132.3 6.3-156.2 5.6s-84.6-15.3-116.1-8.5c-31.5 6.7-65.2 16.5-65.2 16.5-68.2 27.7-195.9 152.2-136.4 329.9s171.5 251.4 207.1 256.9c35.7 5.4 87.6-31.5 116.4-31.5s53.8 34.7 89.5 32c35.8-2.7 112.8-32.5 149.7-93 37-60.5 117.2-213.9 92.3-328.1zM703 735c-31.4 51.5-96.8 76.7-127.3 79.1-30.4 2.3-51.7-27.2-76.1-27.2-24.5 0-68.7 31.4-99 26.7-30.3-4.6-125.5-67.3-176.1-218.4-50.6-151.1 57.9-257 115.9-280.6 0 0 28.7-8.3 55.5-14 26.7-5.7 78.4 6.6 98.7 7.3 20.3 0.6 91.3-12.6 132.8-4.8 41.5 7.8 132.8 55.8 154 152.9 21.2 97.1-47.1 227.5-78.4 279z" fill="#EF3A3A"/>
    <path d="M499.7 350.6s14.7-115.5 27.3-140.7 23.1-33.4 23.1-33.4l69.1 4.1 8.9 26s-70.8 85.1-81.3 105.2-13.8 44.5-13.8 44.5l-33.3-5.7z" fill="#F2F5FB"/>
    <path d="M819.9 371.3c-50.2-61.4-127.1-99.5-200.6-99.5-11.9 0-22.9 1.4-33.4 3.5 25.7-35.1 52.4-62.2 52.9-62.6 4.4-4.4 5.3-11.1 2.2-16.5 0 0-15.4-31.3-26.5-31.3l-76.2-0.5c-4.5 0-8.8 2.2-11.3 6-8.4 12.3-15.3 26-21 40.1-85.4-92.9-218.4-94.1-224.3-94.1-7.1 0-13.1 5.5-13.7 12.6-0.3 3.7-4.9 64.5 14.2 121-31.8 6.6-101.3 24.1-133.4 55.2-3 2.9-4.5 6.9-4.1 11 0.4 4.1 2.6 7.8 6 10.2 2.1 1.4 45.2 30.3 87 43.9-0.3 0.3-0.6 0.6-0.8 1-50.9 62.3-70.1 140.8-53.8 221.1 35.1 173.8 149.2 315.1 254.4 315.1 22.2 0 42.5-6.8 60.4-20.2 19.1-14.3 41.9-14.3 61 0 17.9 13.4 38.2 20.2 60.4 20.2 105.2 0 219.3-141.4 254.4-315.1 16.2-80.3-2.9-158.8-53.8-221.1zM545.6 191.8h62.6l3.8 9.1c-14.8 15.7-48.5 53.5-72.8 95.4 0 0.1-0.1 0.1-0.1 0.1-0.2 0.4-0.4 0.8-0.7 1.2-1.5 2.6-2.9 5.1-4.3 7.7-0.7 1.2-1.4 2.5-2 3.7-1.7 3.3-3.3 6.6-4.9 10-0.2 0.4-0.4 0.9-0.6 1.3-3.4 7.4-6.4 14.8-8.8 22.1-3.4-0.4-6.8-1-10.1-1.8 0.5-10.1 1.5-24.1 3.6-40.2v-0.2c4.6-33.6 14.1-75.7 34.3-108.4z m-250.8-47.3c35.8 2.9 136.5 17.6 198.9 93.7 0.6 0.8 1.5 1.2 2.2 1.8-3.8 13.4-6.7 26.8-9 39.5-9.1-3.1-18.9-5.2-29.2-6.4L380 189.7c-5.2-5.6-13.8-5.8-19.4-0.7-5.5 5.2-5.8 13.8-0.7 19.4l60 64.3c-27.3 2.2-54.7 9.4-80.8 21-41.3-40.5-44.7-118.1-44.3-149.2z m-1.7 131.3c3.3 6.4 6.8 12.7 11 18.7l-55.2 3.4c-7.6 0.5-13.3 7-12.8 14.5 0.5 7.3 6.5 12.8 13.7 12.8h0.9l37.9-2.4c-10.4 7.6-20.4 15.9-29.8 24.9-26.6-6-57.8-22.8-76.4-33.8 31-19.4 82.5-32.6 110.7-38.1zM846.9 587c-35.4 175.4-146.3 293.2-227.6 293.2-16.3 0-30.7-4.8-44-14.7-14.5-10.8-30.7-16.2-46.9-16.2s-32.4 5.4-46.9 16.2c-13.2 9.9-27.6 14.7-44 14.7-81.3 0-192.2-117.8-227.6-293.2-14.6-72.1 2.5-142.5 48.2-198.3 45.1-55.2 113.9-89.4 179.4-89.4 17.4 0 32.4 2.5 45.5 7.7 0 0.3-0.1 0.6-0.1 1-0.5 4.4-0.9 8.7-1.3 12.7 0 0.4-0.1 0.7-0.1 1.1-0.2 2.6-0.4 5.2-0.6 7.6-4.7-3.3-8.8-7-12.1-11.2-4.6-6-13.2-7.1-19.2-2.5s-7.1 13.2-2.5 19.2c9.7 12.7 24.4 22.5 41.5 28.8 0.2 0.1 0.3 0.2 0.5 0.3 0.2 0.1 0.5 0.1 0.8 0.2 5.7 2 11.6 3.6 17.7 4.7 0.4 0.1 0.7 0.1 1.1 0.2 6.1 1.1 12.4 1.7 18.8 1.9h0.4c0.8 0 1.6 0.1 2.4 0.1 33.4 0 63.9-12.7 81.5-34 4.8-5.8 4-14.5-1.8-19.3-5.8-4.8-14.5-4-19.3 1.8-9.4 11.4-25.3 19.4-43.4 22.6 0.6-1.6 1.2-3.2 1.9-4.9 1.1-2.7 2.4-5.4 3.7-8.1 0.6-1.3 1.2-2.7 1.9-4 1.5-3 3.2-6.2 5-9.3 0.5-0.8 0.9-1.6 1.4-2.5 15.7-9.4 34.7-13.9 58.1-13.9 65.5 0 134.2 34.3 179.4 89.4 45.6 55.6 62.7 126 48.2 198.1z" fill="#004364"/>
    <path d="M700.2 388.3m-15.8 0a15.8 15.8 0 1 0 31.6 0 15.8 15.8 0 1 0-31.6 0Z" fill="#004364"/>
    <path d="M757.3 431.7m-15.8 0a15.8 15.8 0 1 0 31.6 0 15.8 15.8 0 1 0-31.6 0Z" fill="#004364"/>
    <path d="M688.2 457.6m-15.8 0a15.8 15.8 0 1 0 31.6 0 15.8 15.8 0 1 0-31.6 0Z" fill="#004364"/>
    <path d="M427.8 824.4m-15.8 0a15.8 15.8 0 1 0 31.6 0 15.8 15.8 0 1 0-31.6 0Z" fill="#004364"/>
    <path d="M357 787.8m-15.8 0a15.8 15.8 0 1 0 31.6 0 15.8 15.8 0 1 0-31.6 0Z" fill="#004364"/>
  </svg>
  <svg width="30" height="30" viewBox="0 0 1024 1024" class="icon" version="1.1" x="110.0" y="120.0">
    <path d="M283.9 136.9l10.9 119.9-131.3 55 86.2 50.2 91.5-54.8 89.6-24.4 65.1 13.5 16.1-66.1s-51.8-57.5-116.7-80.3-111.4-13-111.4-13z" fill="#95C751"/>
    <path d="M341.2 307.2C273 335 145.4 459.5 204.8 637.1S376.3 888.6 412 894c35.7 5.4 87.6-31.5 116.4-31.5s53.8 34.7 89.5 32 112.8-32.5 149.7-93 117.1-213.9 92.2-328.1c-24.9-114.2-132.3-170.6-181.1-179.8s-132.3 6.3-156.2 5.6c-23.9-0.7-84.6-15.3-116.1-8.5-31.4 6.7-65.2 16.5-65.2 16.5z" fill="#F75252"/>
    <path d="M861.2 471.3c-24.9-114.2-132.3-170.6-181.1-179.8-48.8-9.2-132.3 6.3-156.2 5.6s-84.6-15.3-116.1-8.5c-31.5 6.7-65.2 16.5-65.2 16.5-68.2 27.7-195.9 152.2-136.4 329.9s171.5 251.4 207.1 256.9c35.7 5.4 87.6-31.5 116.4-31.5s53.8 34.7 89.5 32c35.8-2.7 112.8-32.5 149.7-93 37-60.5 117.2-213.9 92.3-328.1zM703 735c-31.4 51.5-96.8 76.7-127.3 79.1-30.4 2.3-51.7-27.2-76.1-27.2-24.5 0-68.7 31.4-99 26.7-30.3-4.6-125.5-67.3-176.1-218.4-50.6-151.1 57.9-257 115.9-280.6 0 0 28.7-8.3 55.5-14 26.7-5.7 78.4 6.6 98.7 7.3 20.3 0.6 91.3-12.6 132.8-4.8 41.5 7.8 132.8 55.8 154 152.9 21.2 97.1-47.1 227.5-78.4 279z" fill="#EF3A3A"/>
    <path d="M499.7 350.6s14.7-115.5 27.3-140.7 23.1-33.4 23.1-33.4l69.1 4.1 8.9 26s-70.8 85.1-81.3 105.2-13.8 44.5-13.8 44.5l-33.3-5.7z" fill="#F2F5FB"/>
    <path d="M819.9 371.3c-50.2-61.4-127.1-99.5-200.6-99.5-11.9 0-22.9 1.4-33.4 3.5 25.7-35.1 52.4-62.2 52.9-62.6 4.4-4.4 5.3-11.1 2.2-16.5 0 0-15.4-31.3-26.5-31.3l-76.2-0.5c-4.5 0-8.8 2.2-11.3 6-8.4 12.3-15.3 26-21 40.1-85.4-92.9-218.4-94.1-224.3-94.1-7.1 0-13.1 5.5-13.7 12.6-0.3 3.7-4.9 64.5 14.2 121-31.8 6.6-101.3 24.1-133.4 55.2-3 2.9-4.5 6.9-4.1 11 0.4 4.1 2.6 7.8 6 10.2 2.1 1.4 45.2 30.3 87 43.9-0.3 0.3-0.6 0.6-0.8 1-50.9 62.3-70.1 140.8-53.8 221.1 35.1 173.8 149.2 315.1 254.4 315.1 22.2 0 42.5-6.8 60.4-20.2 19.1-14.3 41.9-14.3 61 0 17.9 13.4 38.2 20.2 60.4 20.2 105.2 0 219.3-141.4 254.4-315.1 16.2-80.3-2.9-158.8-53.8-221.1zM545.6 191.8h62.6l3.8 9.1c-14.8 15.7-48.5 53.5-72.8 95.4 0 0.1-0.1 0.1-0.1 0.1-0.2 0.4-0.4 0.8-0.7 1.2-1.5 2.6-2.9 5.1-4.3 7.7-0.7 1.2-1.4 2.5-2 3.7-1.7 3.3-3.3 6.6-4.9 10-0.2 0.4-0.4 0.9-0.6 1.3-3.4 7.4-6.4 14.8-8.8 22.1-3.4-0.4-6.8-1-10.1-1.8 0.5-10.1 1.5-24.1 3.6-40.2v-0.2c4.6-33.6 14.1-75.7 34.3-108.4z m-250.8-47.3c35.8 2.9 136.5 17.6 198.9 93.7 0.6 0.8 1.5 1.2 2.2 1.8-3.8 13.4-6.7 26.8-9 39.5-9.1-3.1-18.9-5.2-29.2-6.4L380 189.7c-5.2-5.6-13.8-5.8-19.4-0.7-5.5 5.2-5.8 13.8-0.7 19.4l60 64.3c-27.3 2.2-54.7 9.4-80.8 21-41.3-40.5-44.7-118.1-44.3-149.2z m-1.7 131.3c3.3 6.4 6.8 12.7 11 18.7l-55.2 3.4c-7.6 0.5-13.3 7-12.8 14.5 0.5 7.3 6.5 12.8 13.7 12.8h0.9l37.9-2.4c-10.4 7.6-20.4 15.9-29.8 24.9-26.6-6-57.8-22.8-76.4-33.8 31-19.4 82.5-32.6 110.7-38.1zM846.9 587c-35.4 175.4-146.3 293.2-227.6 293.2-16.3 0-30.7-4.8-44-14.7-14.5-10.8-30.7-16.2-46.9-16.2s-32.4 5.4-46.9 16.2c-13.2 9.9-27.6 14.7-44 14.7-81.3 0-192.2-117.8-227.6-293.2-14.6-72.1 2.5-142.5 48.2-198.3 45.1-55.2 113.9-89.4 179.4-89.4 17.4 0 32.4 2.5 45.5 7.7 0 0.3-0.1 0.6-0.1 1-0.5 4.4-0.9 8.7-1.3 12.7 0 0.4-0.1 0.7-0.1 1.1-0.2 2.6-0.4 5.2-0.6 7.6-4.7-3.3-8.8-7-12.1-11.2-4.6-6-13.2-7.1-19.2-2.5s-7.1 13.2-2.5 19.2c9.7 12.7 24.4 22.5 41.5 28.8 0.2 0.1 0.3 0.2 0.5 0.3 0.2 0.1 0.5 0.1 0.8 0.2 5.7 2 11.6 3.6 17.7 4.7 0.4 0.1 0.7 0.1 1.1 0.2 6.1 1.1 12.4 1.7 18.8 1.9h0.4c0.8 0 1.6 0.1 2.4 0.1 33.4 0 63.9-12.7 81.5-34 4.8-5.8 4-14.5-1.8-19.3-5.8-4.8-14.5-4-19.3 1.8-9.4 11.4-25.3 19.4-43.4 22.6 0.6-1.6 1.2-3.2 1.9-4.9 1.1-2.7 2.4-5.4 3.7-8.1 0.6-1.3 1.2-2.7 1.9-4 1.5-3 3.2-6.2 5-9.3 0.5-0.8 0.9-1.6 1.4-2.5 15.7-9.4 34.7-13.9 58.1-13.9 65.5 0 134.2 34.3 179.4 89.4 45.6 55.6 62.7 126 48.2 198.1z" fill="#004364"/>
    <path d="M700.2 388.3m-15.8 0a15.8 15.8 0 1 0 31.6 0 15.8 15.8 0 1 0-31.6 0Z" fill="#004364"/>
    <path d="M757.3 431.7m-15.8 0a15.8 15.8 0 1 0 31.6 0 15.8 15.8 0 1 0-31.6 0Z" fill="#004364"/>
    <path d="M688.2 457.6m-15.8 0a15.8 15.8 0 1 0 31.6 0 15.8 15.8 0 1 0-31.6 0Z" fill="#004364"/>
    <path d="M427.8 824.4m-15.8 0a15.8 15.8 0 1 0 31.6 0 15.8 15.8 0 1 0-31.6 0Z" fill="#004364"/>
    <path d="M357 787.8m-15.8 0a15.8 15.8 0 1 0 31.6 0 15.8 15.8 0 1 0-31.6 0Z" fill="#004364"/>
  </svg>
  <svg width="30" height="30" viewBox="0 0 1024 1024" class="icon" version="1.1" x="70.0" y="160.0">
    <path d="M283.9 136.9l10.9 119.9-131.3 55 86.2 50.2 91.5-54.8 89.6-24.4 65.1 13.5 16.1-66.1s-51.8-57.5-116.7-80.3-111.4-13-111.4-13z" fill="#95C751"/>
    <path d="M341.2 307.2C273 335 145.4 459.5 204.8 637.1S376.3 888.6 412 894c35.7 5.4 87.6-31.5 116.4-31.5s53.8 34.7 89.5 32 112.8-32.5 149.7-93 117.1-213.9 92.2-328.1c-24.9-114.2-132.3-170.6-181.1-179.8s-132.3 6.3-156.2 5.6c-23.9-0.7-84.6-15.3-116.1-8.5-31.4 6.7-65.2 16.5-65.2 16.5z" fill="#F75252"/>
    <path d="M861.2 471.3c-24.9-114.2-132.3-170.6-181.1-179.8-48.8-9.2-132.3 6.3-156.2 5.6s-84.6-15.3-116.1-8.5c-31.5 6.7-65.2 16.5-65.2 16.5-68.2 27.7-195.9 152.2-136.4 329.9s171.5 251.4 207.1 256.9c35.7 5.4 87.6-31.5 116.4-31.5s53.8 34.7 89.5 32c35.8-2.7 112.8-32.5 149.7-93 37-60.5 117.2-213.9 92.3-328.1zM703 735c-31.4 51.5-96.8 76.7-127.3 79.1-30.4 2.3-51.7-27.2-76.1-27.2-24.5 0-68.7 31.4-99 26.7-30.3-4.6-125.5-67.3-176.1-218.4-50.6-151.1 57.9-257 115.9-280.6 0 0 28.7-8.3 55.5-14 26.7-5.7 78.4 6.6 98.7 7.3 20.3 0.6 91.3-12.6 132.8-4.8 41.5 7.8 132.8 55.8 154 152.9 21.2 97.1-47.1 227.5-78.4 279z" fill="#EF3A3A"/>
    <path d="M499.7 350.6s14.7-115.5 27.3-140.7 23.1-33.4 23.1-33.4l69.1 4.1 8.9 26s-70.8 85.1-81.3 105.2-13.8 44.5-13.8 44.5l-33.3-5.7z" fill="#F2F5FB"/>
    <path d="M819.9 371.3c-50.2-61.4-127.1-99.5-200.6-99.5-11.9 0-22.9 1.4-33.4 3.5 25.7-35.1 52.4-62.2 52.9-62.6 4.4-4.4 5.3-11.1 2.2-16.5 0 0-15.4-31.3-26.5-31.3l-76.2-0.5c-4.5 0-8.8 2.2-11.3 6-8.4 12.3-15.3 26-21 40.1-85.4-92.9-218.4-94.1-224.3-94.1-7.1 0-13.1 5.5-13.7 12.6-0.3 3.7-4.9 64.5 14.2 121-31.8 6.6-101.3 24.1-133.4 55.2-3 2.9-4.5 6.9-4.1 11 0.4 4.1 2.6 7.8 6 10.2 2.1 1.4 45.2 30.3 87 43.9-0.3 0.3-0.6 0.6-0.8 1-50.9 62.3-70.1 140.8-53.8 221.1 35.1 173.8 149.2 315.1 254.4 315.1 22.2 0 42.5-6.8 60.4-20.2 19.1-14.3 41.9-14.3 61 0 17.9 13.4 38.2 20.2 60.4 20.2 105.2 0 219.3-141.4 254.4-315.1 16.2-80.3-2.9-158.8-53.8-221.1zM545.6 191.8h62.6l3.8 9.1c-14.8 15.7-48.5 53.5-72.8 95.4 0 0.1-0.1 0.1-0.1 0.1-0.2 0.4-0.4 0.8-0.7 1.2-1.5 2.6-2.9 5.1-4.3 7.7-0.7 1.2-1.4 2.5-2 3.7-1.7 3.3-3.3 6.6-4.9 10-0.2 0.4-0.4 0.9-0.6 1.3-3.4 7.4-6.4 14.8-8.8 22.1-3.4-0.4-6.8-1-10.1-1.8 0.5-10.1 1.5-24.1 3.6-40.2v-0.2c4.6-33.6 14.1-75.7 34.3-108.4z m-250.8-47.3c35.8 2.9 136.5 17.6 198.9 93.7 0.6 0.8 1.5 1.2 2.2 1.8-3.8 13.4-6.7 26.8-9 39.5-9.1-3.1-18.9-5.2-29.2-6.4L380 189.7c-5.2-5.6-13.8-5.8-19.4-0.7-5.5 5.2-5.8 13.8-0.7 19.4l60 64.3c-27.3 2.2-54.7 9.4-80.8 21-41.3-40.5-44.7-118.1-44.3-149.2z m-1.7 131.3c3.3 6.4 6.8 12.7 11 18.7l-55.2 3.4c-7.6 0.5-13.3 7-12.8 14.5 0.5 7.3 6.5 12.8 13.7 12.8h0.9l37.9-2.4c-10.4 7.6-20.4 15.9-29.8 24.9-26.6-6-57.8-22.8-76.4-33.8 31-19.4 82.5-32.6 110.7-38.1zM846.9 587c-35.4 175.4-146.3 293.2-227.6 293.2-16.3 0-30.7-4.8-44-14.7-14.5-10.8-30.7-16.2-46.9-16.2s-32.4 5.4-46.9 16.2c-13.2 9.9-27.6 14.7-44 14.7-81.3 0-192.2-117.8-227.6-293.2-14.6-72.1 2.5-142.5 48.2-198.3 45.1-55.2 113.9-89.4 179.4-89.4 17.4 0 32.4 2.5 45.5 7.7 0 0.3-0.1 0.6-0.1 1-0.5 4.4-0.9 8.7-1.3 12.7 0 0.4-0.1 0.7-0.1 1.1-0.2 2.6-0.4 5.2-0.6 7.6-4.7-3.3-8.8-7-12.1-11.2-4.6-6-13.2-7.1-19.2-2.5s-7.1 13.2-2.5 19.2c9.7 12.7 24.4 22.5 41.5 28.8 0.2 0.1 0.3 0.2 0.5 0.3 0.2 0.1 0.5 0.1 0.8 0.2 5.7 2 11.6 3.6 17.7 4.7 0.4 0.1 0.7 0.1 1.1 0.2 6.1 1.1 12.4 1.7 18.8 1.9h0.4c0.8 0 1.6 0.1 2.4 0.1 33.4 0 63.9-12.7 81.5-34 4.8-5.8 4-14.5-1.8-19.3-5.8-4.8-14.5-4-19.3 1.8-9.4 11.4-25.3 19.4-43.4 22.6 0.6-1.6 1.2-3.2 1.9-4.9 1.1-2.7 2.4-5.4 3.7-8.1 0.6-1.3 1.2-2.7 1.9-4 1.5-3 3.2-6.2 5-9.3 0.5-0.8 0.9-1.6 1.4-2.5 15.7-9.4 34.7-13.9 58.1-13.9 65.5 0 134.2 34.3 179.4 89.4 45.6 55.6 62.7 126 48.2 198.1z" fill="#004364"/>
    <path d="M700.2 388.3m-15.8 0a15.8 15.8 0 1 0 31.6 0 15.8 15.8 0 1 0-31.6 0Z" fill="#004364"/>
    <path d="M757.3 431.7m-15.8 0a15.8 15.8 0 1 0 31.6 0 15.8 15.8 0 1 0-31.6 0Z" fill="#004364"/>
    <path d="M688.2 457.6m-15.8 0a15.8 15.8 0 1 0 31.6 0 15.8 15.8 0 1 0-31.6 0Z" fill="#004364"/>
    <path d="M427.8 824.4m-15.8 0a15.8 15.8 0 1 0 31.6 0 15.8 15.8 0 1 0-31.6 0Z" fill="#004364"/>
    <path d="M357 787.8m-15.8 0a15.8 15.8 0 1 0 31.6 0 15.8 15.8 0 1 0-31.6 0Z" fill="#004364"/>
  </svg>
  <rect x="240" y="100" width="120" height="120.0" stroke="black" fill="none"/>
  <g>
    <svg xmlns:xlink="http://www.w3.org/1999/xlink" version="1.1" id="Layer_1" x="268.0" y="55" viewBox="0 0 334.978 334.978" style="enable-background:new 0 0 334.978 334.978;" xml:space="preserve" width="40" height="40">
<g>
	<g>
		<path style="fill:#E0605C;" d="M311.68,269.531c-11.151-37.754-67.121-33.566-91.279-44.408    c-24.157-10.842-20.386-47.219-23.449-53.548H138.02c-3.058,6.329,0.714,42.711-23.449,53.548    c-24.157,10.842-80.133,6.655-91.279,44.408c-6.149,20.824-5.857,27.193-7.554,50.26c0,0,76.8,15.187,150.014,15.187    S319.24,319.79,319.24,319.79C317.537,296.718,317.829,290.355,311.68,269.531z"/>
		<path style="fill:#606060;" d="M311.68,269.531c-11.151-37.754-67.121-33.566-91.279-44.408    c-24.157-10.842-20.386-47.219-23.449-53.548h-31.206c0,0-0.719,51.024,23.438,61.866s80.133,6.655,91.279,44.408    c5.857,19.83,5.868,26.552,7.324,47.073c19.234-2.816,31.442-5.126,31.442-5.126C317.537,296.718,317.829,290.355,311.68,269.531z    "/>
		<path style="fill:#D15852;" d="M311.68,269.531c-10.955-37.102-65.205-33.696-90.003-43.858l0,0c0,0-3.254,5.947-8.723,14.141    c26.316,5.104,59.241,10.033,67.509,38.029c5.857,19.83,5.868,26.552,7.324,47.073c19.234-2.816,31.442-5.126,31.442-5.126    C317.537,296.718,317.829,290.355,311.68,269.531z"/>
		<path style="fill:#EAE5DC;" d="M221.683,225.668c-0.433-0.18-0.86-0.36-1.276-0.545c-24.157-10.842-20.386-47.219-23.449-53.548    H138.02c-3.058,6.329,0.714,42.711-23.449,53.548c-0.416,0.185-0.843,0.371-1.276,0.545c0,0,7.29,13.332,18.408,27.608    c12.804,16.44,30.003,34.134,35.786,34.134c5.778,0,22.977-17.688,35.786-34.134C214.387,239,221.683,225.668,221.683,225.668z"/>
		<path style="fill:#E0DBD3;" d="M221.683,225.668c-0.208-0.084-0.416-0.174-0.624-0.259c-0.011-0.006-0.017-0.006-0.028-0.011    c-0.214-0.09-0.422-0.18-0.63-0.275c-4.345-1.95-7.779-4.727-10.516-8.004l0,0c-2.074,4.867-6.734,11.927-12.247,19.267    c4.631,1.293,9.83,2.361,15.322,3.429C218.428,231.614,221.683,225.668,221.683,225.668L221.683,225.668z"/>
		<path style="fill:#DBB491;" d="M209.885,217.119c-12.5-14.951-10.421-40.356-12.927-45.549H138.02    c-2.512,5.193-0.427,30.599-12.927,45.549c5.963,14.029,37.99,51.575,42.396,51.575    C171.89,268.693,203.427,232.289,209.885,217.119z"/>
		<path style="fill:#CCA483;" d="M189.19,233.435c2.501,1.124,5.345,2.085,8.448,2.951c5.514-7.341,10.173-14.4,12.247-19.267l0,0    c-10.584-12.658-10.713-32.813-12.028-41.845c-0.006-0.034-0.011-0.062-0.011-0.09c-0.022-0.157-0.045-0.309-0.067-0.455    c-0.006-0.051-0.017-0.096-0.022-0.146c-0.022-0.135-0.045-0.264-0.067-0.388c-0.006-0.045-0.017-0.096-0.022-0.141    c-0.028-0.141-0.051-0.275-0.079-0.41c-0.006-0.022-0.011-0.051-0.017-0.079c-0.034-0.157-0.067-0.304-0.101-0.45    c-0.006-0.034-0.017-0.062-0.022-0.096c-0.028-0.107-0.051-0.214-0.079-0.315c-0.011-0.045-0.022-0.09-0.039-0.129    c-0.022-0.084-0.051-0.169-0.073-0.247c-0.011-0.045-0.028-0.084-0.039-0.129c-0.028-0.079-0.056-0.157-0.084-0.23    c-0.011-0.034-0.028-0.067-0.039-0.101c-0.039-0.101-0.084-0.202-0.129-0.292h-31.206    C165.752,171.575,165.032,222.599,189.19,233.435z"/>
		<path style="fill:#E0DBD3;" d="M304.098,314.029c-0.006-0.337-0.422-34.241-12.725-49.984    c-7.931-10.151-33.094-15.395-49.748-18.863l-1.371-0.287c-7.391-1.54-13.366-2.417-13.428-2.422l4.845-9.757    c2.563,0.427,6.379,1.102,10.702,2.007l1.371,0.287c19.222,4.002,45.544,9.488,55.818,22.64    c13.107,16.778,14.709,48.056,14.9,54.975L304.098,314.029z"/>
		<path style="fill:#EAE5DC;" d="M30.75,314.029c0.006-0.337,0.422-34.241,12.725-49.984c7.931-10.151,33.094-15.395,49.748-18.863    l1.371-0.287c7.391-1.54,13.366-2.417,13.428-2.422l-4.845-9.757c-2.563,0.427-6.379,1.102-10.702,2.007l-1.371,0.287    c-19.223,4.002-45.544,9.488-55.818,22.64c-13.107,16.778-14.709,48.056-14.9,54.975L30.75,314.029z"/>
		<path style="fill:#C69E7F;" d="M130.089,209.171c9.78,7.959,21.24,15.85,37.338,18.132c16.137-2.288,27.569-10.342,37.36-18.334    c-8.144-14.973-5.626-32.83-7.83-37.4H138.02C135.805,176.144,138.273,194.192,130.089,209.171z"/>
		
			<ellipse transform="matrix(-0.177 0.9842 -0.9842 -0.177 410.8397 -74.4047)" style="fill:#CCA483;" cx="236.529" cy="134.57" rx="21.386" ry="11.629"/>
		
			<ellipse transform="matrix(-0.9842 0.177 -0.177 -0.9842 218.8098 249.6365)" style="fill:#DBB491;" cx="98.27" cy="134.578" rx="11.629" ry="21.386"/>
		<path style="fill:#DBB491;" d="M231.648,63.378l-64.221-30.16l-64.187,30.16c0,0-35.989,146.614,64.187,160.806    C267.642,209.992,231.648,63.378,231.648,63.378z"/>
		<path style="fill:#CCA483;" d="M167.427,224.184c100.216-14.192,64.221-160.806,64.221-160.806h-15.024    c4.114,61.242,9.808,93.774-13.815,129.24C184.092,220.722,167.427,224.184,167.427,224.184z"/>
		<path style="fill:#CCA483;" d="M109.49,95.848c2.743,1.31,4.749,1.546,4.749,1.546s35.045,7.256,53.643,7.256    s52.867-7.256,52.867-7.256s2.007-0.304,4.749-1.681V71.781H109.49V95.848z"/>
		<path style="fill:#575959;" d="M236.622,39.344c-6.385-3.58-14.31-2.434-14.31-2.434c-7.363-14.344-17.486-18.289-17.486-18.289    l-7.335,9.639L167.494,0l-29.997,28.26l-7.335-9.639c0,0-9.37,3.462-17.486,18.289c0,0-7.925-1.147-14.31,2.434    c0,0-4.305,37.984-4.305,69.6s7.161,51.721,7.161,51.721l6.166,1.248c0,0-1.647-27.4,0.444-44.734    c2.035-16.862,6.413-24.157,6.413-24.157s35.045,7.256,53.643,7.256s52.868-7.256,52.868-7.256s4.48,8.358,6.413,24.281    c2.063,17.002,0.444,44.611,0.444,44.611l5.834-1.203c0,0,7.487-20.824,7.487-51.771S236.622,39.344,236.622,39.344z"/>
		<path style="fill:#3F3E3E;" d="M108.809,36.748c-0.135,0.096-0.214,0.163-0.214,0.163c-2.788,10.348,2.546,18.604,2.546,18.604    c-2.181-11.022,1.534-18.604,1.534-18.604S111.108,36.686,108.809,36.748z"/>
		<path style="fill:#3F3E3E;" d="M137.497,28.26c0,0-8.307,9.566-6.733,21.802c0,0-5.935-13.051,4.3-25L137.497,28.26z"/>
		<path style="fill:#3F3E3E;" d="M226.174,36.748c0.135,0.096,0.214,0.163,0.214,0.163c2.788,10.348-2.546,18.604-2.546,18.604    c2.181-11.022-1.534-18.604-1.534-18.604S223.875,36.686,226.174,36.748z"/>
		<path style="fill:#3F3E3E;" d="M197.486,28.26c0,0,8.307,9.566,6.734,21.802c0,0,5.935-13.051-4.3-25L197.486,28.26z"/>
	</g>
</g>
<g>
</g>
<g>
</g>
<g>
</g>
<g>
</g>
<g>
</g>
<g>
</g>
<g>
</g>
<g>
</g>
<g>
</g>
<g>
</g>
<g>
</g>
<g>
</g>
<g>
</g>
<g>
</g>
<g>
</g>
</svg>
    <text x="318.0" y="75.0" style="font-size: 15px;" dominant_baseline="middle" text_anchor="middle">&#23567;&#32418;</text>
  </g>
  <svg width="30" height="30" viewBox="0 0 1024 1024" class="icon" version="1.1" x="260.0" y="120.0">
    <path d="M283.9 136.9l10.9 119.9-131.3 55 86.2 50.2 91.5-54.8 89.6-24.4 65.1 13.5 16.1-66.1s-51.8-57.5-116.7-80.3-111.4-13-111.4-13z" fill="#95C751"/>
    <path d="M341.2 307.2C273 335 145.4 459.5 204.8 637.1S376.3 888.6 412 894c35.7 5.4 87.6-31.5 116.4-31.5s53.8 34.7 89.5 32 112.8-32.5 149.7-93 117.1-213.9 92.2-328.1c-24.9-114.2-132.3-170.6-181.1-179.8s-132.3 6.3-156.2 5.6c-23.9-0.7-84.6-15.3-116.1-8.5-31.4 6.7-65.2 16.5-65.2 16.5z" fill="#F75252"/>
    <path d="M861.2 471.3c-24.9-114.2-132.3-170.6-181.1-179.8-48.8-9.2-132.3 6.3-156.2 5.6s-84.6-15.3-116.1-8.5c-31.5 6.7-65.2 16.5-65.2 16.5-68.2 27.7-195.9 152.2-136.4 329.9s171.5 251.4 207.1 256.9c35.7 5.4 87.6-31.5 116.4-31.5s53.8 34.7 89.5 32c35.8-2.7 112.8-32.5 149.7-93 37-60.5 117.2-213.9 92.3-328.1zM703 735c-31.4 51.5-96.8 76.7-127.3 79.1-30.4 2.3-51.7-27.2-76.1-27.2-24.5 0-68.7 31.4-99 26.7-30.3-4.6-125.5-67.3-176.1-218.4-50.6-151.1 57.9-257 115.9-280.6 0 0 28.7-8.3 55.5-14 26.7-5.7 78.4 6.6 98.7 7.3 20.3 0.6 91.3-12.6 132.8-4.8 41.5 7.8 132.8 55.8 154 152.9 21.2 97.1-47.1 227.5-78.4 279z" fill="#EF3A3A"/>
    <path d="M499.7 350.6s14.7-115.5 27.3-140.7 23.1-33.4 23.1-33.4l69.1 4.1 8.9 26s-70.8 85.1-81.3 105.2-13.8 44.5-13.8 44.5l-33.3-5.7z" fill="#F2F5FB"/>
    <path d="M819.9 371.3c-50.2-61.4-127.1-99.5-200.6-99.5-11.9 0-22.9 1.4-33.4 3.5 25.7-35.1 52.4-62.2 52.9-62.6 4.4-4.4 5.3-11.1 2.2-16.5 0 0-15.4-31.3-26.5-31.3l-76.2-0.5c-4.5 0-8.8 2.2-11.3 6-8.4 12.3-15.3 26-21 40.1-85.4-92.9-218.4-94.1-224.3-94.1-7.1 0-13.1 5.5-13.7 12.6-0.3 3.7-4.9 64.5 14.2 121-31.8 6.6-101.3 24.1-133.4 55.2-3 2.9-4.5 6.9-4.1 11 0.4 4.1 2.6 7.8 6 10.2 2.1 1.4 45.2 30.3 87 43.9-0.3 0.3-0.6 0.6-0.8 1-50.9 62.3-70.1 140.8-53.8 221.1 35.1 173.8 149.2 315.1 254.4 315.1 22.2 0 42.5-6.8 60.4-20.2 19.1-14.3 41.9-14.3 61 0 17.9 13.4 38.2 20.2 60.4 20.2 105.2 0 219.3-141.4 254.4-315.1 16.2-80.3-2.9-158.8-53.8-221.1zM545.6 191.8h62.6l3.8 9.1c-14.8 15.7-48.5 53.5-72.8 95.4 0 0.1-0.1 0.1-0.1 0.1-0.2 0.4-0.4 0.8-0.7 1.2-1.5 2.6-2.9 5.1-4.3 7.7-0.7 1.2-1.4 2.5-2 3.7-1.7 3.3-3.3 6.6-4.9 10-0.2 0.4-0.4 0.9-0.6 1.3-3.4 7.4-6.4 14.8-8.8 22.1-3.4-0.4-6.8-1-10.1-1.8 0.5-10.1 1.5-24.1 3.6-40.2v-0.2c4.6-33.6 14.1-75.7 34.3-108.4z m-250.8-47.3c35.8 2.9 136.5 17.6 198.9 93.7 0.6 0.8 1.5 1.2 2.2 1.8-3.8 13.4-6.7 26.8-9 39.5-9.1-3.1-18.9-5.2-29.2-6.4L380 189.7c-5.2-5.6-13.8-5.8-19.4-0.7-5.5 5.2-5.8 13.8-0.7 19.4l60 64.3c-27.3 2.2-54.7 9.4-80.8 21-41.3-40.5-44.7-118.1-44.3-149.2z m-1.7 131.3c3.3 6.4 6.8 12.7 11 18.7l-55.2 3.4c-7.6 0.5-13.3 7-12.8 14.5 0.5 7.3 6.5 12.8 13.7 12.8h0.9l37.9-2.4c-10.4 7.6-20.4 15.9-29.8 24.9-26.6-6-57.8-22.8-76.4-33.8 31-19.4 82.5-32.6 110.7-38.1zM846.9 587c-35.4 175.4-146.3 293.2-227.6 293.2-16.3 0-30.7-4.8-44-14.7-14.5-10.8-30.7-16.2-46.9-16.2s-32.4 5.4-46.9 16.2c-13.2 9.9-27.6 14.7-44 14.7-81.3 0-192.2-117.8-227.6-293.2-14.6-72.1 2.5-142.5 48.2-198.3 45.1-55.2 113.9-89.4 179.4-89.4 17.4 0 32.4 2.5 45.5 7.7 0 0.3-0.1 0.6-0.1 1-0.5 4.4-0.9 8.7-1.3 12.7 0 0.4-0.1 0.7-0.1 1.1-0.2 2.6-0.4 5.2-0.6 7.6-4.7-3.3-8.8-7-12.1-11.2-4.6-6-13.2-7.1-19.2-2.5s-7.1 13.2-2.5 19.2c9.7 12.7 24.4 22.5 41.5 28.8 0.2 0.1 0.3 0.2 0.5 0.3 0.2 0.1 0.5 0.1 0.8 0.2 5.7 2 11.6 3.6 17.7 4.7 0.4 0.1 0.7 0.1 1.1 0.2 6.1 1.1 12.4 1.7 18.8 1.9h0.4c0.8 0 1.6 0.1 2.4 0.1 33.4 0 63.9-12.7 81.5-34 4.8-5.8 4-14.5-1.8-19.3-5.8-4.8-14.5-4-19.3 1.8-9.4 11.4-25.3 19.4-43.4 22.6 0.6-1.6 1.2-3.2 1.9-4.9 1.1-2.7 2.4-5.4 3.7-8.1 0.6-1.3 1.2-2.7 1.9-4 1.5-3 3.2-6.2 5-9.3 0.5-0.8 0.9-1.6 1.4-2.5 15.7-9.4 34.7-13.9 58.1-13.9 65.5 0 134.2 34.3 179.4 89.4 45.6 55.6 62.7 126 48.2 198.1z" fill="#004364"/>
    <path d="M700.2 388.3m-15.8 0a15.8 15.8 0 1 0 31.6 0 15.8 15.8 0 1 0-31.6 0Z" fill="#004364"/>
    <path d="M757.3 431.7m-15.8 0a15.8 15.8 0 1 0 31.6 0 15.8 15.8 0 1 0-31.6 0Z" fill="#004364"/>
    <path d="M688.2 457.6m-15.8 0a15.8 15.8 0 1 0 31.6 0 15.8 15.8 0 1 0-31.6 0Z" fill="#004364"/>
    <path d="M427.8 824.4m-15.8 0a15.8 15.8 0 1 0 31.6 0 15.8 15.8 0 1 0-31.6 0Z" fill="#004364"/>
    <path d="M357 787.8m-15.8 0a15.8 15.8 0 1 0 31.6 0 15.8 15.8 0 1 0-31.6 0Z" fill="#004364"/>
  </svg>
  <svg xmlns:xlink="http://www.w3.org/1999/xlink" version="1.1" id="Layer_1" viewBox="0 0 495 495" xml:space="preserve" x="190" y="145.0" width="30" height="30">
<rect y="227.5" style="fill:#2488FF;" width="495" height="40"/>
</svg>
  <svg fill="#2388ff" width="30" height="30" viewBox="0 0 256 256" id="Flat" x="400" y="145.0">

<g id="SVGRepo_bgCarrier" stroke-width="0"/>

<g id="SVGRepo_tracerCarrier" stroke-linecap="round" stroke-linejoin="round"/>

<g id="SVGRepo_iconCarrier"> <path d="M224,160a8.00008,8.00008,0,0,1-8,8H40a8,8,0,0,1,0-16H216A8.00008,8.00008,0,0,1,224,160ZM40,104H216a8,8,0,0,0,0-16H40a8,8,0,0,0,0,16Z"/> </g>

</svg>
  <svg xmlns:xlink="http://www.w3.org/1999/xlink" xmlns:serif="http://www.serif.com/" fill="#2388ff" width="60" height="60" viewBox="0 0 64 64" version="1.1" xml:space="preserve" style="fill-rule:evenodd;clip-rule:evenodd;stroke-linejoin:round;stroke-miterlimit:2;" stroke="#2388ff" x="450" y="130.0">

<g id="SVGRepo_bgCarrier" stroke-width="0"/>

<g id="SVGRepo_tracerCarrier" stroke-linecap="round" stroke-linejoin="round"/>

<g id="SVGRepo_iconCarrier"> <rect id="Icons" x="-640" y="-192" width="1280" height="800" style="fill:none;"/> <g id="Icons1" serif:id="Icons"> <g id="Strike"> </g> <g id="H1"> </g> <g id="H2"> </g> <g id="H3"> </g> <g id="list-ul"> </g> <g id="hamburger-1"> </g> <g id="hamburger-2"> </g> <g id="list-ol"> </g> <g id="list-task"> </g> <g id="trash"> </g> <g id="vertical-menu"> </g> <g id="horizontal-menu"> </g> <g id="sidebar-2"> </g> <g id="Pen"> </g> <g id="Pen1" serif:id="Pen"> </g> <g id="clock"> </g> <g id="external-link"> </g> <g id="hr"> </g> <g id="info"> </g> <g id="warning"> </g> <g id="plus-circle"> </g> <g id="minus-circle"> </g> <g id="vue"> </g> <g id="cog"> </g> <g id="logo"> </g> <path id="question" d="M27.952,42.387c0.043,-2.56 0.333,-4.583 0.871,-6.068c0.538,-1.485 1.636,-3.131 3.293,-4.939l4.229,-4.358c1.807,-2.044 2.711,-4.239 2.711,-6.585c0,-2.259 -0.592,-4.029 -1.775,-5.31c-1.184,-1.28 -2.905,-1.92 -5.165,-1.92c-2.195,0 -3.96,0.581 -5.294,1.743c-1.334,1.162 -2.001,2.722 -2.001,4.68l-5.972,0c0.043,-3.486 1.286,-6.3 3.728,-8.441c2.443,-2.141 5.622,-3.212 9.539,-3.212c4.067,0 7.236,1.092 9.506,3.277c2.271,2.184 3.406,5.181 3.406,8.99c0,3.765 -1.743,7.478 -5.229,11.136l-3.519,3.486c-1.571,1.743 -2.356,4.25 -2.356,7.521l-5.972,0Zm-0.258,10.233c0,-0.968 0.296,-1.781 0.887,-2.437c0.592,-0.656 1.469,-0.985 2.631,-0.985c1.162,0 2.045,0.329 2.647,0.985c0.603,0.656 0.904,1.469 0.904,2.437c0,0.969 -0.301,1.77 -0.904,2.405c-0.602,0.635 -1.485,0.952 -2.647,0.952c-1.162,0 -2.039,-0.317 -2.631,-0.952c-0.591,-0.635 -0.887,-1.436 -0.887,-2.405Z" style="fill-rule:nonzero;"/> <g id="radio-check"> </g> <g id="eye-slash"> </g> <g id="eye"> </g> <g id="toggle-off"> </g> <g id="shredder"> </g> <g id="spinner--loading--dots-" serif:id="spinner [loading, dots]"> </g> <g id="react"> </g> <g id="check-selected"> </g> <g id="turn-off"> </g> <g id="code-block"> </g> <g id="user"> </g> <g id="coffee-bean"> </g> <g id="coffee-beans"> <g id="coffee-bean1" serif:id="coffee-bean"> </g> </g> <g id="coffee-bean-filled"> </g> <g id="coffee-beans-filled"> <g id="coffee-bean2" serif:id="coffee-bean"> </g> </g> <g id="clipboard"> </g> <g id="clipboard-paste"> </g> <g id="clipboard-copy"> </g> <g id="Layer1"> </g> </g> </g>

</svg>
</svg>
