<svg xmlns="http://www.w3.org/2000/svg" width="560" height="270.0">
  <rect x="50" y="100" width="120" height="120.0" stroke="black" fill="none"/>
  <g>
    <svg xmlns:xlink="http://www.w3.org/1999/xlink" width="40" height="40" viewBox="0 0 36 36" aria-hidden="true" role="img" class="iconify iconify--twemoji" preserveAspectRatio="xMidYMid meet" x="71.0" y="55">
      <path fill="#963B22" d="M23.111 2.081c-2.638-.853-8.844-.621-10.395 1.396c-4.034.078-8.766 3.724-9.387 8.534c-.614 4.76.754 6.971 1.241 10.551c.552 4.056 2.832 5.353 4.655 5.896c2.623 3.465 5.411 3.317 10.092 3.317c9.141 0 13.495-6.116 13.88-16.505c.232-6.284-3.454-11.043-10.086-13.189z"/>
      <path fill="#D4AB88" d="M28.339 15.713c-.884-1.225-2.017-2.211-4.499-2.56c.931.427 1.823 1.901 1.939 2.715c.116.815.233 1.474-.504.659c-2.952-3.263-6.167-1.978-9.354-3.972c-2.226-1.392-2.903-2.933-2.903-2.933s-.272 2.056-3.646 4.15c-.978.607-2.145 1.959-2.793 3.956c-.465 1.435-.321 2.715-.321 4.903c0 6.385 5.262 11.753 11.753 11.753s11.753-5.415 11.753-11.753c0-3.97-.416-5.521-1.425-6.918z"/>
      <path fill="#C1694F" d="M18 31c-2.347 0-3.575-1.16-3.707-1.293a.999.999 0 0 1 1.404-1.424c.051.047.806.717 2.303.717c1.519 0 2.273-.69 2.305-.719a1.008 1.008 0 0 1 1.408.029a.994.994 0 0 1-.006 1.397C21.575 29.84 20.347 31 18 31zm1-5h-2a1 1 0 1 1 0-2h2a1 1 0 1 1 0 2z"/>
      <path fill="#662113" d="M13 22a1 1 0 0 1-1-1v-2a1 1 0 0 1 2 0v2a1 1 0 0 1-1 1zm10 0a1 1 0 0 1-1-1v-2a1 1 0 1 1 2 0v2a1 1 0 0 1-1 1z"/>
    </svg>
    <text x="121.0" y="75.0" style="font-size: 15px;" dominant_baseline="middle" text_anchor="middle">Marc</text>
  </g>
  <svg width="30" height="30" viewBox="0 -10.47 31.999 31.999" x="70.0" y="120.0">
  <g id="candy" transform="translate(-131.978 -92.468)">
    <g id="Group_499" data-name="Group 499">
      <g id="Group_490" data-name="Group 490">
        <g id="Group_487" data-name="Group 487">
          <g id="Group_486" data-name="Group 486">
            <path id="Path_306" data-name="Path 306" d="M162.348,98c1.466-1.465,1.477-2.75.082-2.75-1.3,0-4.13,2.4-4.506,2.727a5.023,5.023,0,0,0-5.023-5h-9.8a5.023,5.023,0,1,0,0,10.047h9.8a5.022,5.022,0,0,0,5.022-4.973c.372.32,3.186,2.7,4.507,2.7C163.845,100.747,163.834,99.481,162.348,98Z" fill="#ffa99f"/>
          </g>
        </g>
        <g id="Group_489" data-name="Group 489">
          <g id="Group_488" data-name="Group 488">
            <path id="Path_307" data-name="Path 307" d="M133.606,98c-1.486,1.486-1.5,2.752-.081,2.752s4.548-2.738,4.548-2.738-3.153-2.764-4.548-2.764S132.14,96.53,133.606,98Z" fill="#ffa99f"/>
          </g>
        </g>
      </g>
      <g id="shadow" opacity="0.35">
        <g id="Group_492" data-name="Group 492">
          <g id="Group_491" data-name="Group 491">
            <path id="Path_308" data-name="Path 308" d="M133.525,96.745c.918,0,2.592,1.194,3.633,2.012.542-.423.915-.748.915-.748s-3.153-2.764-4.548-2.764c-1.047,0-1.3.724-.745,1.7A1.222,1.222,0,0,1,133.525,96.745Z" fill="#ffffff"/>
          </g>
        </g>
      </g>
      <g id="Group_494" data-name="Group 494">
        <g id="Group_493" data-name="Group 493">
          <path id="Path_309" data-name="Path 309" d="M146.113,103.019h-3.944l3.691-10.051H149.8Z" fill="#85d0bc"/>
        </g>
      </g>
      <g id="Group_496" data-name="Group 496">
        <g id="Group_495" data-name="Group 495">
          <path id="Path_310" data-name="Path 310" d="M150.425,103.019h-3.944l3.691-10.051h3.944Z" fill="#f9cb99"/>
        </g>
      </g>
      <g id="shadow-2" data-name="shadow" opacity="0.35">
        <g id="Group_498" data-name="Group 498">
          <g id="Group_497" data-name="Group 497">
            <path id="Path_311" data-name="Path 311" d="M139.573,99.5a5.024,5.024,0,0,1,5.024-5.024h9.8a4.99,4.99,0,0,1,2.713.806,5.008,5.008,0,0,0-4.213-2.306h-9.8a5.017,5.017,0,0,0-2.716,9.24A4.993,4.993,0,0,1,139.573,99.5Z" fill="#ffffff"/>
          </g>
        </g>
      </g>
    </g>
    <g id="Group_511" data-name="Group 511">
      <g id="Group_504" data-name="Group 504">
        <g id="Group_501" data-name="Group 501">
          <g id="Group_500" data-name="Group 500">
            <path id="Path_312" data-name="Path 312" d="M152.9,103.519h-9.8a5.523,5.523,0,1,1,0-11.047h9.8a5.538,5.538,0,0,1,5.429,4.512c1.126-.9,2.985-2.239,4.1-2.239a1.39,1.39,0,0,1,1.435.791c.273.658-.031,1.538-.832,2.459.81.927,1.118,1.808.849,2.46a1.4,1.4,0,0,1-1.452.792c-1.13,0-2.984-1.326-4.1-2.219A5.544,5.544,0,0,1,152.9,103.519Zm-9.8-10.047a4.523,4.523,0,1,0,0,9.047h9.8a4.536,4.536,0,0,0,4.522-4.478l0-.035v-.031a4.533,4.533,0,0,0-4.523-4.5Zm15.559,4.537c1.415,1.161,3.066,2.238,3.774,2.238.285,0,.483-.066.527-.175.09-.216-.092-.853-.962-1.723a.5.5,0,0,1,0-.707c.861-.861,1.038-1.5.946-1.723-.067-.161-.408-.174-.511-.174C161.734,95.745,160.079,96.835,158.656,98.009Z" fill="#282b24"/>
          </g>
        </g>
        <g id="Group_503" data-name="Group 503">
          <g id="Group_502" data-name="Group 502">
            <path id="Path_313" data-name="Path 313" d="M133.525,101.247a1.4,1.4,0,0,1-1.452-.792c-.27-.652.039-1.533.849-2.46-.8-.921-1.1-1.8-.833-2.459a1.392,1.392,0,0,1,1.436-.791c1.507,0,4.328,2.406,4.878,2.889a.5.5,0,0,1,0,.752C138.067,98.679,135.083,101.247,133.525,101.247Zm0-5.5c-.1,0-.445.013-.512.174-.091.221.086.862.947,1.723a.5.5,0,0,1,0,.707c-.87.87-1.052,1.507-.963,1.723.045.109.243.175.528.175.79,0,2.573-1.25,3.775-2.238C136.091,97.01,134.3,95.745,133.525,95.745Z" fill="#282b24"/>
          </g>
        </g>
      </g>
      <g id="Group_506" data-name="Group 506">
        <g id="Group_505" data-name="Group 505">
          <path id="Path_314" data-name="Path 314" d="M146.266,103.419a.48.48,0,0,1-.17-.03.5.5,0,0,1-.3-.639l3.588-9.951a.5.5,0,0,1,.941.339l-3.588,9.951A.5.5,0,0,1,146.266,103.419Z" fill="#282b24"/>
        </g>
      </g>
      <g id="Group_508" data-name="Group 508">
        <g id="Group_507" data-name="Group 507">
          <path id="Path_315" data-name="Path 315" d="M142.018,103.419a.475.475,0,0,1-.169-.03.5.5,0,0,1-.3-.639l3.588-9.951a.5.5,0,1,1,.941.339l-3.589,9.951A.5.5,0,0,1,142.018,103.419Z" fill="#282b24"/>
        </g>
      </g>
      <g id="Group_510" data-name="Group 510">
        <g id="Group_509" data-name="Group 509">
          <path id="Path_316" data-name="Path 316" d="M150.514,103.519a.5.5,0,0,1-.47-.669l3.5-9.713a.5.5,0,0,1,.941.339l-3.5,9.713A.5.5,0,0,1,150.514,103.519Z" fill="#282b24"/>
        </g>
      </g>
    </g>
  </g>
</svg>
  <svg width="30" height="30" viewBox="0 -10.47 31.999 31.999" x="110.0" y="120.0">
  <g id="candy" transform="translate(-131.978 -92.468)">
    <g id="Group_499" data-name="Group 499">
      <g id="Group_490" data-name="Group 490">
        <g id="Group_487" data-name="Group 487">
          <g id="Group_486" data-name="Group 486">
            <path id="Path_306" data-name="Path 306" d="M162.348,98c1.466-1.465,1.477-2.75.082-2.75-1.3,0-4.13,2.4-4.506,2.727a5.023,5.023,0,0,0-5.023-5h-9.8a5.023,5.023,0,1,0,0,10.047h9.8a5.022,5.022,0,0,0,5.022-4.973c.372.32,3.186,2.7,4.507,2.7C163.845,100.747,163.834,99.481,162.348,98Z" fill="#ffa99f"/>
          </g>
        </g>
        <g id="Group_489" data-name="Group 489">
          <g id="Group_488" data-name="Group 488">
            <path id="Path_307" data-name="Path 307" d="M133.606,98c-1.486,1.486-1.5,2.752-.081,2.752s4.548-2.738,4.548-2.738-3.153-2.764-4.548-2.764S132.14,96.53,133.606,98Z" fill="#ffa99f"/>
          </g>
        </g>
      </g>
      <g id="shadow" opacity="0.35">
        <g id="Group_492" data-name="Group 492">
          <g id="Group_491" data-name="Group 491">
            <path id="Path_308" data-name="Path 308" d="M133.525,96.745c.918,0,2.592,1.194,3.633,2.012.542-.423.915-.748.915-.748s-3.153-2.764-4.548-2.764c-1.047,0-1.3.724-.745,1.7A1.222,1.222,0,0,1,133.525,96.745Z" fill="#ffffff"/>
          </g>
        </g>
      </g>
      <g id="Group_494" data-name="Group 494">
        <g id="Group_493" data-name="Group 493">
          <path id="Path_309" data-name="Path 309" d="M146.113,103.019h-3.944l3.691-10.051H149.8Z" fill="#85d0bc"/>
        </g>
      </g>
      <g id="Group_496" data-name="Group 496">
        <g id="Group_495" data-name="Group 495">
          <path id="Path_310" data-name="Path 310" d="M150.425,103.019h-3.944l3.691-10.051h3.944Z" fill="#f9cb99"/>
        </g>
      </g>
      <g id="shadow-2" data-name="shadow" opacity="0.35">
        <g id="Group_498" data-name="Group 498">
          <g id="Group_497" data-name="Group 497">
            <path id="Path_311" data-name="Path 311" d="M139.573,99.5a5.024,5.024,0,0,1,5.024-5.024h9.8a4.99,4.99,0,0,1,2.713.806,5.008,5.008,0,0,0-4.213-2.306h-9.8a5.017,5.017,0,0,0-2.716,9.24A4.993,4.993,0,0,1,139.573,99.5Z" fill="#ffffff"/>
          </g>
        </g>
      </g>
    </g>
    <g id="Group_511" data-name="Group 511">
      <g id="Group_504" data-name="Group 504">
        <g id="Group_501" data-name="Group 501">
          <g id="Group_500" data-name="Group 500">
            <path id="Path_312" data-name="Path 312" d="M152.9,103.519h-9.8a5.523,5.523,0,1,1,0-11.047h9.8a5.538,5.538,0,0,1,5.429,4.512c1.126-.9,2.985-2.239,4.1-2.239a1.39,1.39,0,0,1,1.435.791c.273.658-.031,1.538-.832,2.459.81.927,1.118,1.808.849,2.46a1.4,1.4,0,0,1-1.452.792c-1.13,0-2.984-1.326-4.1-2.219A5.544,5.544,0,0,1,152.9,103.519Zm-9.8-10.047a4.523,4.523,0,1,0,0,9.047h9.8a4.536,4.536,0,0,0,4.522-4.478l0-.035v-.031a4.533,4.533,0,0,0-4.523-4.5Zm15.559,4.537c1.415,1.161,3.066,2.238,3.774,2.238.285,0,.483-.066.527-.175.09-.216-.092-.853-.962-1.723a.5.5,0,0,1,0-.707c.861-.861,1.038-1.5.946-1.723-.067-.161-.408-.174-.511-.174C161.734,95.745,160.079,96.835,158.656,98.009Z" fill="#282b24"/>
          </g>
        </g>
        <g id="Group_503" data-name="Group 503">
          <g id="Group_502" data-name="Group 502">
            <path id="Path_313" data-name="Path 313" d="M133.525,101.247a1.4,1.4,0,0,1-1.452-.792c-.27-.652.039-1.533.849-2.46-.8-.921-1.1-1.8-.833-2.459a1.392,1.392,0,0,1,1.436-.791c1.507,0,4.328,2.406,4.878,2.889a.5.5,0,0,1,0,.752C138.067,98.679,135.083,101.247,133.525,101.247Zm0-5.5c-.1,0-.445.013-.512.174-.091.221.086.862.947,1.723a.5.5,0,0,1,0,.707c-.87.87-1.052,1.507-.963,1.723.045.109.243.175.528.175.79,0,2.573-1.25,3.775-2.238C136.091,97.01,134.3,95.745,133.525,95.745Z" fill="#282b24"/>
          </g>
        </g>
      </g>
      <g id="Group_506" data-name="Group 506">
        <g id="Group_505" data-name="Group 505">
          <path id="Path_314" data-name="Path 314" d="M146.266,103.419a.48.48,0,0,1-.17-.03.5.5,0,0,1-.3-.639l3.588-9.951a.5.5,0,0,1,.941.339l-3.588,9.951A.5.5,0,0,1,146.266,103.419Z" fill="#282b24"/>
        </g>
      </g>
      <g id="Group_508" data-name="Group 508">
        <g id="Group_507" data-name="Group 507">
          <path id="Path_315" data-name="Path 315" d="M142.018,103.419a.475.475,0,0,1-.169-.03.5.5,0,0,1-.3-.639l3.588-9.951a.5.5,0,1,1,.941.339l-3.589,9.951A.5.5,0,0,1,142.018,103.419Z" fill="#282b24"/>
        </g>
      </g>
      <g id="Group_510" data-name="Group 510">
        <g id="Group_509" data-name="Group 509">
          <path id="Path_316" data-name="Path 316" d="M150.514,103.519a.5.5,0,0,1-.47-.669l3.5-9.713a.5.5,0,0,1,.941.339l-3.5,9.713A.5.5,0,0,1,150.514,103.519Z" fill="#282b24"/>
        </g>
      </g>
    </g>
  </g>
</svg>
  <svg width="30" height="30" viewBox="0 -10.47 31.999 31.999" x="70.0" y="160.0">
  <g id="candy" transform="translate(-131.978 -92.468)">
    <g id="Group_499" data-name="Group 499">
      <g id="Group_490" data-name="Group 490">
        <g id="Group_487" data-name="Group 487">
          <g id="Group_486" data-name="Group 486">
            <path id="Path_306" data-name="Path 306" d="M162.348,98c1.466-1.465,1.477-2.75.082-2.75-1.3,0-4.13,2.4-4.506,2.727a5.023,5.023,0,0,0-5.023-5h-9.8a5.023,5.023,0,1,0,0,10.047h9.8a5.022,5.022,0,0,0,5.022-4.973c.372.32,3.186,2.7,4.507,2.7C163.845,100.747,163.834,99.481,162.348,98Z" fill="#ffa99f"/>
          </g>
        </g>
        <g id="Group_489" data-name="Group 489">
          <g id="Group_488" data-name="Group 488">
            <path id="Path_307" data-name="Path 307" d="M133.606,98c-1.486,1.486-1.5,2.752-.081,2.752s4.548-2.738,4.548-2.738-3.153-2.764-4.548-2.764S132.14,96.53,133.606,98Z" fill="#ffa99f"/>
          </g>
        </g>
      </g>
      <g id="shadow" opacity="0.35">
        <g id="Group_492" data-name="Group 492">
          <g id="Group_491" data-name="Group 491">
            <path id="Path_308" data-name="Path 308" d="M133.525,96.745c.918,0,2.592,1.194,3.633,2.012.542-.423.915-.748.915-.748s-3.153-2.764-4.548-2.764c-1.047,0-1.3.724-.745,1.7A1.222,1.222,0,0,1,133.525,96.745Z" fill="#ffffff"/>
          </g>
        </g>
      </g>
      <g id="Group_494" data-name="Group 494">
        <g id="Group_493" data-name="Group 493">
          <path id="Path_309" data-name="Path 309" d="M146.113,103.019h-3.944l3.691-10.051H149.8Z" fill="#85d0bc"/>
        </g>
      </g>
      <g id="Group_496" data-name="Group 496">
        <g id="Group_495" data-name="Group 495">
          <path id="Path_310" data-name="Path 310" d="M150.425,103.019h-3.944l3.691-10.051h3.944Z" fill="#f9cb99"/>
        </g>
      </g>
      <g id="shadow-2" data-name="shadow" opacity="0.35">
        <g id="Group_498" data-name="Group 498">
          <g id="Group_497" data-name="Group 497">
            <path id="Path_311" data-name="Path 311" d="M139.573,99.5a5.024,5.024,0,0,1,5.024-5.024h9.8a4.99,4.99,0,0,1,2.713.806,5.008,5.008,0,0,0-4.213-2.306h-9.8a5.017,5.017,0,0,0-2.716,9.24A4.993,4.993,0,0,1,139.573,99.5Z" fill="#ffffff"/>
          </g>
        </g>
      </g>
    </g>
    <g id="Group_511" data-name="Group 511">
      <g id="Group_504" data-name="Group 504">
        <g id="Group_501" data-name="Group 501">
          <g id="Group_500" data-name="Group 500">
            <path id="Path_312" data-name="Path 312" d="M152.9,103.519h-9.8a5.523,5.523,0,1,1,0-11.047h9.8a5.538,5.538,0,0,1,5.429,4.512c1.126-.9,2.985-2.239,4.1-2.239a1.39,1.39,0,0,1,1.435.791c.273.658-.031,1.538-.832,2.459.81.927,1.118,1.808.849,2.46a1.4,1.4,0,0,1-1.452.792c-1.13,0-2.984-1.326-4.1-2.219A5.544,5.544,0,0,1,152.9,103.519Zm-9.8-10.047a4.523,4.523,0,1,0,0,9.047h9.8a4.536,4.536,0,0,0,4.522-4.478l0-.035v-.031a4.533,4.533,0,0,0-4.523-4.5Zm15.559,4.537c1.415,1.161,3.066,2.238,3.774,2.238.285,0,.483-.066.527-.175.09-.216-.092-.853-.962-1.723a.5.5,0,0,1,0-.707c.861-.861,1.038-1.5.946-1.723-.067-.161-.408-.174-.511-.174C161.734,95.745,160.079,96.835,158.656,98.009Z" fill="#282b24"/>
          </g>
        </g>
        <g id="Group_503" data-name="Group 503">
          <g id="Group_502" data-name="Group 502">
            <path id="Path_313" data-name="Path 313" d="M133.525,101.247a1.4,1.4,0,0,1-1.452-.792c-.27-.652.039-1.533.849-2.46-.8-.921-1.1-1.8-.833-2.459a1.392,1.392,0,0,1,1.436-.791c1.507,0,4.328,2.406,4.878,2.889a.5.5,0,0,1,0,.752C138.067,98.679,135.083,101.247,133.525,101.247Zm0-5.5c-.1,0-.445.013-.512.174-.091.221.086.862.947,1.723a.5.5,0,0,1,0,.707c-.87.87-1.052,1.507-.963,1.723.045.109.243.175.528.175.79,0,2.573-1.25,3.775-2.238C136.091,97.01,134.3,95.745,133.525,95.745Z" fill="#282b24"/>
          </g>
        </g>
      </g>
      <g id="Group_506" data-name="Group 506">
        <g id="Group_505" data-name="Group 505">
          <path id="Path_314" data-name="Path 314" d="M146.266,103.419a.48.48,0,0,1-.17-.03.5.5,0,0,1-.3-.639l3.588-9.951a.5.5,0,0,1,.941.339l-3.588,9.951A.5.5,0,0,1,146.266,103.419Z" fill="#282b24"/>
        </g>
      </g>
      <g id="Group_508" data-name="Group 508">
        <g id="Group_507" data-name="Group 507">
          <path id="Path_315" data-name="Path 315" d="M142.018,103.419a.475.475,0,0,1-.169-.03.5.5,0,0,1-.3-.639l3.588-9.951a.5.5,0,1,1,.941.339l-3.589,9.951A.5.5,0,0,1,142.018,103.419Z" fill="#282b24"/>
        </g>
      </g>
      <g id="Group_510" data-name="Group 510">
        <g id="Group_509" data-name="Group 509">
          <path id="Path_316" data-name="Path 316" d="M150.514,103.519a.5.5,0,0,1-.47-.669l3.5-9.713a.5.5,0,0,1,.941.339l-3.5,9.713A.5.5,0,0,1,150.514,103.519Z" fill="#282b24"/>
        </g>
      </g>
    </g>
  </g>
</svg>
  <rect x="240" y="100" width="120" height="120.0" stroke="black" fill="none"/>
  <g>
    <svg width="40" height="40" viewBox="0 0 64 64" x="250.5" y="55">
  <g fill="none" fill-rule="evenodd">
    <rect width="58" height="58" x="4" y="3" fill="#ECECEC" rx="3"/>
    <path fill="#BD7575" d="M22,30.3333333 C22,33.4629469 24.4624339,36 27.5,36 C29.7186017,36 30.4995474,34.4707846 32.5,34.4707846 C34.5004526,34.4707846 35.2813983,36 37.5,36 C40.5375661,36 43,33.4629469 43,30.3333333 C43,27.7375102 41.3059222,25.5493501 38.9947139,24.8784354 C38.9982229,24.808165 39,24.7375679 39,24.6666667 C39,21.5370531 36.5286595,19 32.5,19 C28.4713405,19 26,21.5370531 26,24.6666667 C26,24.7375679 26.0017771,24.808165 26.0052861,24.8784354 C23.6940778,25.5493501 22,27.7375102 22,30.3333333 Z"/>
    <path fill="#BD7575" d="M28,15.9922734 C31.7020696,15.8421029 32,14.0816974 32,11.7248826 C32,9.36806769 30.2457936,7 28.0366546,7 C26.6635786,7 26.0074626,7.65784591 25.2764179,8.91618799 C24.5453733,10.1745301 24,10.8329307 24,11.7248826 C24,14.0816974 24.2979304,16.1424438 28,15.9922734 Z" transform="rotate(-22 28 11.5)"/>
    <path fill="#BD7575" d="M39,15.9922734 C42.7020696,15.8421029 43,14.0816974 43,11.7248826 C43,9.36806769 41.2457936,7 39.0366546,7 C37.6635786,7 37.0074626,7.65784591 36.2764179,8.91618799 C35.5453733,10.1745301 35,10.8329307 35,11.7248826 C35,14.0816974 35.2979304,16.1424438 39,15.9922734 Z" transform="scale(-1 1) rotate(-22 0 212.138)"/>
    <ellipse cx="22" cy="19.5" fill="#BD7575" rx="3" ry="4.5" transform="rotate(-45 22 19.5)"/>
    <ellipse cx="44" cy="20.5" fill="#BD7575" rx="3" ry="4.5" transform="rotate(48 44 20.5)"/>
    <text fill="#5EA7FF" font-family="MarkerFelt-Thin, Marker Felt" font-size="20" font-weight="300">
      <tspan x="15" y="56">LOST</tspan>
    </text>
  </g>
</svg>
    <text x="300.5" y="75.0" style="font-size: 15px;" dominant_baseline="middle" text_anchor="middle">dropped</text>
  </g>
  <svg width="30" height="30" viewBox="0 -10.47 31.999 31.999" x="260.0" y="120.0">
  <g id="candy" transform="translate(-131.978 -92.468)">
    <g id="Group_499" data-name="Group 499">
      <g id="Group_490" data-name="Group 490">
        <g id="Group_487" data-name="Group 487">
          <g id="Group_486" data-name="Group 486">
            <path id="Path_306" data-name="Path 306" d="M162.348,98c1.466-1.465,1.477-2.75.082-2.75-1.3,0-4.13,2.4-4.506,2.727a5.023,5.023,0,0,0-5.023-5h-9.8a5.023,5.023,0,1,0,0,10.047h9.8a5.022,5.022,0,0,0,5.022-4.973c.372.32,3.186,2.7,4.507,2.7C163.845,100.747,163.834,99.481,162.348,98Z" fill="#ffa99f"/>
          </g>
        </g>
        <g id="Group_489" data-name="Group 489">
          <g id="Group_488" data-name="Group 488">
            <path id="Path_307" data-name="Path 307" d="M133.606,98c-1.486,1.486-1.5,2.752-.081,2.752s4.548-2.738,4.548-2.738-3.153-2.764-4.548-2.764S132.14,96.53,133.606,98Z" fill="#ffa99f"/>
          </g>
        </g>
      </g>
      <g id="shadow" opacity="0.35">
        <g id="Group_492" data-name="Group 492">
          <g id="Group_491" data-name="Group 491">
            <path id="Path_308" data-name="Path 308" d="M133.525,96.745c.918,0,2.592,1.194,3.633,2.012.542-.423.915-.748.915-.748s-3.153-2.764-4.548-2.764c-1.047,0-1.3.724-.745,1.7A1.222,1.222,0,0,1,133.525,96.745Z" fill="#ffffff"/>
          </g>
        </g>
      </g>
      <g id="Group_494" data-name="Group 494">
        <g id="Group_493" data-name="Group 493">
          <path id="Path_309" data-name="Path 309" d="M146.113,103.019h-3.944l3.691-10.051H149.8Z" fill="#85d0bc"/>
        </g>
      </g>
      <g id="Group_496" data-name="Group 496">
        <g id="Group_495" data-name="Group 495">
          <path id="Path_310" data-name="Path 310" d="M150.425,103.019h-3.944l3.691-10.051h3.944Z" fill="#f9cb99"/>
        </g>
      </g>
      <g id="shadow-2" data-name="shadow" opacity="0.35">
        <g id="Group_498" data-name="Group 498">
          <g id="Group_497" data-name="Group 497">
            <path id="Path_311" data-name="Path 311" d="M139.573,99.5a5.024,5.024,0,0,1,5.024-5.024h9.8a4.99,4.99,0,0,1,2.713.806,5.008,5.008,0,0,0-4.213-2.306h-9.8a5.017,5.017,0,0,0-2.716,9.24A4.993,4.993,0,0,1,139.573,99.5Z" fill="#ffffff"/>
          </g>
        </g>
      </g>
    </g>
    <g id="Group_511" data-name="Group 511">
      <g id="Group_504" data-name="Group 504">
        <g id="Group_501" data-name="Group 501">
          <g id="Group_500" data-name="Group 500">
            <path id="Path_312" data-name="Path 312" d="M152.9,103.519h-9.8a5.523,5.523,0,1,1,0-11.047h9.8a5.538,5.538,0,0,1,5.429,4.512c1.126-.9,2.985-2.239,4.1-2.239a1.39,1.39,0,0,1,1.435.791c.273.658-.031,1.538-.832,2.459.81.927,1.118,1.808.849,2.46a1.4,1.4,0,0,1-1.452.792c-1.13,0-2.984-1.326-4.1-2.219A5.544,5.544,0,0,1,152.9,103.519Zm-9.8-10.047a4.523,4.523,0,1,0,0,9.047h9.8a4.536,4.536,0,0,0,4.522-4.478l0-.035v-.031a4.533,4.533,0,0,0-4.523-4.5Zm15.559,4.537c1.415,1.161,3.066,2.238,3.774,2.238.285,0,.483-.066.527-.175.09-.216-.092-.853-.962-1.723a.5.5,0,0,1,0-.707c.861-.861,1.038-1.5.946-1.723-.067-.161-.408-.174-.511-.174C161.734,95.745,160.079,96.835,158.656,98.009Z" fill="#282b24"/>
          </g>
        </g>
        <g id="Group_503" data-name="Group 503">
          <g id="Group_502" data-name="Group 502">
            <path id="Path_313" data-name="Path 313" d="M133.525,101.247a1.4,1.4,0,0,1-1.452-.792c-.27-.652.039-1.533.849-2.46-.8-.921-1.1-1.8-.833-2.459a1.392,1.392,0,0,1,1.436-.791c1.507,0,4.328,2.406,4.878,2.889a.5.5,0,0,1,0,.752C138.067,98.679,135.083,101.247,133.525,101.247Zm0-5.5c-.1,0-.445.013-.512.174-.091.221.086.862.947,1.723a.5.5,0,0,1,0,.707c-.87.87-1.052,1.507-.963,1.723.045.109.243.175.528.175.79,0,2.573-1.25,3.775-2.238C136.091,97.01,134.3,95.745,133.525,95.745Z" fill="#282b24"/>
          </g>
        </g>
      </g>
      <g id="Group_506" data-name="Group 506">
        <g id="Group_505" data-name="Group 505">
          <path id="Path_314" data-name="Path 314" d="M146.266,103.419a.48.48,0,0,1-.17-.03.5.5,0,0,1-.3-.639l3.588-9.951a.5.5,0,0,1,.941.339l-3.588,9.951A.5.5,0,0,1,146.266,103.419Z" fill="#282b24"/>
        </g>
      </g>
      <g id="Group_508" data-name="Group 508">
        <g id="Group_507" data-name="Group 507">
          <path id="Path_315" data-name="Path 315" d="M142.018,103.419a.475.475,0,0,1-.169-.03.5.5,0,0,1-.3-.639l3.588-9.951a.5.5,0,1,1,.941.339l-3.589,9.951A.5.5,0,0,1,142.018,103.419Z" fill="#282b24"/>
        </g>
      </g>
      <g id="Group_510" data-name="Group 510">
        <g id="Group_509" data-name="Group 509">
          <path id="Path_316" data-name="Path 316" d="M150.514,103.519a.5.5,0,0,1-.47-.669l3.5-9.713a.5.5,0,0,1,.941.339l-3.5,9.713A.5.5,0,0,1,150.514,103.519Z" fill="#282b24"/>
        </g>
      </g>
    </g>
  </g>
</svg>
  <svg width="30" height="30" viewBox="0 -10.47 31.999 31.999" x="300.0" y="120.0">
  <g id="candy" transform="translate(-131.978 -92.468)">
    <g id="Group_499" data-name="Group 499">
      <g id="Group_490" data-name="Group 490">
        <g id="Group_487" data-name="Group 487">
          <g id="Group_486" data-name="Group 486">
            <path id="Path_306" data-name="Path 306" d="M162.348,98c1.466-1.465,1.477-2.75.082-2.75-1.3,0-4.13,2.4-4.506,2.727a5.023,5.023,0,0,0-5.023-5h-9.8a5.023,5.023,0,1,0,0,10.047h9.8a5.022,5.022,0,0,0,5.022-4.973c.372.32,3.186,2.7,4.507,2.7C163.845,100.747,163.834,99.481,162.348,98Z" fill="#ffa99f"/>
          </g>
        </g>
        <g id="Group_489" data-name="Group 489">
          <g id="Group_488" data-name="Group 488">
            <path id="Path_307" data-name="Path 307" d="M133.606,98c-1.486,1.486-1.5,2.752-.081,2.752s4.548-2.738,4.548-2.738-3.153-2.764-4.548-2.764S132.14,96.53,133.606,98Z" fill="#ffa99f"/>
          </g>
        </g>
      </g>
      <g id="shadow" opacity="0.35">
        <g id="Group_492" data-name="Group 492">
          <g id="Group_491" data-name="Group 491">
            <path id="Path_308" data-name="Path 308" d="M133.525,96.745c.918,0,2.592,1.194,3.633,2.012.542-.423.915-.748.915-.748s-3.153-2.764-4.548-2.764c-1.047,0-1.3.724-.745,1.7A1.222,1.222,0,0,1,133.525,96.745Z" fill="#ffffff"/>
          </g>
        </g>
      </g>
      <g id="Group_494" data-name="Group 494">
        <g id="Group_493" data-name="Group 493">
          <path id="Path_309" data-name="Path 309" d="M146.113,103.019h-3.944l3.691-10.051H149.8Z" fill="#85d0bc"/>
        </g>
      </g>
      <g id="Group_496" data-name="Group 496">
        <g id="Group_495" data-name="Group 495">
          <path id="Path_310" data-name="Path 310" d="M150.425,103.019h-3.944l3.691-10.051h3.944Z" fill="#f9cb99"/>
        </g>
      </g>
      <g id="shadow-2" data-name="shadow" opacity="0.35">
        <g id="Group_498" data-name="Group 498">
          <g id="Group_497" data-name="Group 497">
            <path id="Path_311" data-name="Path 311" d="M139.573,99.5a5.024,5.024,0,0,1,5.024-5.024h9.8a4.99,4.99,0,0,1,2.713.806,5.008,5.008,0,0,0-4.213-2.306h-9.8a5.017,5.017,0,0,0-2.716,9.24A4.993,4.993,0,0,1,139.573,99.5Z" fill="#ffffff"/>
          </g>
        </g>
      </g>
    </g>
    <g id="Group_511" data-name="Group 511">
      <g id="Group_504" data-name="Group 504">
        <g id="Group_501" data-name="Group 501">
          <g id="Group_500" data-name="Group 500">
            <path id="Path_312" data-name="Path 312" d="M152.9,103.519h-9.8a5.523,5.523,0,1,1,0-11.047h9.8a5.538,5.538,0,0,1,5.429,4.512c1.126-.9,2.985-2.239,4.1-2.239a1.39,1.39,0,0,1,1.435.791c.273.658-.031,1.538-.832,2.459.81.927,1.118,1.808.849,2.46a1.4,1.4,0,0,1-1.452.792c-1.13,0-2.984-1.326-4.1-2.219A5.544,5.544,0,0,1,152.9,103.519Zm-9.8-10.047a4.523,4.523,0,1,0,0,9.047h9.8a4.536,4.536,0,0,0,4.522-4.478l0-.035v-.031a4.533,4.533,0,0,0-4.523-4.5Zm15.559,4.537c1.415,1.161,3.066,2.238,3.774,2.238.285,0,.483-.066.527-.175.09-.216-.092-.853-.962-1.723a.5.5,0,0,1,0-.707c.861-.861,1.038-1.5.946-1.723-.067-.161-.408-.174-.511-.174C161.734,95.745,160.079,96.835,158.656,98.009Z" fill="#282b24"/>
          </g>
        </g>
        <g id="Group_503" data-name="Group 503">
          <g id="Group_502" data-name="Group 502">
            <path id="Path_313" data-name="Path 313" d="M133.525,101.247a1.4,1.4,0,0,1-1.452-.792c-.27-.652.039-1.533.849-2.46-.8-.921-1.1-1.8-.833-2.459a1.392,1.392,0,0,1,1.436-.791c1.507,0,4.328,2.406,4.878,2.889a.5.5,0,0,1,0,.752C138.067,98.679,135.083,101.247,133.525,101.247Zm0-5.5c-.1,0-.445.013-.512.174-.091.221.086.862.947,1.723a.5.5,0,0,1,0,.707c-.87.87-1.052,1.507-.963,1.723.045.109.243.175.528.175.79,0,2.573-1.25,3.775-2.238C136.091,97.01,134.3,95.745,133.525,95.745Z" fill="#282b24"/>
          </g>
        </g>
      </g>
      <g id="Group_506" data-name="Group 506">
        <g id="Group_505" data-name="Group 505">
          <path id="Path_314" data-name="Path 314" d="M146.266,103.419a.48.48,0,0,1-.17-.03.5.5,0,0,1-.3-.639l3.588-9.951a.5.5,0,0,1,.941.339l-3.588,9.951A.5.5,0,0,1,146.266,103.419Z" fill="#282b24"/>
        </g>
      </g>
      <g id="Group_508" data-name="Group 508">
        <g id="Group_507" data-name="Group 507">
          <path id="Path_315" data-name="Path 315" d="M142.018,103.419a.475.475,0,0,1-.169-.03.5.5,0,0,1-.3-.639l3.588-9.951a.5.5,0,1,1,.941.339l-3.589,9.951A.5.5,0,0,1,142.018,103.419Z" fill="#282b24"/>
        </g>
      </g>
      <g id="Group_510" data-name="Group 510">
        <g id="Group_509" data-name="Group 509">
          <path id="Path_316" data-name="Path 316" d="M150.514,103.519a.5.5,0,0,1-.47-.669l3.5-9.713a.5.5,0,0,1,.941.339l-3.5,9.713A.5.5,0,0,1,150.514,103.519Z" fill="#282b24"/>
        </g>
      </g>
    </g>
  </g>
</svg>
  <svg xmlns:xlink="http://www.w3.org/1999/xlink" version="1.1" id="Layer_1" viewBox="0 0 495 495" xml:space="preserve" x="190" y="145.0" width="30" height="30">
<rect y="227.5" style="fill:#2488FF;" width="495" height="40"/>
</svg>
  <svg fill="#2388ff" width="30" height="30" viewBox="0 0 256 256" id="Flat" x="400" y="145.0">

<g id="SVGRepo_bgCarrier" stroke-width="0"/>

<g id="SVGRepo_tracerCarrier" stroke-linecap="round" stroke-linejoin="round"/>

<g id="SVGRepo_iconCarrier"> <path d="M224,160a8.00008,8.00008,0,0,1-8,8H40a8,8,0,0,1,0-16H216A8.00008,8.00008,0,0,1,224,160ZM40,104H216a8,8,0,0,0,0-16H40a8,8,0,0,0,0,16Z"/> </g>

</svg>
  <svg xmlns:xlink="http://www.w3.org/1999/xlink" xmlns:serif="http://www.serif.com/" fill="#2388ff" width="60" height="60" viewBox="0 0 64 64" version="1.1" xml:space="preserve" style="fill-rule:evenodd;clip-rule:evenodd;stroke-linejoin:round;stroke-miterlimit:2;" stroke="#2388ff" x="450" y="130.0">

<g id="SVGRepo_bgCarrier" stroke-width="0"/>

<g id="SVGRepo_tracerCarrier" stroke-linecap="round" stroke-linejoin="round"/>

<g id="SVGRepo_iconCarrier"> <rect id="Icons" x="-640" y="-192" width="1280" height="800" style="fill:none;"/> <g id="Icons1" serif:id="Icons"> <g id="Strike"> </g> <g id="H1"> </g> <g id="H2"> </g> <g id="H3"> </g> <g id="list-ul"> </g> <g id="hamburger-1"> </g> <g id="hamburger-2"> </g> <g id="list-ol"> </g> <g id="list-task"> </g> <g id="trash"> </g> <g id="vertical-menu"> </g> <g id="horizontal-menu"> </g> <g id="sidebar-2"> </g> <g id="Pen"> </g> <g id="Pen1" serif:id="Pen"> </g> <g id="clock"> </g> <g id="external-link"> </g> <g id="hr"> </g> <g id="info"> </g> <g id="warning"> </g> <g id="plus-circle"> </g> <g id="minus-circle"> </g> <g id="vue"> </g> <g id="cog"> </g> <g id="logo"> </g> <path id="question" d="M27.952,42.387c0.043,-2.56 0.333,-4.583 0.871,-6.068c0.538,-1.485 1.636,-3.131 3.293,-4.939l4.229,-4.358c1.807,-2.044 2.711,-4.239 2.711,-6.585c0,-2.259 -0.592,-4.029 -1.775,-5.31c-1.184,-1.28 -2.905,-1.92 -5.165,-1.92c-2.195,0 -3.96,0.581 -5.294,1.743c-1.334,1.162 -2.001,2.722 -2.001,4.68l-5.972,0c0.043,-3.486 1.286,-6.3 3.728,-8.441c2.443,-2.141 5.622,-3.212 9.539,-3.212c4.067,0 7.236,1.092 9.506,3.277c2.271,2.184 3.406,5.181 3.406,8.99c0,3.765 -1.743,7.478 -5.229,11.136l-3.519,3.486c-1.571,1.743 -2.356,4.25 -2.356,7.521l-5.972,0Zm-0.258,10.233c0,-0.968 0.296,-1.781 0.887,-2.437c0.592,-0.656 1.469,-0.985 2.631,-0.985c1.162,0 2.045,0.329 2.647,0.985c0.603,0.656 0.904,1.469 0.904,2.437c0,0.969 -0.301,1.77 -0.904,2.405c-0.602,0.635 -1.485,0.952 -2.647,0.952c-1.162,0 -2.039,-0.317 -2.631,-0.952c-0.591,-0.635 -0.887,-1.436 -0.887,-2.405Z" style="fill-rule:nonzero;"/> <g id="radio-check"> </g> <g id="eye-slash"> </g> <g id="eye"> </g> <g id="toggle-off"> </g> <g id="shredder"> </g> <g id="spinner--loading--dots-" serif:id="spinner [loading, dots]"> </g> <g id="react"> </g> <g id="check-selected"> </g> <g id="turn-off"> </g> <g id="code-block"> </g> <g id="user"> </g> <g id="coffee-bean"> </g> <g id="coffee-beans"> <g id="coffee-bean1" serif:id="coffee-bean"> </g> </g> <g id="coffee-bean-filled"> </g> <g id="coffee-beans-filled"> <g id="coffee-bean2" serif:id="coffee-bean"> </g> </g> <g id="clipboard"> </g> <g id="clipboard-paste"> </g> <g id="clipboard-copy"> </g> <g id="Layer1"> </g> </g> </g>

</svg>
</svg>
