<svg xmlns="http://www.w3.org/2000/svg" width="870" height="310">
  <rect x="50" y="100" width="160" height="160" stroke="black" fill="none"/>
  <text x="30" y="193.0" style="font-size: 60px;" text_anchor="middle" dominant_baseline="middle">(</text>
  <g>
    <svg xmlns:xlink="http://www.w3.org/1999/xlink" version="1.1" id="Layer_1" x="91.0" y="55" viewBox="0 0 512 512" style="enable-background:new 0 0 512 512;" xml:space="preserve" width="40" height="40">
<path style="fill:#FF9842;" d="M406.069,114.759C388.413,17.655,300.138,0,256,0S123.586,17.655,105.931,114.759  s-44.138,220.69-44.138,220.69c88.276,70.621,167.724,70.621,194.207,70.621s105.931,0,194.207-70.621  C450.207,335.448,423.724,211.862,406.069,114.759z"/>
<path style="fill:#E6873C;" d="M282.22,1.949C272.579,0.584,263.607,0,256,0c-44.138,0-132.414,17.655-150.069,114.759  s-44.138,220.69-44.138,220.69c58.067,46.454,112.204,62.28,150.069,67.72V176.552C211.862,176.552,219.362,49.897,282.22,1.949z"/>
<path style="fill:#FF6472;" d="M300.138,326.621v30.82c0,7.883,5.226,14.81,12.804,16.975l73.226,20.921  c22.937,6.553,40.054,25.726,43.977,49.257l7.808,46.847c1.793,10.762-6.505,20.558-17.415,20.558H91.461  c-10.91,0-19.209-9.796-17.415-20.557l7.808-46.847c3.922-23.531,21.038-42.703,43.977-49.257l73.226-20.921  c7.58-2.166,12.804-9.094,12.804-16.975v-30.821H300.138z"/>
<path style="fill:#FAD7A5;" d="M256,476.69c54.771,0,101.148-35.665,117.362-85.01l-60.419-17.263  c-7.58-2.165-12.804-9.094-12.804-16.975v-30.82h-88.276v30.82c0,7.883-5.226,14.81-12.804,16.975l-60.419,17.263  C154.852,441.025,201.229,476.69,256,476.69z"/>
<path style="fill:#F0C891;" d="M300.138,335.448l-24.276-8.828h-64v30.82c0,7.883-5.226,14.81-12.804,16.975l-18.71,5.345v0.001  C254.764,415.251,300.138,335.448,300.138,335.448z"/>
<g>
	<path style="fill:#D25566;" d="M100.725,409.69c-9.753,9.111-16.59,21.223-18.87,34.905l-7.808,46.847   C72.253,502.204,80.551,512,91.461,512h49.78v-30.282c0-9.021-2.764-17.824-7.919-25.226L100.725,409.69z"/>
	<path style="fill:#D25566;" d="M411.275,409.69c9.753,9.111,16.59,21.223,18.87,34.905l7.808,46.847   c1.793,10.761-6.505,20.557-17.415,20.557h-49.78v-30.282c0-9.021,2.764-17.824,7.919-25.226L411.275,409.69z"/>
</g>
<path style="fill:#FFE1B4;" d="M388.413,203.034v-79.448H123.586v79.448c-9.75,0-17.655,7.904-17.655,17.655v17.655  c0,9.75,7.905,17.655,17.655,17.655c0.487,0,0.943-0.105,1.42-0.143c5.282,29.652,25.44,55.026,54.07,66.477l44.138,17.655  c21.046,8.418,44.524,8.418,65.57,0l44.138-17.655c28.631-11.452,48.789-36.825,54.07-66.477c0.477,0.039,0.934,0.143,1.42,0.143  c9.75,0,17.655-7.905,17.655-17.655V220.69C406.069,210.938,398.163,203.034,388.413,203.034z"/>
<path style="fill:#FAD7A5;" d="M123.586,123.586v79.448c-9.75,0-17.655,7.904-17.655,17.655v17.655  c0,9.75,7.905,17.655,17.655,17.655c0.487,0,0.943-0.105,1.42-0.143c5.282,29.652,25.44,55.026,54.07,66.477l44.138,17.655  c9.963,3.986,20.472,6.018,31.009,6.23c-29.95-13.291-52.14-34.766-66.545-52.321c-12.942-15.775-19.955-35.525-19.955-55.93  v-29.705c0-8.936,6.677-16.462,15.549-17.529l74.382-8.94l4.966,20.966c0,0,67.862-11.034,98.483-23.724l18.483-37.793v-17.655  H123.586z"/>
<path style="fill:#D7AF7D;" d="M256,300.138c-15.694,0-30.375-3.862-40.276-10.599c-4.03-2.741-5.078-8.233-2.332-12.263  c2.737-4.025,8.233-5.074,12.263-2.332c6.94,4.719,18.284,7.539,30.345,7.539c12.061,0,23.405-2.819,30.345-7.539  c4.039-2.745,9.522-1.703,12.263,2.332c2.745,4.03,1.698,9.522-2.332,12.263C286.374,296.276,271.694,300.138,256,300.138z"/>
<g>
	<path style="fill:#5A4137;" d="M189.793,238.345L189.793,238.345c-7.313,0-13.241-5.929-13.241-13.241v-8.828   c0-7.313,5.929-13.241,13.241-13.241l0,0c7.313,0,13.241,5.929,13.241,13.241v8.828   C203.034,232.416,197.105,238.345,189.793,238.345z"/>
	<path style="fill:#5A4137;" d="M322.207,238.345L322.207,238.345c-7.313,0-13.241-5.929-13.241-13.241v-8.828   c0-7.313,5.929-13.241,13.241-13.241l0,0c7.313,0,13.241,5.929,13.241,13.241v8.828   C335.448,232.416,329.519,238.345,322.207,238.345z"/>
</g>
<path style="fill:#FF9842;" d="M123.586,203.034c0-8.828,0-35.31,26.483-70.621l8.828,44.138l88.276-8.828l17.655-26.483  l8.828,44.138c0,0,72.276-13.241,79.448-17.655l17.655-26.483c0,0,17.655,26.483,17.655,61.793h17.655l1.628-62.521  c0.389-14.944-11.661-27.249-26.61-27.171l-248.809,1.281c-14.573,0.075-26.347,11.91-26.347,26.483v61.929H123.586z"/>
<g>
	<path style="fill:#FF6472;" d="M358.177,94.489l-66.325,2.802c-4.884,0.206-7.969-5.249-6.15-10.874L300.131,41.8   c1.82-5.626,7.513-8.243,11.352-5.215l52.126,41.107L358.177,94.489z"/>
	<path style="fill:#FF6472;" d="M371.772,98.886l52.126,41.107c3.839,3.027,9.533,0.412,11.352-5.215l14.429-44.617   c1.82-5.626-1.265-11.081-6.15-10.874l-66.325,2.802L371.772,98.886z"/>
</g>
<path style="fill:#C95264;" d="M416.728,108.786L315.936,76.192c-2.322-0.75-3.592-3.236-2.841-5.558s3.236-3.592,5.558-2.841  l100.792,32.594c2.322,0.75,3.592,3.236,2.841,5.558C421.536,108.265,419.05,109.536,416.728,108.786z"/>
<path style="fill:#A5465A;" d="M370.658,107.804l-16.799-5.432c-4.639-1.5-7.183-6.476-5.683-11.115l5.432-16.799  c1.5-4.639,6.477-7.183,11.115-5.683l16.799,5.432c4.639,1.5,7.183,6.476,5.683,11.115l-5.432,16.799  C380.273,106.759,375.297,109.303,370.658,107.804z"/>
<path style="fill:#D25566;" d="M125.831,395.339c-1.409,0.403-2.722,0.994-4.085,1.491l0.119,0.362  c19.094,58.11,72.999,97.153,134.134,97.153s115.04-39.043,134.135-97.153l0.119-0.362c-1.363-0.495-2.677-1.088-4.086-1.491  l-12.807-3.659C357.147,441.025,310.77,476.69,256,476.69s-101.148-35.665-117.362-85.01L125.831,395.339z"/>
<path style="fill:#E6873C;" d="M221.732,114.162l-89.455,0.46c-14.572,0.076-26.346,11.911-26.346,26.483v61.93h17.655  c0-8.828,0-35.31,26.483-70.621l8.828,44.138l53.394-5.34C213.166,161.567,215.649,139.73,221.732,114.162z"/>
<g>
</g>
<g>
</g>
<g>
</g>
<g>
</g>
<g>
</g>
<g>
</g>
<g>
</g>
<g>
</g>
<g>
</g>
<g>
</g>
<g>
</g>
<g>
</g>
<g>
</g>
<g>
</g>
<g>
</g>
</svg>
    <text x="141.0" y="75.0" style="font-size: 15px;" dominant_baseline="middle" text_anchor="middle">Faye</text>
  </g>
  <svg xmlns:xlink="http://www.w3.org/1999/xlink" height="120" width="120" version="1.1" id="Layer_1" viewBox="0 0 511.999 511.999" xml:space="preserve" x="70.0" y="110">
<g>
	<path style="fill:#EB87BF;" d="M356.966,161.198v14.952c0,55.762-45.204,100.965-100.965,100.965   c-55.762,0-100.966-45.203-100.966-100.965V67.974L356.966,161.198z"/>
	<polygon style="fill:#EB87BF;" points="256,114.585 356.966,161.198 356.966,67.974  "/>
	<polygon style="fill:#EB87BF;" points="324.558,82.936 311.181,13.569 209.232,92.994 256,114.585  "/>
	<path style="fill:#EB87BF;" d="M209.232,92.994l42.014-32.732l-59.935-46.693l-10.788,55.944c-0.634,3.286-0.935,6.558-0.955,9.788   l31.698,14.635L209.232,92.994z"/>
</g>
<path d="M256,332.738c-0.882,0-1.779-0.081-2.646-0.258c-0.868-0.176-1.723-0.434-2.551-0.773c-0.815-0.339-1.601-0.76-2.334-1.248  c-0.748-0.502-1.44-1.058-2.064-1.682c-0.624-0.638-1.194-1.33-1.682-2.062c-0.487-0.746-0.909-1.533-1.248-2.347  c-0.339-0.814-0.611-1.669-0.772-2.537c-0.178-0.882-0.271-1.764-0.271-2.646c0-0.896,0.094-1.777,0.271-2.659  c0.161-0.868,0.433-1.723,0.772-2.537c0.339-0.814,0.761-1.601,1.248-2.347c0.488-0.733,1.058-1.425,1.682-2.062  c0.624-0.624,1.316-1.194,2.064-1.682c0.733-0.488,1.518-0.909,2.334-1.248c0.828-0.339,1.682-0.597,2.551-0.773  c1.737-0.353,3.541-0.353,5.292,0c0.868,0.176,1.723,0.434,2.536,0.773c0.828,0.339,1.615,0.76,2.347,1.248  c0.746,0.488,1.438,1.058,2.062,1.682c0.625,0.638,1.195,1.33,1.682,2.062c0.488,0.746,0.909,1.533,1.248,2.347  s0.611,1.669,0.773,2.537c0.176,0.882,0.271,1.764,0.271,2.659c0,0.882-0.095,1.764-0.271,2.646  c-0.163,0.868-0.434,1.723-0.773,2.537c-0.339,0.814-0.76,1.601-1.248,2.347c-0.487,0.733-1.057,1.425-1.682,2.062  c-0.624,0.624-1.316,1.18-2.062,1.682c-0.733,0.488-1.52,0.909-2.347,1.248c-0.814,0.339-1.668,0.597-2.536,0.773  C257.777,332.657,256.882,332.738,256,332.738z"/>
<path style="fill:#7BD36A;" d="M364.109,476.952c-38.861,38.861-99.621,12.962-99.621,12.962s-25.899-60.76,12.962-99.621  s127.768-41.108,127.768-41.108S402.972,438.091,364.109,476.952z"/>
<path d="M340.585,427.391c-0.882,0-1.777-0.095-2.646-0.271s-1.723-0.434-2.537-0.773c-0.826-0.339-1.613-0.76-2.346-1.248  c-0.746-0.488-1.44-1.058-2.064-1.682c-0.624-0.638-1.194-1.33-1.681-2.062c-0.488-0.746-0.91-1.533-1.25-2.347  c-0.339-0.814-0.609-1.669-0.772-2.537c-0.176-0.882-0.271-1.764-0.271-2.646c0-0.896,0.095-1.777,0.271-2.659  c0.163-0.868,0.433-1.723,0.772-2.537c0.339-0.814,0.761-1.601,1.25-2.347c0.487-0.733,1.057-1.425,1.681-2.062  c0.624-0.624,1.317-1.18,2.064-1.682c0.733-0.488,1.52-0.909,2.346-1.248c0.815-0.339,1.669-0.597,2.537-0.773  c1.75-0.353,3.555-0.353,5.292,0c0.868,0.176,1.723,0.434,2.551,0.773c0.814,0.339,1.601,0.76,2.334,1.248  c0.746,0.502,1.44,1.058,2.064,1.682c0.624,0.638,1.194,1.33,1.681,2.062c0.488,0.746,0.909,1.533,1.248,2.347  c0.339,0.814,0.611,1.669,0.773,2.537c0.176,0.882,0.271,1.764,0.271,2.659c0,0.882-0.095,1.764-0.271,2.646  c-0.163,0.868-0.434,1.723-0.773,2.537s-0.76,1.601-1.248,2.347c-0.487,0.733-1.057,1.425-1.681,2.062  c-0.624,0.624-1.318,1.194-2.064,1.682c-0.733,0.488-1.52,0.909-2.334,1.248c-0.828,0.339-1.682,0.597-2.551,0.773  S341.468,427.391,340.585,427.391z"/>
<path style="fill:#00D7DF;" d="M147.89,476.952c38.861,38.861,99.621,12.962,99.621,12.962s25.899-60.76-12.962-99.621  s-127.768-41.108-127.768-41.108S109.029,438.091,147.89,476.952z"/>
<path d="M256,290.683c63.154,0,114.533-51.379,114.533-114.533v-14.952l0,0l0,0V67.974c0-4.628-2.358-8.936-6.256-11.43  c-3.894-2.491-8.794-2.829-12.998-0.889l-16.678,7.7l-10.096-52.355c-0.894-4.636-4.134-8.473-8.553-10.133  c-4.421-1.657-9.384-0.902-13.108,1.999l-51.596,40.196L199.65,2.865c-3.725-2.902-8.688-3.658-13.108-1.999  c-4.419,1.659-7.659,5.498-8.553,10.133l-9.319,48.324l-7.947-3.669c-4.202-1.939-9.102-1.604-12.998,0.889  c-3.898,2.494-6.256,6.802-6.256,11.43V176.15C141.467,239.304,192.846,290.683,256,290.683z M343.396,139.989l-55.025-25.404  l41.873-19.332l0,0l13.152-6.072V139.989z M309.223,75.07l-45.88,21.182L256,99.641l-20.86-9.631l24.445-19.045l0.001-0.001  l42.466-33.082L309.223,75.07z M200.441,37.882l28.727,22.381l-21.754,16.948l-13.368-6.171L200.441,37.882z M168.603,89.183  l29.713,13.718l5.168,2.387c0.02,0.01,0.039,0.019,0.06,0.028l0.961,0.442l1.075,0.497l0,0c0.001,0,0.003,0.001,0.003,0.001  l137.815,63.625v6.273c0,48.191-39.207,87.396-87.396,87.396s-87.396-39.206-87.396-87.396v-86.97H168.603z"/>
<path d="M414.812,339.59c-2.63-2.628-6.208-4.083-9.937-3.969c-3.799,0.095-92.403,2.799-135.306,43.419v-19.159  c0-7.494-6.076-13.568-13.568-13.568c-7.492,0-13.568,6.075-13.568,13.568v19.159c-42.903-40.621-131.506-43.325-135.306-43.42  c-3.753-0.107-7.311,1.341-9.937,3.969c-2.63,2.63-4.064,6.221-3.97,9.937c0.098,3.852,2.868,94.81,45.078,137.019  c19.833,19.834,43.978,25.456,64.987,25.454c26.477-0.001,47.972-8.933,49.549-9.605c1.149-0.49,2.21-1.137,3.168-1.906  c0.958,0.769,2.019,1.417,3.168,1.906c1.575,0.672,23.068,9.605,49.549,9.605c21.008,0,45.157-5.624,64.987-25.454  c42.208-42.208,44.979-133.168,45.078-137.019C418.875,345.812,417.441,342.219,414.812,339.59z M157.485,467.358L157.485,467.358  c-25.582-25.58-33.631-77.852-36.095-103.564c25.715,2.463,77.984,10.513,103.563,36.093c19.137,19.135,18.952,45.751,15.734,64.014  l-30.896-30.896c-5.3-5.298-13.889-5.298-19.19,0c-5.298,5.298-5.298,13.89,0,19.19l30.966,30.966  C203.35,486.424,176.765,486.637,157.485,467.358z M354.515,467.357L354.515,467.357c-19.134,19.135-45.75,18.951-64.014,15.733  l30.896-30.896c5.298-5.298,5.298-13.89,0-19.19c-5.3-5.298-13.889-5.298-19.19,0l-30.966,30.966  c-0.901-5.026-1.566-10.685-1.657-16.656c0.014-0.95,0.012-1.909,0.001-2.872c0.252-14.946,4.343-31.442,17.458-44.556  c25.605-25.605,77.956-33.645,103.639-36.1C387.859,393.31,378.435,443.438,354.515,467.357z"/>
<path d="M171.415,427.391c-0.882,0-1.779-0.095-2.659-0.271c-0.856-0.176-1.711-0.434-2.537-0.773  c-0.815-0.339-1.602-0.76-2.335-1.248c-0.746-0.488-1.438-1.058-2.062-1.682c-0.624-0.624-1.194-1.33-1.696-2.062  c-0.488-0.746-0.896-1.533-1.235-2.347c-0.339-0.814-0.611-1.669-0.773-2.537c-0.176-0.882-0.27-1.764-0.27-2.659  c0-0.882,0.094-1.764,0.27-2.646c0.163-0.868,0.434-1.723,0.773-2.537c0.339-0.814,0.746-1.601,1.235-2.347  c0.502-0.733,1.072-1.438,1.696-2.062c0.624-0.624,1.316-1.194,2.062-1.682c0.733-0.488,1.52-0.909,2.335-1.248  c0.826-0.339,1.681-0.597,2.537-0.773c1.75-0.353,3.554-0.353,5.304,0c0.87,0.176,1.725,0.434,2.537,0.773  c0.828,0.339,1.615,0.76,2.347,1.248c0.746,0.488,1.438,1.058,2.062,1.682c0.624,0.624,1.194,1.33,1.682,2.062  c0.488,0.746,0.909,1.533,1.248,2.347c0.339,0.814,0.611,1.669,0.773,2.537c0.176,0.882,0.271,1.764,0.271,2.646  c0,0.896-0.095,1.777-0.271,2.659c-0.163,0.868-0.434,1.723-0.773,2.537c-0.339,0.814-0.76,1.601-1.248,2.347  c-0.488,0.733-1.058,1.438-1.682,2.062c-0.624,0.624-1.316,1.194-2.062,1.682c-0.733,0.488-1.52,0.909-2.347,1.248  c-0.814,0.339-1.668,0.597-2.537,0.773C173.192,427.296,172.297,427.391,171.415,427.391z"/>
</svg>
  <text x="100.0" y="182.0" style="font-size: 45px; fill: white; font-weight: bold; stroke: black; stroke-width: 2px;" dominant_baseline="middle">88</text>
  <rect x="280" y="100" width="160" height="160" stroke="black" fill="none"/>
  <text x="440" y="193.0" style="font-size: 60px;" text_anchor="middle" dominant_baseline="middle">)</text>
  <g>
    <svg xmlns:xlink="http://www.w3.org/1999/xlink" version="1.1" id="Layer_1" x="321.0" y="55" viewBox="0 0 512 512" style="enable-background:new 0 0 512 512;" xml:space="preserve" width="40" height="40">
<path style="fill:#00BEA5;" d="M300.051,326.987v30.759c0,7.867,5.216,14.781,12.779,16.942l73.081,20.88  c22.892,6.54,39.975,25.675,43.89,49.159l7.793,46.754c1.79,10.741-6.492,20.517-17.38,20.517H91.787  c-10.888,0-19.171-9.777-17.38-20.517l7.793-46.754c3.914-23.485,20.997-42.619,43.89-49.159l73.081-20.88  c7.565-2.162,12.779-9.076,12.779-16.942v-30.759H300.051z"/>
<path style="fill:#B48764;" d="M256.001,441.519c37.232,0,68.291-26.398,75.503-61.495l-18.673-5.335  c-7.565-2.161-12.779-9.076-12.779-16.942v-30.759H211.95v30.759c0,7.867-5.216,14.781-12.779,16.942l-18.673,5.335  C187.709,415.122,218.769,441.519,256.001,441.519z"/>
<path style="fill:#966D50;" d="M300.051,335.798l-24.228-8.81H211.95v30.759c0,7.867-5.216,14.781-12.779,16.942l-18.673,5.335  v0.001C254.767,415.443,300.051,335.798,300.051,335.798z"/>
<path style="fill:#553732;" d="M379.343,36.253c2.203-15.418,18.722-7.342,18.722-7.342c-11.013-57.266-125.911-8.076-125.911-8.076  l10.646-11.013c-53.503-30.147-120.405,18.722-120.405,18.722c-20.924-6.608-73.785,13.95-73.785,64.24  c0,51.393,26.43,128.482,26.43,128.482h290.734c0,0,8.81-96.912,8.81-132.152S379.343,36.253,379.343,36.253z"/>
<path style="fill:#64463C;" d="M398.064,28.911c-36.342-45.519-104.07,10.646-104.07,10.646  c35.241,2.753,31.386,44.601,31.386,44.601c-7.709-12.665-19.272-10.462-19.272-10.462c-1.652,40.196-28.633,79.291-43.133,86.266  l0.735,61.304h142.063c0,0,8.81-96.912,8.81-132.152s-35.241-52.861-35.241-52.861C381.545,20.835,398.064,28.911,398.064,28.911z"/>
<path style="fill:#C39772;" d="M388.153,203.646v-79.291H123.849v79.291c-9.731,0-17.62,7.888-17.62,17.62v17.62  c0,9.731,7.889,17.62,17.62,17.62c0.486,0,0.942-0.105,1.417-0.143c5.272,29.593,25.39,54.917,53.963,66.346l44.051,17.62  c21.004,8.402,44.436,8.402,65.441,0l44.051-17.62c28.575-11.429,48.693-36.753,53.963-66.346c0.476,0.039,0.932,0.143,1.417,0.143  c9.731,0,17.62-7.889,17.62-17.62v-17.62C405.773,211.534,397.884,203.646,388.153,203.646z"/>
<path style="fill:#B48764;" d="M352.912,124.354H123.849v79.291c-9.731,0-17.62,7.888-17.62,17.62v17.62  c0,9.731,7.889,17.62,17.62,17.62c0.486,0,0.942-0.105,1.417-0.143c5.272,29.593,25.39,54.917,53.963,66.346l44.051,17.62  c9.943,3.978,20.432,6.006,30.948,6.218c-29.898-13.268-52.048-34.709-66.423-52.23c-12.912-15.74-19.907-35.449-19.907-55.808  v-64.659c0-9.137,6.981-16.876,16.094-17.533c14.479-1.044,27.869-5.533,36.767-5.533c26.43,0,61.671-8.81,114.532,8.81  c34.461,11.487,44.051-8.81,44.051-8.81L352.912,124.354z"/>
<path style="fill:#553732;" d="M132.659,203.646c0,0,0-44.051,26.43-70.481c0,0,17.115,6.46,52.861,0c22.851-4.13,27.165,0,27.165,0  s-1.836,18.171-27.165,26.43c0,0,26.43,17.62,52.861-8.81l-1.836,9.177c0,0,27.898,5.506,52.861-23.861  c0,0,9.545-0.735,19.456,5.873c17.292,11.528,35.241,4.894,35.241,4.894s17.62,21.536,17.62,56.777h17.62v-96.912H115.038v96.912  h17.62V203.646z"/>
<path style="fill:#966D50;" d="M256.001,300.557c-15.663,0-30.315-3.854-40.196-10.578c-4.022-2.736-5.068-8.217-2.327-12.238  c2.731-4.017,8.217-5.064,12.238-2.327c6.926,4.71,18.248,7.524,30.285,7.524c12.037,0,23.359-2.814,30.285-7.524  c4.031-2.74,9.503-1.699,12.238,2.327c2.74,4.022,1.695,9.503-2.327,12.238C286.315,296.703,271.663,300.557,256.001,300.557z"/>
<path style="fill:#64463C;" d="M315.836,136.102c0,0,9.545-0.735,19.456,5.874c17.292,11.528,35.241,4.894,35.241,4.894  s17.62,21.536,17.62,56.777h17.62v-96.912H299.467c-9.286,26.635-26.082,48.221-36.49,53.228  C262.975,159.962,290.873,165.468,315.836,136.102z"/>
<g>
	<path style="fill:#5A4137;" d="M189.925,238.886L189.925,238.886c-7.298,0-13.215-5.917-13.215-13.215v-8.81   c0-7.298,5.917-13.215,13.215-13.215l0,0c7.298,0,13.215,5.917,13.215,13.215v8.81C203.14,232.97,197.223,238.886,189.925,238.886z   "/>
	<path style="fill:#5A4137;" d="M322.077,238.886L322.077,238.886c-7.298,0-13.215-5.917-13.215-13.215v-8.81   c0-7.298,5.917-13.215,13.215-13.215l0,0c7.298,0,13.215,5.917,13.215,13.215v8.81C335.292,232.97,329.375,238.886,322.077,238.886   z"/>
</g>
<g>
	<path style="fill:#00AA9A;" d="M256.001,459.14c44.307,0,82.936-31.168,92.435-74.277l-16.922-4.835l-0.01-0.002   c-7.212,35.095-38.271,61.494-75.503,61.494s-68.291-26.398-75.503-61.494l-0.01,0.002l-16.922,4.835   C173.064,427.971,211.692,459.14,256.001,459.14z"/>
	<path style="fill:#00AA9A;" d="M101.032,409.893c-9.734,9.093-16.558,21.181-18.833,34.836l-7.793,46.754   C72.617,502.223,80.898,512,91.786,512h49.681v-30.222c0-9.003-2.759-17.789-7.904-25.176L101.032,409.893z"/>
	<path style="fill:#00AA9A;" d="M410.969,409.893c9.734,9.093,16.558,21.181,18.833,34.836l7.793,46.754   c1.79,10.74-6.492,20.517-17.38,20.517h-49.681v-30.222c0-9.003,2.759-17.789,7.904-25.176L410.969,409.893z"/>
</g>
<g>
</g>
<g>
</g>
<g>
</g>
<g>
</g>
<g>
</g>
<g>
</g>
<g>
</g>
<g>
</g>
<g>
</g>
<g>
</g>
<g>
</g>
<g>
</g>
<g>
</g>
<g>
</g>
<g>
</g>
</svg>
    <text x="371.0" y="75.0" style="font-size: 15px;" dominant_baseline="middle" text_anchor="middle">Mike</text>
  </g>
  <svg xmlns:xlink="http://www.w3.org/1999/xlink" height="120" width="120" version="1.1" id="Layer_1" viewBox="0 0 511.999 511.999" xml:space="preserve" x="300.0" y="110">
<g>
	<path style="fill:#EB87BF;" d="M356.966,161.198v14.952c0,55.762-45.204,100.965-100.965,100.965   c-55.762,0-100.966-45.203-100.966-100.965V67.974L356.966,161.198z"/>
	<polygon style="fill:#EB87BF;" points="256,114.585 356.966,161.198 356.966,67.974  "/>
	<polygon style="fill:#EB87BF;" points="324.558,82.936 311.181,13.569 209.232,92.994 256,114.585  "/>
	<path style="fill:#EB87BF;" d="M209.232,92.994l42.014-32.732l-59.935-46.693l-10.788,55.944c-0.634,3.286-0.935,6.558-0.955,9.788   l31.698,14.635L209.232,92.994z"/>
</g>
<path d="M256,332.738c-0.882,0-1.779-0.081-2.646-0.258c-0.868-0.176-1.723-0.434-2.551-0.773c-0.815-0.339-1.601-0.76-2.334-1.248  c-0.748-0.502-1.44-1.058-2.064-1.682c-0.624-0.638-1.194-1.33-1.682-2.062c-0.487-0.746-0.909-1.533-1.248-2.347  c-0.339-0.814-0.611-1.669-0.772-2.537c-0.178-0.882-0.271-1.764-0.271-2.646c0-0.896,0.094-1.777,0.271-2.659  c0.161-0.868,0.433-1.723,0.772-2.537c0.339-0.814,0.761-1.601,1.248-2.347c0.488-0.733,1.058-1.425,1.682-2.062  c0.624-0.624,1.316-1.194,2.064-1.682c0.733-0.488,1.518-0.909,2.334-1.248c0.828-0.339,1.682-0.597,2.551-0.773  c1.737-0.353,3.541-0.353,5.292,0c0.868,0.176,1.723,0.434,2.536,0.773c0.828,0.339,1.615,0.76,2.347,1.248  c0.746,0.488,1.438,1.058,2.062,1.682c0.625,0.638,1.195,1.33,1.682,2.062c0.488,0.746,0.909,1.533,1.248,2.347  s0.611,1.669,0.773,2.537c0.176,0.882,0.271,1.764,0.271,2.659c0,0.882-0.095,1.764-0.271,2.646  c-0.163,0.868-0.434,1.723-0.773,2.537c-0.339,0.814-0.76,1.601-1.248,2.347c-0.487,0.733-1.057,1.425-1.682,2.062  c-0.624,0.624-1.316,1.18-2.062,1.682c-0.733,0.488-1.52,0.909-2.347,1.248c-0.814,0.339-1.668,0.597-2.536,0.773  C257.777,332.657,256.882,332.738,256,332.738z"/>
<path style="fill:#7BD36A;" d="M364.109,476.952c-38.861,38.861-99.621,12.962-99.621,12.962s-25.899-60.76,12.962-99.621  s127.768-41.108,127.768-41.108S402.972,438.091,364.109,476.952z"/>
<path d="M340.585,427.391c-0.882,0-1.777-0.095-2.646-0.271s-1.723-0.434-2.537-0.773c-0.826-0.339-1.613-0.76-2.346-1.248  c-0.746-0.488-1.44-1.058-2.064-1.682c-0.624-0.638-1.194-1.33-1.681-2.062c-0.488-0.746-0.91-1.533-1.25-2.347  c-0.339-0.814-0.609-1.669-0.772-2.537c-0.176-0.882-0.271-1.764-0.271-2.646c0-0.896,0.095-1.777,0.271-2.659  c0.163-0.868,0.433-1.723,0.772-2.537c0.339-0.814,0.761-1.601,1.25-2.347c0.487-0.733,1.057-1.425,1.681-2.062  c0.624-0.624,1.317-1.18,2.064-1.682c0.733-0.488,1.52-0.909,2.346-1.248c0.815-0.339,1.669-0.597,2.537-0.773  c1.75-0.353,3.555-0.353,5.292,0c0.868,0.176,1.723,0.434,2.551,0.773c0.814,0.339,1.601,0.76,2.334,1.248  c0.746,0.502,1.44,1.058,2.064,1.682c0.624,0.638,1.194,1.33,1.681,2.062c0.488,0.746,0.909,1.533,1.248,2.347  c0.339,0.814,0.611,1.669,0.773,2.537c0.176,0.882,0.271,1.764,0.271,2.659c0,0.882-0.095,1.764-0.271,2.646  c-0.163,0.868-0.434,1.723-0.773,2.537s-0.76,1.601-1.248,2.347c-0.487,0.733-1.057,1.425-1.681,2.062  c-0.624,0.624-1.318,1.194-2.064,1.682c-0.733,0.488-1.52,0.909-2.334,1.248c-0.828,0.339-1.682,0.597-2.551,0.773  S341.468,427.391,340.585,427.391z"/>
<path style="fill:#00D7DF;" d="M147.89,476.952c38.861,38.861,99.621,12.962,99.621,12.962s25.899-60.76-12.962-99.621  s-127.768-41.108-127.768-41.108S109.029,438.091,147.89,476.952z"/>
<path d="M256,290.683c63.154,0,114.533-51.379,114.533-114.533v-14.952l0,0l0,0V67.974c0-4.628-2.358-8.936-6.256-11.43  c-3.894-2.491-8.794-2.829-12.998-0.889l-16.678,7.7l-10.096-52.355c-0.894-4.636-4.134-8.473-8.553-10.133  c-4.421-1.657-9.384-0.902-13.108,1.999l-51.596,40.196L199.65,2.865c-3.725-2.902-8.688-3.658-13.108-1.999  c-4.419,1.659-7.659,5.498-8.553,10.133l-9.319,48.324l-7.947-3.669c-4.202-1.939-9.102-1.604-12.998,0.889  c-3.898,2.494-6.256,6.802-6.256,11.43V176.15C141.467,239.304,192.846,290.683,256,290.683z M343.396,139.989l-55.025-25.404  l41.873-19.332l0,0l13.152-6.072V139.989z M309.223,75.07l-45.88,21.182L256,99.641l-20.86-9.631l24.445-19.045l0.001-0.001  l42.466-33.082L309.223,75.07z M200.441,37.882l28.727,22.381l-21.754,16.948l-13.368-6.171L200.441,37.882z M168.603,89.183  l29.713,13.718l5.168,2.387c0.02,0.01,0.039,0.019,0.06,0.028l0.961,0.442l1.075,0.497l0,0c0.001,0,0.003,0.001,0.003,0.001  l137.815,63.625v6.273c0,48.191-39.207,87.396-87.396,87.396s-87.396-39.206-87.396-87.396v-86.97H168.603z"/>
<path d="M414.812,339.59c-2.63-2.628-6.208-4.083-9.937-3.969c-3.799,0.095-92.403,2.799-135.306,43.419v-19.159  c0-7.494-6.076-13.568-13.568-13.568c-7.492,0-13.568,6.075-13.568,13.568v19.159c-42.903-40.621-131.506-43.325-135.306-43.42  c-3.753-0.107-7.311,1.341-9.937,3.969c-2.63,2.63-4.064,6.221-3.97,9.937c0.098,3.852,2.868,94.81,45.078,137.019  c19.833,19.834,43.978,25.456,64.987,25.454c26.477-0.001,47.972-8.933,49.549-9.605c1.149-0.49,2.21-1.137,3.168-1.906  c0.958,0.769,2.019,1.417,3.168,1.906c1.575,0.672,23.068,9.605,49.549,9.605c21.008,0,45.157-5.624,64.987-25.454  c42.208-42.208,44.979-133.168,45.078-137.019C418.875,345.812,417.441,342.219,414.812,339.59z M157.485,467.358L157.485,467.358  c-25.582-25.58-33.631-77.852-36.095-103.564c25.715,2.463,77.984,10.513,103.563,36.093c19.137,19.135,18.952,45.751,15.734,64.014  l-30.896-30.896c-5.3-5.298-13.889-5.298-19.19,0c-5.298,5.298-5.298,13.89,0,19.19l30.966,30.966  C203.35,486.424,176.765,486.637,157.485,467.358z M354.515,467.357L354.515,467.357c-19.134,19.135-45.75,18.951-64.014,15.733  l30.896-30.896c5.298-5.298,5.298-13.89,0-19.19c-5.3-5.298-13.889-5.298-19.19,0l-30.966,30.966  c-0.901-5.026-1.566-10.685-1.657-16.656c0.014-0.95,0.012-1.909,0.001-2.872c0.252-14.946,4.343-31.442,17.458-44.556  c25.605-25.605,77.956-33.645,103.639-36.1C387.859,393.31,378.435,443.438,354.515,467.357z"/>
<path d="M171.415,427.391c-0.882,0-1.779-0.095-2.659-0.271c-0.856-0.176-1.711-0.434-2.537-0.773  c-0.815-0.339-1.602-0.76-2.335-1.248c-0.746-0.488-1.438-1.058-2.062-1.682c-0.624-0.624-1.194-1.33-1.696-2.062  c-0.488-0.746-0.896-1.533-1.235-2.347c-0.339-0.814-0.611-1.669-0.773-2.537c-0.176-0.882-0.27-1.764-0.27-2.659  c0-0.882,0.094-1.764,0.27-2.646c0.163-0.868,0.434-1.723,0.773-2.537c0.339-0.814,0.746-1.601,1.235-2.347  c0.502-0.733,1.072-1.438,1.696-2.062c0.624-0.624,1.316-1.194,2.062-1.682c0.733-0.488,1.52-0.909,2.335-1.248  c0.826-0.339,1.681-0.597,2.537-0.773c1.75-0.353,3.554-0.353,5.304,0c0.87,0.176,1.725,0.434,2.537,0.773  c0.828,0.339,1.615,0.76,2.347,1.248c0.746,0.488,1.438,1.058,2.062,1.682c0.624,0.624,1.194,1.33,1.682,2.062  c0.488,0.746,0.909,1.533,1.248,2.347c0.339,0.814,0.611,1.669,0.773,2.537c0.176,0.882,0.271,1.764,0.271,2.646  c0,0.896-0.095,1.777-0.271,2.659c-0.163,0.868-0.434,1.723-0.773,2.537c-0.339,0.814-0.76,1.601-1.248,2.347  c-0.488,0.733-1.058,1.438-1.682,2.062c-0.624,0.624-1.316,1.194-2.062,1.682c-0.733,0.488-1.52,0.909-2.347,1.248  c-0.814,0.339-1.668,0.597-2.537,0.773C173.192,427.296,172.297,427.391,171.415,427.391z"/>
</svg>
  <text x="330.0" y="182.0" style="font-size: 45px; fill: white; font-weight: bold; stroke: black; stroke-width: 2px;" dominant_baseline="middle">48</text>
  <rect x="510" y="100" width="160" height="120.0" stroke="black" fill="none"/>
  <g>
    <text x="565.5" y="75.0" style="font-size: 15px;" dominant_baseline="middle" text_anchor="middle">bouquet</text>
  </g>
  <svg xmlns:xlink="http://www.w3.org/1999/xlink" width="30" height="30" viewBox="0 0 128 128" aria-hidden="true" role="img" class="iconify iconify--noto" preserveAspectRatio="xMidYMid meet" x="530.0" y="120.0">
    <path d="M71.74 3.32c-.76-.57-4.04 4.69-5.07 10.28c-.82 4.45-1.05 16.35-.56 22.24c.56 6.8 12.11 28.3 12.11 28.3L82.3 86.1l12.81 1.69s3.8-46.32 4.22-48.43c.42-2.11 2.44-11.54 4.13-17.64c1.4-5.04 4.32-13.61 3.61-14.03c-.7-.42-3.1 2.82-4.93 4.22s-7.29 5.68-9.76 8.87C88.16 26.22 84.4 35 84.4 35s-9.71-19.19-10.7-22.24c-1.4-4.37-1.4-9.02-1.96-9.44z" fill="#94a61a"/>
    <path d="M98.39 21.24c-.61.17-5.73 9.76-6.76 13.89s-3.38 10.32-3.75 20.55c-.32 8.85-.56 13.61-.56 13.61l3.28 3s-.19-15.86.66-21.96c.84-6.1 3.12-15.32 4.13-18.68c1.22-4.02 3.66-10.59 3-10.41z" fill="#b5d024"/>
    <path d="M52.59 35.98l-3.94 3.47s8.92 8.82 10.79 11.54c1.88 2.72 4.88 7.98 4.88 7.98s-8.07-7.6-10.79-10.14c-2.72-2.53-6.66-5.07-6.66-5.07l-1.69 4.69l9.1 7.7L65.4 87.64s-10.28-4.55-11.97-5.49s-9.67-4.88-9.67-4.88l-.56 4.22s4.22 3.57 7.13 4.88s18.44 9.43 18.44 9.43l14.59.05l15.2 14.92s3.1 4.22 4.32 5.91c1.22 1.69 2.91 3.85 3.38 3.94c.47.09 3.1-1.78 4.32-2.72s2.63-2.06 2.63-2.63s-3.57-4.04-3.57-4.04L93.6 88.82l-2.72-17.08s-2.16-7.6-3.38-14.45c-.76-4.27-1.78-13.89-1.78-13.89l-4.22.56s1.06 8.05 1.97 13.61c1.22 7.41 2.91 14.27 2.91 14.27s-5.54-10.32-7.7-13.8c-2.16-3.47-9.29-14.64-9.29-14.64l-3.75 1.97s6.29 9.76 7.88 12.39c1.6 2.63 7.51 12.95 7.51 12.95l-7.98-7.04s-7.04-11.07-9.1-14.17c-2.07-3.1-11.36-13.52-11.36-13.52z" fill="#737f39"/>
    <path d="M12.89 92.38c-.45.81 4.13.28 8.26.56s15.77 1.97 22.99 3.19s18.69 3.15 24.64 4.04c5.68.84 9.1-1.51 11.05-1.97c2.98-.7 3.73 0 3.73 0l6.29 6.95s2.02 5.42 3.38 9.01c1.6 4.22 3.57 11.92 4.5 12.11s5.35-3.57 5.63-4.22c.28-.66-4.13-11.92-4.6-13.51s-1.97-5.82-1.97-5.82s5.15 5.35 7.13 7.41c2.35 2.44 4.5 4.32 5.44 4.5s4.5-5.26 4.5-6.1s-4.5-4.5-6.01-6.01c-1.5-1.5-5.35-6.66-5.35-6.66s-2.16-6.66-2.35-8.17c-.19-1.5.11-6.33 1.14-14.68c.5-4.04 5.62-24.45 8.52-32.62c2.91-8.17 5.82-16.89 5.16-17.27c-.66-.38-4.69 4.79-8.07 7.88s-6.38 5.91-7.6 8.35c-1.22 2.44-5.9 9.24-7.23 19.71c-1.03 8.17-1.42 9.1-1.31 11.64c.28 6.48 2.1 11.57.66 12.2c-1.5.66-5.44-5.73-7.13-8.45c-1.69-2.72-9.1-12.48-16.14-16.71s-17.64-7.41-19.43-7.7c-1.78-.28-11.73-6.38-11.73-6.38l-10.23 3.66s-3.66-.47-5.26-.66s-4.41-.94-4.41-.38s5.32 5.73 6.44 6.85c1.13 1.13 6.98 7.32 8.85 8.73S48.75 77.54 49.4 78.02c3.38 2.53 9.42 8.54 15.72 11.24c5.26 2.25 10.7 2.98 10.7 4.01c0 1.03-2.53.28-5.63-.35c-2.42-.49-4.93-1.34-13.66-3.45c-7.57-1.83-12.11-2.16-13.05-2.16c-.94 0-15.37-.16-17.91.03s-10.28.74-12.68 5.04z" fill="#96a51d"/>
    <path d="M30.44 53.25c-.06.5 4.04 2.72 7.98 4.97c3.94 2.25 14.17 7.41 19.15 11.26c4.97 3.85 10.61 10.04 13.42 12.67c2.74 2.56 9.85 7.7 12.29 8.82c2.44 1.13 6.76 3.66 6.76 3.66l.66-.66s-7.13-5.54-8.92-6.95s-6.38-5.91-9.1-8.54c-2.72-2.63-8.67-8.12-13.23-11.54c-6.01-4.5-18.49-10.42-21.49-11.64s-7.43-2.8-7.52-2.05z" fill="#b5cf23"/>
    <path d="M100.36 87.32c-.44-.35-7.23 4.32-9.48 5.73c-2.25 1.41-7.98 4.5-7.98 5.07s5.82 7.7 6.29 7.7s6.1-3.28 8.35-4.5s6.57-3.47 6.66-4.04c.1-.58-3.37-9.59-3.84-9.96z" fill="#e3dea1"/>
    <path d="M36.59 3.32L24.88 13.57s.7 3.91 1.55 6.29c1.6 4.5 5.23 8.89 5.23 8.89s14.36 14.36 18.86 11.17s-1.1-26.49-1.1-26.49s-2.63-4.06-6.55-6.87c-3.45-2.49-6.28-3.24-6.28-3.24z" fill="#a099f7"/>
    <path d="M27.6 3.25c-3.89 2.43-2.72 10.46-2.72 10.46s2.71-1.82 6.31-.4c3.57 1.41 8.28 6.87 9.03 6.22c.75-.66-3.97-6.36-4.04-11c-.04-2.92 1.27-5 1.27-5S31.36.9 27.6 3.25z" fill="#7e43a4"/>
    <path d="M74.18 10.4s-2.12 2.31-3.24 6.85c-1.6 6.48-.8 15.35.89 20.41c1.69 5.07 6.46 10.77 12.76 9.85c6.48-.94 8.88-8.14 9.71-13.14c.92-5.51.33-15.91-4.08-22.29c-3.07-4.44-3.21-3.71-3.21-3.71L74.18 10.4z" fill="#fe6656"/>
    <path d="M80.51 5.62c-4.92.48-7.56 6.52-7.56 6.52s3.75-1.6 6.01 1.92c1.81 2.83 2.42 10.04 3.26 9.95s1.15-7.79 1.81-9.9c1.38-4.43 5.26-3.24 5.26-3.24s-3.05-5.82-8.78-5.25z" fill="#cd1734"/>
    <path d="M52.8 12.15L47 15.96s-2.86 7.4 1.74 17.2S60.48 50.33 69.3 45.6c7.48-4 4.2-17.35.95-24.22c-2.25-4.76-5.93-9.01-9.95-11.22c-3.99-2.19-7.5 1.99-7.5 1.99z" fill="#feb804"/>
    <path d="M51.61 9.4c-3.75 1.81-4.6 6.56-4.6 6.56s2.53.57 5 1.92c3.88 2.13 6.41 8.42 7.14 8c.73-.42-1.67-6.91-.48-11.54c.65-2.54 1.64-4.23 1.64-4.23s-4.32-2.83-8.7-.71z" fill="#ff7537"/>
    <path d="M20.77 28.56l-4.6 4.32s.66 3.38 4.04 7.81c3.65 4.78 6.57 6.64 6.57 6.64s6.76.94 11.07 1.5c4.32.56 10.89 1.22 10.89 1.22s2.35-3.19 2.16-7.04s-4.79-12.39-12.86-17.18c-6.85-4.06-10.04-4.5-14.08-4.41s-3.19 7.14-3.19 7.14z" fill="#fd8695"/>
    <path d="M16.93 24.11c-2.51 3.39-.75 8.78-.75 8.78s2.94-1.26 5.68-.7c3 .61 9.39 4.46 9.85 3.85c.57-.74-4.36-5.26-5.77-9.53c-.93-2.82-.84-5.12-.84-5.12s-6.09-.1-8.17 2.72z" fill="#e658a4"/>
    <path d="M16.39 65.24l-1.2 7.25s1.69 4.5 8.31 9.95c4.3 3.54 9.67 6.01 16.52 5.54s8.54-4.13 9.29-5.91c.75-1.78 2.95-7.97-6.76-15.86c-8.78-7.13-17.08-6.62-19.9-6.48c-3.31.16-6.26 5.51-6.26 5.51z" fill="#e84b8b"/>
    <path d="M14.3 63.1c-1.68 3.84 1.08 9.85 1.08 9.85s2.07-2.18 6.01-2.44c3.61-.23 9.76 3.28 10.27 2.12c.38-.89-6.23-4.93-7.97-7.93c-1.62-2.81-1.03-4.97-1.03-4.97s-6.86-.05-8.36 3.37z" fill="#af0c1b"/>
  </svg>
  <svg xmlns:xlink="http://www.w3.org/1999/xlink" width="30" height="30" viewBox="0 0 128 128" aria-hidden="true" role="img" class="iconify iconify--noto" preserveAspectRatio="xMidYMid meet" x="570.0" y="120.0">
    <path d="M71.74 3.32c-.76-.57-4.04 4.69-5.07 10.28c-.82 4.45-1.05 16.35-.56 22.24c.56 6.8 12.11 28.3 12.11 28.3L82.3 86.1l12.81 1.69s3.8-46.32 4.22-48.43c.42-2.11 2.44-11.54 4.13-17.64c1.4-5.04 4.32-13.61 3.61-14.03c-.7-.42-3.1 2.82-4.93 4.22s-7.29 5.68-9.76 8.87C88.16 26.22 84.4 35 84.4 35s-9.71-19.19-10.7-22.24c-1.4-4.37-1.4-9.02-1.96-9.44z" fill="#94a61a"/>
    <path d="M98.39 21.24c-.61.17-5.73 9.76-6.76 13.89s-3.38 10.32-3.75 20.55c-.32 8.85-.56 13.61-.56 13.61l3.28 3s-.19-15.86.66-21.96c.84-6.1 3.12-15.32 4.13-18.68c1.22-4.02 3.66-10.59 3-10.41z" fill="#b5d024"/>
    <path d="M52.59 35.98l-3.94 3.47s8.92 8.82 10.79 11.54c1.88 2.72 4.88 7.98 4.88 7.98s-8.07-7.6-10.79-10.14c-2.72-2.53-6.66-5.07-6.66-5.07l-1.69 4.69l9.1 7.7L65.4 87.64s-10.28-4.55-11.97-5.49s-9.67-4.88-9.67-4.88l-.56 4.22s4.22 3.57 7.13 4.88s18.44 9.43 18.44 9.43l14.59.05l15.2 14.92s3.1 4.22 4.32 5.91c1.22 1.69 2.91 3.85 3.38 3.94c.47.09 3.1-1.78 4.32-2.72s2.63-2.06 2.63-2.63s-3.57-4.04-3.57-4.04L93.6 88.82l-2.72-17.08s-2.16-7.6-3.38-14.45c-.76-4.27-1.78-13.89-1.78-13.89l-4.22.56s1.06 8.05 1.97 13.61c1.22 7.41 2.91 14.27 2.91 14.27s-5.54-10.32-7.7-13.8c-2.16-3.47-9.29-14.64-9.29-14.64l-3.75 1.97s6.29 9.76 7.88 12.39c1.6 2.63 7.51 12.95 7.51 12.95l-7.98-7.04s-7.04-11.07-9.1-14.17c-2.07-3.1-11.36-13.52-11.36-13.52z" fill="#737f39"/>
    <path d="M12.89 92.38c-.45.81 4.13.28 8.26.56s15.77 1.97 22.99 3.19s18.69 3.15 24.64 4.04c5.68.84 9.1-1.51 11.05-1.97c2.98-.7 3.73 0 3.73 0l6.29 6.95s2.02 5.42 3.38 9.01c1.6 4.22 3.57 11.92 4.5 12.11s5.35-3.57 5.63-4.22c.28-.66-4.13-11.92-4.6-13.51s-1.97-5.82-1.97-5.82s5.15 5.35 7.13 7.41c2.35 2.44 4.5 4.32 5.44 4.5s4.5-5.26 4.5-6.1s-4.5-4.5-6.01-6.01c-1.5-1.5-5.35-6.66-5.35-6.66s-2.16-6.66-2.35-8.17c-.19-1.5.11-6.33 1.14-14.68c.5-4.04 5.62-24.45 8.52-32.62c2.91-8.17 5.82-16.89 5.16-17.27c-.66-.38-4.69 4.79-8.07 7.88s-6.38 5.91-7.6 8.35c-1.22 2.44-5.9 9.24-7.23 19.71c-1.03 8.17-1.42 9.1-1.31 11.64c.28 6.48 2.1 11.57.66 12.2c-1.5.66-5.44-5.73-7.13-8.45c-1.69-2.72-9.1-12.48-16.14-16.71s-17.64-7.41-19.43-7.7c-1.78-.28-11.73-6.38-11.73-6.38l-10.23 3.66s-3.66-.47-5.26-.66s-4.41-.94-4.41-.38s5.32 5.73 6.44 6.85c1.13 1.13 6.98 7.32 8.85 8.73S48.75 77.54 49.4 78.02c3.38 2.53 9.42 8.54 15.72 11.24c5.26 2.25 10.7 2.98 10.7 4.01c0 1.03-2.53.28-5.63-.35c-2.42-.49-4.93-1.34-13.66-3.45c-7.57-1.83-12.11-2.16-13.05-2.16c-.94 0-15.37-.16-17.91.03s-10.28.74-12.68 5.04z" fill="#96a51d"/>
    <path d="M30.44 53.25c-.06.5 4.04 2.72 7.98 4.97c3.94 2.25 14.17 7.41 19.15 11.26c4.97 3.85 10.61 10.04 13.42 12.67c2.74 2.56 9.85 7.7 12.29 8.82c2.44 1.13 6.76 3.66 6.76 3.66l.66-.66s-7.13-5.54-8.92-6.95s-6.38-5.91-9.1-8.54c-2.72-2.63-8.67-8.12-13.23-11.54c-6.01-4.5-18.49-10.42-21.49-11.64s-7.43-2.8-7.52-2.05z" fill="#b5cf23"/>
    <path d="M100.36 87.32c-.44-.35-7.23 4.32-9.48 5.73c-2.25 1.41-7.98 4.5-7.98 5.07s5.82 7.7 6.29 7.7s6.1-3.28 8.35-4.5s6.57-3.47 6.66-4.04c.1-.58-3.37-9.59-3.84-9.96z" fill="#e3dea1"/>
    <path d="M36.59 3.32L24.88 13.57s.7 3.91 1.55 6.29c1.6 4.5 5.23 8.89 5.23 8.89s14.36 14.36 18.86 11.17s-1.1-26.49-1.1-26.49s-2.63-4.06-6.55-6.87c-3.45-2.49-6.28-3.24-6.28-3.24z" fill="#a099f7"/>
    <path d="M27.6 3.25c-3.89 2.43-2.72 10.46-2.72 10.46s2.71-1.82 6.31-.4c3.57 1.41 8.28 6.87 9.03 6.22c.75-.66-3.97-6.36-4.04-11c-.04-2.92 1.27-5 1.27-5S31.36.9 27.6 3.25z" fill="#7e43a4"/>
    <path d="M74.18 10.4s-2.12 2.31-3.24 6.85c-1.6 6.48-.8 15.35.89 20.41c1.69 5.07 6.46 10.77 12.76 9.85c6.48-.94 8.88-8.14 9.71-13.14c.92-5.51.33-15.91-4.08-22.29c-3.07-4.44-3.21-3.71-3.21-3.71L74.18 10.4z" fill="#fe6656"/>
    <path d="M80.51 5.62c-4.92.48-7.56 6.52-7.56 6.52s3.75-1.6 6.01 1.92c1.81 2.83 2.42 10.04 3.26 9.95s1.15-7.79 1.81-9.9c1.38-4.43 5.26-3.24 5.26-3.24s-3.05-5.82-8.78-5.25z" fill="#cd1734"/>
    <path d="M52.8 12.15L47 15.96s-2.86 7.4 1.74 17.2S60.48 50.33 69.3 45.6c7.48-4 4.2-17.35.95-24.22c-2.25-4.76-5.93-9.01-9.95-11.22c-3.99-2.19-7.5 1.99-7.5 1.99z" fill="#feb804"/>
    <path d="M51.61 9.4c-3.75 1.81-4.6 6.56-4.6 6.56s2.53.57 5 1.92c3.88 2.13 6.41 8.42 7.14 8c.73-.42-1.67-6.91-.48-11.54c.65-2.54 1.64-4.23 1.64-4.23s-4.32-2.83-8.7-.71z" fill="#ff7537"/>
    <path d="M20.77 28.56l-4.6 4.32s.66 3.38 4.04 7.81c3.65 4.78 6.57 6.64 6.57 6.64s6.76.94 11.07 1.5c4.32.56 10.89 1.22 10.89 1.22s2.35-3.19 2.16-7.04s-4.79-12.39-12.86-17.18c-6.85-4.06-10.04-4.5-14.08-4.41s-3.19 7.14-3.19 7.14z" fill="#fd8695"/>
    <path d="M16.93 24.11c-2.51 3.39-.75 8.78-.75 8.78s2.94-1.26 5.68-.7c3 .61 9.39 4.46 9.85 3.85c.57-.74-4.36-5.26-5.77-9.53c-.93-2.82-.84-5.12-.84-5.12s-6.09-.1-8.17 2.72z" fill="#e658a4"/>
    <path d="M16.39 65.24l-1.2 7.25s1.69 4.5 8.31 9.95c4.3 3.54 9.67 6.01 16.52 5.54s8.54-4.13 9.29-5.91c.75-1.78 2.95-7.97-6.76-15.86c-8.78-7.13-17.08-6.62-19.9-6.48c-3.31.16-6.26 5.51-6.26 5.51z" fill="#e84b8b"/>
    <path d="M14.3 63.1c-1.68 3.84 1.08 9.85 1.08 9.85s2.07-2.18 6.01-2.44c3.61-.23 9.76 3.28 10.27 2.12c.38-.89-6.23-4.93-7.97-7.93c-1.62-2.81-1.03-4.97-1.03-4.97s-6.86-.05-8.36 3.37z" fill="#af0c1b"/>
  </svg>
  <svg xmlns:xlink="http://www.w3.org/1999/xlink" width="30" height="30" viewBox="0 0 128 128" aria-hidden="true" role="img" class="iconify iconify--noto" preserveAspectRatio="xMidYMid meet" x="610.0" y="120.0">
    <path d="M71.74 3.32c-.76-.57-4.04 4.69-5.07 10.28c-.82 4.45-1.05 16.35-.56 22.24c.56 6.8 12.11 28.3 12.11 28.3L82.3 86.1l12.81 1.69s3.8-46.32 4.22-48.43c.42-2.11 2.44-11.54 4.13-17.64c1.4-5.04 4.32-13.61 3.61-14.03c-.7-.42-3.1 2.82-4.93 4.22s-7.29 5.68-9.76 8.87C88.16 26.22 84.4 35 84.4 35s-9.71-19.19-10.7-22.24c-1.4-4.37-1.4-9.02-1.96-9.44z" fill="#94a61a"/>
    <path d="M98.39 21.24c-.61.17-5.73 9.76-6.76 13.89s-3.38 10.32-3.75 20.55c-.32 8.85-.56 13.61-.56 13.61l3.28 3s-.19-15.86.66-21.96c.84-6.1 3.12-15.32 4.13-18.68c1.22-4.02 3.66-10.59 3-10.41z" fill="#b5d024"/>
    <path d="M52.59 35.98l-3.94 3.47s8.92 8.82 10.79 11.54c1.88 2.72 4.88 7.98 4.88 7.98s-8.07-7.6-10.79-10.14c-2.72-2.53-6.66-5.07-6.66-5.07l-1.69 4.69l9.1 7.7L65.4 87.64s-10.28-4.55-11.97-5.49s-9.67-4.88-9.67-4.88l-.56 4.22s4.22 3.57 7.13 4.88s18.44 9.43 18.44 9.43l14.59.05l15.2 14.92s3.1 4.22 4.32 5.91c1.22 1.69 2.91 3.85 3.38 3.94c.47.09 3.1-1.78 4.32-2.72s2.63-2.06 2.63-2.63s-3.57-4.04-3.57-4.04L93.6 88.82l-2.72-17.08s-2.16-7.6-3.38-14.45c-.76-4.27-1.78-13.89-1.78-13.89l-4.22.56s1.06 8.05 1.97 13.61c1.22 7.41 2.91 14.27 2.91 14.27s-5.54-10.32-7.7-13.8c-2.16-3.47-9.29-14.64-9.29-14.64l-3.75 1.97s6.29 9.76 7.88 12.39c1.6 2.63 7.51 12.95 7.51 12.95l-7.98-7.04s-7.04-11.07-9.1-14.17c-2.07-3.1-11.36-13.52-11.36-13.52z" fill="#737f39"/>
    <path d="M12.89 92.38c-.45.81 4.13.28 8.26.56s15.77 1.97 22.99 3.19s18.69 3.15 24.64 4.04c5.68.84 9.1-1.51 11.05-1.97c2.98-.7 3.73 0 3.73 0l6.29 6.95s2.02 5.42 3.38 9.01c1.6 4.22 3.57 11.92 4.5 12.11s5.35-3.57 5.63-4.22c.28-.66-4.13-11.92-4.6-13.51s-1.97-5.82-1.97-5.82s5.15 5.35 7.13 7.41c2.35 2.44 4.5 4.32 5.44 4.5s4.5-5.26 4.5-6.1s-4.5-4.5-6.01-6.01c-1.5-1.5-5.35-6.66-5.35-6.66s-2.16-6.66-2.35-8.17c-.19-1.5.11-6.33 1.14-14.68c.5-4.04 5.62-24.45 8.52-32.62c2.91-8.17 5.82-16.89 5.16-17.27c-.66-.38-4.69 4.79-8.07 7.88s-6.38 5.91-7.6 8.35c-1.22 2.44-5.9 9.24-7.23 19.71c-1.03 8.17-1.42 9.1-1.31 11.64c.28 6.48 2.1 11.57.66 12.2c-1.5.66-5.44-5.73-7.13-8.45c-1.69-2.72-9.1-12.48-16.14-16.71s-17.64-7.41-19.43-7.7c-1.78-.28-11.73-6.38-11.73-6.38l-10.23 3.66s-3.66-.47-5.26-.66s-4.41-.94-4.41-.38s5.32 5.73 6.44 6.85c1.13 1.13 6.98 7.32 8.85 8.73S48.75 77.54 49.4 78.02c3.38 2.53 9.42 8.54 15.72 11.24c5.26 2.25 10.7 2.98 10.7 4.01c0 1.03-2.53.28-5.63-.35c-2.42-.49-4.93-1.34-13.66-3.45c-7.57-1.83-12.11-2.16-13.05-2.16c-.94 0-15.37-.16-17.91.03s-10.28.74-12.68 5.04z" fill="#96a51d"/>
    <path d="M30.44 53.25c-.06.5 4.04 2.72 7.98 4.97c3.94 2.25 14.17 7.41 19.15 11.26c4.97 3.85 10.61 10.04 13.42 12.67c2.74 2.56 9.85 7.7 12.29 8.82c2.44 1.13 6.76 3.66 6.76 3.66l.66-.66s-7.13-5.54-8.92-6.95s-6.38-5.91-9.1-8.54c-2.72-2.63-8.67-8.12-13.23-11.54c-6.01-4.5-18.49-10.42-21.49-11.64s-7.43-2.8-7.52-2.05z" fill="#b5cf23"/>
    <path d="M100.36 87.32c-.44-.35-7.23 4.32-9.48 5.73c-2.25 1.41-7.98 4.5-7.98 5.07s5.82 7.7 6.29 7.7s6.1-3.28 8.35-4.5s6.57-3.47 6.66-4.04c.1-.58-3.37-9.59-3.84-9.96z" fill="#e3dea1"/>
    <path d="M36.59 3.32L24.88 13.57s.7 3.91 1.55 6.29c1.6 4.5 5.23 8.89 5.23 8.89s14.36 14.36 18.86 11.17s-1.1-26.49-1.1-26.49s-2.63-4.06-6.55-6.87c-3.45-2.49-6.28-3.24-6.28-3.24z" fill="#a099f7"/>
    <path d="M27.6 3.25c-3.89 2.43-2.72 10.46-2.72 10.46s2.71-1.82 6.31-.4c3.57 1.41 8.28 6.87 9.03 6.22c.75-.66-3.97-6.36-4.04-11c-.04-2.92 1.27-5 1.27-5S31.36.9 27.6 3.25z" fill="#7e43a4"/>
    <path d="M74.18 10.4s-2.12 2.31-3.24 6.85c-1.6 6.48-.8 15.35.89 20.41c1.69 5.07 6.46 10.77 12.76 9.85c6.48-.94 8.88-8.14 9.71-13.14c.92-5.51.33-15.91-4.08-22.29c-3.07-4.44-3.21-3.71-3.21-3.71L74.18 10.4z" fill="#fe6656"/>
    <path d="M80.51 5.62c-4.92.48-7.56 6.52-7.56 6.52s3.75-1.6 6.01 1.92c1.81 2.83 2.42 10.04 3.26 9.95s1.15-7.79 1.81-9.9c1.38-4.43 5.26-3.24 5.26-3.24s-3.05-5.82-8.78-5.25z" fill="#cd1734"/>
    <path d="M52.8 12.15L47 15.96s-2.86 7.4 1.74 17.2S60.48 50.33 69.3 45.6c7.48-4 4.2-17.35.95-24.22c-2.25-4.76-5.93-9.01-9.95-11.22c-3.99-2.19-7.5 1.99-7.5 1.99z" fill="#feb804"/>
    <path d="M51.61 9.4c-3.75 1.81-4.6 6.56-4.6 6.56s2.53.57 5 1.92c3.88 2.13 6.41 8.42 7.14 8c.73-.42-1.67-6.91-.48-11.54c.65-2.54 1.64-4.23 1.64-4.23s-4.32-2.83-8.7-.71z" fill="#ff7537"/>
    <path d="M20.77 28.56l-4.6 4.32s.66 3.38 4.04 7.81c3.65 4.78 6.57 6.64 6.57 6.64s6.76.94 11.07 1.5c4.32.56 10.89 1.22 10.89 1.22s2.35-3.19 2.16-7.04s-4.79-12.39-12.86-17.18c-6.85-4.06-10.04-4.5-14.08-4.41s-3.19 7.14-3.19 7.14z" fill="#fd8695"/>
    <path d="M16.93 24.11c-2.51 3.39-.75 8.78-.75 8.78s2.94-1.26 5.68-.7c3 .61 9.39 4.46 9.85 3.85c.57-.74-4.36-5.26-5.77-9.53c-.93-2.82-.84-5.12-.84-5.12s-6.09-.1-8.17 2.72z" fill="#e658a4"/>
    <path d="M16.39 65.24l-1.2 7.25s1.69 4.5 8.31 9.95c4.3 3.54 9.67 6.01 16.52 5.54s8.54-4.13 9.29-5.91c.75-1.78 2.95-7.97-6.76-15.86c-8.78-7.13-17.08-6.62-19.9-6.48c-3.31.16-6.26 5.51-6.26 5.51z" fill="#e84b8b"/>
    <path d="M14.3 63.1c-1.68 3.84 1.08 9.85 1.08 9.85s2.07-2.18 6.01-2.44c3.61-.23 9.76 3.28 10.27 2.12c.38-.89-6.23-4.93-7.97-7.93c-1.62-2.81-1.03-4.97-1.03-4.97s-6.86-.05-8.36 3.37z" fill="#af0c1b"/>
  </svg>
  <svg xmlns:xlink="http://www.w3.org/1999/xlink" width="30" height="30" viewBox="0 0 128 128" aria-hidden="true" role="img" class="iconify iconify--noto" preserveAspectRatio="xMidYMid meet" x="530.0" y="160.0">
    <path d="M71.74 3.32c-.76-.57-4.04 4.69-5.07 10.28c-.82 4.45-1.05 16.35-.56 22.24c.56 6.8 12.11 28.3 12.11 28.3L82.3 86.1l12.81 1.69s3.8-46.32 4.22-48.43c.42-2.11 2.44-11.54 4.13-17.64c1.4-5.04 4.32-13.61 3.61-14.03c-.7-.42-3.1 2.82-4.93 4.22s-7.29 5.68-9.76 8.87C88.16 26.22 84.4 35 84.4 35s-9.71-19.19-10.7-22.24c-1.4-4.37-1.4-9.02-1.96-9.44z" fill="#94a61a"/>
    <path d="M98.39 21.24c-.61.17-5.73 9.76-6.76 13.89s-3.38 10.32-3.75 20.55c-.32 8.85-.56 13.61-.56 13.61l3.28 3s-.19-15.86.66-21.96c.84-6.1 3.12-15.32 4.13-18.68c1.22-4.02 3.66-10.59 3-10.41z" fill="#b5d024"/>
    <path d="M52.59 35.98l-3.94 3.47s8.92 8.82 10.79 11.54c1.88 2.72 4.88 7.98 4.88 7.98s-8.07-7.6-10.79-10.14c-2.72-2.53-6.66-5.07-6.66-5.07l-1.69 4.69l9.1 7.7L65.4 87.64s-10.28-4.55-11.97-5.49s-9.67-4.88-9.67-4.88l-.56 4.22s4.22 3.57 7.13 4.88s18.44 9.43 18.44 9.43l14.59.05l15.2 14.92s3.1 4.22 4.32 5.91c1.22 1.69 2.91 3.85 3.38 3.94c.47.09 3.1-1.78 4.32-2.72s2.63-2.06 2.63-2.63s-3.57-4.04-3.57-4.04L93.6 88.82l-2.72-17.08s-2.16-7.6-3.38-14.45c-.76-4.27-1.78-13.89-1.78-13.89l-4.22.56s1.06 8.05 1.97 13.61c1.22 7.41 2.91 14.27 2.91 14.27s-5.54-10.32-7.7-13.8c-2.16-3.47-9.29-14.64-9.29-14.64l-3.75 1.97s6.29 9.76 7.88 12.39c1.6 2.63 7.51 12.95 7.51 12.95l-7.98-7.04s-7.04-11.07-9.1-14.17c-2.07-3.1-11.36-13.52-11.36-13.52z" fill="#737f39"/>
    <path d="M12.89 92.38c-.45.81 4.13.28 8.26.56s15.77 1.97 22.99 3.19s18.69 3.15 24.64 4.04c5.68.84 9.1-1.51 11.05-1.97c2.98-.7 3.73 0 3.73 0l6.29 6.95s2.02 5.42 3.38 9.01c1.6 4.22 3.57 11.92 4.5 12.11s5.35-3.57 5.63-4.22c.28-.66-4.13-11.92-4.6-13.51s-1.97-5.82-1.97-5.82s5.15 5.35 7.13 7.41c2.35 2.44 4.5 4.32 5.44 4.5s4.5-5.26 4.5-6.1s-4.5-4.5-6.01-6.01c-1.5-1.5-5.35-6.66-5.35-6.66s-2.16-6.66-2.35-8.17c-.19-1.5.11-6.33 1.14-14.68c.5-4.04 5.62-24.45 8.52-32.62c2.91-8.17 5.82-16.89 5.16-17.27c-.66-.38-4.69 4.79-8.07 7.88s-6.38 5.91-7.6 8.35c-1.22 2.44-5.9 9.24-7.23 19.71c-1.03 8.17-1.42 9.1-1.31 11.64c.28 6.48 2.1 11.57.66 12.2c-1.5.66-5.44-5.73-7.13-8.45c-1.69-2.72-9.1-12.48-16.14-16.71s-17.64-7.41-19.43-7.7c-1.78-.28-11.73-6.38-11.73-6.38l-10.23 3.66s-3.66-.47-5.26-.66s-4.41-.94-4.41-.38s5.32 5.73 6.44 6.85c1.13 1.13 6.98 7.32 8.85 8.73S48.75 77.54 49.4 78.02c3.38 2.53 9.42 8.54 15.72 11.24c5.26 2.25 10.7 2.98 10.7 4.01c0 1.03-2.53.28-5.63-.35c-2.42-.49-4.93-1.34-13.66-3.45c-7.57-1.83-12.11-2.16-13.05-2.16c-.94 0-15.37-.16-17.91.03s-10.28.74-12.68 5.04z" fill="#96a51d"/>
    <path d="M30.44 53.25c-.06.5 4.04 2.72 7.98 4.97c3.94 2.25 14.17 7.41 19.15 11.26c4.97 3.85 10.61 10.04 13.42 12.67c2.74 2.56 9.85 7.7 12.29 8.82c2.44 1.13 6.76 3.66 6.76 3.66l.66-.66s-7.13-5.54-8.92-6.95s-6.38-5.91-9.1-8.54c-2.72-2.63-8.67-8.12-13.23-11.54c-6.01-4.5-18.49-10.42-21.49-11.64s-7.43-2.8-7.52-2.05z" fill="#b5cf23"/>
    <path d="M100.36 87.32c-.44-.35-7.23 4.32-9.48 5.73c-2.25 1.41-7.98 4.5-7.98 5.07s5.82 7.7 6.29 7.7s6.1-3.28 8.35-4.5s6.57-3.47 6.66-4.04c.1-.58-3.37-9.59-3.84-9.96z" fill="#e3dea1"/>
    <path d="M36.59 3.32L24.88 13.57s.7 3.91 1.55 6.29c1.6 4.5 5.23 8.89 5.23 8.89s14.36 14.36 18.86 11.17s-1.1-26.49-1.1-26.49s-2.63-4.06-6.55-6.87c-3.45-2.49-6.28-3.24-6.28-3.24z" fill="#a099f7"/>
    <path d="M27.6 3.25c-3.89 2.43-2.72 10.46-2.72 10.46s2.71-1.82 6.31-.4c3.57 1.41 8.28 6.87 9.03 6.22c.75-.66-3.97-6.36-4.04-11c-.04-2.92 1.27-5 1.27-5S31.36.9 27.6 3.25z" fill="#7e43a4"/>
    <path d="M74.18 10.4s-2.12 2.31-3.24 6.85c-1.6 6.48-.8 15.35.89 20.41c1.69 5.07 6.46 10.77 12.76 9.85c6.48-.94 8.88-8.14 9.71-13.14c.92-5.51.33-15.91-4.08-22.29c-3.07-4.44-3.21-3.71-3.21-3.71L74.18 10.4z" fill="#fe6656"/>
    <path d="M80.51 5.62c-4.92.48-7.56 6.52-7.56 6.52s3.75-1.6 6.01 1.92c1.81 2.83 2.42 10.04 3.26 9.95s1.15-7.79 1.81-9.9c1.38-4.43 5.26-3.24 5.26-3.24s-3.05-5.82-8.78-5.25z" fill="#cd1734"/>
    <path d="M52.8 12.15L47 15.96s-2.86 7.4 1.74 17.2S60.48 50.33 69.3 45.6c7.48-4 4.2-17.35.95-24.22c-2.25-4.76-5.93-9.01-9.95-11.22c-3.99-2.19-7.5 1.99-7.5 1.99z" fill="#feb804"/>
    <path d="M51.61 9.4c-3.75 1.81-4.6 6.56-4.6 6.56s2.53.57 5 1.92c3.88 2.13 6.41 8.42 7.14 8c.73-.42-1.67-6.91-.48-11.54c.65-2.54 1.64-4.23 1.64-4.23s-4.32-2.83-8.7-.71z" fill="#ff7537"/>
    <path d="M20.77 28.56l-4.6 4.32s.66 3.38 4.04 7.81c3.65 4.78 6.57 6.64 6.57 6.64s6.76.94 11.07 1.5c4.32.56 10.89 1.22 10.89 1.22s2.35-3.19 2.16-7.04s-4.79-12.39-12.86-17.18c-6.85-4.06-10.04-4.5-14.08-4.41s-3.19 7.14-3.19 7.14z" fill="#fd8695"/>
    <path d="M16.93 24.11c-2.51 3.39-.75 8.78-.75 8.78s2.94-1.26 5.68-.7c3 .61 9.39 4.46 9.85 3.85c.57-.74-4.36-5.26-5.77-9.53c-.93-2.82-.84-5.12-.84-5.12s-6.09-.1-8.17 2.72z" fill="#e658a4"/>
    <path d="M16.39 65.24l-1.2 7.25s1.69 4.5 8.31 9.95c4.3 3.54 9.67 6.01 16.52 5.54s8.54-4.13 9.29-5.91c.75-1.78 2.95-7.97-6.76-15.86c-8.78-7.13-17.08-6.62-19.9-6.48c-3.31.16-6.26 5.51-6.26 5.51z" fill="#e84b8b"/>
    <path d="M14.3 63.1c-1.68 3.84 1.08 9.85 1.08 9.85s2.07-2.18 6.01-2.44c3.61-.23 9.76 3.28 10.27 2.12c.38-.89-6.23-4.93-7.97-7.93c-1.62-2.81-1.03-4.97-1.03-4.97s-6.86-.05-8.36 3.37z" fill="#af0c1b"/>
  </svg>
  <svg xmlns:xlink="http://www.w3.org/1999/xlink" width="30" height="30" viewBox="0 0 128 128" aria-hidden="true" role="img" class="iconify iconify--noto" preserveAspectRatio="xMidYMid meet" x="570.0" y="160.0">
    <path d="M71.74 3.32c-.76-.57-4.04 4.69-5.07 10.28c-.82 4.45-1.05 16.35-.56 22.24c.56 6.8 12.11 28.3 12.11 28.3L82.3 86.1l12.81 1.69s3.8-46.32 4.22-48.43c.42-2.11 2.44-11.54 4.13-17.64c1.4-5.04 4.32-13.61 3.61-14.03c-.7-.42-3.1 2.82-4.93 4.22s-7.29 5.68-9.76 8.87C88.16 26.22 84.4 35 84.4 35s-9.71-19.19-10.7-22.24c-1.4-4.37-1.4-9.02-1.96-9.44z" fill="#94a61a"/>
    <path d="M98.39 21.24c-.61.17-5.73 9.76-6.76 13.89s-3.38 10.32-3.75 20.55c-.32 8.85-.56 13.61-.56 13.61l3.28 3s-.19-15.86.66-21.96c.84-6.1 3.12-15.32 4.13-18.68c1.22-4.02 3.66-10.59 3-10.41z" fill="#b5d024"/>
    <path d="M52.59 35.98l-3.94 3.47s8.92 8.82 10.79 11.54c1.88 2.72 4.88 7.98 4.88 7.98s-8.07-7.6-10.79-10.14c-2.72-2.53-6.66-5.07-6.66-5.07l-1.69 4.69l9.1 7.7L65.4 87.64s-10.28-4.55-11.97-5.49s-9.67-4.88-9.67-4.88l-.56 4.22s4.22 3.57 7.13 4.88s18.44 9.43 18.44 9.43l14.59.05l15.2 14.92s3.1 4.22 4.32 5.91c1.22 1.69 2.91 3.85 3.38 3.94c.47.09 3.1-1.78 4.32-2.72s2.63-2.06 2.63-2.63s-3.57-4.04-3.57-4.04L93.6 88.82l-2.72-17.08s-2.16-7.6-3.38-14.45c-.76-4.27-1.78-13.89-1.78-13.89l-4.22.56s1.06 8.05 1.97 13.61c1.22 7.41 2.91 14.27 2.91 14.27s-5.54-10.32-7.7-13.8c-2.16-3.47-9.29-14.64-9.29-14.64l-3.75 1.97s6.29 9.76 7.88 12.39c1.6 2.63 7.51 12.95 7.51 12.95l-7.98-7.04s-7.04-11.07-9.1-14.17c-2.07-3.1-11.36-13.52-11.36-13.52z" fill="#737f39"/>
    <path d="M12.89 92.38c-.45.81 4.13.28 8.26.56s15.77 1.97 22.99 3.19s18.69 3.15 24.64 4.04c5.68.84 9.1-1.51 11.05-1.97c2.98-.7 3.73 0 3.73 0l6.29 6.95s2.02 5.42 3.38 9.01c1.6 4.22 3.57 11.92 4.5 12.11s5.35-3.57 5.63-4.22c.28-.66-4.13-11.92-4.6-13.51s-1.97-5.82-1.97-5.82s5.15 5.35 7.13 7.41c2.35 2.44 4.5 4.32 5.44 4.5s4.5-5.26 4.5-6.1s-4.5-4.5-6.01-6.01c-1.5-1.5-5.35-6.66-5.35-6.66s-2.16-6.66-2.35-8.17c-.19-1.5.11-6.33 1.14-14.68c.5-4.04 5.62-24.45 8.52-32.62c2.91-8.17 5.82-16.89 5.16-17.27c-.66-.38-4.69 4.79-8.07 7.88s-6.38 5.91-7.6 8.35c-1.22 2.44-5.9 9.24-7.23 19.71c-1.03 8.17-1.42 9.1-1.31 11.64c.28 6.48 2.1 11.57.66 12.2c-1.5.66-5.44-5.73-7.13-8.45c-1.69-2.72-9.1-12.48-16.14-16.71s-17.64-7.41-19.43-7.7c-1.78-.28-11.73-6.38-11.73-6.38l-10.23 3.66s-3.66-.47-5.26-.66s-4.41-.94-4.41-.38s5.32 5.73 6.44 6.85c1.13 1.13 6.98 7.32 8.85 8.73S48.75 77.54 49.4 78.02c3.38 2.53 9.42 8.54 15.72 11.24c5.26 2.25 10.7 2.98 10.7 4.01c0 1.03-2.53.28-5.63-.35c-2.42-.49-4.93-1.34-13.66-3.45c-7.57-1.83-12.11-2.16-13.05-2.16c-.94 0-15.37-.16-17.91.03s-10.28.74-12.68 5.04z" fill="#96a51d"/>
    <path d="M30.44 53.25c-.06.5 4.04 2.72 7.98 4.97c3.94 2.25 14.17 7.41 19.15 11.26c4.97 3.85 10.61 10.04 13.42 12.67c2.74 2.56 9.85 7.7 12.29 8.82c2.44 1.13 6.76 3.66 6.76 3.66l.66-.66s-7.13-5.54-8.92-6.95s-6.38-5.91-9.1-8.54c-2.72-2.63-8.67-8.12-13.23-11.54c-6.01-4.5-18.49-10.42-21.49-11.64s-7.43-2.8-7.52-2.05z" fill="#b5cf23"/>
    <path d="M100.36 87.32c-.44-.35-7.23 4.32-9.48 5.73c-2.25 1.41-7.98 4.5-7.98 5.07s5.82 7.7 6.29 7.7s6.1-3.28 8.35-4.5s6.57-3.47 6.66-4.04c.1-.58-3.37-9.59-3.84-9.96z" fill="#e3dea1"/>
    <path d="M36.59 3.32L24.88 13.57s.7 3.91 1.55 6.29c1.6 4.5 5.23 8.89 5.23 8.89s14.36 14.36 18.86 11.17s-1.1-26.49-1.1-26.49s-2.63-4.06-6.55-6.87c-3.45-2.49-6.28-3.24-6.28-3.24z" fill="#a099f7"/>
    <path d="M27.6 3.25c-3.89 2.43-2.72 10.46-2.72 10.46s2.71-1.82 6.31-.4c3.57 1.41 8.28 6.87 9.03 6.22c.75-.66-3.97-6.36-4.04-11c-.04-2.92 1.27-5 1.27-5S31.36.9 27.6 3.25z" fill="#7e43a4"/>
    <path d="M74.18 10.4s-2.12 2.31-3.24 6.85c-1.6 6.48-.8 15.35.89 20.41c1.69 5.07 6.46 10.77 12.76 9.85c6.48-.94 8.88-8.14 9.71-13.14c.92-5.51.33-15.91-4.08-22.29c-3.07-4.44-3.21-3.71-3.21-3.71L74.18 10.4z" fill="#fe6656"/>
    <path d="M80.51 5.62c-4.92.48-7.56 6.52-7.56 6.52s3.75-1.6 6.01 1.92c1.81 2.83 2.42 10.04 3.26 9.95s1.15-7.79 1.81-9.9c1.38-4.43 5.26-3.24 5.26-3.24s-3.05-5.82-8.78-5.25z" fill="#cd1734"/>
    <path d="M52.8 12.15L47 15.96s-2.86 7.4 1.74 17.2S60.48 50.33 69.3 45.6c7.48-4 4.2-17.35.95-24.22c-2.25-4.76-5.93-9.01-9.95-11.22c-3.99-2.19-7.5 1.99-7.5 1.99z" fill="#feb804"/>
    <path d="M51.61 9.4c-3.75 1.81-4.6 6.56-4.6 6.56s2.53.57 5 1.92c3.88 2.13 6.41 8.42 7.14 8c.73-.42-1.67-6.91-.48-11.54c.65-2.54 1.64-4.23 1.64-4.23s-4.32-2.83-8.7-.71z" fill="#ff7537"/>
    <path d="M20.77 28.56l-4.6 4.32s.66 3.38 4.04 7.81c3.65 4.78 6.57 6.64 6.57 6.64s6.76.94 11.07 1.5c4.32.56 10.89 1.22 10.89 1.22s2.35-3.19 2.16-7.04s-4.79-12.39-12.86-17.18c-6.85-4.06-10.04-4.5-14.08-4.41s-3.19 7.14-3.19 7.14z" fill="#fd8695"/>
    <path d="M16.93 24.11c-2.51 3.39-.75 8.78-.75 8.78s2.94-1.26 5.68-.7c3 .61 9.39 4.46 9.85 3.85c.57-.74-4.36-5.26-5.77-9.53c-.93-2.82-.84-5.12-.84-5.12s-6.09-.1-8.17 2.72z" fill="#e658a4"/>
    <path d="M16.39 65.24l-1.2 7.25s1.69 4.5 8.31 9.95c4.3 3.54 9.67 6.01 16.52 5.54s8.54-4.13 9.29-5.91c.75-1.78 2.95-7.97-6.76-15.86c-8.78-7.13-17.08-6.62-19.9-6.48c-3.31.16-6.26 5.51-6.26 5.51z" fill="#e84b8b"/>
    <path d="M14.3 63.1c-1.68 3.84 1.08 9.85 1.08 9.85s2.07-2.18 6.01-2.44c3.61-.23 9.76 3.28 10.27 2.12c.38-.89-6.23-4.93-7.97-7.93c-1.62-2.81-1.03-4.97-1.03-4.97s-6.86-.05-8.36 3.37z" fill="#af0c1b"/>
  </svg>
  <svg xmlns:xlink="http://www.w3.org/1999/xlink" version="1.1" id="Layer_1" viewBox="0 0 495 495" xml:space="preserve" x="230" y="165.0" width="30" height="30">
<rect y="227.5" style="fill:#2488FF;" width="495" height="40"/>
</svg>
  <svg fill="#2388ff" width="30" height="30" viewBox="-3 0 19 19" class="cf-icon-svg" x="460" y="165.0">

<g id="SVGRepo_bgCarrier" stroke-width="0"/>

<g id="SVGRepo_tracerCarrier" stroke-linecap="round" stroke-linejoin="round"/>

<g id="SVGRepo_iconCarrier">

<path d="M12.711 9.182a1.03 1.03 0 0 1-1.03 1.03H1.319a1.03 1.03 0 1 1 0-2.059h10.364a1.03 1.03 0 0 1 1.029 1.03zM5.03 4.586a1.47 1.47 0 1 1 1.47 1.47 1.47 1.47 0 0 1-1.47-1.47zm2.94 9.193a1.47 1.47 0 1 1-1.47-1.47 1.47 1.47 0 0 1 1.47 1.47z"/>

</g>

</svg>
  <svg fill="#2388ff" width="30" height="30" viewBox="0 0 256 256" id="Flat" x="710" y="165.0">

<g id="SVGRepo_bgCarrier" stroke-width="0"/>

<g id="SVGRepo_tracerCarrier" stroke-linecap="round" stroke-linejoin="round"/>

<g id="SVGRepo_iconCarrier"> <path d="M224,160a8.00008,8.00008,0,0,1-8,8H40a8,8,0,0,1,0-16H216A8.00008,8.00008,0,0,1,224,160ZM40,104H216a8,8,0,0,0,0-16H40a8,8,0,0,0,0,16Z"/> </g>

</svg>
  <svg xmlns:xlink="http://www.w3.org/1999/xlink" xmlns:serif="http://www.serif.com/" fill="#2388ff" width="60" height="60" viewBox="0 0 64 64" version="1.1" xml:space="preserve" style="fill-rule:evenodd;clip-rule:evenodd;stroke-linejoin:round;stroke-miterlimit:2;" stroke="#2388ff" x="760" y="150.0">

<g id="SVGRepo_bgCarrier" stroke-width="0"/>

<g id="SVGRepo_tracerCarrier" stroke-linecap="round" stroke-linejoin="round"/>

<g id="SVGRepo_iconCarrier"> <rect id="Icons" x="-640" y="-192" width="1280" height="800" style="fill:none;"/> <g id="Icons1" serif:id="Icons"> <g id="Strike"> </g> <g id="H1"> </g> <g id="H2"> </g> <g id="H3"> </g> <g id="list-ul"> </g> <g id="hamburger-1"> </g> <g id="hamburger-2"> </g> <g id="list-ol"> </g> <g id="list-task"> </g> <g id="trash"> </g> <g id="vertical-menu"> </g> <g id="horizontal-menu"> </g> <g id="sidebar-2"> </g> <g id="Pen"> </g> <g id="Pen1" serif:id="Pen"> </g> <g id="clock"> </g> <g id="external-link"> </g> <g id="hr"> </g> <g id="info"> </g> <g id="warning"> </g> <g id="plus-circle"> </g> <g id="minus-circle"> </g> <g id="vue"> </g> <g id="cog"> </g> <g id="logo"> </g> <path id="question" d="M27.952,42.387c0.043,-2.56 0.333,-4.583 0.871,-6.068c0.538,-1.485 1.636,-3.131 3.293,-4.939l4.229,-4.358c1.807,-2.044 2.711,-4.239 2.711,-6.585c0,-2.259 -0.592,-4.029 -1.775,-5.31c-1.184,-1.28 -2.905,-1.92 -5.165,-1.92c-2.195,0 -3.96,0.581 -5.294,1.743c-1.334,1.162 -2.001,2.722 -2.001,4.68l-5.972,0c0.043,-3.486 1.286,-6.3 3.728,-8.441c2.443,-2.141 5.622,-3.212 9.539,-3.212c4.067,0 7.236,1.092 9.506,3.277c2.271,2.184 3.406,5.181 3.406,8.99c0,3.765 -1.743,7.478 -5.229,11.136l-3.519,3.486c-1.571,1.743 -2.356,4.25 -2.356,7.521l-5.972,0Zm-0.258,10.233c0,-0.968 0.296,-1.781 0.887,-2.437c0.592,-0.656 1.469,-0.985 2.631,-0.985c1.162,0 2.045,0.329 2.647,0.985c0.603,0.656 0.904,1.469 0.904,2.437c0,0.969 -0.301,1.77 -0.904,2.405c-0.602,0.635 -1.485,0.952 -2.647,0.952c-1.162,0 -2.039,-0.317 -2.631,-0.952c-0.591,-0.635 -0.887,-1.436 -0.887,-2.405Z" style="fill-rule:nonzero;"/> <g id="radio-check"> </g> <g id="eye-slash"> </g> <g id="eye"> </g> <g id="toggle-off"> </g> <g id="shredder"> </g> <g id="spinner--loading--dots-" serif:id="spinner [loading, dots]"> </g> <g id="react"> </g> <g id="check-selected"> </g> <g id="turn-off"> </g> <g id="code-block"> </g> <g id="user"> </g> <g id="coffee-bean"> </g> <g id="coffee-beans"> <g id="coffee-bean1" serif:id="coffee-bean"> </g> </g> <g id="coffee-bean-filled"> </g> <g id="coffee-beans-filled"> <g id="coffee-bean2" serif:id="coffee-bean"> </g> </g> <g id="clipboard"> </g> <g id="clipboard-paste"> </g> <g id="clipboard-copy"> </g> <g id="Layer1"> </g> </g> </g>

</svg>
</svg>
