<svg xmlns="http://www.w3.org/2000/svg" width="220" height="370.0">
  <rect x="50" y="150" width="120" height="120.0" stroke="black" fill="none"/>
  <g>
    <svg xmlns:xlink="http://www.w3.org/1999/xlink" version="1.1" id="Layer_1" x="41.5" y="105" viewBox="0 0 512 512" style="enable-background:new 0 0 512 512;" xml:space="preserve" width="40" height="40">
<path style="fill:#00BEA5;" d="M300.051,326.987v30.759c0,7.867,5.216,14.781,12.779,16.942l73.081,20.88  c22.892,6.54,39.975,25.675,43.89,49.159l7.793,46.754c1.79,10.741-6.492,20.517-17.38,20.517H91.787  c-10.888,0-19.171-9.777-17.38-20.517l7.793-46.754c3.914-23.485,20.997-42.619,43.89-49.159l73.081-20.88  c7.565-2.162,12.779-9.076,12.779-16.942v-30.759H300.051z"/>
<path style="fill:#B48764;" d="M256.001,441.519c37.232,0,68.291-26.398,75.503-61.495l-18.673-5.335  c-7.565-2.161-12.779-9.076-12.779-16.942v-30.759H211.95v30.759c0,7.867-5.216,14.781-12.779,16.942l-18.673,5.335  C187.709,415.122,218.769,441.519,256.001,441.519z"/>
<path style="fill:#966D50;" d="M300.051,335.798l-24.228-8.81H211.95v30.759c0,7.867-5.216,14.781-12.779,16.942l-18.673,5.335  v0.001C254.767,415.443,300.051,335.798,300.051,335.798z"/>
<path style="fill:#553732;" d="M379.343,36.253c2.203-15.418,18.722-7.342,18.722-7.342c-11.013-57.266-125.911-8.076-125.911-8.076  l10.646-11.013c-53.503-30.147-120.405,18.722-120.405,18.722c-20.924-6.608-73.785,13.95-73.785,64.24  c0,51.393,26.43,128.482,26.43,128.482h290.734c0,0,8.81-96.912,8.81-132.152S379.343,36.253,379.343,36.253z"/>
<path style="fill:#64463C;" d="M398.064,28.911c-36.342-45.519-104.07,10.646-104.07,10.646  c35.241,2.753,31.386,44.601,31.386,44.601c-7.709-12.665-19.272-10.462-19.272-10.462c-1.652,40.196-28.633,79.291-43.133,86.266  l0.735,61.304h142.063c0,0,8.81-96.912,8.81-132.152s-35.241-52.861-35.241-52.861C381.545,20.835,398.064,28.911,398.064,28.911z"/>
<path style="fill:#C39772;" d="M388.153,203.646v-79.291H123.849v79.291c-9.731,0-17.62,7.888-17.62,17.62v17.62  c0,9.731,7.889,17.62,17.62,17.62c0.486,0,0.942-0.105,1.417-0.143c5.272,29.593,25.39,54.917,53.963,66.346l44.051,17.62  c21.004,8.402,44.436,8.402,65.441,0l44.051-17.62c28.575-11.429,48.693-36.753,53.963-66.346c0.476,0.039,0.932,0.143,1.417,0.143  c9.731,0,17.62-7.889,17.62-17.62v-17.62C405.773,211.534,397.884,203.646,388.153,203.646z"/>
<path style="fill:#B48764;" d="M352.912,124.354H123.849v79.291c-9.731,0-17.62,7.888-17.62,17.62v17.62  c0,9.731,7.889,17.62,17.62,17.62c0.486,0,0.942-0.105,1.417-0.143c5.272,29.593,25.39,54.917,53.963,66.346l44.051,17.62  c9.943,3.978,20.432,6.006,30.948,6.218c-29.898-13.268-52.048-34.709-66.423-52.23c-12.912-15.74-19.907-35.449-19.907-55.808  v-64.659c0-9.137,6.981-16.876,16.094-17.533c14.479-1.044,27.869-5.533,36.767-5.533c26.43,0,61.671-8.81,114.532,8.81  c34.461,11.487,44.051-8.81,44.051-8.81L352.912,124.354z"/>
<path style="fill:#553732;" d="M132.659,203.646c0,0,0-44.051,26.43-70.481c0,0,17.115,6.46,52.861,0c22.851-4.13,27.165,0,27.165,0  s-1.836,18.171-27.165,26.43c0,0,26.43,17.62,52.861-8.81l-1.836,9.177c0,0,27.898,5.506,52.861-23.861  c0,0,9.545-0.735,19.456,5.873c17.292,11.528,35.241,4.894,35.241,4.894s17.62,21.536,17.62,56.777h17.62v-96.912H115.038v96.912  h17.62V203.646z"/>
<path style="fill:#966D50;" d="M256.001,300.557c-15.663,0-30.315-3.854-40.196-10.578c-4.022-2.736-5.068-8.217-2.327-12.238  c2.731-4.017,8.217-5.064,12.238-2.327c6.926,4.71,18.248,7.524,30.285,7.524c12.037,0,23.359-2.814,30.285-7.524  c4.031-2.74,9.503-1.699,12.238,2.327c2.74,4.022,1.695,9.503-2.327,12.238C286.315,296.703,271.663,300.557,256.001,300.557z"/>
<path style="fill:#64463C;" d="M315.836,136.102c0,0,9.545-0.735,19.456,5.874c17.292,11.528,35.241,4.894,35.241,4.894  s17.62,21.536,17.62,56.777h17.62v-96.912H299.467c-9.286,26.635-26.082,48.221-36.49,53.228  C262.975,159.962,290.873,165.468,315.836,136.102z"/>
<g>
	<path style="fill:#5A4137;" d="M189.925,238.886L189.925,238.886c-7.298,0-13.215-5.917-13.215-13.215v-8.81   c0-7.298,5.917-13.215,13.215-13.215l0,0c7.298,0,13.215,5.917,13.215,13.215v8.81C203.14,232.97,197.223,238.886,189.925,238.886z   "/>
	<path style="fill:#5A4137;" d="M322.077,238.886L322.077,238.886c-7.298,0-13.215-5.917-13.215-13.215v-8.81   c0-7.298,5.917-13.215,13.215-13.215l0,0c7.298,0,13.215,5.917,13.215,13.215v8.81C335.292,232.97,329.375,238.886,322.077,238.886   z"/>
</g>
<g>
	<path style="fill:#00AA9A;" d="M256.001,459.14c44.307,0,82.936-31.168,92.435-74.277l-16.922-4.835l-0.01-0.002   c-7.212,35.095-38.271,61.494-75.503,61.494s-68.291-26.398-75.503-61.494l-0.01,0.002l-16.922,4.835   C173.064,427.971,211.692,459.14,256.001,459.14z"/>
	<path style="fill:#00AA9A;" d="M101.032,409.893c-9.734,9.093-16.558,21.181-18.833,34.836l-7.793,46.754   C72.617,502.223,80.898,512,91.786,512h49.681v-30.222c0-9.003-2.759-17.789-7.904-25.176L101.032,409.893z"/>
	<path style="fill:#00AA9A;" d="M410.969,409.893c9.734,9.093,16.558,21.181,18.833,34.836l7.793,46.754   c1.79,10.74-6.492,20.517-17.38,20.517h-49.681v-30.222c0-9.003,2.759-17.789,7.904-25.176L410.969,409.893z"/>
</g>
<g>
</g>
<g>
</g>
<g>
</g>
<g>
</g>
<g>
</g>
<g>
</g>
<g>
</g>
<g>
</g>
<g>
</g>
<g>
</g>
<g>
</g>
<g>
</g>
<g>
</g>
<g>
</g>
<g>
</g>
</svg>
    <text x="91.5" y="125.0" style="font-size: 15px;" dominant_baseline="middle" text_anchor="middle">Marc</text>
    <text x="129.5" y="125.0" style="font-size: 15px;" dominant_baseline="middle" text_anchor="middle">initial</text>
  </g>
  <svg width="30" height="30" viewBox="0 -10.47 31.999 31.999" x="70.0" y="170.0">
  <g id="candy" transform="translate(-131.978 -92.468)">
    <g id="Group_499" data-name="Group 499">
      <g id="Group_490" data-name="Group 490">
        <g id="Group_487" data-name="Group 487">
          <g id="Group_486" data-name="Group 486">
            <path id="Path_306" data-name="Path 306" d="M162.348,98c1.466-1.465,1.477-2.75.082-2.75-1.3,0-4.13,2.4-4.506,2.727a5.023,5.023,0,0,0-5.023-5h-9.8a5.023,5.023,0,1,0,0,10.047h9.8a5.022,5.022,0,0,0,5.022-4.973c.372.32,3.186,2.7,4.507,2.7C163.845,100.747,163.834,99.481,162.348,98Z" fill="#ffa99f"/>
          </g>
        </g>
        <g id="Group_489" data-name="Group 489">
          <g id="Group_488" data-name="Group 488">
            <path id="Path_307" data-name="Path 307" d="M133.606,98c-1.486,1.486-1.5,2.752-.081,2.752s4.548-2.738,4.548-2.738-3.153-2.764-4.548-2.764S132.14,96.53,133.606,98Z" fill="#ffa99f"/>
          </g>
        </g>
      </g>
      <g id="shadow" opacity="0.35">
        <g id="Group_492" data-name="Group 492">
          <g id="Group_491" data-name="Group 491">
            <path id="Path_308" data-name="Path 308" d="M133.525,96.745c.918,0,2.592,1.194,3.633,2.012.542-.423.915-.748.915-.748s-3.153-2.764-4.548-2.764c-1.047,0-1.3.724-.745,1.7A1.222,1.222,0,0,1,133.525,96.745Z" fill="#ffffff"/>
          </g>
        </g>
      </g>
      <g id="Group_494" data-name="Group 494">
        <g id="Group_493" data-name="Group 493">
          <path id="Path_309" data-name="Path 309" d="M146.113,103.019h-3.944l3.691-10.051H149.8Z" fill="#85d0bc"/>
        </g>
      </g>
      <g id="Group_496" data-name="Group 496">
        <g id="Group_495" data-name="Group 495">
          <path id="Path_310" data-name="Path 310" d="M150.425,103.019h-3.944l3.691-10.051h3.944Z" fill="#f9cb99"/>
        </g>
      </g>
      <g id="shadow-2" data-name="shadow" opacity="0.35">
        <g id="Group_498" data-name="Group 498">
          <g id="Group_497" data-name="Group 497">
            <path id="Path_311" data-name="Path 311" d="M139.573,99.5a5.024,5.024,0,0,1,5.024-5.024h9.8a4.99,4.99,0,0,1,2.713.806,5.008,5.008,0,0,0-4.213-2.306h-9.8a5.017,5.017,0,0,0-2.716,9.24A4.993,4.993,0,0,1,139.573,99.5Z" fill="#ffffff"/>
          </g>
        </g>
      </g>
    </g>
    <g id="Group_511" data-name="Group 511">
      <g id="Group_504" data-name="Group 504">
        <g id="Group_501" data-name="Group 501">
          <g id="Group_500" data-name="Group 500">
            <path id="Path_312" data-name="Path 312" d="M152.9,103.519h-9.8a5.523,5.523,0,1,1,0-11.047h9.8a5.538,5.538,0,0,1,5.429,4.512c1.126-.9,2.985-2.239,4.1-2.239a1.39,1.39,0,0,1,1.435.791c.273.658-.031,1.538-.832,2.459.81.927,1.118,1.808.849,2.46a1.4,1.4,0,0,1-1.452.792c-1.13,0-2.984-1.326-4.1-2.219A5.544,5.544,0,0,1,152.9,103.519Zm-9.8-10.047a4.523,4.523,0,1,0,0,9.047h9.8a4.536,4.536,0,0,0,4.522-4.478l0-.035v-.031a4.533,4.533,0,0,0-4.523-4.5Zm15.559,4.537c1.415,1.161,3.066,2.238,3.774,2.238.285,0,.483-.066.527-.175.09-.216-.092-.853-.962-1.723a.5.5,0,0,1,0-.707c.861-.861,1.038-1.5.946-1.723-.067-.161-.408-.174-.511-.174C161.734,95.745,160.079,96.835,158.656,98.009Z" fill="#282b24"/>
          </g>
        </g>
        <g id="Group_503" data-name="Group 503">
          <g id="Group_502" data-name="Group 502">
            <path id="Path_313" data-name="Path 313" d="M133.525,101.247a1.4,1.4,0,0,1-1.452-.792c-.27-.652.039-1.533.849-2.46-.8-.921-1.1-1.8-.833-2.459a1.392,1.392,0,0,1,1.436-.791c1.507,0,4.328,2.406,4.878,2.889a.5.5,0,0,1,0,.752C138.067,98.679,135.083,101.247,133.525,101.247Zm0-5.5c-.1,0-.445.013-.512.174-.091.221.086.862.947,1.723a.5.5,0,0,1,0,.707c-.87.87-1.052,1.507-.963,1.723.045.109.243.175.528.175.79,0,2.573-1.25,3.775-2.238C136.091,97.01,134.3,95.745,133.525,95.745Z" fill="#282b24"/>
          </g>
        </g>
      </g>
      <g id="Group_506" data-name="Group 506">
        <g id="Group_505" data-name="Group 505">
          <path id="Path_314" data-name="Path 314" d="M146.266,103.419a.48.48,0,0,1-.17-.03.5.5,0,0,1-.3-.639l3.588-9.951a.5.5,0,0,1,.941.339l-3.588,9.951A.5.5,0,0,1,146.266,103.419Z" fill="#282b24"/>
        </g>
      </g>
      <g id="Group_508" data-name="Group 508">
        <g id="Group_507" data-name="Group 507">
          <path id="Path_315" data-name="Path 315" d="M142.018,103.419a.475.475,0,0,1-.169-.03.5.5,0,0,1-.3-.639l3.588-9.951a.5.5,0,1,1,.941.339l-3.589,9.951A.5.5,0,0,1,142.018,103.419Z" fill="#282b24"/>
        </g>
      </g>
      <g id="Group_510" data-name="Group 510">
        <g id="Group_509" data-name="Group 509">
          <path id="Path_316" data-name="Path 316" d="M150.514,103.519a.5.5,0,0,1-.47-.669l3.5-9.713a.5.5,0,0,1,.941.339l-3.5,9.713A.5.5,0,0,1,150.514,103.519Z" fill="#282b24"/>
        </g>
      </g>
    </g>
  </g>
</svg>
  <svg width="30" height="30" viewBox="0 -10.47 31.999 31.999" x="110.0" y="170.0">
  <g id="candy" transform="translate(-131.978 -92.468)">
    <g id="Group_499" data-name="Group 499">
      <g id="Group_490" data-name="Group 490">
        <g id="Group_487" data-name="Group 487">
          <g id="Group_486" data-name="Group 486">
            <path id="Path_306" data-name="Path 306" d="M162.348,98c1.466-1.465,1.477-2.75.082-2.75-1.3,0-4.13,2.4-4.506,2.727a5.023,5.023,0,0,0-5.023-5h-9.8a5.023,5.023,0,1,0,0,10.047h9.8a5.022,5.022,0,0,0,5.022-4.973c.372.32,3.186,2.7,4.507,2.7C163.845,100.747,163.834,99.481,162.348,98Z" fill="#ffa99f"/>
          </g>
        </g>
        <g id="Group_489" data-name="Group 489">
          <g id="Group_488" data-name="Group 488">
            <path id="Path_307" data-name="Path 307" d="M133.606,98c-1.486,1.486-1.5,2.752-.081,2.752s4.548-2.738,4.548-2.738-3.153-2.764-4.548-2.764S132.14,96.53,133.606,98Z" fill="#ffa99f"/>
          </g>
        </g>
      </g>
      <g id="shadow" opacity="0.35">
        <g id="Group_492" data-name="Group 492">
          <g id="Group_491" data-name="Group 491">
            <path id="Path_308" data-name="Path 308" d="M133.525,96.745c.918,0,2.592,1.194,3.633,2.012.542-.423.915-.748.915-.748s-3.153-2.764-4.548-2.764c-1.047,0-1.3.724-.745,1.7A1.222,1.222,0,0,1,133.525,96.745Z" fill="#ffffff"/>
          </g>
        </g>
      </g>
      <g id="Group_494" data-name="Group 494">
        <g id="Group_493" data-name="Group 493">
          <path id="Path_309" data-name="Path 309" d="M146.113,103.019h-3.944l3.691-10.051H149.8Z" fill="#85d0bc"/>
        </g>
      </g>
      <g id="Group_496" data-name="Group 496">
        <g id="Group_495" data-name="Group 495">
          <path id="Path_310" data-name="Path 310" d="M150.425,103.019h-3.944l3.691-10.051h3.944Z" fill="#f9cb99"/>
        </g>
      </g>
      <g id="shadow-2" data-name="shadow" opacity="0.35">
        <g id="Group_498" data-name="Group 498">
          <g id="Group_497" data-name="Group 497">
            <path id="Path_311" data-name="Path 311" d="M139.573,99.5a5.024,5.024,0,0,1,5.024-5.024h9.8a4.99,4.99,0,0,1,2.713.806,5.008,5.008,0,0,0-4.213-2.306h-9.8a5.017,5.017,0,0,0-2.716,9.24A4.993,4.993,0,0,1,139.573,99.5Z" fill="#ffffff"/>
          </g>
        </g>
      </g>
    </g>
    <g id="Group_511" data-name="Group 511">
      <g id="Group_504" data-name="Group 504">
        <g id="Group_501" data-name="Group 501">
          <g id="Group_500" data-name="Group 500">
            <path id="Path_312" data-name="Path 312" d="M152.9,103.519h-9.8a5.523,5.523,0,1,1,0-11.047h9.8a5.538,5.538,0,0,1,5.429,4.512c1.126-.9,2.985-2.239,4.1-2.239a1.39,1.39,0,0,1,1.435.791c.273.658-.031,1.538-.832,2.459.81.927,1.118,1.808.849,2.46a1.4,1.4,0,0,1-1.452.792c-1.13,0-2.984-1.326-4.1-2.219A5.544,5.544,0,0,1,152.9,103.519Zm-9.8-10.047a4.523,4.523,0,1,0,0,9.047h9.8a4.536,4.536,0,0,0,4.522-4.478l0-.035v-.031a4.533,4.533,0,0,0-4.523-4.5Zm15.559,4.537c1.415,1.161,3.066,2.238,3.774,2.238.285,0,.483-.066.527-.175.09-.216-.092-.853-.962-1.723a.5.5,0,0,1,0-.707c.861-.861,1.038-1.5.946-1.723-.067-.161-.408-.174-.511-.174C161.734,95.745,160.079,96.835,158.656,98.009Z" fill="#282b24"/>
          </g>
        </g>
        <g id="Group_503" data-name="Group 503">
          <g id="Group_502" data-name="Group 502">
            <path id="Path_313" data-name="Path 313" d="M133.525,101.247a1.4,1.4,0,0,1-1.452-.792c-.27-.652.039-1.533.849-2.46-.8-.921-1.1-1.8-.833-2.459a1.392,1.392,0,0,1,1.436-.791c1.507,0,4.328,2.406,4.878,2.889a.5.5,0,0,1,0,.752C138.067,98.679,135.083,101.247,133.525,101.247Zm0-5.5c-.1,0-.445.013-.512.174-.091.221.086.862.947,1.723a.5.5,0,0,1,0,.707c-.87.87-1.052,1.507-.963,1.723.045.109.243.175.528.175.79,0,2.573-1.25,3.775-2.238C136.091,97.01,134.3,95.745,133.525,95.745Z" fill="#282b24"/>
          </g>
        </g>
      </g>
      <g id="Group_506" data-name="Group 506">
        <g id="Group_505" data-name="Group 505">
          <path id="Path_314" data-name="Path 314" d="M146.266,103.419a.48.48,0,0,1-.17-.03.5.5,0,0,1-.3-.639l3.588-9.951a.5.5,0,0,1,.941.339l-3.588,9.951A.5.5,0,0,1,146.266,103.419Z" fill="#282b24"/>
        </g>
      </g>
      <g id="Group_508" data-name="Group 508">
        <g id="Group_507" data-name="Group 507">
          <path id="Path_315" data-name="Path 315" d="M142.018,103.419a.475.475,0,0,1-.169-.03.5.5,0,0,1-.3-.639l3.588-9.951a.5.5,0,1,1,.941.339l-3.589,9.951A.5.5,0,0,1,142.018,103.419Z" fill="#282b24"/>
        </g>
      </g>
      <g id="Group_510" data-name="Group 510">
        <g id="Group_509" data-name="Group 509">
          <path id="Path_316" data-name="Path 316" d="M150.514,103.519a.5.5,0,0,1-.47-.669l3.5-9.713a.5.5,0,0,1,.941.339l-3.5,9.713A.5.5,0,0,1,150.514,103.519Z" fill="#282b24"/>
        </g>
      </g>
    </g>
  </g>
</svg>
  <svg width="30" height="30" viewBox="0 -10.47 31.999 31.999" x="70.0" y="210.0">
  <g id="candy" transform="translate(-131.978 -92.468)">
    <g id="Group_499" data-name="Group 499">
      <g id="Group_490" data-name="Group 490">
        <g id="Group_487" data-name="Group 487">
          <g id="Group_486" data-name="Group 486">
            <path id="Path_306" data-name="Path 306" d="M162.348,98c1.466-1.465,1.477-2.75.082-2.75-1.3,0-4.13,2.4-4.506,2.727a5.023,5.023,0,0,0-5.023-5h-9.8a5.023,5.023,0,1,0,0,10.047h9.8a5.022,5.022,0,0,0,5.022-4.973c.372.32,3.186,2.7,4.507,2.7C163.845,100.747,163.834,99.481,162.348,98Z" fill="#ffa99f"/>
          </g>
        </g>
        <g id="Group_489" data-name="Group 489">
          <g id="Group_488" data-name="Group 488">
            <path id="Path_307" data-name="Path 307" d="M133.606,98c-1.486,1.486-1.5,2.752-.081,2.752s4.548-2.738,4.548-2.738-3.153-2.764-4.548-2.764S132.14,96.53,133.606,98Z" fill="#ffa99f"/>
          </g>
        </g>
      </g>
      <g id="shadow" opacity="0.35">
        <g id="Group_492" data-name="Group 492">
          <g id="Group_491" data-name="Group 491">
            <path id="Path_308" data-name="Path 308" d="M133.525,96.745c.918,0,2.592,1.194,3.633,2.012.542-.423.915-.748.915-.748s-3.153-2.764-4.548-2.764c-1.047,0-1.3.724-.745,1.7A1.222,1.222,0,0,1,133.525,96.745Z" fill="#ffffff"/>
          </g>
        </g>
      </g>
      <g id="Group_494" data-name="Group 494">
        <g id="Group_493" data-name="Group 493">
          <path id="Path_309" data-name="Path 309" d="M146.113,103.019h-3.944l3.691-10.051H149.8Z" fill="#85d0bc"/>
        </g>
      </g>
      <g id="Group_496" data-name="Group 496">
        <g id="Group_495" data-name="Group 495">
          <path id="Path_310" data-name="Path 310" d="M150.425,103.019h-3.944l3.691-10.051h3.944Z" fill="#f9cb99"/>
        </g>
      </g>
      <g id="shadow-2" data-name="shadow" opacity="0.35">
        <g id="Group_498" data-name="Group 498">
          <g id="Group_497" data-name="Group 497">
            <path id="Path_311" data-name="Path 311" d="M139.573,99.5a5.024,5.024,0,0,1,5.024-5.024h9.8a4.99,4.99,0,0,1,2.713.806,5.008,5.008,0,0,0-4.213-2.306h-9.8a5.017,5.017,0,0,0-2.716,9.24A4.993,4.993,0,0,1,139.573,99.5Z" fill="#ffffff"/>
          </g>
        </g>
      </g>
    </g>
    <g id="Group_511" data-name="Group 511">
      <g id="Group_504" data-name="Group 504">
        <g id="Group_501" data-name="Group 501">
          <g id="Group_500" data-name="Group 500">
            <path id="Path_312" data-name="Path 312" d="M152.9,103.519h-9.8a5.523,5.523,0,1,1,0-11.047h9.8a5.538,5.538,0,0,1,5.429,4.512c1.126-.9,2.985-2.239,4.1-2.239a1.39,1.39,0,0,1,1.435.791c.273.658-.031,1.538-.832,2.459.81.927,1.118,1.808.849,2.46a1.4,1.4,0,0,1-1.452.792c-1.13,0-2.984-1.326-4.1-2.219A5.544,5.544,0,0,1,152.9,103.519Zm-9.8-10.047a4.523,4.523,0,1,0,0,9.047h9.8a4.536,4.536,0,0,0,4.522-4.478l0-.035v-.031a4.533,4.533,0,0,0-4.523-4.5Zm15.559,4.537c1.415,1.161,3.066,2.238,3.774,2.238.285,0,.483-.066.527-.175.09-.216-.092-.853-.962-1.723a.5.5,0,0,1,0-.707c.861-.861,1.038-1.5.946-1.723-.067-.161-.408-.174-.511-.174C161.734,95.745,160.079,96.835,158.656,98.009Z" fill="#282b24"/>
          </g>
        </g>
        <g id="Group_503" data-name="Group 503">
          <g id="Group_502" data-name="Group 502">
            <path id="Path_313" data-name="Path 313" d="M133.525,101.247a1.4,1.4,0,0,1-1.452-.792c-.27-.652.039-1.533.849-2.46-.8-.921-1.1-1.8-.833-2.459a1.392,1.392,0,0,1,1.436-.791c1.507,0,4.328,2.406,4.878,2.889a.5.5,0,0,1,0,.752C138.067,98.679,135.083,101.247,133.525,101.247Zm0-5.5c-.1,0-.445.013-.512.174-.091.221.086.862.947,1.723a.5.5,0,0,1,0,.707c-.87.87-1.052,1.507-.963,1.723.045.109.243.175.528.175.79,0,2.573-1.25,3.775-2.238C136.091,97.01,134.3,95.745,133.525,95.745Z" fill="#282b24"/>
          </g>
        </g>
      </g>
      <g id="Group_506" data-name="Group 506">
        <g id="Group_505" data-name="Group 505">
          <path id="Path_314" data-name="Path 314" d="M146.266,103.419a.48.48,0,0,1-.17-.03.5.5,0,0,1-.3-.639l3.588-9.951a.5.5,0,0,1,.941.339l-3.588,9.951A.5.5,0,0,1,146.266,103.419Z" fill="#282b24"/>
        </g>
      </g>
      <g id="Group_508" data-name="Group 508">
        <g id="Group_507" data-name="Group 507">
          <path id="Path_315" data-name="Path 315" d="M142.018,103.419a.475.475,0,0,1-.169-.03.5.5,0,0,1-.3-.639l3.588-9.951a.5.5,0,1,1,.941.339l-3.589,9.951A.5.5,0,0,1,142.018,103.419Z" fill="#282b24"/>
        </g>
      </g>
      <g id="Group_510" data-name="Group 510">
        <g id="Group_509" data-name="Group 509">
          <path id="Path_316" data-name="Path 316" d="M150.514,103.519a.5.5,0,0,1-.47-.669l3.5-9.713a.5.5,0,0,1,.941.339l-3.5,9.713A.5.5,0,0,1,150.514,103.519Z" fill="#282b24"/>
        </g>
      </g>
    </g>
  </g>
</svg>
  <line x1="70.0" y1="210.0" x2="100.0" y2="240.0" style="stroke:black; stroke-width:2;"/>
  <line x1="100.0" y1="210.0" x2="70.0" y2="240.0" style="stroke:black; stroke-width:2;"/>
  <circle cx="170" cy="270.0" r="30" fill="#BBA7F4"/>
  <text x="164" y="276.0" style="font-size: 30px;" text_anchor="middle" fill="red" dominant_baseline="central">?</text>
</svg>
