<svg xmlns="http://www.w3.org/2000/svg" width="220" height="370.0">
  <rect x="50" y="150" width="120" height="120.0" stroke="black" fill="none"/>
  <g>
    <svg xmlns:xlink="http://www.w3.org/1999/xlink" version="1.1" id="Layer_1" x="78.0" y="105" viewBox="0 0 512 512" style="enable-background:new 0 0 512 512;" xml:space="preserve" width="40" height="40">
<path style="fill:#00BEA5;" d="M300.051,326.987v30.759c0,7.867,5.216,14.781,12.779,16.942l73.081,20.88  c22.892,6.54,39.975,25.675,43.89,49.159l7.793,46.754c1.79,10.741-6.492,20.517-17.38,20.517H91.787  c-10.888,0-19.171-9.777-17.38-20.517l7.793-46.754c3.914-23.485,20.997-42.619,43.89-49.159l73.081-20.88  c7.565-2.162,12.779-9.076,12.779-16.942v-30.759H300.051z"/>
<path style="fill:#B48764;" d="M256.001,441.519c37.232,0,68.291-26.398,75.503-61.495l-18.673-5.335  c-7.565-2.161-12.779-9.076-12.779-16.942v-30.759H211.95v30.759c0,7.867-5.216,14.781-12.779,16.942l-18.673,5.335  C187.709,415.122,218.769,441.519,256.001,441.519z"/>
<path style="fill:#966D50;" d="M300.051,335.798l-24.228-8.81H211.95v30.759c0,7.867-5.216,14.781-12.779,16.942l-18.673,5.335  v0.001C254.767,415.443,300.051,335.798,300.051,335.798z"/>
<path style="fill:#553732;" d="M379.343,36.253c2.203-15.418,18.722-7.342,18.722-7.342c-11.013-57.266-125.911-8.076-125.911-8.076  l10.646-11.013c-53.503-30.147-120.405,18.722-120.405,18.722c-20.924-6.608-73.785,13.95-73.785,64.24  c0,51.393,26.43,128.482,26.43,128.482h290.734c0,0,8.81-96.912,8.81-132.152S379.343,36.253,379.343,36.253z"/>
<path style="fill:#64463C;" d="M398.064,28.911c-36.342-45.519-104.07,10.646-104.07,10.646  c35.241,2.753,31.386,44.601,31.386,44.601c-7.709-12.665-19.272-10.462-19.272-10.462c-1.652,40.196-28.633,79.291-43.133,86.266  l0.735,61.304h142.063c0,0,8.81-96.912,8.81-132.152s-35.241-52.861-35.241-52.861C381.545,20.835,398.064,28.911,398.064,28.911z"/>
<path style="fill:#C39772;" d="M388.153,203.646v-79.291H123.849v79.291c-9.731,0-17.62,7.888-17.62,17.62v17.62  c0,9.731,7.889,17.62,17.62,17.62c0.486,0,0.942-0.105,1.417-0.143c5.272,29.593,25.39,54.917,53.963,66.346l44.051,17.62  c21.004,8.402,44.436,8.402,65.441,0l44.051-17.62c28.575-11.429,48.693-36.753,53.963-66.346c0.476,0.039,0.932,0.143,1.417,0.143  c9.731,0,17.62-7.889,17.62-17.62v-17.62C405.773,211.534,397.884,203.646,388.153,203.646z"/>
<path style="fill:#B48764;" d="M352.912,124.354H123.849v79.291c-9.731,0-17.62,7.888-17.62,17.62v17.62  c0,9.731,7.889,17.62,17.62,17.62c0.486,0,0.942-0.105,1.417-0.143c5.272,29.593,25.39,54.917,53.963,66.346l44.051,17.62  c9.943,3.978,20.432,6.006,30.948,6.218c-29.898-13.268-52.048-34.709-66.423-52.23c-12.912-15.74-19.907-35.449-19.907-55.808  v-64.659c0-9.137,6.981-16.876,16.094-17.533c14.479-1.044,27.869-5.533,36.767-5.533c26.43,0,61.671-8.81,114.532,8.81  c34.461,11.487,44.051-8.81,44.051-8.81L352.912,124.354z"/>
<path style="fill:#553732;" d="M132.659,203.646c0,0,0-44.051,26.43-70.481c0,0,17.115,6.46,52.861,0c22.851-4.13,27.165,0,27.165,0  s-1.836,18.171-27.165,26.43c0,0,26.43,17.62,52.861-8.81l-1.836,9.177c0,0,27.898,5.506,52.861-23.861  c0,0,9.545-0.735,19.456,5.873c17.292,11.528,35.241,4.894,35.241,4.894s17.62,21.536,17.62,56.777h17.62v-96.912H115.038v96.912  h17.62V203.646z"/>
<path style="fill:#966D50;" d="M256.001,300.557c-15.663,0-30.315-3.854-40.196-10.578c-4.022-2.736-5.068-8.217-2.327-12.238  c2.731-4.017,8.217-5.064,12.238-2.327c6.926,4.71,18.248,7.524,30.285,7.524c12.037,0,23.359-2.814,30.285-7.524  c4.031-2.74,9.503-1.699,12.238,2.327c2.74,4.022,1.695,9.503-2.327,12.238C286.315,296.703,271.663,300.557,256.001,300.557z"/>
<path style="fill:#64463C;" d="M315.836,136.102c0,0,9.545-0.735,19.456,5.874c17.292,11.528,35.241,4.894,35.241,4.894  s17.62,21.536,17.62,56.777h17.62v-96.912H299.467c-9.286,26.635-26.082,48.221-36.49,53.228  C262.975,159.962,290.873,165.468,315.836,136.102z"/>
<g>
	<path style="fill:#5A4137;" d="M189.925,238.886L189.925,238.886c-7.298,0-13.215-5.917-13.215-13.215v-8.81   c0-7.298,5.917-13.215,13.215-13.215l0,0c7.298,0,13.215,5.917,13.215,13.215v8.81C203.14,232.97,197.223,238.886,189.925,238.886z   "/>
	<path style="fill:#5A4137;" d="M322.077,238.886L322.077,238.886c-7.298,0-13.215-5.917-13.215-13.215v-8.81   c0-7.298,5.917-13.215,13.215-13.215l0,0c7.298,0,13.215,5.917,13.215,13.215v8.81C335.292,232.97,329.375,238.886,322.077,238.886   z"/>
</g>
<g>
	<path style="fill:#00AA9A;" d="M256.001,459.14c44.307,0,82.936-31.168,92.435-74.277l-16.922-4.835l-0.01-0.002   c-7.212,35.095-38.271,61.494-75.503,61.494s-68.291-26.398-75.503-61.494l-0.01,0.002l-16.922,4.835   C173.064,427.971,211.692,459.14,256.001,459.14z"/>
	<path style="fill:#00AA9A;" d="M101.032,409.893c-9.734,9.093-16.558,21.181-18.833,34.836l-7.793,46.754   C72.617,502.223,80.898,512,91.786,512h49.681v-30.222c0-9.003-2.759-17.789-7.904-25.176L101.032,409.893z"/>
	<path style="fill:#00AA9A;" d="M410.969,409.893c9.734,9.093,16.558,21.181,18.833,34.836l7.793,46.754   c1.79,10.74-6.492,20.517-17.38,20.517h-49.681v-30.222c0-9.003,2.759-17.789,7.904-25.176L410.969,409.893z"/>
</g>
<g>
</g>
<g>
</g>
<g>
</g>
<g>
</g>
<g>
</g>
<g>
</g>
<g>
</g>
<g>
</g>
<g>
</g>
<g>
</g>
<g>
</g>
<g>
</g>
<g>
</g>
<g>
</g>
<g>
</g>
</svg>
    <text x="128.0" y="125.0" style="font-size: 15px;" dominant_baseline="middle" text_anchor="middle">&#23567;&#26126;</text>
  </g>
  <svg width="30" height="30" viewBox="0 0 1024 1024" class="icon" version="1.1" x="70.0" y="170.0">
    <path d="M283.9 136.9l10.9 119.9-131.3 55 86.2 50.2 91.5-54.8 89.6-24.4 65.1 13.5 16.1-66.1s-51.8-57.5-116.7-80.3-111.4-13-111.4-13z" fill="#95C751"/>
    <path d="M341.2 307.2C273 335 145.4 459.5 204.8 637.1S376.3 888.6 412 894c35.7 5.4 87.6-31.5 116.4-31.5s53.8 34.7 89.5 32 112.8-32.5 149.7-93 117.1-213.9 92.2-328.1c-24.9-114.2-132.3-170.6-181.1-179.8s-132.3 6.3-156.2 5.6c-23.9-0.7-84.6-15.3-116.1-8.5-31.4 6.7-65.2 16.5-65.2 16.5z" fill="#F75252"/>
    <path d="M861.2 471.3c-24.9-114.2-132.3-170.6-181.1-179.8-48.8-9.2-132.3 6.3-156.2 5.6s-84.6-15.3-116.1-8.5c-31.5 6.7-65.2 16.5-65.2 16.5-68.2 27.7-195.9 152.2-136.4 329.9s171.5 251.4 207.1 256.9c35.7 5.4 87.6-31.5 116.4-31.5s53.8 34.7 89.5 32c35.8-2.7 112.8-32.5 149.7-93 37-60.5 117.2-213.9 92.3-328.1zM703 735c-31.4 51.5-96.8 76.7-127.3 79.1-30.4 2.3-51.7-27.2-76.1-27.2-24.5 0-68.7 31.4-99 26.7-30.3-4.6-125.5-67.3-176.1-218.4-50.6-151.1 57.9-257 115.9-280.6 0 0 28.7-8.3 55.5-14 26.7-5.7 78.4 6.6 98.7 7.3 20.3 0.6 91.3-12.6 132.8-4.8 41.5 7.8 132.8 55.8 154 152.9 21.2 97.1-47.1 227.5-78.4 279z" fill="#EF3A3A"/>
    <path d="M499.7 350.6s14.7-115.5 27.3-140.7 23.1-33.4 23.1-33.4l69.1 4.1 8.9 26s-70.8 85.1-81.3 105.2-13.8 44.5-13.8 44.5l-33.3-5.7z" fill="#F2F5FB"/>
    <path d="M819.9 371.3c-50.2-61.4-127.1-99.5-200.6-99.5-11.9 0-22.9 1.4-33.4 3.5 25.7-35.1 52.4-62.2 52.9-62.6 4.4-4.4 5.3-11.1 2.2-16.5 0 0-15.4-31.3-26.5-31.3l-76.2-0.5c-4.5 0-8.8 2.2-11.3 6-8.4 12.3-15.3 26-21 40.1-85.4-92.9-218.4-94.1-224.3-94.1-7.1 0-13.1 5.5-13.7 12.6-0.3 3.7-4.9 64.5 14.2 121-31.8 6.6-101.3 24.1-133.4 55.2-3 2.9-4.5 6.9-4.1 11 0.4 4.1 2.6 7.8 6 10.2 2.1 1.4 45.2 30.3 87 43.9-0.3 0.3-0.6 0.6-0.8 1-50.9 62.3-70.1 140.8-53.8 221.1 35.1 173.8 149.2 315.1 254.4 315.1 22.2 0 42.5-6.8 60.4-20.2 19.1-14.3 41.9-14.3 61 0 17.9 13.4 38.2 20.2 60.4 20.2 105.2 0 219.3-141.4 254.4-315.1 16.2-80.3-2.9-158.8-53.8-221.1zM545.6 191.8h62.6l3.8 9.1c-14.8 15.7-48.5 53.5-72.8 95.4 0 0.1-0.1 0.1-0.1 0.1-0.2 0.4-0.4 0.8-0.7 1.2-1.5 2.6-2.9 5.1-4.3 7.7-0.7 1.2-1.4 2.5-2 3.7-1.7 3.3-3.3 6.6-4.9 10-0.2 0.4-0.4 0.9-0.6 1.3-3.4 7.4-6.4 14.8-8.8 22.1-3.4-0.4-6.8-1-10.1-1.8 0.5-10.1 1.5-24.1 3.6-40.2v-0.2c4.6-33.6 14.1-75.7 34.3-108.4z m-250.8-47.3c35.8 2.9 136.5 17.6 198.9 93.7 0.6 0.8 1.5 1.2 2.2 1.8-3.8 13.4-6.7 26.8-9 39.5-9.1-3.1-18.9-5.2-29.2-6.4L380 189.7c-5.2-5.6-13.8-5.8-19.4-0.7-5.5 5.2-5.8 13.8-0.7 19.4l60 64.3c-27.3 2.2-54.7 9.4-80.8 21-41.3-40.5-44.7-118.1-44.3-149.2z m-1.7 131.3c3.3 6.4 6.8 12.7 11 18.7l-55.2 3.4c-7.6 0.5-13.3 7-12.8 14.5 0.5 7.3 6.5 12.8 13.7 12.8h0.9l37.9-2.4c-10.4 7.6-20.4 15.9-29.8 24.9-26.6-6-57.8-22.8-76.4-33.8 31-19.4 82.5-32.6 110.7-38.1zM846.9 587c-35.4 175.4-146.3 293.2-227.6 293.2-16.3 0-30.7-4.8-44-14.7-14.5-10.8-30.7-16.2-46.9-16.2s-32.4 5.4-46.9 16.2c-13.2 9.9-27.6 14.7-44 14.7-81.3 0-192.2-117.8-227.6-293.2-14.6-72.1 2.5-142.5 48.2-198.3 45.1-55.2 113.9-89.4 179.4-89.4 17.4 0 32.4 2.5 45.5 7.7 0 0.3-0.1 0.6-0.1 1-0.5 4.4-0.9 8.7-1.3 12.7 0 0.4-0.1 0.7-0.1 1.1-0.2 2.6-0.4 5.2-0.6 7.6-4.7-3.3-8.8-7-12.1-11.2-4.6-6-13.2-7.1-19.2-2.5s-7.1 13.2-2.5 19.2c9.7 12.7 24.4 22.5 41.5 28.8 0.2 0.1 0.3 0.2 0.5 0.3 0.2 0.1 0.5 0.1 0.8 0.2 5.7 2 11.6 3.6 17.7 4.7 0.4 0.1 0.7 0.1 1.1 0.2 6.1 1.1 12.4 1.7 18.8 1.9h0.4c0.8 0 1.6 0.1 2.4 0.1 33.4 0 63.9-12.7 81.5-34 4.8-5.8 4-14.5-1.8-19.3-5.8-4.8-14.5-4-19.3 1.8-9.4 11.4-25.3 19.4-43.4 22.6 0.6-1.6 1.2-3.2 1.9-4.9 1.1-2.7 2.4-5.4 3.7-8.1 0.6-1.3 1.2-2.7 1.9-4 1.5-3 3.2-6.2 5-9.3 0.5-0.8 0.9-1.6 1.4-2.5 15.7-9.4 34.7-13.9 58.1-13.9 65.5 0 134.2 34.3 179.4 89.4 45.6 55.6 62.7 126 48.2 198.1z" fill="#004364"/>
    <path d="M700.2 388.3m-15.8 0a15.8 15.8 0 1 0 31.6 0 15.8 15.8 0 1 0-31.6 0Z" fill="#004364"/>
    <path d="M757.3 431.7m-15.8 0a15.8 15.8 0 1 0 31.6 0 15.8 15.8 0 1 0-31.6 0Z" fill="#004364"/>
    <path d="M688.2 457.6m-15.8 0a15.8 15.8 0 1 0 31.6 0 15.8 15.8 0 1 0-31.6 0Z" fill="#004364"/>
    <path d="M427.8 824.4m-15.8 0a15.8 15.8 0 1 0 31.6 0 15.8 15.8 0 1 0-31.6 0Z" fill="#004364"/>
    <path d="M357 787.8m-15.8 0a15.8 15.8 0 1 0 31.6 0 15.8 15.8 0 1 0-31.6 0Z" fill="#004364"/>
  </svg>
  <svg width="30" height="30" viewBox="0 0 1024 1024" class="icon" version="1.1" x="110.0" y="170.0">
    <path d="M283.9 136.9l10.9 119.9-131.3 55 86.2 50.2 91.5-54.8 89.6-24.4 65.1 13.5 16.1-66.1s-51.8-57.5-116.7-80.3-111.4-13-111.4-13z" fill="#95C751"/>
    <path d="M341.2 307.2C273 335 145.4 459.5 204.8 637.1S376.3 888.6 412 894c35.7 5.4 87.6-31.5 116.4-31.5s53.8 34.7 89.5 32 112.8-32.5 149.7-93 117.1-213.9 92.2-328.1c-24.9-114.2-132.3-170.6-181.1-179.8s-132.3 6.3-156.2 5.6c-23.9-0.7-84.6-15.3-116.1-8.5-31.4 6.7-65.2 16.5-65.2 16.5z" fill="#F75252"/>
    <path d="M861.2 471.3c-24.9-114.2-132.3-170.6-181.1-179.8-48.8-9.2-132.3 6.3-156.2 5.6s-84.6-15.3-116.1-8.5c-31.5 6.7-65.2 16.5-65.2 16.5-68.2 27.7-195.9 152.2-136.4 329.9s171.5 251.4 207.1 256.9c35.7 5.4 87.6-31.5 116.4-31.5s53.8 34.7 89.5 32c35.8-2.7 112.8-32.5 149.7-93 37-60.5 117.2-213.9 92.3-328.1zM703 735c-31.4 51.5-96.8 76.7-127.3 79.1-30.4 2.3-51.7-27.2-76.1-27.2-24.5 0-68.7 31.4-99 26.7-30.3-4.6-125.5-67.3-176.1-218.4-50.6-151.1 57.9-257 115.9-280.6 0 0 28.7-8.3 55.5-14 26.7-5.7 78.4 6.6 98.7 7.3 20.3 0.6 91.3-12.6 132.8-4.8 41.5 7.8 132.8 55.8 154 152.9 21.2 97.1-47.1 227.5-78.4 279z" fill="#EF3A3A"/>
    <path d="M499.7 350.6s14.7-115.5 27.3-140.7 23.1-33.4 23.1-33.4l69.1 4.1 8.9 26s-70.8 85.1-81.3 105.2-13.8 44.5-13.8 44.5l-33.3-5.7z" fill="#F2F5FB"/>
    <path d="M819.9 371.3c-50.2-61.4-127.1-99.5-200.6-99.5-11.9 0-22.9 1.4-33.4 3.5 25.7-35.1 52.4-62.2 52.9-62.6 4.4-4.4 5.3-11.1 2.2-16.5 0 0-15.4-31.3-26.5-31.3l-76.2-0.5c-4.5 0-8.8 2.2-11.3 6-8.4 12.3-15.3 26-21 40.1-85.4-92.9-218.4-94.1-224.3-94.1-7.1 0-13.1 5.5-13.7 12.6-0.3 3.7-4.9 64.5 14.2 121-31.8 6.6-101.3 24.1-133.4 55.2-3 2.9-4.5 6.9-4.1 11 0.4 4.1 2.6 7.8 6 10.2 2.1 1.4 45.2 30.3 87 43.9-0.3 0.3-0.6 0.6-0.8 1-50.9 62.3-70.1 140.8-53.8 221.1 35.1 173.8 149.2 315.1 254.4 315.1 22.2 0 42.5-6.8 60.4-20.2 19.1-14.3 41.9-14.3 61 0 17.9 13.4 38.2 20.2 60.4 20.2 105.2 0 219.3-141.4 254.4-315.1 16.2-80.3-2.9-158.8-53.8-221.1zM545.6 191.8h62.6l3.8 9.1c-14.8 15.7-48.5 53.5-72.8 95.4 0 0.1-0.1 0.1-0.1 0.1-0.2 0.4-0.4 0.8-0.7 1.2-1.5 2.6-2.9 5.1-4.3 7.7-0.7 1.2-1.4 2.5-2 3.7-1.7 3.3-3.3 6.6-4.9 10-0.2 0.4-0.4 0.9-0.6 1.3-3.4 7.4-6.4 14.8-8.8 22.1-3.4-0.4-6.8-1-10.1-1.8 0.5-10.1 1.5-24.1 3.6-40.2v-0.2c4.6-33.6 14.1-75.7 34.3-108.4z m-250.8-47.3c35.8 2.9 136.5 17.6 198.9 93.7 0.6 0.8 1.5 1.2 2.2 1.8-3.8 13.4-6.7 26.8-9 39.5-9.1-3.1-18.9-5.2-29.2-6.4L380 189.7c-5.2-5.6-13.8-5.8-19.4-0.7-5.5 5.2-5.8 13.8-0.7 19.4l60 64.3c-27.3 2.2-54.7 9.4-80.8 21-41.3-40.5-44.7-118.1-44.3-149.2z m-1.7 131.3c3.3 6.4 6.8 12.7 11 18.7l-55.2 3.4c-7.6 0.5-13.3 7-12.8 14.5 0.5 7.3 6.5 12.8 13.7 12.8h0.9l37.9-2.4c-10.4 7.6-20.4 15.9-29.8 24.9-26.6-6-57.8-22.8-76.4-33.8 31-19.4 82.5-32.6 110.7-38.1zM846.9 587c-35.4 175.4-146.3 293.2-227.6 293.2-16.3 0-30.7-4.8-44-14.7-14.5-10.8-30.7-16.2-46.9-16.2s-32.4 5.4-46.9 16.2c-13.2 9.9-27.6 14.7-44 14.7-81.3 0-192.2-117.8-227.6-293.2-14.6-72.1 2.5-142.5 48.2-198.3 45.1-55.2 113.9-89.4 179.4-89.4 17.4 0 32.4 2.5 45.5 7.7 0 0.3-0.1 0.6-0.1 1-0.5 4.4-0.9 8.7-1.3 12.7 0 0.4-0.1 0.7-0.1 1.1-0.2 2.6-0.4 5.2-0.6 7.6-4.7-3.3-8.8-7-12.1-11.2-4.6-6-13.2-7.1-19.2-2.5s-7.1 13.2-2.5 19.2c9.7 12.7 24.4 22.5 41.5 28.8 0.2 0.1 0.3 0.2 0.5 0.3 0.2 0.1 0.5 0.1 0.8 0.2 5.7 2 11.6 3.6 17.7 4.7 0.4 0.1 0.7 0.1 1.1 0.2 6.1 1.1 12.4 1.7 18.8 1.9h0.4c0.8 0 1.6 0.1 2.4 0.1 33.4 0 63.9-12.7 81.5-34 4.8-5.8 4-14.5-1.8-19.3-5.8-4.8-14.5-4-19.3 1.8-9.4 11.4-25.3 19.4-43.4 22.6 0.6-1.6 1.2-3.2 1.9-4.9 1.1-2.7 2.4-5.4 3.7-8.1 0.6-1.3 1.2-2.7 1.9-4 1.5-3 3.2-6.2 5-9.3 0.5-0.8 0.9-1.6 1.4-2.5 15.7-9.4 34.7-13.9 58.1-13.9 65.5 0 134.2 34.3 179.4 89.4 45.6 55.6 62.7 126 48.2 198.1z" fill="#004364"/>
    <path d="M700.2 388.3m-15.8 0a15.8 15.8 0 1 0 31.6 0 15.8 15.8 0 1 0-31.6 0Z" fill="#004364"/>
    <path d="M757.3 431.7m-15.8 0a15.8 15.8 0 1 0 31.6 0 15.8 15.8 0 1 0-31.6 0Z" fill="#004364"/>
    <path d="M688.2 457.6m-15.8 0a15.8 15.8 0 1 0 31.6 0 15.8 15.8 0 1 0-31.6 0Z" fill="#004364"/>
    <path d="M427.8 824.4m-15.8 0a15.8 15.8 0 1 0 31.6 0 15.8 15.8 0 1 0-31.6 0Z" fill="#004364"/>
    <path d="M357 787.8m-15.8 0a15.8 15.8 0 1 0 31.6 0 15.8 15.8 0 1 0-31.6 0Z" fill="#004364"/>
  </svg>
  <svg width="30" height="30" viewBox="0 0 1024 1024" class="icon" version="1.1" x="70.0" y="210.0">
    <path d="M283.9 136.9l10.9 119.9-131.3 55 86.2 50.2 91.5-54.8 89.6-24.4 65.1 13.5 16.1-66.1s-51.8-57.5-116.7-80.3-111.4-13-111.4-13z" fill="#95C751"/>
    <path d="M341.2 307.2C273 335 145.4 459.5 204.8 637.1S376.3 888.6 412 894c35.7 5.4 87.6-31.5 116.4-31.5s53.8 34.7 89.5 32 112.8-32.5 149.7-93 117.1-213.9 92.2-328.1c-24.9-114.2-132.3-170.6-181.1-179.8s-132.3 6.3-156.2 5.6c-23.9-0.7-84.6-15.3-116.1-8.5-31.4 6.7-65.2 16.5-65.2 16.5z" fill="#F75252"/>
    <path d="M861.2 471.3c-24.9-114.2-132.3-170.6-181.1-179.8-48.8-9.2-132.3 6.3-156.2 5.6s-84.6-15.3-116.1-8.5c-31.5 6.7-65.2 16.5-65.2 16.5-68.2 27.7-195.9 152.2-136.4 329.9s171.5 251.4 207.1 256.9c35.7 5.4 87.6-31.5 116.4-31.5s53.8 34.7 89.5 32c35.8-2.7 112.8-32.5 149.7-93 37-60.5 117.2-213.9 92.3-328.1zM703 735c-31.4 51.5-96.8 76.7-127.3 79.1-30.4 2.3-51.7-27.2-76.1-27.2-24.5 0-68.7 31.4-99 26.7-30.3-4.6-125.5-67.3-176.1-218.4-50.6-151.1 57.9-257 115.9-280.6 0 0 28.7-8.3 55.5-14 26.7-5.7 78.4 6.6 98.7 7.3 20.3 0.6 91.3-12.6 132.8-4.8 41.5 7.8 132.8 55.8 154 152.9 21.2 97.1-47.1 227.5-78.4 279z" fill="#EF3A3A"/>
    <path d="M499.7 350.6s14.7-115.5 27.3-140.7 23.1-33.4 23.1-33.4l69.1 4.1 8.9 26s-70.8 85.1-81.3 105.2-13.8 44.5-13.8 44.5l-33.3-5.7z" fill="#F2F5FB"/>
    <path d="M819.9 371.3c-50.2-61.4-127.1-99.5-200.6-99.5-11.9 0-22.9 1.4-33.4 3.5 25.7-35.1 52.4-62.2 52.9-62.6 4.4-4.4 5.3-11.1 2.2-16.5 0 0-15.4-31.3-26.5-31.3l-76.2-0.5c-4.5 0-8.8 2.2-11.3 6-8.4 12.3-15.3 26-21 40.1-85.4-92.9-218.4-94.1-224.3-94.1-7.1 0-13.1 5.5-13.7 12.6-0.3 3.7-4.9 64.5 14.2 121-31.8 6.6-101.3 24.1-133.4 55.2-3 2.9-4.5 6.9-4.1 11 0.4 4.1 2.6 7.8 6 10.2 2.1 1.4 45.2 30.3 87 43.9-0.3 0.3-0.6 0.6-0.8 1-50.9 62.3-70.1 140.8-53.8 221.1 35.1 173.8 149.2 315.1 254.4 315.1 22.2 0 42.5-6.8 60.4-20.2 19.1-14.3 41.9-14.3 61 0 17.9 13.4 38.2 20.2 60.4 20.2 105.2 0 219.3-141.4 254.4-315.1 16.2-80.3-2.9-158.8-53.8-221.1zM545.6 191.8h62.6l3.8 9.1c-14.8 15.7-48.5 53.5-72.8 95.4 0 0.1-0.1 0.1-0.1 0.1-0.2 0.4-0.4 0.8-0.7 1.2-1.5 2.6-2.9 5.1-4.3 7.7-0.7 1.2-1.4 2.5-2 3.7-1.7 3.3-3.3 6.6-4.9 10-0.2 0.4-0.4 0.9-0.6 1.3-3.4 7.4-6.4 14.8-8.8 22.1-3.4-0.4-6.8-1-10.1-1.8 0.5-10.1 1.5-24.1 3.6-40.2v-0.2c4.6-33.6 14.1-75.7 34.3-108.4z m-250.8-47.3c35.8 2.9 136.5 17.6 198.9 93.7 0.6 0.8 1.5 1.2 2.2 1.8-3.8 13.4-6.7 26.8-9 39.5-9.1-3.1-18.9-5.2-29.2-6.4L380 189.7c-5.2-5.6-13.8-5.8-19.4-0.7-5.5 5.2-5.8 13.8-0.7 19.4l60 64.3c-27.3 2.2-54.7 9.4-80.8 21-41.3-40.5-44.7-118.1-44.3-149.2z m-1.7 131.3c3.3 6.4 6.8 12.7 11 18.7l-55.2 3.4c-7.6 0.5-13.3 7-12.8 14.5 0.5 7.3 6.5 12.8 13.7 12.8h0.9l37.9-2.4c-10.4 7.6-20.4 15.9-29.8 24.9-26.6-6-57.8-22.8-76.4-33.8 31-19.4 82.5-32.6 110.7-38.1zM846.9 587c-35.4 175.4-146.3 293.2-227.6 293.2-16.3 0-30.7-4.8-44-14.7-14.5-10.8-30.7-16.2-46.9-16.2s-32.4 5.4-46.9 16.2c-13.2 9.9-27.6 14.7-44 14.7-81.3 0-192.2-117.8-227.6-293.2-14.6-72.1 2.5-142.5 48.2-198.3 45.1-55.2 113.9-89.4 179.4-89.4 17.4 0 32.4 2.5 45.5 7.7 0 0.3-0.1 0.6-0.1 1-0.5 4.4-0.9 8.7-1.3 12.7 0 0.4-0.1 0.7-0.1 1.1-0.2 2.6-0.4 5.2-0.6 7.6-4.7-3.3-8.8-7-12.1-11.2-4.6-6-13.2-7.1-19.2-2.5s-7.1 13.2-2.5 19.2c9.7 12.7 24.4 22.5 41.5 28.8 0.2 0.1 0.3 0.2 0.5 0.3 0.2 0.1 0.5 0.1 0.8 0.2 5.7 2 11.6 3.6 17.7 4.7 0.4 0.1 0.7 0.1 1.1 0.2 6.1 1.1 12.4 1.7 18.8 1.9h0.4c0.8 0 1.6 0.1 2.4 0.1 33.4 0 63.9-12.7 81.5-34 4.8-5.8 4-14.5-1.8-19.3-5.8-4.8-14.5-4-19.3 1.8-9.4 11.4-25.3 19.4-43.4 22.6 0.6-1.6 1.2-3.2 1.9-4.9 1.1-2.7 2.4-5.4 3.7-8.1 0.6-1.3 1.2-2.7 1.9-4 1.5-3 3.2-6.2 5-9.3 0.5-0.8 0.9-1.6 1.4-2.5 15.7-9.4 34.7-13.9 58.1-13.9 65.5 0 134.2 34.3 179.4 89.4 45.6 55.6 62.7 126 48.2 198.1z" fill="#004364"/>
    <path d="M700.2 388.3m-15.8 0a15.8 15.8 0 1 0 31.6 0 15.8 15.8 0 1 0-31.6 0Z" fill="#004364"/>
    <path d="M757.3 431.7m-15.8 0a15.8 15.8 0 1 0 31.6 0 15.8 15.8 0 1 0-31.6 0Z" fill="#004364"/>
    <path d="M688.2 457.6m-15.8 0a15.8 15.8 0 1 0 31.6 0 15.8 15.8 0 1 0-31.6 0Z" fill="#004364"/>
    <path d="M427.8 824.4m-15.8 0a15.8 15.8 0 1 0 31.6 0 15.8 15.8 0 1 0-31.6 0Z" fill="#004364"/>
    <path d="M357 787.8m-15.8 0a15.8 15.8 0 1 0 31.6 0 15.8 15.8 0 1 0-31.6 0Z" fill="#004364"/>
  </svg>
  <line x1="70.0" y1="210.0" x2="100.0" y2="240.0" style="stroke:black; stroke-width:2;"/>
  <line x1="100.0" y1="210.0" x2="70.0" y2="240.0" style="stroke:black; stroke-width:2;"/>
  <circle cx="170" cy="270.0" r="30" fill="#BBA7F4"/>
  <text x="164" y="276.0" style="font-size: 30px;" text_anchor="middle" fill="red" dominant_baseline="central">?</text>
</svg>
