<svg xmlns="http://www.w3.org/2000/svg" width="540" height="630">
  <rect x="50" y="150" width="120" height="120.0" stroke="black" fill="none"/>
  <g>
    <svg xmlns:xlink="http://www.w3.org/1999/xlink" version="1.1" id="Layer_1" x="71.0" y="105" viewBox="0 0 512 512" style="enable-background:new 0 0 512 512;" xml:space="preserve" width="40" height="40">
<path style="fill:#FF9842;" d="M406.069,114.759C388.413,17.655,300.138,0,256,0S123.586,17.655,105.931,114.759  s-44.138,220.69-44.138,220.69c88.276,70.621,167.724,70.621,194.207,70.621s105.931,0,194.207-70.621  C450.207,335.448,423.724,211.862,406.069,114.759z"/>
<path style="fill:#E6873C;" d="M282.22,1.949C272.579,0.584,263.607,0,256,0c-44.138,0-132.414,17.655-150.069,114.759  s-44.138,220.69-44.138,220.69c58.067,46.454,112.204,62.28,150.069,67.72V176.552C211.862,176.552,219.362,49.897,282.22,1.949z"/>
<path style="fill:#FF6472;" d="M300.138,326.621v30.82c0,7.883,5.226,14.81,12.804,16.975l73.226,20.921  c22.937,6.553,40.054,25.726,43.977,49.257l7.808,46.847c1.793,10.762-6.505,20.558-17.415,20.558H91.461  c-10.91,0-19.209-9.796-17.415-20.557l7.808-46.847c3.922-23.531,21.038-42.703,43.977-49.257l73.226-20.921  c7.58-2.166,12.804-9.094,12.804-16.975v-30.821H300.138z"/>
<path style="fill:#FAD7A5;" d="M256,476.69c54.771,0,101.148-35.665,117.362-85.01l-60.419-17.263  c-7.58-2.165-12.804-9.094-12.804-16.975v-30.82h-88.276v30.82c0,7.883-5.226,14.81-12.804,16.975l-60.419,17.263  C154.852,441.025,201.229,476.69,256,476.69z"/>
<path style="fill:#F0C891;" d="M300.138,335.448l-24.276-8.828h-64v30.82c0,7.883-5.226,14.81-12.804,16.975l-18.71,5.345v0.001  C254.764,415.251,300.138,335.448,300.138,335.448z"/>
<g>
	<path style="fill:#D25566;" d="M100.725,409.69c-9.753,9.111-16.59,21.223-18.87,34.905l-7.808,46.847   C72.253,502.204,80.551,512,91.461,512h49.78v-30.282c0-9.021-2.764-17.824-7.919-25.226L100.725,409.69z"/>
	<path style="fill:#D25566;" d="M411.275,409.69c9.753,9.111,16.59,21.223,18.87,34.905l7.808,46.847   c1.793,10.761-6.505,20.557-17.415,20.557h-49.78v-30.282c0-9.021,2.764-17.824,7.919-25.226L411.275,409.69z"/>
</g>
<path style="fill:#FFE1B4;" d="M388.413,203.034v-79.448H123.586v79.448c-9.75,0-17.655,7.904-17.655,17.655v17.655  c0,9.75,7.905,17.655,17.655,17.655c0.487,0,0.943-0.105,1.42-0.143c5.282,29.652,25.44,55.026,54.07,66.477l44.138,17.655  c21.046,8.418,44.524,8.418,65.57,0l44.138-17.655c28.631-11.452,48.789-36.825,54.07-66.477c0.477,0.039,0.934,0.143,1.42,0.143  c9.75,0,17.655-7.905,17.655-17.655V220.69C406.069,210.938,398.163,203.034,388.413,203.034z"/>
<path style="fill:#FAD7A5;" d="M123.586,123.586v79.448c-9.75,0-17.655,7.904-17.655,17.655v17.655  c0,9.75,7.905,17.655,17.655,17.655c0.487,0,0.943-0.105,1.42-0.143c5.282,29.652,25.44,55.026,54.07,66.477l44.138,17.655  c9.963,3.986,20.472,6.018,31.009,6.23c-29.95-13.291-52.14-34.766-66.545-52.321c-12.942-15.775-19.955-35.525-19.955-55.93  v-29.705c0-8.936,6.677-16.462,15.549-17.529l74.382-8.94l4.966,20.966c0,0,67.862-11.034,98.483-23.724l18.483-37.793v-17.655  H123.586z"/>
<path style="fill:#D7AF7D;" d="M256,300.138c-15.694,0-30.375-3.862-40.276-10.599c-4.03-2.741-5.078-8.233-2.332-12.263  c2.737-4.025,8.233-5.074,12.263-2.332c6.94,4.719,18.284,7.539,30.345,7.539c12.061,0,23.405-2.819,30.345-7.539  c4.039-2.745,9.522-1.703,12.263,2.332c2.745,4.03,1.698,9.522-2.332,12.263C286.374,296.276,271.694,300.138,256,300.138z"/>
<g>
	<path style="fill:#5A4137;" d="M189.793,238.345L189.793,238.345c-7.313,0-13.241-5.929-13.241-13.241v-8.828   c0-7.313,5.929-13.241,13.241-13.241l0,0c7.313,0,13.241,5.929,13.241,13.241v8.828   C203.034,232.416,197.105,238.345,189.793,238.345z"/>
	<path style="fill:#5A4137;" d="M322.207,238.345L322.207,238.345c-7.313,0-13.241-5.929-13.241-13.241v-8.828   c0-7.313,5.929-13.241,13.241-13.241l0,0c7.313,0,13.241,5.929,13.241,13.241v8.828   C335.448,232.416,329.519,238.345,322.207,238.345z"/>
</g>
<path style="fill:#FF9842;" d="M123.586,203.034c0-8.828,0-35.31,26.483-70.621l8.828,44.138l88.276-8.828l17.655-26.483  l8.828,44.138c0,0,72.276-13.241,79.448-17.655l17.655-26.483c0,0,17.655,26.483,17.655,61.793h17.655l1.628-62.521  c0.389-14.944-11.661-27.249-26.61-27.171l-248.809,1.281c-14.573,0.075-26.347,11.91-26.347,26.483v61.929H123.586z"/>
<g>
	<path style="fill:#FF6472;" d="M358.177,94.489l-66.325,2.802c-4.884,0.206-7.969-5.249-6.15-10.874L300.131,41.8   c1.82-5.626,7.513-8.243,11.352-5.215l52.126,41.107L358.177,94.489z"/>
	<path style="fill:#FF6472;" d="M371.772,98.886l52.126,41.107c3.839,3.027,9.533,0.412,11.352-5.215l14.429-44.617   c1.82-5.626-1.265-11.081-6.15-10.874l-66.325,2.802L371.772,98.886z"/>
</g>
<path style="fill:#C95264;" d="M416.728,108.786L315.936,76.192c-2.322-0.75-3.592-3.236-2.841-5.558s3.236-3.592,5.558-2.841  l100.792,32.594c2.322,0.75,3.592,3.236,2.841,5.558C421.536,108.265,419.05,109.536,416.728,108.786z"/>
<path style="fill:#A5465A;" d="M370.658,107.804l-16.799-5.432c-4.639-1.5-7.183-6.476-5.683-11.115l5.432-16.799  c1.5-4.639,6.477-7.183,11.115-5.683l16.799,5.432c4.639,1.5,7.183,6.476,5.683,11.115l-5.432,16.799  C380.273,106.759,375.297,109.303,370.658,107.804z"/>
<path style="fill:#D25566;" d="M125.831,395.339c-1.409,0.403-2.722,0.994-4.085,1.491l0.119,0.362  c19.094,58.11,72.999,97.153,134.134,97.153s115.04-39.043,134.135-97.153l0.119-0.362c-1.363-0.495-2.677-1.088-4.086-1.491  l-12.807-3.659C357.147,441.025,310.77,476.69,256,476.69s-101.148-35.665-117.362-85.01L125.831,395.339z"/>
<path style="fill:#E6873C;" d="M221.732,114.162l-89.455,0.46c-14.572,0.076-26.346,11.911-26.346,26.483v61.93h17.655  c0-8.828,0-35.31,26.483-70.621l8.828,44.138l53.394-5.34C213.166,161.567,215.649,139.73,221.732,114.162z"/>
<g>
</g>
<g>
</g>
<g>
</g>
<g>
</g>
<g>
</g>
<g>
</g>
<g>
</g>
<g>
</g>
<g>
</g>
<g>
</g>
<g>
</g>
<g>
</g>
<g>
</g>
<g>
</g>
<g>
</g>
</svg>
    <text x="121.0" y="125.0" style="font-size: 15px;" dominant_baseline="middle" text_anchor="middle">Lily</text>
  </g>
  <svg width="30" height="30" viewBox="0 0 1024 1024" class="icon" version="1.1" x="70.0" y="170.0">
    <path d="M746.666667 234.666667c21.333333 0 149.333333-21.333333 149.333333 170.666666S618.666667 938.666667 234.666667 938.666667c-42.666667 0-85.333333-21.333333-85.333334-21.333334l-21.333333-64s21.333333-85.333333 149.333333-149.333333 218.944-117.632 273.344-172.010667C593.344 489.344 661.333333 405.333333 661.333333 341.333333c0-41.770667 42.666667-85.333333 42.666667-85.333333" fill="#FFE082"/>
    <path d="M170.666667 874.666667s149.333333-42.666667 277.333333-106.666667 405.333333-256 320-533.333333c0 0 128-21.333333 128 170.666666S618.666667 938.666667 234.666667 938.666667c-42.666667 0-85.333333-21.333333-85.333334-21.333334l21.333334-42.666666z" fill="#FFCA28"/>
    <path d="M876.010667 297.344C836.010667 211.562667 746.666667 256 746.666667 85.333333c-64 0-106.666667 42.666667-106.666667 42.666667s64 64 64 128c42.666667 0 77.056-3.349333 80.874667 101.333333 28.842667-122.218667 91.136-59.989333 91.136-59.989333z" fill="#C0CA33"/>
    <path d="M661.333333 341.333333s-1.344-38.677333 42.666667-85.333333 85.994667-8.661333 85.994667-8.661333l-5.12 109.994666s-18.666667-69.333333-48-71.104C675.008 282.496 661.333333 341.333333 661.333333 341.333333z" fill="#C0CA33"/>
    <path d="M128 874.666667l21.333333 42.666666h21.333334v-42.666666l-42.666667-21.333334z" fill="#5D4037"/>
    <path d="M746.666667 85.333333c-64 0-106.666667 42.666667-106.666667 42.666667h64l42.666667-42.666667z" fill="#827717"/>
  </svg>
  <svg width="30" height="30" viewBox="0 0 1024 1024" class="icon" version="1.1" x="110.0" y="170.0">
    <path d="M746.666667 234.666667c21.333333 0 149.333333-21.333333 149.333333 170.666666S618.666667 938.666667 234.666667 938.666667c-42.666667 0-85.333333-21.333333-85.333334-21.333334l-21.333333-64s21.333333-85.333333 149.333333-149.333333 218.944-117.632 273.344-172.010667C593.344 489.344 661.333333 405.333333 661.333333 341.333333c0-41.770667 42.666667-85.333333 42.666667-85.333333" fill="#FFE082"/>
    <path d="M170.666667 874.666667s149.333333-42.666667 277.333333-106.666667 405.333333-256 320-533.333333c0 0 128-21.333333 128 170.666666S618.666667 938.666667 234.666667 938.666667c-42.666667 0-85.333333-21.333333-85.333334-21.333334l21.333334-42.666666z" fill="#FFCA28"/>
    <path d="M876.010667 297.344C836.010667 211.562667 746.666667 256 746.666667 85.333333c-64 0-106.666667 42.666667-106.666667 42.666667s64 64 64 128c42.666667 0 77.056-3.349333 80.874667 101.333333 28.842667-122.218667 91.136-59.989333 91.136-59.989333z" fill="#C0CA33"/>
    <path d="M661.333333 341.333333s-1.344-38.677333 42.666667-85.333333 85.994667-8.661333 85.994667-8.661333l-5.12 109.994666s-18.666667-69.333333-48-71.104C675.008 282.496 661.333333 341.333333 661.333333 341.333333z" fill="#C0CA33"/>
    <path d="M128 874.666667l21.333333 42.666666h21.333334v-42.666666l-42.666667-21.333334z" fill="#5D4037"/>
    <path d="M746.666667 85.333333c-64 0-106.666667 42.666667-106.666667 42.666667h64l42.666667-42.666667z" fill="#827717"/>
  </svg>
  <svg width="30" height="30" viewBox="0 0 1024 1024" class="icon" version="1.1" x="70.0" y="210.0">
    <path d="M746.666667 234.666667c21.333333 0 149.333333-21.333333 149.333333 170.666666S618.666667 938.666667 234.666667 938.666667c-42.666667 0-85.333333-21.333333-85.333334-21.333334l-21.333333-64s21.333333-85.333333 149.333333-149.333333 218.944-117.632 273.344-172.010667C593.344 489.344 661.333333 405.333333 661.333333 341.333333c0-41.770667 42.666667-85.333333 42.666667-85.333333" fill="#FFE082"/>
    <path d="M170.666667 874.666667s149.333333-42.666667 277.333333-106.666667 405.333333-256 320-533.333333c0 0 128-21.333333 128 170.666666S618.666667 938.666667 234.666667 938.666667c-42.666667 0-85.333333-21.333333-85.333334-21.333334l21.333334-42.666666z" fill="#FFCA28"/>
    <path d="M876.010667 297.344C836.010667 211.562667 746.666667 256 746.666667 85.333333c-64 0-106.666667 42.666667-106.666667 42.666667s64 64 64 128c42.666667 0 77.056-3.349333 80.874667 101.333333 28.842667-122.218667 91.136-59.989333 91.136-59.989333z" fill="#C0CA33"/>
    <path d="M661.333333 341.333333s-1.344-38.677333 42.666667-85.333333 85.994667-8.661333 85.994667-8.661333l-5.12 109.994666s-18.666667-69.333333-48-71.104C675.008 282.496 661.333333 341.333333 661.333333 341.333333z" fill="#C0CA33"/>
    <path d="M128 874.666667l21.333333 42.666666h21.333334v-42.666666l-42.666667-21.333334z" fill="#5D4037"/>
    <path d="M746.666667 85.333333c-64 0-106.666667 42.666667-106.666667 42.666667h64l42.666667-42.666667z" fill="#827717"/>
  </svg>
  <circle cx="170" cy="270.0" r="30" fill="#BBA7F4"/>
  <text x="164" y="276.0" style="font-size: 30px;" text_anchor="middle" fill="red" dominant_baseline="central">?</text>
  <rect x="330" y="150" width="160" height="160.0" stroke="black" fill="none"/>
  <g>
    <svg xmlns:xlink="http://www.w3.org/1999/xlink" version="1.1" id="Layer_1" x="374.5" y="105" viewBox="0 0 512 512" style="enable-background:new 0 0 512 512;" xml:space="preserve" width="40" height="40">
<path style="fill:#00BEA5;" d="M300.051,326.987v30.759c0,7.867,5.216,14.781,12.779,16.942l73.081,20.88  c22.892,6.54,39.975,25.675,43.89,49.159l7.793,46.754c1.79,10.741-6.492,20.517-17.38,20.517H91.787  c-10.888,0-19.171-9.777-17.38-20.517l7.793-46.754c3.914-23.485,20.997-42.619,43.89-49.159l73.081-20.88  c7.565-2.162,12.779-9.076,12.779-16.942v-30.759H300.051z"/>
<path style="fill:#B48764;" d="M256.001,441.519c37.232,0,68.291-26.398,75.503-61.495l-18.673-5.335  c-7.565-2.161-12.779-9.076-12.779-16.942v-30.759H211.95v30.759c0,7.867-5.216,14.781-12.779,16.942l-18.673,5.335  C187.709,415.122,218.769,441.519,256.001,441.519z"/>
<path style="fill:#966D50;" d="M300.051,335.798l-24.228-8.81H211.95v30.759c0,7.867-5.216,14.781-12.779,16.942l-18.673,5.335  v0.001C254.767,415.443,300.051,335.798,300.051,335.798z"/>
<path style="fill:#553732;" d="M379.343,36.253c2.203-15.418,18.722-7.342,18.722-7.342c-11.013-57.266-125.911-8.076-125.911-8.076  l10.646-11.013c-53.503-30.147-120.405,18.722-120.405,18.722c-20.924-6.608-73.785,13.95-73.785,64.24  c0,51.393,26.43,128.482,26.43,128.482h290.734c0,0,8.81-96.912,8.81-132.152S379.343,36.253,379.343,36.253z"/>
<path style="fill:#64463C;" d="M398.064,28.911c-36.342-45.519-104.07,10.646-104.07,10.646  c35.241,2.753,31.386,44.601,31.386,44.601c-7.709-12.665-19.272-10.462-19.272-10.462c-1.652,40.196-28.633,79.291-43.133,86.266  l0.735,61.304h142.063c0,0,8.81-96.912,8.81-132.152s-35.241-52.861-35.241-52.861C381.545,20.835,398.064,28.911,398.064,28.911z"/>
<path style="fill:#C39772;" d="M388.153,203.646v-79.291H123.849v79.291c-9.731,0-17.62,7.888-17.62,17.62v17.62  c0,9.731,7.889,17.62,17.62,17.62c0.486,0,0.942-0.105,1.417-0.143c5.272,29.593,25.39,54.917,53.963,66.346l44.051,17.62  c21.004,8.402,44.436,8.402,65.441,0l44.051-17.62c28.575-11.429,48.693-36.753,53.963-66.346c0.476,0.039,0.932,0.143,1.417,0.143  c9.731,0,17.62-7.889,17.62-17.62v-17.62C405.773,211.534,397.884,203.646,388.153,203.646z"/>
<path style="fill:#B48764;" d="M352.912,124.354H123.849v79.291c-9.731,0-17.62,7.888-17.62,17.62v17.62  c0,9.731,7.889,17.62,17.62,17.62c0.486,0,0.942-0.105,1.417-0.143c5.272,29.593,25.39,54.917,53.963,66.346l44.051,17.62  c9.943,3.978,20.432,6.006,30.948,6.218c-29.898-13.268-52.048-34.709-66.423-52.23c-12.912-15.74-19.907-35.449-19.907-55.808  v-64.659c0-9.137,6.981-16.876,16.094-17.533c14.479-1.044,27.869-5.533,36.767-5.533c26.43,0,61.671-8.81,114.532,8.81  c34.461,11.487,44.051-8.81,44.051-8.81L352.912,124.354z"/>
<path style="fill:#553732;" d="M132.659,203.646c0,0,0-44.051,26.43-70.481c0,0,17.115,6.46,52.861,0c22.851-4.13,27.165,0,27.165,0  s-1.836,18.171-27.165,26.43c0,0,26.43,17.62,52.861-8.81l-1.836,9.177c0,0,27.898,5.506,52.861-23.861  c0,0,9.545-0.735,19.456,5.873c17.292,11.528,35.241,4.894,35.241,4.894s17.62,21.536,17.62,56.777h17.62v-96.912H115.038v96.912  h17.62V203.646z"/>
<path style="fill:#966D50;" d="M256.001,300.557c-15.663,0-30.315-3.854-40.196-10.578c-4.022-2.736-5.068-8.217-2.327-12.238  c2.731-4.017,8.217-5.064,12.238-2.327c6.926,4.71,18.248,7.524,30.285,7.524c12.037,0,23.359-2.814,30.285-7.524  c4.031-2.74,9.503-1.699,12.238,2.327c2.74,4.022,1.695,9.503-2.327,12.238C286.315,296.703,271.663,300.557,256.001,300.557z"/>
<path style="fill:#64463C;" d="M315.836,136.102c0,0,9.545-0.735,19.456,5.874c17.292,11.528,35.241,4.894,35.241,4.894  s17.62,21.536,17.62,56.777h17.62v-96.912H299.467c-9.286,26.635-26.082,48.221-36.49,53.228  C262.975,159.962,290.873,165.468,315.836,136.102z"/>
<g>
	<path style="fill:#5A4137;" d="M189.925,238.886L189.925,238.886c-7.298,0-13.215-5.917-13.215-13.215v-8.81   c0-7.298,5.917-13.215,13.215-13.215l0,0c7.298,0,13.215,5.917,13.215,13.215v8.81C203.14,232.97,197.223,238.886,189.925,238.886z   "/>
	<path style="fill:#5A4137;" d="M322.077,238.886L322.077,238.886c-7.298,0-13.215-5.917-13.215-13.215v-8.81   c0-7.298,5.917-13.215,13.215-13.215l0,0c7.298,0,13.215,5.917,13.215,13.215v8.81C335.292,232.97,329.375,238.886,322.077,238.886   z"/>
</g>
<g>
	<path style="fill:#00AA9A;" d="M256.001,459.14c44.307,0,82.936-31.168,92.435-74.277l-16.922-4.835l-0.01-0.002   c-7.212,35.095-38.271,61.494-75.503,61.494s-68.291-26.398-75.503-61.494l-0.01,0.002l-16.922,4.835   C173.064,427.971,211.692,459.14,256.001,459.14z"/>
	<path style="fill:#00AA9A;" d="M101.032,409.893c-9.734,9.093-16.558,21.181-18.833,34.836l-7.793,46.754   C72.617,502.223,80.898,512,91.786,512h49.681v-30.222c0-9.003-2.759-17.789-7.904-25.176L101.032,409.893z"/>
	<path style="fill:#00AA9A;" d="M410.969,409.893c9.734,9.093,16.558,21.181,18.833,34.836l7.793,46.754   c1.79,10.74-6.492,20.517-17.38,20.517h-49.681v-30.222c0-9.003,2.759-17.789,7.904-25.176L410.969,409.893z"/>
</g>
<g>
</g>
<g>
</g>
<g>
</g>
<g>
</g>
<g>
</g>
<g>
</g>
<g>
</g>
<g>
</g>
<g>
</g>
<g>
</g>
<g>
</g>
<g>
</g>
<g>
</g>
<g>
</g>
<g>
</g>
</svg>
    <text x="424.5" y="125.0" style="font-size: 15px;" dominant_baseline="middle" text_anchor="middle">Bob</text>
  </g>
  <svg width="30" height="30" viewBox="0 0 1024 1024" class="icon" version="1.1" x="350.0" y="170.0">
    <path d="M746.666667 234.666667c21.333333 0 149.333333-21.333333 149.333333 170.666666S618.666667 938.666667 234.666667 938.666667c-42.666667 0-85.333333-21.333333-85.333334-21.333334l-21.333333-64s21.333333-85.333333 149.333333-149.333333 218.944-117.632 273.344-172.010667C593.344 489.344 661.333333 405.333333 661.333333 341.333333c0-41.770667 42.666667-85.333333 42.666667-85.333333" fill="#FFE082"/>
    <path d="M170.666667 874.666667s149.333333-42.666667 277.333333-106.666667 405.333333-256 320-533.333333c0 0 128-21.333333 128 170.666666S618.666667 938.666667 234.666667 938.666667c-42.666667 0-85.333333-21.333333-85.333334-21.333334l21.333334-42.666666z" fill="#FFCA28"/>
    <path d="M876.010667 297.344C836.010667 211.562667 746.666667 256 746.666667 85.333333c-64 0-106.666667 42.666667-106.666667 42.666667s64 64 64 128c42.666667 0 77.056-3.349333 80.874667 101.333333 28.842667-122.218667 91.136-59.989333 91.136-59.989333z" fill="#C0CA33"/>
    <path d="M661.333333 341.333333s-1.344-38.677333 42.666667-85.333333 85.994667-8.661333 85.994667-8.661333l-5.12 109.994666s-18.666667-69.333333-48-71.104C675.008 282.496 661.333333 341.333333 661.333333 341.333333z" fill="#C0CA33"/>
    <path d="M128 874.666667l21.333333 42.666666h21.333334v-42.666666l-42.666667-21.333334z" fill="#5D4037"/>
    <path d="M746.666667 85.333333c-64 0-106.666667 42.666667-106.666667 42.666667h64l42.666667-42.666667z" fill="#827717"/>
  </svg>
  <svg width="30" height="30" viewBox="0 0 1024 1024" class="icon" version="1.1" x="390.0" y="170.0">
    <path d="M746.666667 234.666667c21.333333 0 149.333333-21.333333 149.333333 170.666666S618.666667 938.666667 234.666667 938.666667c-42.666667 0-85.333333-21.333333-85.333334-21.333334l-21.333333-64s21.333333-85.333333 149.333333-149.333333 218.944-117.632 273.344-172.010667C593.344 489.344 661.333333 405.333333 661.333333 341.333333c0-41.770667 42.666667-85.333333 42.666667-85.333333" fill="#FFE082"/>
    <path d="M170.666667 874.666667s149.333333-42.666667 277.333333-106.666667 405.333333-256 320-533.333333c0 0 128-21.333333 128 170.666666S618.666667 938.666667 234.666667 938.666667c-42.666667 0-85.333333-21.333333-85.333334-21.333334l21.333334-42.666666z" fill="#FFCA28"/>
    <path d="M876.010667 297.344C836.010667 211.562667 746.666667 256 746.666667 85.333333c-64 0-106.666667 42.666667-106.666667 42.666667s64 64 64 128c42.666667 0 77.056-3.349333 80.874667 101.333333 28.842667-122.218667 91.136-59.989333 91.136-59.989333z" fill="#C0CA33"/>
    <path d="M661.333333 341.333333s-1.344-38.677333 42.666667-85.333333 85.994667-8.661333 85.994667-8.661333l-5.12 109.994666s-18.666667-69.333333-48-71.104C675.008 282.496 661.333333 341.333333 661.333333 341.333333z" fill="#C0CA33"/>
    <path d="M128 874.666667l21.333333 42.666666h21.333334v-42.666666l-42.666667-21.333334z" fill="#5D4037"/>
    <path d="M746.666667 85.333333c-64 0-106.666667 42.666667-106.666667 42.666667h64l42.666667-42.666667z" fill="#827717"/>
  </svg>
  <svg width="30" height="30" viewBox="0 0 1024 1024" class="icon" version="1.1" x="430.0" y="170.0">
    <path d="M746.666667 234.666667c21.333333 0 149.333333-21.333333 149.333333 170.666666S618.666667 938.666667 234.666667 938.666667c-42.666667 0-85.333333-21.333333-85.333334-21.333334l-21.333333-64s21.333333-85.333333 149.333333-149.333333 218.944-117.632 273.344-172.010667C593.344 489.344 661.333333 405.333333 661.333333 341.333333c0-41.770667 42.666667-85.333333 42.666667-85.333333" fill="#FFE082"/>
    <path d="M170.666667 874.666667s149.333333-42.666667 277.333333-106.666667 405.333333-256 320-533.333333c0 0 128-21.333333 128 170.666666S618.666667 938.666667 234.666667 938.666667c-42.666667 0-85.333333-21.333333-85.333334-21.333334l21.333334-42.666666z" fill="#FFCA28"/>
    <path d="M876.010667 297.344C836.010667 211.562667 746.666667 256 746.666667 85.333333c-64 0-106.666667 42.666667-106.666667 42.666667s64 64 64 128c42.666667 0 77.056-3.349333 80.874667 101.333333 28.842667-122.218667 91.136-59.989333 91.136-59.989333z" fill="#C0CA33"/>
    <path d="M661.333333 341.333333s-1.344-38.677333 42.666667-85.333333 85.994667-8.661333 85.994667-8.661333l-5.12 109.994666s-18.666667-69.333333-48-71.104C675.008 282.496 661.333333 341.333333 661.333333 341.333333z" fill="#C0CA33"/>
    <path d="M128 874.666667l21.333333 42.666666h21.333334v-42.666666l-42.666667-21.333334z" fill="#5D4037"/>
    <path d="M746.666667 85.333333c-64 0-106.666667 42.666667-106.666667 42.666667h64l42.666667-42.666667z" fill="#827717"/>
  </svg>
  <svg width="30" height="30" viewBox="0 0 1024 1024" class="icon" version="1.1" x="350.0" y="210.0">
    <path d="M746.666667 234.666667c21.333333 0 149.333333-21.333333 149.333333 170.666666S618.666667 938.666667 234.666667 938.666667c-42.666667 0-85.333333-21.333333-85.333334-21.333334l-21.333333-64s21.333333-85.333333 149.333333-149.333333 218.944-117.632 273.344-172.010667C593.344 489.344 661.333333 405.333333 661.333333 341.333333c0-41.770667 42.666667-85.333333 42.666667-85.333333" fill="#FFE082"/>
    <path d="M170.666667 874.666667s149.333333-42.666667 277.333333-106.666667 405.333333-256 320-533.333333c0 0 128-21.333333 128 170.666666S618.666667 938.666667 234.666667 938.666667c-42.666667 0-85.333333-21.333333-85.333334-21.333334l21.333334-42.666666z" fill="#FFCA28"/>
    <path d="M876.010667 297.344C836.010667 211.562667 746.666667 256 746.666667 85.333333c-64 0-106.666667 42.666667-106.666667 42.666667s64 64 64 128c42.666667 0 77.056-3.349333 80.874667 101.333333 28.842667-122.218667 91.136-59.989333 91.136-59.989333z" fill="#C0CA33"/>
    <path d="M661.333333 341.333333s-1.344-38.677333 42.666667-85.333333 85.994667-8.661333 85.994667-8.661333l-5.12 109.994666s-18.666667-69.333333-48-71.104C675.008 282.496 661.333333 341.333333 661.333333 341.333333z" fill="#C0CA33"/>
    <path d="M128 874.666667l21.333333 42.666666h21.333334v-42.666666l-42.666667-21.333334z" fill="#5D4037"/>
    <path d="M746.666667 85.333333c-64 0-106.666667 42.666667-106.666667 42.666667h64l42.666667-42.666667z" fill="#827717"/>
  </svg>
  <svg width="30" height="30" viewBox="0 0 1024 1024" class="icon" version="1.1" x="390.0" y="210.0">
    <path d="M746.666667 234.666667c21.333333 0 149.333333-21.333333 149.333333 170.666666S618.666667 938.666667 234.666667 938.666667c-42.666667 0-85.333333-21.333333-85.333334-21.333334l-21.333333-64s21.333333-85.333333 149.333333-149.333333 218.944-117.632 273.344-172.010667C593.344 489.344 661.333333 405.333333 661.333333 341.333333c0-41.770667 42.666667-85.333333 42.666667-85.333333" fill="#FFE082"/>
    <path d="M170.666667 874.666667s149.333333-42.666667 277.333333-106.666667 405.333333-256 320-533.333333c0 0 128-21.333333 128 170.666666S618.666667 938.666667 234.666667 938.666667c-42.666667 0-85.333333-21.333333-85.333334-21.333334l21.333334-42.666666z" fill="#FFCA28"/>
    <path d="M876.010667 297.344C836.010667 211.562667 746.666667 256 746.666667 85.333333c-64 0-106.666667 42.666667-106.666667 42.666667s64 64 64 128c42.666667 0 77.056-3.349333 80.874667 101.333333 28.842667-122.218667 91.136-59.989333 91.136-59.989333z" fill="#C0CA33"/>
    <path d="M661.333333 341.333333s-1.344-38.677333 42.666667-85.333333 85.994667-8.661333 85.994667-8.661333l-5.12 109.994666s-18.666667-69.333333-48-71.104C675.008 282.496 661.333333 341.333333 661.333333 341.333333z" fill="#C0CA33"/>
    <path d="M128 874.666667l21.333333 42.666666h21.333334v-42.666666l-42.666667-21.333334z" fill="#5D4037"/>
    <path d="M746.666667 85.333333c-64 0-106.666667 42.666667-106.666667 42.666667h64l42.666667-42.666667z" fill="#827717"/>
  </svg>
  <svg width="30" height="30" viewBox="0 0 1024 1024" class="icon" version="1.1" x="430.0" y="210.0">
    <path d="M746.666667 234.666667c21.333333 0 149.333333-21.333333 149.333333 170.666666S618.666667 938.666667 234.666667 938.666667c-42.666667 0-85.333333-21.333333-85.333334-21.333334l-21.333333-64s21.333333-85.333333 149.333333-149.333333 218.944-117.632 273.344-172.010667C593.344 489.344 661.333333 405.333333 661.333333 341.333333c0-41.770667 42.666667-85.333333 42.666667-85.333333" fill="#FFE082"/>
    <path d="M170.666667 874.666667s149.333333-42.666667 277.333333-106.666667 405.333333-256 320-533.333333c0 0 128-21.333333 128 170.666666S618.666667 938.666667 234.666667 938.666667c-42.666667 0-85.333333-21.333333-85.333334-21.333334l21.333334-42.666666z" fill="#FFCA28"/>
    <path d="M876.010667 297.344C836.010667 211.562667 746.666667 256 746.666667 85.333333c-64 0-106.666667 42.666667-106.666667 42.666667s64 64 64 128c42.666667 0 77.056-3.349333 80.874667 101.333333 28.842667-122.218667 91.136-59.989333 91.136-59.989333z" fill="#C0CA33"/>
    <path d="M661.333333 341.333333s-1.344-38.677333 42.666667-85.333333 85.994667-8.661333 85.994667-8.661333l-5.12 109.994666s-18.666667-69.333333-48-71.104C675.008 282.496 661.333333 341.333333 661.333333 341.333333z" fill="#C0CA33"/>
    <path d="M128 874.666667l21.333333 42.666666h21.333334v-42.666666l-42.666667-21.333334z" fill="#5D4037"/>
    <path d="M746.666667 85.333333c-64 0-106.666667 42.666667-106.666667 42.666667h64l42.666667-42.666667z" fill="#827717"/>
  </svg>
  <svg width="30" height="30" viewBox="0 0 1024 1024" class="icon" version="1.1" x="350.0" y="250.0">
    <path d="M746.666667 234.666667c21.333333 0 149.333333-21.333333 149.333333 170.666666S618.666667 938.666667 234.666667 938.666667c-42.666667 0-85.333333-21.333333-85.333334-21.333334l-21.333333-64s21.333333-85.333333 149.333333-149.333333 218.944-117.632 273.344-172.010667C593.344 489.344 661.333333 405.333333 661.333333 341.333333c0-41.770667 42.666667-85.333333 42.666667-85.333333" fill="#FFE082"/>
    <path d="M170.666667 874.666667s149.333333-42.666667 277.333333-106.666667 405.333333-256 320-533.333333c0 0 128-21.333333 128 170.666666S618.666667 938.666667 234.666667 938.666667c-42.666667 0-85.333333-21.333333-85.333334-21.333334l21.333334-42.666666z" fill="#FFCA28"/>
    <path d="M876.010667 297.344C836.010667 211.562667 746.666667 256 746.666667 85.333333c-64 0-106.666667 42.666667-106.666667 42.666667s64 64 64 128c42.666667 0 77.056-3.349333 80.874667 101.333333 28.842667-122.218667 91.136-59.989333 91.136-59.989333z" fill="#C0CA33"/>
    <path d="M661.333333 341.333333s-1.344-38.677333 42.666667-85.333333 85.994667-8.661333 85.994667-8.661333l-5.12 109.994666s-18.666667-69.333333-48-71.104C675.008 282.496 661.333333 341.333333 661.333333 341.333333z" fill="#C0CA33"/>
    <path d="M128 874.666667l21.333333 42.666666h21.333334v-42.666666l-42.666667-21.333334z" fill="#5D4037"/>
    <path d="M746.666667 85.333333c-64 0-106.666667 42.666667-106.666667 42.666667h64l42.666667-42.666667z" fill="#827717"/>
  </svg>
  <svg width="30" height="30" viewBox="0 0 1024 1024" class="icon" version="1.1" x="390.0" y="250.0">
    <path d="M746.666667 234.666667c21.333333 0 149.333333-21.333333 149.333333 170.666666S618.666667 938.666667 234.666667 938.666667c-42.666667 0-85.333333-21.333333-85.333334-21.333334l-21.333333-64s21.333333-85.333333 149.333333-149.333333 218.944-117.632 273.344-172.010667C593.344 489.344 661.333333 405.333333 661.333333 341.333333c0-41.770667 42.666667-85.333333 42.666667-85.333333" fill="#FFE082"/>
    <path d="M170.666667 874.666667s149.333333-42.666667 277.333333-106.666667 405.333333-256 320-533.333333c0 0 128-21.333333 128 170.666666S618.666667 938.666667 234.666667 938.666667c-42.666667 0-85.333333-21.333333-85.333334-21.333334l21.333334-42.666666z" fill="#FFCA28"/>
    <path d="M876.010667 297.344C836.010667 211.562667 746.666667 256 746.666667 85.333333c-64 0-106.666667 42.666667-106.666667 42.666667s64 64 64 128c42.666667 0 77.056-3.349333 80.874667 101.333333 28.842667-122.218667 91.136-59.989333 91.136-59.989333z" fill="#C0CA33"/>
    <path d="M661.333333 341.333333s-1.344-38.677333 42.666667-85.333333 85.994667-8.661333 85.994667-8.661333l-5.12 109.994666s-18.666667-69.333333-48-71.104C675.008 282.496 661.333333 341.333333 661.333333 341.333333z" fill="#C0CA33"/>
    <path d="M128 874.666667l21.333333 42.666666h21.333334v-42.666666l-42.666667-21.333334z" fill="#5D4037"/>
    <path d="M746.666667 85.333333c-64 0-106.666667 42.666667-106.666667 42.666667h64l42.666667-42.666667z" fill="#827717"/>
  </svg>
  <circle cx="490" cy="310.0" r="30" fill="#BBA7F4"/>
  <text x="484" y="316.0" style="font-size: 30px;" text_anchor="middle" fill="red" dominant_baseline="central">?</text>
  <g id="balance-scale">
    <path d="M 50 385 L 220 385 Q 135.0 475 50 385 Z" fill="#f58d42" stroke="#f58d42" stroke-width="2"/>
    <path d="M 330 385 L 540 385 Q 435.0 475 330 385 Z" fill="#f58d42" stroke="#f58d42" stroke-width="2"/>
    <rect x="135.0" y="460" width="300.0" height="20" fill="#f58d42"/>
    <rect x="135.0" y="425" width="10" height="35" fill="#f58d42"/>
    <rect x="435.0" y="425" width="10" height="55" fill="#f58d42"/>
    <rect x="285.0" y="460" width="20" height="100" fill="#f58d42"/>
    <rect x="275.0" y="560" width="40" height="50" fill="#f58d42"/>
  </g>
</svg>
